<?xml version="1.0" encoding="UTF-8" standalone="no"?>
<!-- Created with Inkscape (http://www.inkscape.org/) -->

<svg
   xmlns:dc="http://purl.org/dc/elements/1.1/"
   xmlns:cc="http://creativecommons.org/ns#"
   xmlns:rdf="http://www.w3.org/1999/02/22-rdf-syntax-ns#"
   xmlns:svg="http://www.w3.org/2000/svg"
   xmlns="http://www.w3.org/2000/svg"
   xmlns:sodipodi="http://sodipodi.sourceforge.net/DTD/sodipodi-0.dtd"
   xmlns:inkscape="http://www.inkscape.org/namespaces/inkscape"
   width="3188.9763"
   height="2125.9841"
   id="svg2"
   version="1.1"
   inkscape:version="0.48.4 r9939"
   sodipodi:docname="accessory-platters-1.svg">
  <sodipodi:namedview
     id="base"
     pagecolor="#ffffff"
     bordercolor="#666666"
     borderopacity="1.0"
     inkscape:pageopacity="0.0"
     inkscape:pageshadow="2"
     inkscape:zoom="0.51872485"
     inkscape:cx="1597.2724"
     inkscape:cy="1521.3997"
     inkscape:document-units="mm"
     inkscape:current-layer="layer10"
     showgrid="true"
     inkscape:snap-object-midpoints="false"
     inkscape:snap-bbox="true"
     inkscape:object-paths="false"
     inkscape:snap-nodes="true"
     inkscape:object-nodes="false"
     inkscape:snap-global="true"
     inkscape:snap-grids="true"
     inkscape:window-width="1920"
     inkscape:window-height="1030"
     inkscape:window-x="0"
     inkscape:window-y="0"
     inkscape:window-maximized="1"
     inkscape:snap-smooth-nodes="false"
     units="mm">
    <inkscape:grid
       empopacity="0.25098039"
       empcolor="#ff9500"
       spacingy="1mm"
       spacingx="1mm"
       units="mm"
       snapvisiblegridlinesonly="true"
       enabled="true"
       visible="true"
       empspacing="10"
       id="grid2985"
       type="xygrid" />
  </sodipodi:namedview>
  <defs
     id="defs4" />
  <metadata
     id="metadata7">
    <rdf:RDF>
      <cc:Work
         rdf:about="">
        <dc:format>image/svg+xml</dc:format>
        <dc:type
           rdf:resource="http://purl.org/dc/dcmitype/StillImage" />
        <dc:title></dc:title>
      </cc:Work>
    </rdf:RDF>
  </metadata>
  <g
     style="display:inline"
     inkscape:label="Verticals and Castors"
     id="layer10"
     inkscape:groupmode="layer">
    <path
       inkscape:connector-curvature="0"
       id="path2995"
       d="m 1474.0148,329.50763 c -11.7415,0 -21.25,9.53976 -21.25,21.28125 0,11.74149 9.5085,21.25 21.25,21.25 l 201.9689,0 c 11.7413,0 21.25,-9.50851 21.25,-21.25 0,-11.74149 -9.5087,-21.28125 -21.25,-21.28125 l -201.9689,0 z m 0,10.625 c 5.8707,0 10.625,4.78551 10.625,10.65625 0,5.87074 -4.7543,10.625 -10.625,10.625 -5.8707,0 -10.625,-4.75426 -10.625,-10.625 0,-5.87074 4.7543,-10.65625 10.625,-10.65625 z m 177.1563,0 24.8126,0 c 5.8705,0 10.625,4.78551 10.625,10.65625 0,5.87074 -4.7545,10.625 -10.625,10.625 l -24.8126,0 c -5.8705,0 -10.625,-4.75426 -10.625,-10.625 0,-5.87074 4.7545,-10.65625 10.625,-10.65625 z m -141.7188,5.3125 35.4375,0 0,10.65625 -35.4375,0 0,-10.65625 z m 70.875,0 35.4064,0 0,10.65625 -35.4064,0 0,-10.65625 z"
       style="fill:#008080;fill-opacity:0.5;stroke:none" />
    <path
       inkscape:connector-curvature="0"
       id="path2995-2"
       d="m 1474.0059,379.12217 c -11.7414,0 -21.25,9.53976 -21.25,21.28125 0,11.74149 9.5086,21.25 21.25,21.25 l 201.9689,0 c 11.7414,0 21.25,-9.50851 21.25,-21.25 0,-11.74149 -9.5086,-21.28125 -21.25,-21.28125 l -201.9689,0 z m 0,15.96875 c 2.9354,0 5.3125,2.37713 5.3125,5.3125 0,2.93537 -2.3771,5.3125 -5.3125,5.3125 -2.9353,0 -5.3125,-2.37713 -5.3125,-5.3125 0,-2.93537 2.3772,-5.3125 5.3125,-5.3125 z m 35.4375,0 35.4375,0 0,10.625 -35.4375,0 0,-10.625 z m 70.875,0 35.4064,0 0,10.625 -35.4064,0 0,-10.625 z m 70.8438,0 24.8126,0 c 2.9351,0 5.3124,2.37713 5.3124,5.3125 0,2.93537 -2.3773,5.3125 -5.3124,5.3125 l -24.8126,0 c -2.9351,0 -5.3124,-2.37713 -5.3124,-5.3125 0,-2.93537 2.3773,-5.3125 5.3124,-5.3125 z"
       style="fill:#008080;fill-opacity:0.5;stroke:none;display:inline" />
    <path
       id="path2995-4"
       d="m 1474.0059,428.74004 c -11.7415,0 -21.25,9.53976 -21.25,21.28125 0,11.74149 9.5085,21.25 21.25,21.25 l 201.9688,0 c 11.7413,0 21.25,-9.50851 21.25,-21.25 0,-11.74149 -9.5087,-21.28125 -21.25,-21.28125 l -201.9688,0 z m 0,10.625 c 5.8707,0 10.6249,4.78551 10.6249,10.65625 0,5.87074 -4.7542,10.625 -10.6249,10.625 -5.8708,0 -10.625,-4.75426 -10.625,-10.625 0,-5.87074 4.7542,-10.65625 10.625,-10.65625 z m 177.1562,0 24.8126,0 c 5.8705,0 10.625,4.78551 10.625,10.65625 0,5.87074 -4.7545,10.625 -10.625,10.625 l -24.8126,0 c -5.8705,0 -10.625,-4.75426 -10.625,-10.625 0,-5.87074 4.7545,-10.65625 10.625,-10.65625 z m -141.7188,5.3125 35.4375,0 0,10.65625 -35.4375,0 0,-10.65625 z m 70.8751,0 35.4063,0 0,10.65625 -35.4063,0 0,-10.65625 z"
       style="fill:#008080;fill-opacity:0.5;stroke:none;display:inline"
       inkscape:connector-curvature="0" />
    <path
       inkscape:connector-curvature="0"
       id="path2995-2-1"
       d="m 1474.0059,478.34634 c -11.7414,0 -21.25,9.53976 -21.25,21.28125 0,11.74149 9.5086,21.25 21.25,21.25 l 201.9689,0 c 11.7414,0 21.25,-9.50851 21.25,-21.25 0,-11.74149 -9.5086,-21.28125 -21.25,-21.28125 l -201.9689,0 z m 0,15.96875 c 2.9354,0 5.3125,2.37713 5.3125,5.3125 0,2.93537 -2.3771,5.3125 -5.3125,5.3125 -2.9353,0 -5.3125,-2.37713 -5.3125,-5.3125 0,-2.93537 2.3772,-5.3125 5.3125,-5.3125 z m 35.4375,0 35.4375,0 0,10.625 -35.4375,0 0,-10.625 z m 70.875,0 35.4064,0 0,10.625 -35.4064,0 0,-10.625 z m 70.8438,0 24.8126,0 c 2.9351,0 5.3124,2.37713 5.3124,5.3125 0,2.93537 -2.3773,5.3125 -5.3124,5.3125 l -24.8126,0 c -2.9351,0 -5.3124,-2.37713 -5.3124,-5.3125 0,-2.93537 2.3773,-5.3125 5.3124,-5.3125 z"
       style="fill:#008080;fill-opacity:0.5;stroke:none;display:inline" />
    <path
       inkscape:connector-curvature="0"
       d=""
       style="fill:none;stroke:#000000"
       id="path3084" />
    <path
       id="path2995-4-0"
       d="m 1474.0059,527.95263 c -11.7415,0 -21.25,9.53976 -21.25,21.28125 0,11.74149 9.5085,21.25 21.25,21.25 l 201.9689,0 c 11.7413,0 21.25,-9.50851 21.25,-21.25 0,-11.74149 -9.5087,-21.28125 -21.25,-21.28125 l -201.9689,0 z m 0,10.625 c 5.8707,0 10.625,4.78551 10.625,10.65625 0,5.87074 -4.7543,10.625 -10.625,10.625 -5.8708,0 -10.625,-4.75426 -10.625,-10.625 0,-5.87074 4.7542,-10.65625 10.625,-10.65625 z m 177.1563,0 24.8126,0 c 5.8705,0 10.625,4.78551 10.625,10.65625 0,5.87074 -4.7545,10.625 -10.625,10.625 l -24.8126,0 c -5.8705,0 -10.625,-4.75426 -10.625,-10.625 0,-5.87074 4.7545,-10.65625 10.625,-10.65625 z m -141.7188,5.3125 35.4375,0 0,10.65625 -35.4375,0 0,-10.65625 z m 70.875,0 35.4064,0 0,10.65625 -35.4064,0 0,-10.65625 z"
       style="fill:#008080;fill-opacity:0.5;stroke:none;display:inline"
       inkscape:connector-curvature="0" />
    <path
       inkscape:connector-curvature="0"
       id="path2995-2-1-5"
       d="m 1474.0059,577.55893 c -11.7414,0 -21.25,9.53976 -21.25,21.28125 0,11.74149 9.5086,21.25 21.25,21.25 l 201.9689,0 c 11.7414,0 21.25,-9.50851 21.25,-21.25 0,-11.74149 -9.5086,-21.28125 -21.25,-21.28125 l -201.9689,0 z m 0,15.96875 c 2.9354,0 5.3125,2.37713 5.3125,5.3125 0,2.93537 -2.3771,5.3125 -5.3125,5.3125 -2.9353,0 -5.3125,-2.37713 -5.3125,-5.3125 0,-2.93537 2.3772,-5.3125 5.3125,-5.3125 z m 35.4375,0 35.4375,0 0,10.625 -35.4375,0 0,-10.625 z m 70.875,0 35.4064,0 0,10.625 -35.4064,0 0,-10.625 z m 70.8438,0 24.8126,0 c 2.9351,0 5.3124,2.37713 5.3124,5.3125 0,2.93537 -2.3773,5.3125 -5.3124,5.3125 l -24.8126,0 c -2.9351,0 -5.3124,-2.37713 -5.3124,-5.3125 0,-2.93537 2.3773,-5.3125 5.3124,-5.3125 z"
       style="fill:#008080;fill-opacity:0.5;stroke:none;display:inline" />
  </g>
</svg>
