<?xml version="1.0" encoding="UTF-8" standalone="no"?>
<!-- Created with Inkscape (http://www.inkscape.org/) -->

<svg
   xmlns:dc="http://purl.org/dc/elements/1.1/"
   xmlns:cc="http://creativecommons.org/ns#"
   xmlns:rdf="http://www.w3.org/1999/02/22-rdf-syntax-ns#"
   xmlns:svg="http://www.w3.org/2000/svg"
   xmlns="http://www.w3.org/2000/svg"
   xmlns:sodipodi="http://sodipodi.sourceforge.net/DTD/sodipodi-0.dtd"
   xmlns:inkscape="http://www.inkscape.org/namespaces/inkscape"
   width="662.45306"
   height="709.57208"
   id="svg2"
   version="1.1"
   inkscape:version="0.91pre2 r"
   sodipodi:docname="accessories.svg">
  <sodipodi:namedview
     id="base"
     pagecolor="#ffffff"
     bordercolor="#666666"
     borderopacity="1.0"
     inkscape:pageopacity="0.0"
     inkscape:pageshadow="2"
     inkscape:zoom="0.30490761"
     inkscape:cx="2780.0678"
     inkscape:cy="615.36041"
     inkscape:document-units="mm"
     inkscape:current-layer="layer6"
     showgrid="true"
     inkscape:snap-object-midpoints="true"
     inkscape:snap-bbox="true"
     inkscape:object-paths="false"
     inkscape:snap-nodes="true"
     inkscape:object-nodes="true"
     inkscape:snap-global="true"
     inkscape:snap-grids="true"
     inkscape:window-width="2560"
     inkscape:window-height="1550"
     inkscape:window-x="0"
     inkscape:window-y="0"
     inkscape:window-maximized="1"
     inkscape:snap-smooth-nodes="true"
     units="mm"
     showguides="false"
     inkscape:guide-bbox="true"
     inkscape:bbox-nodes="true"
     inkscape:snap-intersection-paths="true"
     inkscape:snap-others="true"
     fit-margin-top="10"
     fit-margin-left="10"
     fit-margin-right="10"
     fit-margin-bottom="10"
     inkscape:snap-bbox-edge-midpoints="true">
    <inkscape:grid
       originy="12.824142mm"
       originx="194.13671mm"
       empopacity="0.25098039"
       empcolor="#ff9500"
       spacingy="1mm"
       spacingx="1mm"
       units="mm"
       snapvisiblegridlinesonly="true"
       enabled="true"
       visible="true"
       empspacing="10"
       id="grid2985"
       type="xygrid" />
    <inkscape:grid
       originy="12.824142mm"
       originx="194.13671mm"
       type="axonomgrid"
       id="grid4136"
       units="mm"
       empspacing="5"
       enabled="false" />
  </sodipodi:namedview>
  <defs
     id="defs4">
    <marker
       id="DistanceX"
       orient="auto"
       refX="0"
       refY="0"
       style="overflow:visible">
      <path
         d="M 3,-3 -3,3 M 0,-5 0,5"
         style="stroke:#000000;stroke-width:0.5"
         id="path6524"
         inkscape:connector-curvature="0" />
    </marker>
    <pattern
       height="8"
       id="Hatch"
       patternUnits="userSpaceOnUse"
       width="8"
       x="0"
       y="0">
      <path
         d="M8 4 l-4,4"
         linecap="square"
         stroke="#000000"
         stroke-width="0.25"
         id="path6527" />
      <path
         d="M6 2 l-4,4"
         linecap="square"
         stroke="#000000"
         stroke-width="0.25"
         id="path6529" />
      <path
         d="M4 0 l-4,4"
         linecap="square"
         stroke="#000000"
         stroke-width="0.25"
         id="path6531" />
    </pattern>
    <symbol
       id="*MODEL_SPACE" />
    <symbol
       id="*PAPER_SPACE" />
    <clipPath
       id="clipPath4313"
       clipPathUnits="userSpaceOnUse">
      <path
         inkscape:connector-curvature="0"
         id="path4315"
         d="m 119.688,495.679 355.906,0 0,-187.699 -355.906,0 0,187.699 z" />
    </clipPath>
    <marker
       style="overflow:visible"
       refY="0"
       refX="0"
       orient="auto"
       id="DistanceX-2">
      <path
         id="path4149"
         style="stroke:#000000;stroke-width:0.5"
         d="M 3,-3 -3,3 M 0,-5 0,5"
         inkscape:connector-curvature="0" />
    </marker>
    <pattern
       y="0"
       x="0"
       width="8"
       patternUnits="userSpaceOnUse"
       id="Hatch-0"
       height="8">
      <path
         id="path4152"
         stroke-width="0.25"
         stroke="#000000"
         linecap="square"
         d="M8 4 l-4,4" />
      <path
         id="path4154"
         stroke-width="0.25"
         stroke="#000000"
         linecap="square"
         d="M6 2 l-4,4" />
      <path
         id="path4156"
         stroke-width="0.25"
         stroke="#000000"
         linecap="square"
         d="M4 0 l-4,4" />
    </pattern>
    <symbol
       id="*MODEL_SPACE-2" />
    <symbol
       id="*PAPER_SPACE-6" />
  </defs>
  <metadata
     id="metadata7">
    <rdf:RDF>
      <cc:Work
         rdf:about="">
        <dc:format>image/svg+xml</dc:format>
        <dc:type
           rdf:resource="http://purl.org/dc/dcmitype/StillImage" />
        <dc:title></dc:title>
      </cc:Work>
    </rdf:RDF>
  </metadata>
  <g
     transform="translate(687.88595,-753.19062)"
     style="display:inline"
     inkscape:label="Accessories"
     id="layer6"
     inkscape:groupmode="layer">
    <path
       style="display:inline;fill:#81930c;fill-opacity:0.39719627;stroke:none"
       d="m -476.48101,1298.7134 c -10.6168,0 -17.70311,7.0864 -17.70313,17.7031 l 0,116.9433 c -10e-6,10.6299 7.0868,17.7168 17.7168,17.7168 l 106.3125,0 c 10.6167,0 17.70311,-7.0869 17.70312,-17.7168 l 0,-116.9433 c 2e-5,-10.6167 -7.08689,-17.7031 -17.71679,-17.7031 l -106.3125,0 z m 0.0273,12.4082 c 2.9353,0 5.3125,2.3771 5.3125,5.3125 0,2.9354 -2.3771,5.3125 -5.3125,5.3125 -2.9355,0 -5.3125,-2.3771 -5.3125,-5.3125 0,-2.9354 2.377,-5.3125 5.3125,-5.3125 z m 35.4375,0 c 2.9354,0 5.3124,2.3771 5.3125,5.3125 0,2.9354 -2.377,5.3125 -5.3125,5.3125 -2.9354,0 -5.3126,-2.3771 -5.3125,-5.3125 0,-2.9354 2.3771,-5.3125 5.3125,-5.3125 z m 35.4375,0 c 2.9354,0 5.3125,2.3771 5.3125,5.3125 0,2.9354 -2.3771,5.3125 -5.3125,5.3125 -2.9354,0 -5.3125,-2.3771 -5.3125,-5.3125 0,-2.9354 2.3771,-5.3125 5.3125,-5.3125 z m 35.4375,0 c 2.9355,0 5.3124,2.3771 5.3125,5.3125 0,2.9354 -2.377,5.3125 -5.3125,5.3125 -2.9353,0 -5.34375,-2.3771 -5.34375,-5.3125 0,-2.9354 2.40845,-5.3125 5.34375,-5.3125 z m -90.58594,15.8125 c 1.43646,-0.021 2.82022,0.5406 3.83594,1.5566 l 25.05469,25.0547 c 2.0751,2.0755 2.0751,5.4401 0,7.5156 -2.07552,2.075 -5.44011,2.075 -7.51563,0 l -25.05468,-25.0547 c -2.0751,-2.0755 -2.0751,-5.4401 0,-7.5156 0.97744,-0.9777 2.29735,-1.536 3.67968,-1.5566 z m 74.66211,0 c 1.43646,-0.021 2.82022,0.5406 3.83594,1.5566 2.0751,2.0755 2.0751,5.4401 0,7.5156 l -25.05469,25.0547 c -2.07574,2.0763 -5.44184,2.0763 -7.51758,0 -2.0751,-2.0755 -2.0751,-5.4401 0,-7.5156 l 25.05664,-25.0547 c 0.97744,-0.9777 2.29736,-1.536 3.67969,-1.5566 z m -37.22656,1.9082 c 2.9355,0 5.3124,2.3771 5.3125,5.3125 0,2.9354 -2.377,5.3125 -5.3125,5.3125 -2.9353,0 -5.34375,-2.3771 -5.34375,-5.3125 0,-2.9354 2.40845,-5.3125 5.34375,-5.3125 z m -53.16211,17.7168 c 2.9353,0 5.3125,2.3771 5.3125,5.3125 0,2.9354 -2.3771,5.3125 -5.3125,5.3125 -2.9355,0 -5.3125,-2.3771 -5.3125,-5.3125 0,-2.9354 2.377,-5.3125 5.3125,-5.3125 z m 106.3125,0 c 2.9355,0 5.3124,2.3771 5.3125,5.3125 0,2.9354 -2.377,5.3125 -5.3125,5.3125 -2.9353,0 -5.34375,-2.3771 -5.34375,-5.3125 0,-2.9354 2.40845,-5.3125 5.34375,-5.3125 z m -88.58398,17.7168 c 2.9355,0 5.3124,2.3771 5.3125,5.3125 0,2.9354 -2.377,5.3125 -5.3125,5.3125 -2.9353,0 -5.34375,-2.3771 -5.34375,-5.3125 0,-2.9354 2.40845,-5.3125 5.34375,-5.3125 z m 70.86718,0 c 2.9355,0 5.3124,2.3771 5.3125,5.3125 0,2.9354 -2.377,5.3125 -5.3125,5.3125 -2.9353,0 -5.34375,-2.3771 -5.34375,-5.3125 0,-2.9354 2.40845,-5.3125 5.34375,-5.3125 z m -47.81445,12.2656 c 1.43618,-0.021 2.81991,0.5394 3.83594,1.5547 2.07503,2.0755 2.07503,5.4401 0,7.5156 l -25.05469,25.0566 c -2.07552,2.075 -5.4401,2.075 -7.51562,0 -2.07503,-2.0755 -2.07503,-5.4401 0,-7.5156 l 25.05468,-25.0566 c 0.97775,-0.977 2.29763,-1.5347 3.67969,-1.5547 z m 24.55078,0 c 1.43684,-0.022 2.8214,0.539 3.83789,1.5547 l 25.05469,25.0566 c 2.07503,2.0755 2.07503,5.4401 0,7.5156 -2.07552,2.075 -5.44011,2.075 -7.51563,0 l -25.05664,-25.0566 c -2.07503,-2.0755 -2.07503,-5.4401 0,-7.5156 0.97775,-0.977 2.29763,-1.5347 3.67969,-1.5547 z m -65.33203,5.4551 c 2.9353,0 5.3125,2.3771 5.3125,5.3125 0,2.9354 -2.3771,5.3125 -5.3125,5.3125 -2.9355,0 -5.3125,-2.3771 -5.3125,-5.3125 0,-2.9354 2.377,-5.3125 5.3125,-5.3125 z m 106.3125,0 c 2.9355,0 5.3124,2.3771 5.3125,5.3125 0,2.9354 -2.377,5.3125 -5.3125,5.3125 -2.9353,0 -5.34375,-2.3771 -5.34375,-5.3125 0,-2.9354 2.40845,-5.3125 5.34375,-5.3125 z m -53.15039,17.7129 c 2.9355,0 5.3124,2.3771 5.3125,5.3125 0,2.9354 -2.377,5.3125 -5.3125,5.3125 -2.9353,0 -5.34375,-2.3771 -5.34375,-5.3125 0,-2.9354 2.40845,-5.3125 5.34375,-5.3125 z m -53.39258,24.3671 35.8125,0 0,11.1875 -35.8125,0 0,-11.1875 z m 70.875,0 35.78125,0 0,11.1875 -35.78125,0 0,-11.1875 z"
       id="path6017"
       inkscape:connector-curvature="0" />
    <path
       style="fill:#808000;fill-opacity:0.40654207;stroke:none"
       d="m -624.05794,1328.6831 c -19.64724,19.5793 -38.50267,40.8662 -52.59099,59.6842 -1.4652,1.9572 -2.00147,8.0224 0.50402,10.5279 l 50.10934,50.1093 c 5.01098,5.011 10.02331,5.0109 15.03429,-10e-5 l 95.20804,-95.208 c 5.01098,-5.011 5.01105,-10.0233 7e-5,-15.0343 l -50.10933,-50.1093 c -5.01099,-5.011 -9.60845,-3.0215 -11.54013,-1.5302 -14.67154,11.3269 -30.89158,25.8911 -46.61531,41.5605 z m -4.23288,32.3791 7.8928,7.8928 -25.3053,25.3053 -7.89146,-7.8915 25.30531,-25.3053 z m 24.80538,-24.8054 25.3053,-25.3053 7.8928,7.8928 -25.3053,25.3053 -7.8928,-7.8928 z m 51.46274,-12.2238 c 0.96117,-0.9612 2.2901,-1.5564 3.75784,-1.5565 2.93527,10e-5 5.31299,2.3778 5.31299,5.313 0,2.9358 -2.37772,5.3131 -5.31299,5.313 -2.93541,10e-5 -5.31298,-2.3772 -5.31298,-5.313 0,-1.4675 0.59389,-2.7953 1.55514,-3.7565 z m -88.58585,88.5858 c 0.97213,-0.958 2.30538,-1.555 3.77298,-1.555 2.93534,0 5.31165,2.3764 5.31165,5.3116 0,2.9355 -2.37751,5.313 -5.31292,5.3129 -2.93534,0 -5.34339,-2.3775 -5.34375,-5.3126 0,-1.4675 0.60267,-2.7953 1.57169,-3.7565 z m 17.71628,-17.7162 c 0.95806,-0.9722 2.28883,-1.5717 3.7565,-1.5717 2.93513,0 5.31285,2.4084 5.31264,5.3437 0,2.9356 -2.37743,5.3129 -5.31292,5.3129 -2.93534,0 -5.31157,-2.3761 -5.31164,-5.3116 0,-1.4677 0.5939,-2.804 1.55507,-3.773 z m 35.43411,-35.4342 c 0.96117,-0.9611 2.28876,-1.555 3.75643,-1.555 2.93535,0 5.31299,2.3776 5.31299,5.313 -7e-5,2.9354 -2.37623,5.3115 -5.31157,5.3115 -2.93534,0 -5.31306,-2.3775 -5.31299,-5.3129 0,-1.4677 0.5939,-2.7953 1.55514,-3.7566 z m -10e-4,35.4342 c 0.95806,-0.9722 2.29017,-1.5704 3.75784,-1.5704 2.93535,0 5.31299,2.4084 5.31335,5.3431 1.4e-4,2.9356 -2.37631,5.3116 -5.31158,5.3115 l 0,0 c -2.93534,0 -5.31299,-2.3773 -5.31299,-5.313 8e-5,-1.4676 0.5939,-2.804 1.55507,-3.7729 z m 35.43411,-35.4342 c 0.96117,-0.9611 2.29025,-1.5564 3.75785,-1.5564 2.93548,0 5.31298,2.3778 5.31298,5.313 0,2.9353 -2.3775,5.3129 -5.31298,5.3129 -2.9352,0 -5.31299,-2.3776 -5.31299,-5.3129 7e-5,-1.4676 0.5939,-2.7953 1.55514,-3.7566 z m -70.86674,70.8668 c 0.96902,-0.969 2.30404,-1.5702 3.77171,-1.5702 2.93527,10e-5 5.31164,2.4068 5.31193,5.3416 7e-5,2.9354 -2.37751,5.313 -5.31299,5.313 -2.93464,-9e-4 -5.34212,-2.3768 -5.34163,-5.3119 -7e-5,-1.4678 0.6026,-2.8041 1.57162,-3.7732 z"
       id="rect4304"
       inkscape:connector-curvature="0" />
    <path
       style="display:inline;fill:#81930c;fill-opacity:0.39719627;stroke:none"
       d="m -184.22834,855.70854 -141.73828,0.0234 c -10.6168,0 -17.71971,7.0889 -17.7207,17.7188 l -0.006,70.88081 c -9.8e-4,10.6167 7.08885,17.6893 17.71875,17.6875 l 141.74023,-0.023 c 10.6169,0 17.7177,-7.0708 17.71875,-17.6875 l 0.006,-70.88081 c 0.001,-10.6299 -7.08865,-17.7206 -17.71875,-17.7188 z m -124.04687,12.4141 c 2.9355,0 5.3125,2.3772 5.3125,5.3125 0,2.9261 -2.36243,5.2956 -5.28516,5.3105 l 0,0.0117 -17.71679,0 0,-0.002 -0.0156,0 c -2.9355,0 -5.3124,-2.3771 -5.3125,-5.3125 0,-2.9353 2.377,-5.3125 5.3125,-5.3125 l 0.0156,0 0,-0.002 17.57226,0 c 0.0392,-8e-4 0.0777,-0.006 0.11719,-0.006 z m 124.01562,0 c 2.9355,0 5.3125,2.3772 5.3125,5.3125 0,2.9261 -2.36243,5.2956 -5.28515,5.3105 l 0,0.0117 -17.7168,0 0,-0.002 c -2.9353,0 -5.3125,-2.3771 -5.3125,-5.3125 0,-2.9353 2.3771,-5.3125 5.3125,-5.3125 l 0,-0.002 17.57227,0 c 0.0394,-8e-4 0.0776,-0.006 0.11718,-0.006 z m -70.85351,0.008 c 2.9353,0 5.34375,2.3772 5.34375,5.3125 0,2.9354 -2.40845,5.3125 -5.34375,5.3125 -2.9355,0 -5.3124,-2.3771 -5.3125,-5.3125 0,-2.9353 2.377,-5.3125 5.3125,-5.3125 z m 17.86328,4.7617 c 0.85355,0.0223 1.71356,0.2514 2.50586,0.707 l 0.0137,-0.0254 a 40.748032,40.748032 0 0 1 14.91602,14.9141 l -0.0273,0.0176 c 0.008,0.023 -0.001,0.0225 -0.002,0.0234 1.00905,1.7477 0.91415,3.8264 -0.0703,5.4336 l 0.0156,0.008 c -0.4481,0.7303 -1.08055,1.3637 -1.875,1.8223 -2.54227,1.4678 -5.78826,0.5969 -7.25586,-1.9453 0.005,-0.023 0.002,-0.0226 0.002,-0.0235 a 30.118109,30.118109 0 0 0 -10.79688,-10.9023 c -0.0741,-0.0405 -0.15001,-0.0752 -0.22461,-0.1172 -2.54195,-1.4676 -3.41117,-4.7138 -1.94336,-7.2559 1.0091,-1.7477 2.85831,-2.7054 4.74219,-2.6562 z m -35.70313,0.0156 c 0.51365,-0.0133 1.0232,0.0477 1.51563,0.1797 l 0,0.002 c 1.31311,0.352 2.49279,1.2053 3.22656,2.4765 1.46767,2.542 0.59683,5.7882 -1.94531,7.2559 -0.0189,-0.01 -0.0177,-0.0118 -0.0176,-0.0117 l -0.004,0 a 30.118109,30.118109 0 0 0 -10.90234,10.7968 c -0.0399,0.0745 -0.075,0.1487 -0.11719,0.2227 -1.46768,2.542 -4.71369,3.411 -7.25586,1.9434 l -0.0137,-0.0137 c -2.54217,-1.4677 -3.41102,-4.7138 -1.94336,-7.2559 l 0.0215,0.01 -0.0274,-0.0176 a 40.748032,40.748032 0 0 1 14.91407,-14.916 l 0.0156,0.0254 0.0195,0.0137 c 0.79453,-0.4592 1.6576,-0.6887 2.51367,-0.711 z m 17.82618,12.9317 c 2.9355,0 5.3125,2.3772 5.3125,5.3125 0,2.9354 -2.377,5.3125 -5.3125,5.3125 -2.9353,0 -5.3125,-2.3771 -5.3125,-5.3125 0,-2.9353 2.3771,-5.3125 5.3125,-5.3125 z m -65.92579,0.0253 c 0.8561,0.0226 1.71927,0.2524 2.51368,0.711 2.54208,1.4677 3.413,4.7136 1.94531,7.2558 -0.0202,0.0103 -0.0216,0.01 -0.0215,0.01 l -0.004,0 a 30.118109,30.118109 0 0 0 -4.0293,14.5703 c 0.0134,0.1542 0.0234,0.3091 0.0234,0.4668 -0.0122,0.018 -0.0119,0.0195 -0.0117,0.0196 l -0.004,0 a 30.118109,30.118109 0 0 0 3.89844,14.8398 c 0.0449,0.0716 0.0937,0.1389 0.13672,0.2129 1.46755,2.542 0.59668,5.78781 -1.94531,7.25581 l -0.0215,-0.01 c -2.54217,1.4676 -5.79007,0.5968 -7.25781,-1.9453 l 0.0156,-0.018 -0.0293,0.018 a 40.748032,40.748032 0 0 1 -5.45899,-20.37311 l 0,-0.002 a 40.748032,40.748032 0 0 1 5.45899,-20.3711 l 0.0234,0.0156 0.0254,-0.01 c 0.73358,-1.272 1.91139,-2.123 3.22461,-2.4746 l 0.002,0.008 c 0.49244,-0.1319 1.00197,-0.1929 1.51562,-0.1797 z m 131.91797,0.002 0,0.004 c 0.51366,-0.013 1.0232,0.048 1.51563,0.1797 l 0.002,-0.01 c 1.31322,0.3516 2.49103,1.2026 3.22461,2.4746 l 0.0254,0.01 0.0234,-0.0156 a 40.748032,40.748032 0 0 1 5.45898,20.3711 40.748032,40.748032 0 0 1 -5.45898,20.37301 l -0.0293,-0.018 0.0156,0.018 c -1.46774,2.5421 -4.71565,3.4129 -7.25782,1.9453 l -0.0215,0.01 c -2.54199,-1.468 -3.41286,-4.71391 -1.94531,-7.25591 0.043,-0.074 0.0918,-0.1411 0.13672,-0.2129 a 30.118109,30.118109 0 0 0 3.89843,-14.8398 l -0.004,0 c 1.8e-4,-10e-5 5.2e-4,5e-4 -0.0117,-0.0195 0,-0.1577 0.01,-0.3126 0.0234,-0.4668 a 30.118109,30.118109 0 0 0 -4.0293,-14.5703 l -0.004,0 c 1.3e-4,-10e-5 -9.8e-4,7e-4 -0.0215,-0.01 -1.46769,-2.5422 -0.59677,-5.7882 1.94531,-7.2559 0.79441,-0.4586 1.65758,-0.6885 2.51367,-0.7109 z m -83.70898,17.6895 c 2.9355,0 5.3125,2.3772 5.3125,5.3125 0,2.9354 -2.377,5.3125 -5.3125,5.3125 -2.9353,0 -5.3125,-2.3771 -5.3125,-5.3125 0,-2.9353 2.3771,-5.3125 5.3125,-5.3125 z m 35.43359,0 c 2.9355,0 5.3125,2.3772 5.3125,5.3125 0,2.9354 -2.377,5.3125 -5.3125,5.3125 -2.9353,0 -5.3125,-2.3771 -5.3125,-5.3125 0,-2.9353 2.3771,-5.3125 5.3125,-5.3125 z m -70.85351,0.008 c 2.9353,0 5.34375,2.3772 5.34375,5.3125 0,2.9354 -2.40845,5.3125 -5.34375,5.3125 -2.93552,0 -5.31241,-2.3771 -5.3125,-5.3125 0,-2.9353 2.37698,-5.3125 5.3125,-5.3125 z m 17.71679,0 c 2.9353,0 5.34375,2.3772 5.34375,5.3125 0,2.9354 -2.40845,5.3125 -5.34375,5.3125 -2.9355,0 -5.3124,-2.3771 -5.3125,-5.3125 0,-2.9353 2.377,-5.3125 5.3125,-5.3125 z m 35.4336,0 c 2.9353,0 5.34375,2.3772 5.34375,5.3125 0,2.9354 -2.40845,5.3125 -5.34375,5.3125 -2.9355,0 -5.3124,-2.3771 -5.3125,-5.3125 0,-2.9353 2.377,-5.3125 5.3125,-5.3125 z m 35.43164,0 c 2.9353,0 5.34375,2.3772 5.34375,5.3125 0,2.9354 -2.40845,5.3125 -5.34375,5.3125 -2.9355,0 -5.3124,-2.3771 -5.3125,-5.3125 0,-2.9353 2.377,-5.3125 5.3125,-5.3125 z m 17.7168,0 c 2.9353,0 5.34375,2.3772 5.34375,5.3125 0,2.9354 -2.40845,5.3125 -5.34375,5.3125 -2.93551,0 -5.3124,-2.3771 -5.3125,-5.3125 0,-2.9353 2.37699,-5.3125 5.3125,-5.3125 z m -129.30469,5.3047 -0.0312,0.01 0.01,0.002 0,-0.002 0.0215,-0.01 z m 152.35156,0.008 0.0215,0.01 0.01,0 -0.0312,-0.01 z m -107.00977,12.3945 c 1.8834,-0.0491 3.73327,0.9085 4.74219,2.6563 -0.005,0.0229 -0.002,0.0225 -0.002,0.0234 a 30.118109,30.118109 0 0 0 10.79492,10.90231 c 0.0748,0.039 0.14991,0.073 0.22461,0.1153 2.54197,1.4675 3.41301,4.7156 1.94531,7.2578 l -0.0137,0 c -1.46619,2.5398 -4.70894,3.4106 -7.25,1.9492 l -0.0117,0.025 a 40.748032,40.748032 0 0 1 -14.91601,-14.916 l 0.0254,-0.018 c -0.008,-0.023 10e-4,-0.022 0.002,-0.024 -1.469,-2.54211 -0.59696,-5.79011 1.94531,-7.25781 0.79443,-0.4587 1.6576,-0.6886 2.51367,-0.7109 z m 30.80079,0 c 2.9355,0 5.3125,2.3772 5.3125,5.3125 0,2.93541 -2.377,5.31251 -5.3125,5.31251 -2.9353,0 -5.3125,-2.3771 -5.3125,-5.31251 0,-2.9353 2.3771,-5.3125 5.3125,-5.3125 z m 31.05078,0.0156 c 0.2785,0.0175 0.55781,0.0587 0.83398,0.1211 l 0,0.008 c 0.50985,0.1151 1.00966,0.3089 1.48633,0.584 l 0.002,0.002 c 2.54212,1.4678 3.4149,4.7137 1.94727,7.25581 l -0.0234,0 0.0273,0.018 a 40.748032,40.748032 0 0 1 -14.91601,14.916 l -0.0156,-0.023 c 0,0 -0.0212,-0.01 -0.0215,-0.01 -1.74757,1.0088 -3.82846,0.9129 -5.43555,-0.072 l 0.0156,-0.01 c -0.73026,-0.4477 -1.36164,-1.0804 -1.82031,-1.875 -1.46772,-2.5421 -0.59866,-5.7883 1.94335,-7.2559 0.0238,0.01 0.0207,0.01 0.0215,0.01 l 0.002,0 a 30.118109,30.118109 0 0 0 10.9043,-10.79491 c 0.0399,-0.0745 0.0696,-0.1506 0.11328,-0.2246 1.04339,-1.8073 2.98605,-2.7705 4.93555,-2.6485 z m -84.19922,17.70121 c 2.9355,0 5.3125,2.3772 5.3125,5.3125 0,2.9261 -2.36243,5.2956 -5.28516,5.3105 l 0,0.014 -17.71679,0 0,0 -0.0156,0 c -2.9355,0 -5.3124,-2.3771 -5.3125,-5.3125 0,-2.9353 2.377,-5.3125 5.3125,-5.3125 l 0.0156,0 0,0 17.57226,0 c 0.0392,-9e-4 0.0777,-0.01 0.11719,-0.01 z m 106.29883,0 c 0.0396,0 0.0778,0 0.11718,0.01 l 17.48243,0 c 0.0394,-9e-4 0.0776,-0.01 0.11718,-0.01 2.9355,0 5.3125,2.3772 5.3125,5.3125 0,2.9261 -2.36243,5.2956 -5.28515,5.3105 l 0,0.014 -17.7168,0 0,-0.014 c -0.009,10e-5 -0.0181,0 -0.0273,0 -2.9353,0 -5.3125,-2.3771 -5.3125,-5.3125 0,-2.9353 2.3771,-5.3125 5.3125,-5.3125 z m -53.13672,0.01 c 2.9353,0 5.34375,2.3772 5.34375,5.3125 0,2.9354 -2.40845,5.3125 -5.34375,5.3125 -2.9355,0 -5.3124,-2.3771 -5.3125,-5.3125 0,-2.9353 2.377,-5.3125 5.3125,-5.3125 z"
       id="path4186"
       inkscape:connector-curvature="0" />
    <path
       inkscape:connector-curvature="0"
       style="display:inline;fill:#81930c;fill-opacity:0.39719627;stroke:none"
       d="m -53.15167,1282.657 c 10.6169,0 17.7188,-7.0708 17.7188,-17.6875 l 0,-35.4375 c 0,-10.6299 -7.0887,-17.7187 -17.7188,-17.7187 l -106.3124,0 c -10.6168,0 -17.7188,7.0888 -17.7188,17.7187 l 0,35.4375 c 0,10.6167 7.0889,17.6875 17.7188,17.6875 l 106.3124,0 z m -0.031,-12.4062 c -2.9353,0 -5.3125,-2.3771 -5.3125,-5.3125 0,-2.9353 2.3771,-5.3125 5.3125,-5.3125 2.9355,0 5.3125,2.3772 5.3125,5.3125 0,2.9354 -2.377,5.3125 -5.3125,5.3125 z m -35.437499,0 c -2.9354,0 -5.3124,-2.3771 -5.3125,-5.3125 0,-2.9353 2.377,-5.3125 5.3125,-5.3125 2.9354,0 5.3126,2.3772 5.3125,5.3125 0,2.9354 -2.3771,5.3125 -5.3125,5.3125 z m -35.437501,0 c -2.9354,0 -5.3125,-2.3771 -5.3125,-5.3125 0,-2.9353 2.3771,-5.3125 5.3125,-5.3125 2.9354,0 5.3125,2.3772 5.3125,5.3125 0,2.9354 -2.3771,5.3125 -5.3125,5.3125 z m -35.4375,0 c -2.9355,0 -5.3124,-2.3771 -5.3125,-5.3125 0,-2.9353 2.377,-5.3125 5.3125,-5.3125 2.9353,0 5.3437,2.3772 5.3437,5.3125 0,2.9354 -2.4084,5.3125 -5.3437,5.3125 z m 106.3125,-35.4375 c -2.9353,0 -5.3125,-2.3771 -5.3125,-5.3125 0,-2.9353 2.3771,-5.3125 5.3125,-5.3125 2.9355,0 5.3125,2.3772 5.3125,5.3125 0,2.9354 -2.377,5.3125 -5.3125,5.3125 z m -35.437499,0 c -2.9354,0 -5.3124,-2.3771 -5.3125,-5.3125 0,-2.9353 2.377,-5.3125 5.3125,-5.3125 2.9354,0 5.3126,2.3772 5.3125,5.3125 0,2.9354 -2.3771,5.3125 -5.3125,5.3125 z m -35.437501,0 c -2.9354,0 -5.3125,-2.3771 -5.3125,-5.3125 0,-2.9353 2.3771,-5.3125 5.3125,-5.3125 2.9354,0 5.3125,2.3772 5.3125,5.3125 0,2.9354 -2.3771,5.3125 -5.3125,5.3125 z m -35.4375,0 c -2.9355,0 -5.3124,-2.3771 -5.3125,-5.3125 0,-2.9353 2.377,-5.3125 5.3125,-5.3125 2.9353,0 5.3437,2.3772 5.3437,5.3125 0,2.9354 -2.4084,5.3125 -5.3437,5.3125 z"
       id="path3058-6" />
    <path
       inkscape:connector-curvature="0"
       id="path6173"
       d="m -457.50325,990.62055 c -10.6168,0 -17.7031,7.0864 -17.7031,17.70305 l 0,106.3125 c 0,10.6299 7.0868,17.7168 17.7168,17.7168 l 106.3125,0 c 10.6167,0 17.7031,-7.0869 17.7031,-17.7168 l 0,-106.3125 c 0,-10.61665 -7.0869,-17.70305 -17.7168,-17.70305 l -106.3125,0 z m 0.027,12.40815 c 2.9353,0 5.3125,2.3771 5.3125,5.3125 0,2.9354 -2.3771,5.3125 -5.3125,5.3125 -2.9355,0 -5.3125,-2.3771 -5.3125,-5.3125 0,-2.9354 2.377,-5.3125 5.3125,-5.3125 z m 35.4375,0 c 2.9354,0 5.3124,2.3771 5.3125,5.3125 0,2.9354 -2.377,5.3125 -5.3125,5.3125 -2.9354,0 -5.3126,-2.3771 -5.3125,-5.3125 0,-2.9354 2.3771,-5.3125 5.3125,-5.3125 z m 35.4375,0 c 2.9354,0 5.3125,2.3771 5.3125,5.3125 0,2.9354 -2.3771,5.3125 -5.3125,5.3125 -2.9354,0 -5.3125,-2.3771 -5.3125,-5.3125 0,-2.9354 2.3771,-5.3125 5.3125,-5.3125 z m 35.4375,0 c 2.9355,0 5.3124,2.3771 5.3125,5.3125 0,2.9354 -2.377,5.3125 -5.3125,5.3125 -2.9353,0 -5.3437,-2.3771 -5.3437,-5.3125 0,-2.9354 2.4084,-5.3125 5.3437,-5.3125 z m -90.5859,15.8125 a 5.3149605,5.3149605 0 0 1 3.8359,1.5566 l 25.0547,25.0547 a 5.3149605,5.3149605 0 0 1 0,7.5157 5.3149605,5.3149605 0 0 1 -7.5156,0 l -25.0547,-25.0547 a 5.3149605,5.3149605 0 0 1 0,-7.5157 5.3149605,5.3149605 0 0 1 3.6797,-1.5566 z m 74.6621,0 a 5.3149605,5.3149605 0 0 1 3.8359,1.5566 5.3149605,5.3149605 0 0 1 0,7.5157 l -25.0547,25.0547 a 5.3149605,5.3149605 0 0 1 -7.5175,0 5.3149605,5.3149605 0 0 1 0,-7.5157 l 25.0566,-25.0547 a 5.3149605,5.3149605 0 0 1 3.6797,-1.5566 z m -37.2266,1.9082 c 2.9355,0 5.3124,2.3771 5.3125,5.3125 0,2.9354 -2.377,5.3125 -5.3125,5.3125 -2.9353,0 -5.3437,-2.3771 -5.3437,-5.3125 0,-2.9354 2.4084,-5.3125 5.3437,-5.3125 z m -53.1621,17.7168 c 2.9353,0 5.3125,2.3771 5.3125,5.3125 0,2.9354 -2.3771,5.3125 -5.3125,5.3125 -2.9355,0 -5.3125,-2.3771 -5.3125,-5.3125 0,-2.9354 2.377,-5.3125 5.3125,-5.3125 z m 106.3125,0 c 2.9355,0 5.3124,2.3771 5.3125,5.3125 0,2.9354 -2.377,5.3125 -5.3125,5.3125 -2.9353,0 -5.3437,-2.3771 -5.3437,-5.3125 0,-2.9354 2.4084,-5.3125 5.3437,-5.3125 z m -88.584,17.7168 c 2.9355,0 5.3124,2.3771 5.3125,5.3125 0,2.9354 -2.377,5.3125 -5.3125,5.3125 -2.9353,0 -5.3437,-2.3771 -5.3437,-5.3125 0,-2.9354 2.4084,-5.3125 5.3437,-5.3125 z m 70.8672,0 c 2.9355,0 5.3124,2.3771 5.3125,5.3125 0,2.9354 -2.377,5.3125 -5.3125,5.3125 -2.9353,0 -5.3437,-2.3771 -5.3437,-5.3125 0,-2.9354 2.4084,-5.3125 5.3437,-5.3125 z m -47.8144,12.2656 a 5.3149605,5.3149605 0 0 1 3.8359,1.5547 5.3149605,5.3149605 0 0 1 0,7.5156 l -25.0547,25.0566 a 5.3149605,5.3149605 0 0 1 -7.5156,0 5.3149605,5.3149605 0 0 1 0,-7.5156 l 25.0547,-25.0566 a 5.3149605,5.3149605 0 0 1 3.6797,-1.5547 z m 24.5508,0 a 5.3149605,5.3149605 0 0 1 3.8378,1.5547 l 25.0547,25.0566 a 5.3149605,5.3149605 0 0 1 0,7.5156 5.3149605,5.3149605 0 0 1 -7.5156,0 l -25.0566,-25.0566 a 5.3149605,5.3149605 0 0 1 0,-7.5156 5.3149605,5.3149605 0 0 1 3.6797,-1.5547 z m -65.3321,5.4551 c 2.9353,0 5.3125,2.3771 5.3125,5.3125 0,2.9354 -2.3771,5.3125 -5.3125,5.3125 -2.9355,0 -5.3125,-2.3771 -5.3125,-5.3125 0,-2.9354 2.377,-5.3125 5.3125,-5.3125 z m 106.3125,0 c 2.9355,0 5.3124,2.3771 5.3125,5.3125 0,2.9354 -2.377,5.3125 -5.3125,5.3125 -2.9353,0 -5.3437,-2.3771 -5.3437,-5.3125 0,-2.9354 2.4084,-5.3125 5.3437,-5.3125 z m -53.1504,17.7129 c 2.9355,0 5.3124,2.3771 5.3125,5.3125 0,2.9354 -2.377,5.3125 -5.3125,5.3125 -2.9353,0 -5.3437,-2.3771 -5.3437,-5.3125 0,-2.9354 2.4084,-5.3125 5.3437,-5.3125 z m -53.1621,17.7246 c 2.9353,0 5.3125,2.3771 5.3125,5.3125 0,2.9354 -2.3771,5.3125 -5.3125,5.3125 -2.9355,0 -5.3125,-2.3771 -5.3125,-5.3125 0,-2.9354 2.377,-5.3125 5.3125,-5.3125 z m 35.4375,0 c 2.9354,0 5.3124,2.3771 5.3125,5.3125 0,2.9354 -2.377,5.3125 -5.3125,5.3125 -2.9354,0 -5.3126,-2.3771 -5.3125,-5.3125 0,-2.9354 2.3771,-5.3125 5.3125,-5.3125 z m 35.4375,0 c 2.9354,0 5.3125,2.3771 5.3125,5.3125 0,2.9354 -2.3771,5.3125 -5.3125,5.3125 -2.9354,0 -5.3125,-2.3771 -5.3125,-5.3125 0,-2.9354 2.3771,-5.3125 5.3125,-5.3125 z m 35.4375,0 c 2.9355,0 5.3124,2.3771 5.3125,5.3125 0,2.9354 -2.377,5.3125 -5.3125,5.3125 -2.9353,0 -5.3437,-2.3771 -5.3437,-5.3125 0,-2.9354 2.4084,-5.3125 5.3437,-5.3125 z"
       style="display:inline;fill:#81930c;fill-opacity:0.39719627;stroke:none" />
    <path
       inkscape:connector-curvature="0"
       id="path6062"
       d="m -605.93857,992.12605 c -10.6167,0 -17.6875,7.0889 -17.6875,17.71875 l 0,248.0313 c 0,10.6167 7.0889,17.7187 17.7188,17.7187 l 106.3125,0 c 10.6168,0 17.6875,-7.102 17.6875,-17.7187 l 0,-248.0313 c 0,-10.62985 -7.0888,-17.71875 -17.7188,-17.71875 l -106.3125,0 z m 0,12.37495 c 2.9353,0 5.3438,2.3771 5.3438,5.3125 0,2.9354 -2.4085,5.3125 -5.3438,5.3125 -2.9355,0 -5.3124,-2.3771 -5.3125,-5.3125 0,-2.9354 2.377,-5.3125 5.3125,-5.3125 z m 35.4375,0 c 2.9354,0 5.3125,2.3771 5.3125,5.3125 0,2.9354 -2.3771,5.3125 -5.3125,5.3125 -2.9354,0 -5.3125,-2.3771 -5.3125,-5.3125 0,-2.9354 2.3771,-5.3125 5.3125,-5.3125 z m 35.4375,0 c 2.9354,0 5.3126,2.3771 5.3125,5.3125 0,2.9354 -2.3771,5.3125 -5.3125,5.3125 -2.9354,0 -5.3124,-2.3771 -5.3125,-5.3125 0,-2.9354 2.377,-5.3125 5.3125,-5.3125 z m 35.4375,0 c 2.9355,0 5.3125,2.3771 5.3125,5.3125 0,2.9354 -2.377,5.3125 -5.3125,5.3125 -2.9353,0 -5.3125,-2.3771 -5.3125,-5.3125 0,-2.9354 2.3771,-5.3125 5.3125,-5.3125 z m -90.5429,15.8457 a 5.3149605,5.3149605 0 0 1 3.8359,1.5566 l 25.0547,25.0547 a 5.3149605,5.3149605 0 0 1 0,7.5157 5.3149605,5.3149605 0 0 1 -7.5156,0 l -25.0547,-25.0547 a 5.3149605,5.3149605 0 0 1 0,-7.5157 5.3149605,5.3149605 0 0 1 3.6797,-1.5566 z m 74.6621,0 a 5.3149605,5.3149605 0 0 1 3.8359,1.5566 5.3149605,5.3149605 0 0 1 0,7.5157 l -25.0547,25.0547 a 5.3149605,5.3149605 0 0 1 -7.5175,0 5.3149605,5.3149605 0 0 1 0,-7.5157 l 25.0566,-25.0547 a 5.3149605,5.3149605 0 0 1 3.6797,-1.5566 z m -37.2266,1.9082 c 2.9355,0 5.3124,2.3771 5.3125,5.3125 0,2.9354 -2.377,5.3125 -5.3125,5.3125 -2.9353,0 -5.3437,-2.3771 -5.3437,-5.3125 0,-2.9354 2.4084,-5.3125 5.3437,-5.3125 z m -53.2051,17.6836 c 2.9353,0 5.3438,2.3771 5.3438,5.3125 0,2.9354 -2.4085,5.3125 -5.3438,5.3125 -2.9355,0 -5.3124,-2.3771 -5.3125,-5.3125 0,-2.9354 2.377,-5.3125 5.3125,-5.3125 z m 106.3125,0 c 2.9355,0 5.3125,2.3771 5.3125,5.3125 0,2.9354 -2.377,5.3125 -5.3125,5.3125 -2.9353,0 -5.3125,-2.3771 -5.3125,-5.3125 0,-2.9354 2.3771,-5.3125 5.3125,-5.3125 z m -88.541,17.75 c 2.9355,0 5.3124,2.3771 5.3125,5.3125 0,2.9354 -2.377,5.3125 -5.3125,5.3125 -2.9353,0 -5.3437,-2.3771 -5.3437,-5.3125 0,-2.9354 2.4084,-5.3125 5.3437,-5.3125 z m 70.8672,0 c 2.9355,0 5.3124,2.3771 5.3125,5.3125 0,2.9354 -2.377,5.3125 -5.3125,5.3125 -2.9353,0 -5.3437,-2.3771 -5.3437,-5.3125 0,-2.9354 2.4084,-5.3125 5.3437,-5.3125 z m -47.8144,12.2656 a 5.3149605,5.3149605 0 0 1 3.8359,1.5547 5.3149605,5.3149605 0 0 1 0,7.5176 l -25.0547,25.0546 a 5.3149605,5.3149605 0 0 1 -7.5156,0 5.3149605,5.3149605 0 0 1 0,-7.5156 l 25.0547,-25.0566 a 5.3149605,5.3149605 0 0 1 3.6797,-1.5547 z m 24.5507,0 a 5.3149605,5.3149605 0 0 1 3.8379,1.5547 l 25.0547,25.0566 a 5.3149605,5.3149605 0 0 1 0,7.5156 5.3149605,5.3149605 0 0 1 -7.5156,0 l -25.0566,-25.0546 a 5.3149605,5.3149605 0 0 1 0,-7.5176 5.3149605,5.3149605 0 0 1 3.6796,-1.5547 z m -65.375,5.4219 c 2.9353,0 5.3438,2.3771 5.3438,5.3125 0,2.9354 -2.4085,5.3125 -5.3438,5.3125 -2.9355,0 -5.3124,-2.3771 -5.3125,-5.3125 0,-2.9354 2.377,-5.3125 5.3125,-5.3125 z m 106.3125,0 c 2.9355,0 5.3125,2.3771 5.3125,5.3125 0,2.9354 -2.377,5.3125 -5.3125,5.3125 -2.9353,0 -5.3125,-2.3771 -5.3125,-5.3125 0,-2.9354 2.3771,-5.3125 5.3125,-5.3125 z m -53.1074,17.7461 c 2.9355,0 5.3124,2.3771 5.3125,5.3125 0,2.9354 -2.377,5.3125 -5.3125,5.3125 -2.9353,0 -5.3437,-2.3771 -5.3437,-5.3125 0,-2.9354 2.4084,-5.3125 5.3437,-5.3125 z m -53.2051,17.6915 c 2.9353,0 5.3438,2.3771 5.3438,5.3125 0,2.9354 -2.4085,5.3125 -5.3438,5.3125 -2.9355,0 -5.3124,-2.3771 -5.3125,-5.3125 0,-2.9354 2.377,-5.3125 5.3125,-5.3125 z m 35.4375,0 c 2.9354,0 5.3125,2.3771 5.3125,5.3125 0,2.9354 -2.3771,5.3125 -5.3125,5.3125 -2.9354,0 -5.3125,-2.3771 -5.3125,-5.3125 0,-2.9354 2.3771,-5.3125 5.3125,-5.3125 z m 35.4375,0 c 2.9354,0 5.3126,2.3771 5.3125,5.3125 0,2.9354 -2.3771,5.3125 -5.3125,5.3125 -2.9354,0 -5.3124,-2.3771 -5.3125,-5.3125 0,-2.9354 2.377,-5.3125 5.3125,-5.3125 z m 35.4375,0 c 2.9355,0 5.3125,2.3771 5.3125,5.3125 0,2.9354 -2.377,5.3125 -5.3125,5.3125 -2.9353,0 -5.3125,-2.3771 -5.3125,-5.3125 0,-2.9354 2.3771,-5.3125 5.3125,-5.3125 z m -106.3125,35.4062 c 2.9353,0 5.3438,2.3771 5.3438,5.3125 0,2.752 -2.1293,5.0406 -4.8125,5.3125 -0.1789,0.018 -0.3479,0 -0.5313,0 -2.9355,0 -5.3124,-2.3771 -5.3125,-5.3125 0,-2.9354 2.377,-5.3125 5.3125,-5.3125 z m 35.4375,0 c 2.9354,0 5.3125,2.3771 5.3125,5.3125 0,2.752 -2.1013,5.0406 -4.7812,5.3125 -0.1786,0.018 -0.3479,0 -0.5313,0 -2.9354,0 -5.3125,-2.3771 -5.3125,-5.3125 0,-2.9354 2.3771,-5.3125 5.3125,-5.3125 z m 35.4375,0 c 2.9354,0 5.3126,2.3771 5.3125,5.3125 0,2.752 -2.1013,5.0406 -4.7812,5.3125 -0.1786,0.018 -0.3479,0 -0.5313,0 -2.9354,0 -5.3124,-2.3771 -5.3125,-5.3125 0,-2.9354 2.377,-5.3125 5.3125,-5.3125 z m 35.4375,0 c 2.9355,0 5.3125,2.3771 5.3125,5.3125 0,2.752 -2.1012,5.0406 -4.7812,5.3125 -0.1786,0.018 -0.3479,0 -0.5313,0 -2.9353,0 -5.3125,-2.3771 -5.3125,-5.3125 0,-2.9354 2.3771,-5.3125 5.3125,-5.3125 z m -90.5429,15.8594 a 5.3149605,5.3149605 0 0 1 3.8359,1.5566 l 25.0547,25.0547 a 5.3149605,5.3149605 0 0 1 0,7.5156 5.3149605,5.3149605 0 0 1 -7.5156,0 l -25.0547,-25.0546 a 5.3149605,5.3149605 0 0 1 0,-7.5157 5.3149605,5.3149605 0 0 1 3.6797,-1.5566 z m 74.6621,0 a 5.3149605,5.3149605 0 0 1 3.8359,1.5566 5.3149605,5.3149605 0 0 1 0,7.5157 l -25.0547,25.0546 a 5.3149605,5.3149605 0 0 1 -7.5175,0 5.3149605,5.3149605 0 0 1 0,-7.5156 l 25.0566,-25.0547 a 5.3149605,5.3149605 0 0 1 3.6797,-1.5566 z m -37.2266,1.9082 c 2.9355,0 5.3124,2.3771 5.3125,5.3125 0,2.9354 -2.377,5.3125 -5.3125,5.3125 -2.9353,0 -5.3437,-2.3771 -5.3437,-5.3125 0,-2.9354 2.4084,-5.3125 5.3437,-5.3125 z m -53.2051,17.6699 c 2.9353,0 5.3438,2.3771 5.3438,5.3125 0,2.752 -2.1293,5.0406 -4.8125,5.3125 -0.1789,0.018 -0.3479,0 -0.5313,0 -2.9355,0 -5.3124,-2.3771 -5.3125,-5.3125 0,-2.9354 2.377,-5.3125 5.3125,-5.3125 z m 106.3125,0 c 2.9355,0 5.3125,2.3771 5.3125,5.3125 0,2.752 -2.1012,5.0406 -4.7812,5.3125 -0.1786,0.018 -0.3479,0 -0.5313,0 -2.9353,0 -5.3125,-2.3771 -5.3125,-5.3125 0,-2.9354 2.3771,-5.3125 5.3125,-5.3125 z m -88.541,17.7637 c 2.9355,0 5.3124,2.3771 5.3125,5.3125 0,2.9354 -2.377,5.3125 -5.3125,5.3125 -2.9353,0 -5.3437,-2.3771 -5.3437,-5.3125 0,-2.9354 2.4084,-5.3125 5.3437,-5.3125 z m 70.8672,0 c 2.9355,0 5.3124,2.3771 5.3125,5.3125 0,2.9354 -2.377,5.3125 -5.3125,5.3125 -2.9353,0 -5.3437,-2.3771 -5.3437,-5.3125 0,-2.9354 2.4084,-5.3125 5.3437,-5.3125 z m -47.8144,12.2656 a 5.3149605,5.3149605 0 0 1 3.8359,1.5547 5.3149605,5.3149605 0 0 1 0,7.5156 l -25.0547,25.0567 a 5.3149605,5.3149605 0 0 1 -7.5156,0 5.3149605,5.3149605 0 0 1 0,-7.5157 l 25.0547,-25.0566 a 5.3149605,5.3149605 0 0 1 3.6797,-1.5547 z m 24.5507,0 a 5.3149605,5.3149605 0 0 1 3.8379,1.5547 l 25.0547,25.0566 a 5.3149605,5.3149605 0 0 1 0,7.5157 5.3149605,5.3149605 0 0 1 -7.5156,0 l -25.0566,-25.0567 a 5.3149605,5.3149605 0 0 1 0,-7.5156 5.3149605,5.3149605 0 0 1 3.6796,-1.5547 z m -65.375,5.4082 c 2.9353,0 5.3438,2.3771 5.3438,5.3125 0,2.752 -2.1293,5.0406 -4.8125,5.3125 -0.1789,0.018 -0.3479,0 -0.5313,0 -2.9355,0 -5.3124,-2.3771 -5.3125,-5.3125 0,-2.9354 2.377,-5.3125 5.3125,-5.3125 z m 106.3125,0 c 2.9355,0 5.3125,2.3771 5.3125,5.3125 0,2.752 -2.1012,5.0406 -4.7812,5.3125 -0.1786,0.018 -0.3479,0 -0.5313,0 -2.9353,0 -5.3125,-2.3771 -5.3125,-5.3125 0,-2.9354 2.3771,-5.3125 5.3125,-5.3125 z m -53.1074,17.7598 c 2.9355,0 5.3124,2.3771 5.3125,5.3125 0,2.9354 -2.377,5.3125 -5.3125,5.3125 -2.9353,0 -5.3437,-2.3771 -5.3437,-5.3125 0,-2.9354 2.4084,-5.3125 5.3437,-5.3125 z m -53.2051,17.6777 c 2.9353,0 5.3438,2.3771 5.3438,5.3125 0,2.752 -2.1293,5.0406 -4.8125,5.3125 -0.1789,0.018 -0.3479,0 -0.5313,0 -2.9355,0 -5.3124,-2.3771 -5.3125,-5.3125 0,-2.9354 2.377,-5.3125 5.3125,-5.3125 z m 35.4375,0 c 2.9354,0 5.3125,2.3771 5.3125,5.3125 0,2.752 -2.1013,5.0406 -4.7812,5.3125 -0.1786,0.018 -0.3479,0 -0.5313,0 -2.9354,0 -5.3125,-2.3771 -5.3125,-5.3125 0,-2.9354 2.3771,-5.3125 5.3125,-5.3125 z m 35.4375,0 c 2.9354,0 5.3126,2.3771 5.3125,5.3125 0,2.752 -2.1013,5.0406 -4.7812,5.3125 -0.1786,0.018 -0.3479,0 -0.5313,0 -2.9354,0 -5.3124,-2.3771 -5.3125,-5.3125 0,-2.9354 2.377,-5.3125 5.3125,-5.3125 z m 35.4375,0 c 2.9355,0 5.3125,2.3771 5.3125,5.3125 0,2.752 -2.1012,5.0406 -4.7812,5.3125 -0.1786,0.018 -0.3479,0 -0.5313,0 -2.9353,0 -5.3125,-2.3771 -5.3125,-5.3125 0,-2.9354 2.3771,-5.3125 5.3125,-5.3125 z"
       style="display:inline;fill:#81930c;fill-opacity:0.39719627;stroke:none" />
    <path
       id="path3135-1"
       d="m -53.15157,1204.722 c 10.6168,0 17.6867,-7.102 17.6875,-17.7187 l 0.031,-177.1563 c 9e-4,-10.62985 -7.0887,-17.71865 -17.7187,-17.71865 l -106.3126,0 c -10.6167,0 -17.6867,7.0888 -17.6875,17.71865 l -0.031,177.1563 c -8e-4,10.6167 7.0889,17.7187 17.7188,17.7187 l 106.3126,0 z m 0.5,-12.4375 c -0.1786,0.018 -0.3477,0 -0.5312,0 -2.9353,0 -5.3125,-2.3771 -5.3125,-5.3125 0,-2.9354 2.3771,-5.3125 5.3125,-5.3125 2.9355,0 5.3125,2.3771 5.3125,5.3125 0,2.7519 -2.1013,5.0406 -4.7813,5.3125 z m -35.437499,0 c -0.1786,0.018 -0.3478,0 -0.5312,0 -2.9354,0 -5.3124,-2.3771 -5.3125,-5.3125 0,-2.9354 2.377,-5.3125 5.3125,-5.3125 2.9354,0 5.3126,2.3771 5.3125,5.3125 0,2.7519 -2.1014,5.0406 -4.7813,5.3125 z m -35.437501,0 c -0.1787,0.018 -0.3478,0 -0.5313,0 -2.9353,0 -5.3125,-2.3771 -5.3124,-5.3125 0,-2.9354 2.3772,-5.3125 5.3124,-5.3125 2.9354,0 5.3126,2.3771 5.3126,5.3125 0,2.7519 -2.1015,5.0406 -4.7813,5.3125 z m -35.4375,0 c -0.1789,0.018 -0.3478,0 -0.5312,0 -2.9357,0 -5.3124,-2.3771 -5.3126,-5.3125 0,-2.9354 2.3769,-5.3125 5.3126,-5.3125 2.9352,0 5.3437,2.3771 5.3437,5.3125 0,2.7519 -2.1293,5.0406 -4.8125,5.3125 z m 106.3125,-35.4375 c -0.1786,0.018 -0.3477,0 -0.5312,0 -2.9353,0 -5.3125,-2.3771 -5.3125,-5.3125 0,-2.9354 2.3771,-5.3125 5.3125,-5.3125 2.9355,0 5.3125,2.3771 5.3125,5.3125 0,2.7519 -2.1013,5.0406 -4.7813,5.3125 z m -35.437499,0 c -0.1786,0.018 -0.3478,0 -0.5312,0 -2.9354,0 -5.3124,-2.3771 -5.3125,-5.3125 0,-2.9354 2.377,-5.3125 5.3125,-5.3125 2.9354,0 5.3126,2.3771 5.3125,5.3125 0,2.7519 -2.1014,5.0406 -4.7813,5.3125 z m -35.437501,0 c -0.1787,0.018 -0.3478,0 -0.5313,0 -2.9353,0 -5.3125,-2.3771 -5.3124,-5.3125 0,-2.9354 2.3772,-5.3125 5.3124,-5.3125 2.9354,0 5.3126,2.3771 5.3126,5.3125 0,2.7519 -2.1015,5.0406 -4.7813,5.3125 z m -35.4375,0 c -0.1789,0.018 -0.3478,0 -0.5312,0 -2.9357,0 -5.3124,-2.3771 -5.3126,-5.3125 0,-2.9354 2.3769,-5.3125 5.3126,-5.3125 2.9352,0 5.3437,2.3771 5.3437,5.3125 0,2.7519 -2.1293,5.0406 -4.8125,5.3125 z m 106.3125,-35.4375 c -0.1786,0.018 -0.3477,0 -0.5312,0 -2.9353,0 -5.3125,-2.3771 -5.3125,-5.3125 0,-2.9354 2.3771,-5.3125 5.3125,-5.3125 2.9355,0 5.3125,2.3771 5.3125,5.3125 0,2.752 -2.1013,5.0406 -4.7813,5.3125 z m -35.437499,0 c -0.1786,0.018 -0.3478,0 -0.5312,0 -2.9354,0 -5.3124,-2.3771 -5.3125,-5.3125 0,-2.9354 2.377,-5.3125 5.3125,-5.3125 2.9354,0 5.3126,2.3771 5.3125,5.3125 0,2.752 -2.1014,5.0406 -4.7813,5.3125 z m -35.437501,0 c -0.1787,0.018 -0.3478,0 -0.5313,0 -2.9353,0 -5.3125,-2.3771 -5.3124,-5.3125 0,-2.9354 2.3772,-5.3125 5.3124,-5.3125 2.9354,0 5.3126,2.3771 5.3126,5.3125 0,2.752 -2.1015,5.0406 -4.7813,5.3125 z m -35.4375,0 c -0.1789,0.018 -0.3478,0 -0.5312,0 -2.9357,0 -5.3124,-2.3771 -5.3126,-5.3125 0,-2.9354 2.3769,-5.3125 5.3126,-5.3125 2.9352,0 5.3437,2.3771 5.3437,5.3125 0,2.752 -2.1293,5.0406 -4.8125,5.3125 z m 106.3125,-35.4375 c -0.1786,0.018 -0.3477,0 -0.5312,0 -2.9353,0 -5.3125,-2.3771 -5.3125,-5.3125 0,-2.9354 2.3771,-5.3125 5.3125,-5.3125 2.9355,0 5.3125,2.3771 5.3125,5.3125 0,2.7519 -2.1013,5.0406 -4.7813,5.3125 z m -35.437499,0 c -0.1786,0.018 -0.3478,0 -0.5312,0 -2.9354,0 -5.3124,-2.3771 -5.3125,-5.3125 0,-2.9354 2.377,-5.3125 5.3125,-5.3125 2.9354,0 5.3126,2.3771 5.3125,5.3125 0,2.7519 -2.1014,5.0406 -4.7813,5.3125 z m -35.437501,0 c -0.1787,0.018 -0.3478,0 -0.5313,0 -2.9353,0 -5.3125,-2.3771 -5.3124,-5.3125 0,-2.9354 2.3772,-5.3125 5.3124,-5.3125 2.9354,0 5.3126,2.3771 5.3126,5.3125 0,2.7519 -2.1015,5.0406 -4.7813,5.3125 z m -35.4375,0 c -0.1789,0.018 -0.3478,0 -0.5312,0 -2.9357,0 -5.3124,-2.3771 -5.3126,-5.3125 0,-2.9354 2.3769,-5.3125 5.3126,-5.3125 2.9352,0 5.3437,2.3771 5.3437,5.3125 0,2.7519 -2.1293,5.0406 -4.8125,5.3125 z m 105.7813,-35.4062 c -2.9353,0 -5.3125,-2.3771 -5.3125,-5.3125 0,-2.9354 2.3771,-5.3125 5.3125,-5.3125 2.9355,0 5.3125,2.3771 5.3125,5.3125 0,2.9354 -2.377,5.3125 -5.3125,5.3125 z m -35.437499,0 c -2.9354,0 -5.3124,-2.3771 -5.3125,-5.3125 0,-2.9354 2.377,-5.3125 5.3125,-5.3125 2.9354,0 5.3126,2.3771 5.3125,5.3125 0,2.9354 -2.3771,5.3125 -5.3125,5.3125 z m -35.437601,0 c -2.9353,0 -5.3125,-2.3771 -5.3124,-5.3125 0,-2.9354 2.3772,-5.3125 5.3124,-5.3125 2.9354,0 5.3126,2.3771 5.3126,5.3125 0,2.9354 -2.3772,5.3125 -5.3126,5.3125 z m -35.4374,0 c -2.9357,0 -5.3124,-2.3771 -5.3126,-5.3125 0,-2.9354 2.3769,-5.3125 5.3126,-5.3125 2.9352,0 5.3437,2.3771 5.3437,5.3125 0,2.9354 -2.4085,5.3125 -5.3437,5.3125 z m 106.3125,-35.4375 c -2.9353,0 -5.3125,-2.3771 -5.3125,-5.3125 0,-2.9354 2.3771,-5.3125 5.3125,-5.3125 2.9355,0 5.3125,2.3771 5.3125,5.3125 0,2.9354 -2.377,5.3125 -5.3125,5.3125 z m -35.437499,0 c -2.9354,0 -5.3124,-2.3771 -5.3125,-5.3125 0,-2.9354 2.377,-5.3125 5.3125,-5.3125 2.9354,0 5.3126,2.3771 5.3125,5.3125 0,2.9354 -2.3771,5.3125 -5.3125,5.3125 z m -35.437601,0 c -2.9353,0 -5.3125,-2.3771 -5.3124,-5.3125 0,-2.9354 2.3772,-5.3125 5.3124,-5.3125 2.9354,0 5.3126,2.3771 5.3126,5.3125 0,2.9354 -2.3772,5.3125 -5.3126,5.3125 z m -35.4374,0 c -2.9357,0 -5.3124,-2.3771 -5.3126,-5.3125 0,-2.9354 2.3769,-5.3125 5.3126,-5.3125 2.9352,0 5.3437,2.3771 5.3437,5.3125 0,2.9354 -2.4085,5.3125 -5.3437,5.3125 z"
       style="display:inline;fill:#81930c;fill-opacity:0.39719627;stroke:none"
       inkscape:connector-curvature="0" />
    <path
       inkscape:connector-curvature="0"
       id="path3662-5"
       d="m -255.12677,992.12835 c -39.1383,0 -70.875,31.73665 -70.875,70.87495 0,39.1383 31.7367,70.875 70.875,70.875 39.1383,0 70.875,-31.7367 70.875,-70.875 0,-39.1383 -31.7367,-70.87495 -70.875,-70.87495 z m 0,12.40615 c 2.9354,0 5.3125,2.3772 5.3125,5.3125 0,2.9354 -2.3771,5.3125 -5.3125,5.3125 -2.9354,0 -5.3125,-2.3771 -5.3125,-5.3125 0,-2.9353 2.3771,-5.3125 5.3125,-5.3125 z m -26.7188,7.125 c 1.8849,-0.049 3.741,0.9086 4.75,2.6563 1.4677,2.5421 0.5734,5.7823 -1.9687,7.25 -2.5421,1.4677 -5.7823,0.6046 -7.25,-1.9375 -1.4677,-2.5421 -0.6046,-5.7823 1.9375,-7.25 0.7944,-0.4587 1.6745,-0.6965 2.5312,-0.7188 z m 52.9063,0 c 1.0212,-0.072 2.0779,0.1684 3.0312,0.7188 2.5422,1.4677 3.4052,4.7079 1.9375,7.25 -1.4676,2.5421 -4.7078,3.4052 -7.25,1.9375 -2.5421,-1.4677 -3.4051,-4.7079 -1.9375,-7.25 0.9173,-1.5888 2.5168,-2.536 4.2188,-2.6563 z m -72.0938,19.4375 c 0.8568,0.022 1.7369,0.2601 2.5313,0.7188 2.5421,1.4677 3.4052,4.7079 1.9375,7.25 -1.4677,2.5421 -4.7079,3.4364 -7.25,1.9687 -2.5421,-1.4677 -3.4052,-4.7391 -1.9375,-7.2812 1.009,-1.7477 2.8339,-2.7052 4.7187,-2.6563 z m 91.7813,0 c 1.8848,-0.049 3.741,0.9086 4.75,2.6563 1.4677,2.5421 0.6046,5.8135 -1.9375,7.2812 -2.5421,1.4677 -5.8136,0.5734 -7.2813,-1.9687 -1.4676,-2.5421 -0.5733,-5.7823 1.9688,-7.25 0.7944,-0.4587 1.6432,-0.6965 2.5,-0.7188 z m -63.5938,8.875 c 2.9354,0 5.3125,2.3772 5.3125,5.3125 0,2.9354 -2.3771,5.3125 -5.3125,5.3125 -2.9353,0 -5.3125,-2.3771 -5.3125,-5.3125 0,-2.9353 2.3772,-5.3125 5.3125,-5.3125 z m 35.4375,0 c 2.9354,0 5.3125,2.3772 5.3125,5.3125 0,2.9354 -2.3771,5.3125 -5.3125,5.3125 -2.9353,0 -5.3125,-2.3771 -5.3125,-5.3125 0,-2.9353 2.3772,-5.3125 5.3125,-5.3125 z m -70.875,17.7188 c 2.9354,0 5.3125,2.3771 5.3125,5.3125 0,2.9354 -2.3771,5.3125 -5.3125,5.3125 -2.9353,0 -5.3125,-2.3771 -5.3125,-5.3125 0,-2.9354 2.3772,-5.3125 5.3125,-5.3125 z m 53.1563,0 c 2.9354,0 5.3125,2.3771 5.3125,5.3125 0,2.9354 -2.3771,5.3125 -5.3125,5.3125 -2.9354,0 -5.3125,-2.3771 -5.3125,-5.3125 0,-2.9354 2.3771,-5.3125 5.3125,-5.3125 z m 53.1562,0 c 2.9354,0 5.3125,2.3771 5.3125,5.3125 0,2.9354 -2.3771,5.3125 -5.3125,5.3125 -2.9353,0 -5.3125,-2.3771 -5.3125,-5.3125 0,-2.9354 2.3772,-5.3125 5.3125,-5.3125 z m -70.875,17.7188 c 2.9354,0 5.3125,2.3771 5.3125,5.3125 0,2.9353 -2.3771,5.3125 -5.3125,5.3125 -2.9353,0 -5.3125,-2.3772 -5.3125,-5.3125 0,-2.9354 2.3772,-5.3125 5.3125,-5.3125 z m 35.4375,0 c 2.9354,0 5.3125,2.3771 5.3125,5.3125 0,2.9353 -2.3771,5.3125 -5.3125,5.3125 -2.9353,0 -5.3125,-2.3772 -5.3125,-5.3125 0,-2.9354 2.3772,-5.3125 5.3125,-5.3125 z m -63.9062,8.8437 c 1.8848,-0.049 3.741,0.9086 4.75,2.6563 1.4677,2.5421 0.6046,5.7823 -1.9375,7.25 -2.5421,1.4677 -5.7823,0.6046 -7.25,-1.9375 -1.4677,-2.5421 -0.6046,-5.7823 1.9375,-7.25 0.7944,-0.4587 1.6432,-0.6965 2.5,-0.7188 z m 92.3437,0 c 0.8568,0.022 1.7369,0.2601 2.5313,0.7188 2.5421,1.4677 3.4052,4.7079 1.9375,7.25 -1.4677,2.5421 -4.7079,3.4052 -7.25,1.9375 -2.5421,-1.4677 -3.4364,-4.7079 -1.9688,-7.25 1.0091,-1.7477 2.8652,-2.7052 4.75,-2.6563 z m -73.0937,19.4688 c 1.0212,-0.072 2.0467,0.1371 3,0.6875 2.5421,1.4677 3.4364,4.7391 1.9687,7.2812 -1.4676,2.5421 -4.7391,3.4052 -7.2812,1.9375 -2.5421,-1.4677 -3.4052,-4.7079 -1.9375,-7.25 0.9173,-1.5888 2.548,-2.536 4.25,-2.6562 z m 53.375,0 c 1.8848,-0.049 3.7097,0.9085 4.7187,2.6562 1.4677,2.5421 0.6047,5.7823 -1.9375,7.25 -2.5421,1.4677 -5.7823,0.6046 -7.25,-1.9375 -1.4676,-2.5421 -0.6046,-5.8135 1.9375,-7.2812 0.7945,-0.4587 1.6745,-0.6653 2.5313,-0.6875 z m -27,7.125 c 0.1787,-0.018 0.379,0 0.5625,0 2.9354,0 5.3125,2.3771 5.3125,5.3125 0,2.9353 -2.3771,5.3125 -5.3125,5.3125 -2.9354,0 -5.3125,-2.3772 -5.3125,-5.3125 0,-2.7519 2.0699,-5.0404 4.75,-5.3125 z"
       style="display:inline;fill:#81930c;fill-opacity:0.39719627;stroke:none" />
    <path
       inkscape:connector-curvature="0"
       id="rect4500"
       d="m -350.78427,1266.1911 0,-3.5433 17.7185,0 0,-26.0312 -17.7185,0 0,-3.5433 c 0,-3.5433 -3.5433,-7.0867 -7.0866,-7.0867 l -21.2598,0 c -3.5433,0 -7.0867,3.5434 -7.0867,7.0867 l -0.01,3.5433 -35.4375,0 0.011,-3.5433 c 0,-3.5433 -3.5432,-7.0867 -7.0866,-7.0867 l -21.2599,0 c -3.5433,0 -7.0866,3.5434 -7.0866,7.0867 l -0.015,3.5433 -17.7187,0 0,26.0312 17.7187,0 0.015,3.5433 c 0,3.5433 3.5433,7.0867 7.0866,7.0867 l 21.2599,0 c 3.5433,0 7.0866,-3.5434 7.0866,-7.0867 l -0.011,-3.5433 35.4375,0 0.01,3.5433 c 0,3.5433 3.5434,7.0867 7.0867,7.0867 l 21.2598,0 c 3.5433,0 7.0866,-3.5434 7.0866,-7.0867 z m 0,-11.262 c -2.9355,0 -5.344,-2.3772 -5.344,-5.3125 0,-2.9354 2.4085,-5.3125 5.344,-5.3125 2.9354,0 5.3125,2.3771 5.3125,5.3125 0,2.9353 -2.3771,5.3125 -5.3125,5.3125 z m -35.4375,0 c -2.9355,0 -5.3125,-2.3772 -5.3125,-5.3125 0,-2.9354 2.377,-5.3125 5.3125,-5.3125 2.9354,0 5.3125,2.3771 5.3125,5.3125 0,2.9353 -2.3771,5.3125 -5.3125,5.3125 z m -35.4375,0 c -2.9355,0 -5.3125,-2.3772 -5.3125,-5.3125 0,-2.9354 2.377,-5.3125 5.3125,-5.3125 2.9354,0 5.3125,2.3771 5.3125,5.3125 0,2.9353 -2.3771,5.3125 -5.3125,5.3125 z m -35.4375,0 c -2.9355,0 -5.3125,-2.3772 -5.3125,-5.3125 0,-2.9354 2.377,-5.3125 5.3125,-5.3125 2.9354,0 5.3125,2.3771 5.3125,5.3125 0,2.9353 -2.3771,5.3125 -5.3125,5.3125 z"
       style="display:inline;fill:#81930c;fill-opacity:0.39719627;stroke:none"
       sodipodi:nodetypes="sccccccccccccccccccccccccccccsssssssssssssssssssss" />
    <path
       inkscape:connector-curvature="0"
       id="rect3140-5-8"
       d="m -159.43947,1293.312 0,3.5384 -17.7188,0 0,96.9374 17.7188,0 0,3.5433 c 0,3.5433 3.5433,7.0866 7.0866,7.0866 l 21.2598,0 c 3.5433,0 7.0867,-3.5433 7.0867,-7.0866 l 0.01,-3.5433 35.437601,0 -0.011,3.5433 c 0,3.5433 3.5433,7.0866 7.0866,7.0866 l 21.259899,0 c 3.5433,0 7.0866,-3.5433 7.0866,-7.0866 l 0.016,-3.5433 17.6876,0 0,-96.9374 -17.6876,0 -0.013,-3.5384 c 0,-3.5433 -3.5433,-7.0866 -7.0866,-7.0866 l -21.259899,0 c -3.5433,0 -7.0867,3.5433 -7.0867,7.0866 l 0.01,3.5384 -35.437501,0 0,-3.5384 c 0,-3.5433 -3.5435,-7.0866 -7.0868,-7.0866 l -21.2598,0 c -3.5433,0 -7.0866,3.5433 -7.0866,7.0866 z m 0,11.2571 c 2.9354,0 5.3125,2.3772 5.3125,5.3125 0,2.9354 -2.3771,5.3125 -5.3125,5.3125 -2.9355,0 -5.3126,-2.3771 -5.3126,-5.3125 0,-2.9353 2.3771,-5.3125 5.3126,-5.3125 z m 35.4375,0 c 2.9355,0 5.3126,2.3772 5.3126,5.3125 0,2.9354 -2.3771,5.3125 -5.3126,5.3125 -2.9354,0 -5.3124,-2.3771 -5.3124,-5.3125 0,-2.9353 2.377,-5.3125 5.3124,-5.3125 z m 35.437601,0 c 2.9354,0 5.3124,2.3772 5.3124,5.3125 0,2.9354 -2.377,5.3125 -5.3124,5.3125 -2.9355,0 -5.3126,-2.3771 -5.3126,-5.3125 0,-2.9353 2.3771,-5.3125 5.3126,-5.3125 z m 35.437399,0 c 2.9355,0 5.3126,2.3772 5.3126,5.3125 0,2.9354 -2.3771,5.3125 -5.3126,5.3125 -2.9354,0 -5.3124,-2.3771 -5.3124,-5.3125 0,-2.9353 2.377,-5.3125 5.3124,-5.3125 z m -88.5937,17.7188 c 2.9354,0 5.3125,2.3771 5.3125,5.3125 0,2.9353 -2.3771,5.3125 -5.3125,5.3125 -2.9353,0 -5.3125,-2.3772 -5.3125,-5.3125 0,-2.9354 2.3772,-5.3125 5.3125,-5.3125 z m 35.4375,0 c 2.9354,0 5.3125,2.3771 5.3125,5.3125 0,2.9353 -2.3771,5.3125 -5.3125,5.3125 -2.9353,0 -5.3125,-2.3772 -5.3125,-5.3125 0,-2.9354 2.3772,-5.3125 5.3125,-5.3125 z m 35.4375,0 c 2.9353,0 5.3125,2.3771 5.3125,5.3125 0,2.9353 -2.3772,5.3125 -5.3125,5.3125 -2.935399,0 -5.312399,-2.3772 -5.312499,-5.3125 0,-2.9354 2.3771,-5.3125 5.312499,-5.3125 z m -88.5938,17.7187 c 2.9353,0 5.3125,2.3772 5.3125,5.3125 0,2.9354 -2.3771,5.3125 -5.3125,5.3125 -2.9354,0 -5.3126,-2.3771 -5.3126,-5.3125 0,-2.9353 2.3771,-5.3125 5.3126,-5.3125 z m 35.4375,0 c 2.9354,0 5.3126,2.3772 5.3126,5.3125 0,2.9354 -2.3771,5.3125 -5.3126,5.3125 -2.9353,0 -5.3124,-2.3771 -5.3124,-5.3125 0,-2.9353 2.377,-5.3125 5.3124,-5.3125 z m 35.437601,0 c 2.9353,0 5.3124,2.3772 5.3124,5.3125 0,2.9354 -2.377,5.3125 -5.3124,5.3125 -2.9354,0 -5.3126,-2.3771 -5.3126,-5.3125 0,-2.9353 2.3771,-5.3125 5.3126,-5.3125 z m 35.437399,0 c 2.9354,0 5.3126,2.3772 5.3126,5.3125 0,2.9354 -2.3771,5.3125 -5.3126,5.3125 -2.9353,0 -5.3124,-2.3771 -5.3124,-5.3125 0,-2.9353 2.377,-5.3125 5.3124,-5.3125 z m -88.5937,17.7188 c 2.9354,0 5.3125,2.3771 5.3125,5.3125 0,2.9353 -2.3771,5.3125 -5.3125,5.3125 -2.9353,0 -5.3125,-2.3772 -5.3125,-5.3125 0,-2.9354 2.3772,-5.3125 5.3125,-5.3125 z m 35.4375,0 c 2.9354,0 5.3125,2.3771 5.3125,5.3125 0,2.9353 -2.3771,5.3125 -5.3125,5.3125 -2.9353,0 -5.3125,-2.3772 -5.3125,-5.3125 0,-2.9354 2.3772,-5.3125 5.3125,-5.3125 z m 35.4375,0 c 2.9353,0 5.3125,2.3771 5.3125,5.3125 0,2.9353 -2.3772,5.3125 -5.3125,5.3125 -2.935399,0 -5.312399,-2.3772 -5.312499,-5.3125 0,-2.9354 2.3771,-5.3125 5.312499,-5.3125 z m -88.5938,17.7187 c 2.9354,0 5.3125,2.3772 5.3125,5.3124 0,2.9354 -2.3771,5.3125 -5.3125,5.3125 -2.9355,0 -5.3126,-2.3771 -5.3126,-5.3125 0,-2.9352 2.3771,-5.3124 5.3126,-5.3124 z m 35.4375,0 c 2.9355,0 5.3126,2.3772 5.3126,5.3124 0,2.9354 -2.3771,5.3125 -5.3126,5.3125 -2.9354,0 -5.3124,-2.3771 -5.3124,-5.3125 0,-2.9352 2.377,-5.3124 5.3124,-5.3124 z m 35.437601,0 c 2.9354,0 5.3124,2.3772 5.3124,5.3124 0,2.9354 -2.377,5.3125 -5.3124,5.3125 -2.9355,0 -5.3126,-2.3771 -5.3126,-5.3125 0,-2.9352 2.3771,-5.3124 5.3126,-5.3124 z m 35.437399,0 c 2.9355,0 5.3126,2.3772 5.3126,5.3124 0,2.9354 -2.3771,5.3125 -5.3126,5.3125 -2.9354,0 -5.3124,-2.3771 -5.3124,-5.3125 0,-2.9352 2.377,-5.3124 5.3124,-5.3124 z"
       style="display:inline;fill:#81930c;fill-opacity:0.39719627;stroke:none"
       sodipodi:nodetypes="sccccccccccccccccccccccccccccssssssssssssssssssssssssssssssssscsssssssssssssssssssssssssssssssssscssssssssssssssssssssss" />
    <path
       style="display:inline;fill:#81930c;fill-opacity:0.39719627;stroke:none"
       d="m -453.56143,1140.9473 c -11.7415,0 -21.25,5.9968 -21.25,17.7383 0,11.7415 9.5085,17.6953 21.25,17.6953 l 201.96875,0 c 11.7413,0 21.25,-5.9538 21.25,-17.6953 0,-11.7415 -9.5087,-17.7383 -21.25,-17.7383 l -201.96875,0 z m 0,7.082 c 5.8707,0 10.625,4.7856 10.625,10.6563 0,5.8707 -4.7543,10.625 -10.625,10.625 -5.8707,0 -10.625,-4.7543 -10.625,-10.625 0,-5.8707 4.7543,-10.6563 10.625,-10.6563 z m 177.15625,0 24.8125,0 c 5.8705,0 10.625,4.7856 10.625,10.6563 0,5.8707 -4.7545,10.625 -10.625,10.625 l -24.8125,0 c -5.8705,0 -10.625,-4.7543 -10.625,-10.625 0,-5.8707 4.7545,-10.6563 10.625,-10.6563 z m -141.80273,5.2363 35.60937,0 0,10.8067 -35.60937,0 0,-10.8067 z m 70.85937,0 35.60938,0 0,10.8067 -35.60938,0 0,-10.8067 z"
       id="path5018"
       inkscape:connector-curvature="0" />
    <path
       style="display:inline;fill:#81930c;fill-opacity:0.39719627;stroke:none"
       d="m -453.56143,1183.4668 c -11.7414,0 -21.25,5.9968 -21.25,17.7383 0,11.7415 9.5086,17.6953 21.25,17.6953 l 201.96875,0 c 11.7414,0 21.25,-5.9538 21.25,-17.6953 0,-11.7415 -9.5086,-17.7383 -21.25,-17.7383 l -201.96875,0 z m 35.35157,12.336 35.60937,0 0,10.8066 -35.60937,0 0,-10.8066 z m 70.85937,0 35.60938,0 0,10.8066 -35.60938,0 0,-10.8066 z m -106.21094,0.09 c 2.9354,0 5.3125,2.3771 5.3125,5.3125 0,2.9354 -2.3771,5.3125 -5.3125,5.3125 -2.9353,0 -5.3125,-2.3771 -5.3125,-5.3125 0,-2.9354 2.3772,-5.3125 5.3125,-5.3125 z m 177.15625,0 24.8125,0 c 2.9351,0 5.3125,2.3771 5.3125,5.3125 0,2.9354 -2.3774,5.3125 -5.3125,5.3125 l -24.8125,0 c -2.9351,0 -5.3125,-2.3771 -5.3125,-5.3125 0,-2.9354 2.3774,-5.3125 5.3125,-5.3125 z"
       id="path5008"
       inkscape:connector-curvature="0" />
    <path
       sodipodi:nodetypes="ssssssssscsssccsssccsssccssscsssssssssssssssssssscscsccscsccscsccscscssssssssssssssssssss"
       inkscape:connector-curvature="0"
       id="rect3822-4-8-3"
       d="m -184.26977,1243.6899 c 0,-10.6167 -7.0866,-17.7033 -17.7165,-17.7033 l -106.3121,0 c -10.6168,0 -17.7034,7.0866 -17.7034,17.7033 l 0,106.3124 c 0,10.6299 7.0866,17.7165 17.7166,17.7165 l 106.3121,0 c 10.6167,0 17.7033,-7.0866 17.7033,-17.7165 z m -12.3772,0.018 c 0,2.9354 -2.3771,5.3125 -5.3126,5.3125 -2.9353,0 -5.3437,-2.3771 -5.3437,-5.3125 0,-2.9354 2.4084,-5.3125 5.3437,-5.3125 2.9355,0 5.3125,2.3771 5.3126,5.3125 z m 0,35.4375 c 0,2.9354 -2.3771,5.3124 -5.3126,5.3124 -2.9353,0 -5.3437,-2.377 -5.3437,-5.3124 0,-2.9354 2.4084,-5.3125 5.3437,-5.3125 2.9355,0 5.3125,2.3771 5.3126,5.3125 z m 0,35.4374 c 0,2.9354 -2.3771,5.3125 -5.3126,5.3125 -2.9353,0 -5.3437,-2.3771 -5.3437,-5.3125 0,-2.9354 2.4084,-5.3125 5.3437,-5.3125 2.9355,0 5.3125,2.3771 5.3126,5.3125 z m 0,35.4375 c 0,2.9354 -2.3771,5.3125 -5.3126,5.3125 -2.9353,0 -5.3437,-2.3771 -5.3437,-5.3125 0,-2.9354 2.4084,-5.3125 5.3437,-5.3125 2.9355,0 5.3125,2.3771 5.3126,5.3125 z m -35.4376,-106.3124 c 0,2.9354 -2.377,5.3125 -5.3124,5.3125 -2.9354,0 -5.3126,-2.3771 -5.3126,-5.3125 0,-2.9354 2.3772,-5.3125 5.3126,-5.3125 2.9354,0 5.3124,2.3771 5.3124,5.3125 z m 0,35.4375 c 0,2.9354 -2.377,5.3124 -5.3124,5.3124 -2.9354,0 -5.3126,-2.377 -5.3126,-5.3124 0,-2.9354 2.3772,-5.3125 5.3126,-5.3125 2.9354,0 5.3124,2.3771 5.3124,5.3125 z m 0,35.4374 c 0,2.9354 -2.377,5.3125 -5.3124,5.3125 -2.9354,0 -5.3126,-2.3771 -5.3126,-5.3125 0,-2.9354 2.3772,-5.3125 5.3126,-5.3125 2.9354,0 5.3124,2.3771 5.3124,5.3125 z m 0,35.4375 c 0,2.9354 -2.377,5.3125 -5.3124,5.3125 -2.9354,0 -5.3126,-2.3771 -5.3126,-5.3125 0,-2.9354 2.3772,-5.3125 5.3126,-5.3125 2.9354,0 5.3124,2.3771 5.3124,5.3125 z m -35.4371,-106.3124 c 0,2.9354 -2.3771,5.3125 -5.3126,5.3125 -2.9354,0 -5.3125,-2.3771 -5.3124,-5.3125 0,-2.9354 2.377,-5.3125 5.3124,-5.3125 2.9354,0 5.3125,2.3771 5.3126,5.3125 z m 0,35.4375 c 0,2.9354 -2.3771,5.3124 -5.3126,5.3124 -2.9354,0 -5.3125,-2.377 -5.3124,-5.3124 0,-2.9354 2.377,-5.3125 5.3124,-5.3125 2.9354,0 5.3125,2.3771 5.3126,5.3125 z m 0,35.4374 c 0,2.9354 -2.3771,5.3125 -5.3126,5.3125 -2.9354,0 -5.3125,-2.3771 -5.3124,-5.3125 0,-2.9354 2.377,-5.3125 5.3124,-5.3125 2.9354,0 5.3125,2.3771 5.3126,5.3125 z m 0,35.4375 c 0,2.9354 -2.3771,5.3125 -5.3126,5.3125 -2.9354,0 -5.3125,-2.3771 -5.3124,-5.3125 0,-2.9354 2.377,-5.3125 5.3124,-5.3125 2.9354,0 5.3125,2.3771 5.3126,5.3125 z m -35.4376,-106.3124 c 0,2.9354 -2.377,5.3125 -5.3124,5.3125 -2.9355,0 -5.3126,-2.3771 -5.3126,-5.3125 0,-2.9354 2.3771,-5.3125 5.3126,-5.3125 2.9353,0 5.3124,2.3771 5.3124,5.3125 z m 0,35.4375 c 0,2.9354 -2.377,5.3124 -5.3124,5.3124 -2.9355,0 -5.3126,-2.377 -5.3126,-5.3124 0,-2.9354 2.3771,-5.3125 5.3126,-5.3125 2.9353,0 5.3124,2.3771 5.3124,5.3125 z m 0,35.4374 c 0,2.9354 -2.377,5.3125 -5.3124,5.3125 -2.9355,0 -5.3126,-2.3771 -5.3126,-5.3125 0,-2.9354 2.3771,-5.3125 5.3126,-5.3125 2.9353,0 5.3124,2.3771 5.3124,5.3125 z m 0,35.4375 c 0,2.9354 -2.377,5.3125 -5.3124,5.3125 -2.9355,0 -5.3126,-2.3771 -5.3126,-5.3125 0,-2.9354 2.3771,-5.3125 5.3126,-5.3125 2.9353,0 5.3124,2.3771 5.3124,5.3125 z"
       style="display:inline;fill:#81930c;fill-opacity:0.39719627;stroke:none" />
    <g
       id="layer6-0"
       inkscape:label="Calibration"
       style="display:inline"
       transform="translate(-3292.8645,182.33794)" />
    <g
       id="layer7"
       inkscape:label="Verticals"
       style="display:inline"
       transform="translate(-3292.8645,182.33794)" />
    <g
       transform="translate(-3292.8645,-891.28409)"
       id="layer8"
       inkscape:label="Wheels"
       style="display:inline" />
    <g
       transform="translate(-3292.8645,-891.28409)"
       id="layer9"
       inkscape:label="Bearings (working layer)"
       style="display:inline" />
    <g
       transform="translate(-3292.8645,-891.28409)"
       id="layer10"
       inkscape:label="Bearings (production layer)"
       style="display:inline" />
    <g
       id="layer5-62"
       inkscape:label="30x3 Slots (Motor mount)"
       style="display:inline"
       transform="translate(-3292.8645,182.33794)" />
    <g
       id="layer4-2"
       inkscape:label="5x3 Slots (Motor mount)"
       style="display:inline"
       transform="translate(-3292.8645,182.33794)" />
    <g
       id="layer3-5"
       inkscape:label="10x3 Slots"
       style="display:inline"
       transform="translate(-3292.8645,182.33794)" />
    <g
       id="layer6-6"
       inkscape:label="Calibration"
       style="display:inline"
       transform="translate(-3122.7858,895.4236)" />
    <g
       inkscape:label="Base platters"
       id="layer1-6"
       style="display:inline"
       transform="translate(-3122.7858,895.4236)">
      <path
         id="path11902-9"
         style="fill:none;stroke:#000000"
         d=""
         inkscape:connector-curvature="0" />
    </g>
    <g
       id="layer8-7"
       inkscape:label="Wheels"
       style="display:inline"
       transform="translate(-3122.7858,-178.1984)" />
    <g
       id="layer9-5"
       inkscape:label="Bearings (working layer)"
       style="display:inline"
       transform="translate(-3122.7858,-178.1984)" />
    <g
       id="layer10-6"
       inkscape:label="Bearings (production layer)"
       style="display:inline"
       transform="translate(-3122.7858,-178.1984)" />
    <g
       id="layer5-6"
       inkscape:label="30x3 Slots (Motor mount)"
       style="display:inline"
       transform="translate(-3122.7858,895.4236)" />
    <g
       id="layer4-6"
       inkscape:label="5x3 Slots (Motor mount)"
       style="display:inline"
       transform="translate(-3122.7858,895.4236)" />
    <g
       id="layer3-0"
       inkscape:label="10x3 Slots"
       style="display:inline"
       transform="translate(-3122.7858,895.4236)" />
    <g
       id="layer2-3"
       inkscape:label="3x10 Slots"
       style="display:inline"
       transform="translate(-3122.7858,895.4236)" />
    <path
       inkscape:connector-curvature="0"
       d=""
       style="fill:none;stroke:#000000"
       id="path3084" />
    <path
       inkscape:connector-curvature="0"
       d=""
       style="fill:none;stroke:#000000"
       id="path3084-0" />
    <path
       id="path3307"
       style="fill:none;stroke:#000000"
       d=""
       inkscape:connector-curvature="0" />
    <path
       id="path3311"
       style="fill:none;stroke:#000000"
       d=""
       inkscape:connector-curvature="0" />
    <g
       transform="translate(-3292.8645,182.33794)"
       id="g4616" />
    <path
       style="display:inline;fill:#81930c;fill-opacity:0.39719627;stroke:none"
       d="m -628.47075,763.19062 c -3.5192,0 -6.7406,1.2831 -9.2187,3.4062 l -4.3125,0 -3.5313,3.5625 0,21.25001 -3.5625,3.5313 -16.5937,0 -4.6563,3.5625 0,46.0312 3.5313,3.5625 17.0937,0 4.1875,3.5313 0,60.25 -3.5625,3.5312 0,35.43748 3.5625,3.5625 0,3.5313 3.5313,3.5312 39.7812,0 c 2.4417,1.9715 5.5323,3.1563 8.9063,3.1563 3.373,0 6.4548,-1.1858 8.875,-3.1563 l 85.37499,0 c 2.4314,4.3082 7.0127,7.2188 12.3125,7.2188 5.2997,0 9.9123,-2.9106 12.3438,-7.2188 l 66.2812,0 3.5313,-3.5625 0,-3.5 7.0937,-7.0937 0,-6.4375 c 1.7525,-2.3721 2.8126,-5.2884 2.8126,-8.4688 0,-3.1857 -1.0557,-6.11448 -2.8126,-8.46868 l 0,-82.0625 c 1.7525,-2.3721 2.8126,-5.2884 2.8126,-8.4688 0.046,-0.521 0.074,-1.0421 0.062,-1.5625 -0.08,-3.6413 -1.4871,-7.1354 -2.875,-8.5625 l -7.0937,-7.0625 0,-30.4687 c 1.7319,-2.35051 2.7813,-5.22941 2.7813,-8.37501 0,-7.8314 -6.3563,-14.1875 -14.1876,-14.1875 -3.5132,0 -6.7118,1.2919 -9.1874,3.4062 l -16.9063,0 c -2.4781,-2.1231 -5.6997,-3.4062 -9.2187,-3.4062 -3.5192,0 -6.7095,1.2831 -9.1876,3.4062 l -17.0312,0 c -2.4781,-2.1231 -5.6997,-3.4062 -9.2188,-3.4062 -3.5192,0 -6.7095,1.2831 -9.1875,3.4062 l -17.0313,0 c -2.4781,-2.1231 -5.6683,-3.4062 -9.1875,-3.4062 -3.5192,0 -6.7407,1.2831 -9.2188,3.4062 l -17.0312,0 c -2.4781,-2.1231 -5.6683,-3.4062 -9.1875,-3.4062 -3.5192,0 -6.74059,1.2831 -9.21869,3.4062 l -16.0313,0 c -1.8098,-0.8376 -3.8318,-1.3127 -5.9687,-1.3125 -2.1369,0 -4.1481,0.4749 -5.9688,1.3125 l -24.4687,0 c -2.48,-2.1301 -5.6931,-3.4062 -9.2188,-3.4062 z m 0,8.8437 c 2.9354,0 5.3125,2.3773 5.3125,5.3125 0,2.9354 -2.3771,5.3125 -5.3125,5.3125 -2.9353,0 -5.3125,-2.377 -5.3125,-5.3125 0,-2.9352 2.3772,-5.3125 5.3125,-5.3125 z m 70.87499,0 c 2.9354,0 5.3125,2.3773 5.3125,5.3125 0,2.9354 -2.3771,5.3125 -5.3125,5.3125 -2.9353,0 -5.3125,-2.377 -5.3125,-5.3125 0,-2.9352 2.3772,-5.3125 5.3125,-5.3125 z m 35.4063,0 c 2.9353,0 5.3124,2.3773 5.3124,5.3125 0,2.9357 -2.3772,5.3125 -5.3124,5.3125 -2.9354,0 -5.3125,-2.3768 -5.3126,-5.3125 0,-2.9352 2.3772,-5.3125 5.3126,-5.3125 z m 35.4374,0 c 2.752,0 5.0403,2.1012 5.3126,4.7813 0.018,0.1787 0,0.3479 0,0.5312 0,2.9354 -2.3771,5.3125 -5.3126,5.3125 -2.9353,0 -5.3124,-2.377 -5.3124,-5.3125 0,-2.9352 2.3772,-5.3125 5.3124,-5.3125 z m 35.4376,0 c 2.9352,0 5.3124,2.3773 5.3124,5.3125 0,2.9354 -2.3771,5.3125 -5.3124,5.3125 -2.9356,0 -5.3126,-2.377 -5.3126,-5.3125 0,-2.9352 2.3771,-5.3125 5.3126,-5.3125 z m 35.2812,0 c 2.9354,0 5.3125,2.3773 5.3125,5.3125 0,2.9356 -2.3771,5.3122 -5.3125,5.3125 -2.9354,0 -5.3125,-2.3769 -5.3125,-5.3125 0,-2.9352 2.3771,-5.3128 5.3125,-5.3125 z m -172.84369,2.0938 c 2.9402,0 5.3125,2.3407 5.3125,5.2812 0,2.9399 -2.3723,5.3438 -5.3125,5.3438 -2.9402,0 -5.3125,-2.4037 -5.3125,-5.3438 0,-2.9405 2.3723,-5.2812 5.3125,-5.2812 z m -39.5938,33.34371 c 2.9354,0 5.3125,2.377 5.3125,5.3125 0,2.9352 -2.3771,5.3125 -5.3125,5.3125 -2.9353,0 -5.3125,-2.3773 -5.3125,-5.3125 0,-2.9354 2.3772,-5.3125 5.3125,-5.3125 z m 35.4375,0 c 2.9354,0 5.3125,2.377 5.3125,5.3125 0,2.9352 -2.3771,5.3125 -5.3125,5.3125 -2.9353,0 -5.3125,-2.3773 -5.3125,-5.3125 0,-2.9354 2.3772,-5.3125 5.3125,-5.3125 z m 35.43749,0 c 2.9354,0 5.3125,2.377 5.3125,5.3125 0,2.9352 -2.3771,5.3125 -5.3125,5.3125 -2.9353,0 -5.3125,-2.3773 -5.3125,-5.3125 0,-2.9354 2.3772,-5.3125 5.3125,-5.3125 z m 35.4375,0 c 2.9354,0 5.3125,2.377 5.3125,5.3125 0,2.9352 -2.3771,5.3125 -5.3125,5.3125 -2.9354,0 -5.3438,-2.3773 -5.3438,-5.3125 0,-2.9354 2.4084,-5.3125 5.3438,-5.3125 z m 35.4062,0 c 2.752,0 5.0403,2.1012 5.3126,4.7813 0.018,0.1787 0,0.3476 0,0.5312 0,2.9352 -2.3771,5.3125 -5.3126,5.3125 -2.9353,0 -5.3124,-2.3773 -5.3124,-5.3125 0,-2.9354 2.3772,-5.3125 5.3124,-5.3125 z m 35.4376,0 c 2.9352,0 5.3124,2.377 5.3124,5.3125 0,2.9352 -2.3771,5.3125 -5.3124,5.3125 -2.9356,0 -5.3126,-2.3773 -5.3126,-5.3125 0,-2.9354 2.3771,-5.3125 5.3126,-5.3125 z m 42.4374,20.6563 c 2.9403,0 5.3126,2.3406 5.3126,5.2812 0,2.9397 -2.3723,5.3438 -5.3126,5.3438 -2.9402,0 -5.3124,-2.4041 -5.3124,-5.3438 0,-2.9407 2.3722,-5.2812 5.3124,-5.2812 z m -219.59369,14.7812 c 2.9354,0 5.3125,2.3773 5.3125,5.3125 0,2.9354 -2.3771,5.3125 -5.3125,5.3125 -2.9353,0 -5.3125,-2.377 -5.3125,-5.3125 0,-2.9352 2.3772,-5.3125 5.3125,-5.3125 z m 35.4375,0 c 2.9354,0 5.3125,2.3773 5.3125,5.3125 0,2.9354 -2.3771,5.3125 -5.3125,5.3125 -2.9353,0 -5.3125,-2.377 -5.3125,-5.3125 0,-2.9352 2.3772,-5.3125 5.3125,-5.3125 z m 35.43749,0 c 2.9354,0 5.3125,2.3773 5.3125,5.3125 0,2.9354 -2.3771,5.3125 -5.3125,5.3125 -2.9353,0 -5.3125,-2.377 -5.3125,-5.3125 0,-2.9352 2.3772,-5.3125 5.3125,-5.3125 z m 35.4375,0 c 2.9354,0 5.3125,2.3773 5.3125,5.3125 0,2.9354 -2.3771,5.3125 -5.3125,5.3125 -2.9354,0 -5.3438,-2.377 -5.3438,-5.3125 0,-2.9352 2.4084,-5.3125 5.3438,-5.3125 z m 35.4062,0 c 2.752,0 5.0403,2.1012 5.3126,4.7813 0.018,0.1787 0,0.3479 0,0.5312 0,2.9354 -2.3771,5.3125 -5.3126,5.3125 -2.9353,0 -5.3124,-2.377 -5.3124,-5.3125 0,-2.9352 2.3772,-5.3125 5.3124,-5.3125 z m 35.4376,0 c 2.9352,0 5.3124,2.3773 5.3124,5.3125 0,2.9354 -2.3771,5.3125 -5.3124,5.3125 -2.9356,0 -5.3126,-2.377 -5.3126,-5.3125 0,-2.9352 2.3771,-5.3125 5.3126,-5.3125 z m -177.18749,35.4375 c 2.7519,0 5.0406,2.1014 5.3125,4.7813 0.018,0.1787 0,0.3474 0,0.5312 0,2.9352 -2.3772,5.3128 -5.3125,5.3125 -2.9354,0 -5.3125,-2.3776 -5.3125,-5.3125 0,-2.9357 2.3771,-5.3122 5.3125,-5.3125 z m 35.4687,0 c 2.9354,0 5.3125,2.377 5.3125,5.3125 0,2.9352 -2.3771,5.3125 -5.3125,5.3125 -2.9353,0 -5.3125,-2.3773 -5.3125,-5.3125 0,-2.9354 2.3772,-5.3125 5.3125,-5.3125 z m 35.43749,0 c 2.9354,0 5.3125,2.377 5.3125,5.3125 0,2.9352 -2.3771,5.3125 -5.3125,5.3125 -2.9353,0 -5.3125,-2.3773 -5.3125,-5.3125 0,-2.9354 2.3772,-5.3125 5.3125,-5.3125 z m 35.4375,0 c 2.9354,0 5.3125,2.377 5.3125,5.3125 0,2.9352 -2.3771,5.3125 -5.3125,5.3125 -2.9354,0 -5.3438,-2.3773 -5.3438,-5.3125 0,-2.9354 2.4084,-5.3125 5.3438,-5.3125 z m 35.4062,0 c 2.752,0 5.0403,2.1012 5.3126,4.7813 0.018,0.1787 0,0.3476 0,0.5312 0,2.9352 -2.3771,5.3125 -5.3126,5.3125 -2.9353,0 -5.3124,-2.3773 -5.3124,-5.3125 0,-2.9354 2.3772,-5.3125 5.3124,-5.3125 z m 35.4376,0 c 2.9352,0 5.3124,2.377 5.3124,5.3125 0,2.9352 -2.3771,5.3125 -5.3124,5.3125 -2.9356,0 -5.3126,-2.3773 -5.3126,-5.3125 0,-2.9354 2.3771,-5.3125 5.3126,-5.3125 z m 35.4374,0 c 2.9354,0 5.3126,2.377 5.3126,5.3125 0,2.9352 -2.3771,5.3125 -5.3126,5.3125 -2.9353,0 -5.3124,-2.3773 -5.3124,-5.3125 0,-2.9354 2.3772,-5.3125 5.3124,-5.3125 z m -212.62489,35.4375 c 2.7519,0 5.0406,2.1014 5.3125,4.7813 0.018,0.1787 0,0.3477 0,0.5312 0,2.9354 -2.3772,5.3125 -5.3125,5.3125 -2.9354,0 -5.3125,-2.3773 -5.3125,-5.3125 0,-2.9355 2.3771,-5.3125 5.3125,-5.3125 z m 35.4687,0 c 2.9354,0 5.3125,2.3773 5.3125,5.3125 0,2.9354 -2.3771,5.3125 -5.3125,5.3125 -2.9353,0 -5.3125,-2.377 -5.3125,-5.3125 0,-2.9352 2.3772,-5.3125 5.3125,-5.3125 z m 35.43749,0 c 2.9354,0 5.3125,2.3773 5.3125,5.3125 0,2.9354 -2.3771,5.3125 -5.3125,5.3125 -2.9353,0 -5.3125,-2.377 -5.3125,-5.3125 0,-2.9352 2.3772,-5.3125 5.3125,-5.3125 z m 35.4375,0 c 2.9354,0 5.3125,2.3773 5.3125,5.3125 0,2.9354 -2.3771,5.3125 -5.3125,5.3125 -2.9354,0 -5.3438,-2.377 -5.3438,-5.3125 0,-2.9352 2.4084,-5.3125 5.3438,-5.3125 z m 35.4062,0 c 2.752,0 5.0403,2.0697 5.3126,4.75 0.018,0.1785 0,0.3792 0,0.5625 0,2.9354 -2.3771,5.3125 -5.3126,5.3125 -2.9353,0 -5.3124,-2.377 -5.3124,-5.3125 0,-2.9352 2.3772,-5.3125 5.3124,-5.3125 z m 35.4376,0 c 2.9352,0 5.3124,2.3773 5.3124,5.3125 0,2.9354 -2.3771,5.3125 -5.3124,5.3125 -2.9356,0 -5.3126,-2.377 -5.3126,-5.3125 0,-2.9352 2.3771,-5.3125 5.3126,-5.3125 z m 42.4374,13.34378 c 2.9403,0 5.3126,2.3406 5.3126,5.2812 0,2.9397 -2.3723,5.3438 -5.3126,5.3438 -2.9402,0 -5.3124,-2.4041 -5.3124,-5.3438 0,-2.9407 2.3722,-5.2812 5.3124,-5.2812 z m -184.49989,18 c 2.9402,0 5.3125,2.3406 5.3125,5.2812 0,2.9397 -2.3723,5.3438 -5.3125,5.3438 -2.9402,0 -5.3125,-2.4039 -5.3125,-5.3438 0,-2.9407 2.3723,-5.2812 5.3125,-5.2812 z m 106.06249,4.0937 c 0.1784,-0.018 0.3477,0 0.5312,0 2.9354,0 5.3438,2.3769 5.3438,5.3125 0,2.9352 -2.4084,5.3128 -5.3438,5.3125 -2.9354,0 -5.3125,-2.3776 -5.3125,-5.3125 0,-2.752 2.101,-5.0401 4.7813,-5.3125 z"
       id="path3081"
       inkscape:connector-curvature="0" />
  </g>
</svg>
