<?xml version="1.0" encoding="UTF-8" standalone="no"?>
<!-- Created with Inkscape (http://www.inkscape.org/) -->

<svg
   xmlns:dc="http://purl.org/dc/elements/1.1/"
   xmlns:cc="http://creativecommons.org/ns#"
   xmlns:rdf="http://www.w3.org/1999/02/22-rdf-syntax-ns#"
   xmlns:svg="http://www.w3.org/2000/svg"
   xmlns="http://www.w3.org/2000/svg"
   xmlns:sodipodi="http://sodipodi.sourceforge.net/DTD/sodipodi-0.dtd"
   xmlns:inkscape="http://www.inkscape.org/namespaces/inkscape"
   width="3188.9763"
   height="2125.9841"
   id="svg2"
   version="1.1"
   inkscape:version="0.48.4 r9939"
   sodipodi:docname="accessory-platters-1.svg">
  <sodipodi:namedview
     id="base"
     pagecolor="#ffffff"
     bordercolor="#666666"
     borderopacity="1.0"
     inkscape:pageopacity="0.0"
     inkscape:pageshadow="2"
     inkscape:zoom="2.0748993"
     inkscape:cx="988.26558"
     inkscape:cy="1607.122"
     inkscape:document-units="mm"
     inkscape:current-layer="layer10"
     showgrid="true"
     inkscape:snap-object-midpoints="false"
     inkscape:snap-bbox="true"
     inkscape:object-paths="false"
     inkscape:snap-nodes="true"
     inkscape:object-nodes="false"
     inkscape:snap-global="true"
     inkscape:snap-grids="true"
     inkscape:window-width="1920"
     inkscape:window-height="1030"
     inkscape:window-x="0"
     inkscape:window-y="0"
     inkscape:window-maximized="1"
     inkscape:snap-smooth-nodes="false"
     units="mm">
    <inkscape:grid
       empopacity="0.25098039"
       empcolor="#ff9500"
       spacingy="1mm"
       spacingx="1mm"
       units="mm"
       snapvisiblegridlinesonly="true"
       enabled="true"
       visible="true"
       empspacing="10"
       id="grid2985"
       type="xygrid" />
  </sodipodi:namedview>
  <defs
     id="defs4" />
  <metadata
     id="metadata7">
    <rdf:RDF>
      <cc:Work
         rdf:about="">
        <dc:format>image/svg+xml</dc:format>
        <dc:type
           rdf:resource="http://purl.org/dc/dcmitype/StillImage" />
        <dc:title />
      </cc:Work>
    </rdf:RDF>
  </metadata>
  <g
     style="display:inline"
     inkscape:label="Verticals and Castors"
     id="layer10"
     inkscape:groupmode="layer">
    <path
       sodipodi:nodetypes="ssssssssscsssccsssccsssccssscsssssssssssssssssssscscsccscsccscsccscscssssssssssssssssssss"
       inkscape:connector-curvature="0"
       id="rect3822-4-8"
       d="m 708.66142,265.73469 c 0,-10.6167 -7.0866,-17.7033 -17.7165,-17.7033 l -106.31211,0 c -10.6168,0 -17.7034,7.0866 -17.7034,17.7033 l 0,106.31243 c 0,10.62992 7.0866,17.71654 17.7166,17.71654 l 106.31211,0 c 10.6167,0 17.7033,-7.08662 17.7033,-17.71654 z m -12.3772,0.018 c 0,2.9354 -2.3771,5.3125 -5.3126,5.3125 -2.9353,0 -5.3437,-2.3771 -5.3437,-5.3125 0,-2.9354 2.4084,-5.3125 5.3437,-5.3125 2.9355,0 5.3125,2.3771 5.3126,5.3125 z m 0,35.4375 c 0,2.9354 -2.3771,5.3124 -5.3126,5.3124 -2.9353,0 -5.3437,-2.377 -5.3437,-5.3124 0,-2.9354 2.4084,-5.3125 5.3437,-5.3125 2.9355,0 5.3125,2.3771 5.3126,5.3125 z m 0,35.43743 c 0,2.9354 -2.3771,5.3125 -5.3126,5.3125 -2.9353,0 -5.3437,-2.3771 -5.3437,-5.3125 0,-2.9354 2.4084,-5.3125 5.3437,-5.3125 2.9355,0 5.3125,2.3771 5.3126,5.3125 z m 0,35.4375 c 0,2.9354 -2.3771,5.3125 -5.3126,5.3125 -2.9353,0 -5.3437,-2.3771 -5.3437,-5.3125 0,-2.9354 2.4084,-5.3125 5.3437,-5.3125 2.9355,0 5.3125,2.3771 5.3126,5.3125 z m -35.4376,-106.31243 c 0,2.9354 -2.377,5.3125 -5.3124,5.3125 -2.9354,0 -5.3126,-2.3771 -5.3126,-5.3125 0,-2.9354 2.3772,-5.3125 5.3126,-5.3125 2.9354,0 5.3124,2.3771 5.3124,5.3125 z m 0,35.4375 c 0,2.9354 -2.377,5.3124 -5.3124,5.3124 -2.9354,0 -5.3126,-2.377 -5.3126,-5.3124 0,-2.9354 2.3772,-5.3125 5.3126,-5.3125 2.9354,0 5.3124,2.3771 5.3124,5.3125 z m 0,35.43743 c 0,2.9354 -2.377,5.3125 -5.3124,5.3125 -2.9354,0 -5.3126,-2.3771 -5.3126,-5.3125 0,-2.9354 2.3772,-5.3125 5.3126,-5.3125 2.9354,0 5.3124,2.3771 5.3124,5.3125 z m 0,35.4375 c 0,2.9354 -2.377,5.3125 -5.3124,5.3125 -2.9354,0 -5.3126,-2.3771 -5.3126,-5.3125 0,-2.9354 2.3772,-5.3125 5.3126,-5.3125 2.9354,0 5.3124,2.3771 5.3124,5.3125 z M 625.40951,265.75269 c 0,2.9354 -2.3771,5.3125 -5.3126,5.3125 -2.9354,0 -5.3125,-2.3771 -5.3124,-5.3125 0,-2.9354 2.377,-5.3125 5.3124,-5.3125 2.9354,0 5.3125,2.3771 5.3126,5.3125 z m 0,35.4375 c 0,2.9354 -2.3771,5.3124 -5.3126,5.3124 -2.9354,0 -5.3125,-2.377 -5.3124,-5.3124 0,-2.9354 2.377,-5.3125 5.3124,-5.3125 2.9354,0 5.3125,2.3771 5.3126,5.3125 z m 0,35.43743 c 0,2.9354 -2.3771,5.3125 -5.3126,5.3125 -2.9354,0 -5.3125,-2.3771 -5.3124,-5.3125 0,-2.9354 2.377,-5.3125 5.3124,-5.3125 2.9354,0 5.3125,2.3771 5.3126,5.3125 z m 0,35.4375 c 0,2.9354 -2.3771,5.3125 -5.3126,5.3125 -2.9354,0 -5.3125,-2.3771 -5.3124,-5.3125 0,-2.9354 2.377,-5.3125 5.3124,-5.3125 2.9354,0 5.3125,2.3771 5.3126,5.3125 z m -35.4376,-106.31243 c 0,2.9354 -2.377,5.3125 -5.3124,5.3125 -2.9355,0 -5.3126,-2.3771 -5.3126,-5.3125 0,-2.9354 2.3771,-5.3125 5.3126,-5.3125 2.9353,0 5.3124,2.3771 5.3124,5.3125 z m 0,35.4375 c 0,2.9354 -2.377,5.3124 -5.3124,5.3124 -2.9355,0 -5.3126,-2.377 -5.3126,-5.3124 0,-2.9354 2.3771,-5.3125 5.3126,-5.3125 2.9353,0 5.3124,2.3771 5.3124,5.3125 z m 0,35.43743 c 0,2.9354 -2.377,5.3125 -5.3124,5.3125 -2.9355,0 -5.3126,-2.3771 -5.3126,-5.3125 0,-2.9354 2.3771,-5.3125 5.3126,-5.3125 2.9353,0 5.3124,2.3771 5.3124,5.3125 z m 0,35.4375 c 0,2.9354 -2.377,5.3125 -5.3124,5.3125 -2.9355,0 -5.3126,-2.3771 -5.3126,-5.3125 0,-2.9354 2.3771,-5.3125 5.3126,-5.3125 2.9353,0 5.3124,2.3771 5.3124,5.3125 z"
       style="fill:#008080;fill-opacity:0.50000000000000000;stroke:none;display:inline" />
    <path
       inkscape:connector-curvature="0"
       id="path4096"
       d="m 690.97392,680.31484 c 10.6168,0 17.6875,-7.102 17.6875,-17.7187 l 0,-248.03139 c 0,-10.6299 -7.08875,-17.7187 -17.71875,-17.7187 l -106.3125,0 c -10.6167,0 -17.6875,7.0888 -17.6875,17.7187 l 0,248.03139 c 0,10.6167 7.08885,17.7187 17.71875,17.7187 l 106.3125,0 z m 0.5,-12.4375 c -0.17866,0.018 -0.34778,0 -0.53125,0 -2.9353,0 -5.3125,-2.3771 -5.3125,-5.3125 0,-2.9354 2.3771,-5.3125 5.3125,-5.3125 2.9355,0 5.3125,2.3771 5.3125,5.3125 0,2.752 -2.10132,5.0406 -4.78125,5.3125 z m -35.4375,0 c -0.17866,0.018 -0.34779,0 -0.53125,0 -2.9354,0 -5.3124,-2.3771 -5.3125,-5.3125 0,-2.9354 2.377,-5.3125 5.3125,-5.3125 2.9354,0 5.3126,2.3771 5.3125,5.3125 0,2.752 -2.10141,5.0406 -4.78125,5.3125 z m -35.4375,0 c -0.17866,0.018 -0.34779,0 -0.53125,0 -2.9354,0 -5.3125,-2.3771 -5.3125,-5.3125 0,-2.9354 2.3771,-5.3125 5.3125,-5.3125 2.9354,0 5.3125,2.3771 5.3125,5.3125 0,2.752 -2.10139,5.0406 -4.78125,5.3125 z m -35.4375,0 c -0.17888,0.018 -0.34779,0 -0.53125,0 -2.9355,0 -5.3124,-2.3771 -5.3125,-5.3125 0,-2.9354 2.377,-5.3125 5.3125,-5.3125 2.9353,0 5.34375,2.3771 5.34375,5.3125 0,2.752 -2.12929,5.0406 -4.8125,5.3125 z m 106.3125,-35.4375 c -0.17866,0.018 -0.34778,0 -0.53125,0 -2.9353,0 -5.3125,-2.3771 -5.3125,-5.3125 0,-2.9354 2.3771,-5.3125 5.3125,-5.3125 2.9355,0 5.3125,2.3771 5.3125,5.3125 0,2.752 -2.10132,5.0406 -4.78125,5.3125 z m -35.4375,0 c -0.17866,0.018 -0.34779,0 -0.53125,0 -2.9354,0 -5.3124,-2.3771 -5.3125,-5.3125 0,-2.9354 2.377,-5.3125 5.3125,-5.3125 2.9354,0 5.3126,2.3771 5.3125,5.3125 0,2.752 -2.10141,5.0406 -4.78125,5.3125 z m -35.4375,0 c -0.17866,0.018 -0.34779,0 -0.53125,0 -2.9354,0 -5.3125,-2.3771 -5.3125,-5.3125 0,-2.9354 2.3771,-5.3125 5.3125,-5.3125 2.9354,0 5.3125,2.3771 5.3125,5.3125 0,2.752 -2.10139,5.0406 -4.78125,5.3125 z m -35.4375,0 c -0.17888,0.018 -0.34779,0 -0.53125,0 -2.9355,0 -5.3124,-2.3771 -5.3125,-5.3125 0,-2.9354 2.377,-5.3125 5.3125,-5.3125 2.9353,0 5.34375,2.3771 5.34375,5.3125 0,2.752 -2.12929,5.0406 -4.8125,5.3125 z m 106.3125,-35.4375 c -0.17866,0.018 -0.34778,0 -0.53125,0 -2.9353,0 -5.3125,-2.3771 -5.3125,-5.3125 0,-2.9354 2.3771,-5.3125 5.3125,-5.3125 2.9355,0 5.3125,2.3771 5.3125,5.3125 0,2.752 -2.10132,5.0406 -4.78125,5.3125 z m -35.4375,0 c -0.17866,0.018 -0.34779,0 -0.53125,0 -2.9354,0 -5.3124,-2.3771 -5.3125,-5.3125 0,-2.9354 2.377,-5.3125 5.3125,-5.3125 2.9354,0 5.3126,2.3771 5.3125,5.3125 0,2.752 -2.10141,5.0406 -4.78125,5.3125 z m -35.4375,0 c -0.17866,0.018 -0.34779,0 -0.53125,0 -2.9354,0 -5.3125,-2.3771 -5.3125,-5.3125 0,-2.9354 2.3771,-5.3125 5.3125,-5.3125 2.9354,0 5.3125,2.3771 5.3125,5.3125 0,2.752 -2.10139,5.0406 -4.78125,5.3125 z m -35.4375,0 c -0.17888,0.018 -0.34779,0 -0.53125,0 -2.9355,0 -5.3124,-2.3771 -5.3125,-5.3125 0,-2.9354 2.377,-5.3125 5.3125,-5.3125 2.9353,0 5.34375,2.3771 5.34375,5.3125 0,2.752 -2.12929,5.0406 -4.8125,5.3125 z m 106.3125,-35.43758 c -0.17866,0.018 -0.34778,0 -0.53125,0 -2.9353,0 -5.3125,-2.3771 -5.3125,-5.3125 0,-2.9354 2.3771,-5.3125 5.3125,-5.3125 2.9355,0 5.3125,2.3771 5.3125,5.3125 0,2.752 -2.10132,5.0406 -4.78125,5.3125 z m -35.4375,0 c -0.17866,0.018 -0.34779,0 -0.53125,0 -2.9354,0 -5.3124,-2.3771 -5.3125,-5.3125 0,-2.9354 2.377,-5.3125 5.3125,-5.3125 2.9354,0 5.3126,2.3771 5.3125,5.3125 0,2.752 -2.10141,5.0406 -4.78125,5.3125 z m -35.4375,0 c -0.17866,0.018 -0.34779,0 -0.53125,0 -2.9354,0 -5.3125,-2.3771 -5.3125,-5.3125 0,-2.9354 2.3771,-5.3125 5.3125,-5.3125 2.9354,0 5.3125,2.3771 5.3125,5.3125 0,2.752 -2.10139,5.0406 -4.78125,5.3125 z m -35.4375,0 c -0.17888,0.018 -0.34779,0 -0.53125,0 -2.9355,0 -5.3124,-2.3771 -5.3125,-5.3125 0,-2.9354 2.377,-5.3125 5.3125,-5.3125 2.9353,0 5.34375,2.3771 5.34375,5.3125 0,2.752 -2.12929,5.0406 -4.8125,5.3125 z m 105.78125,-35.40621 c -2.9353,0 -5.3125,-2.3771 -5.3125,-5.3125 0,-2.9354 2.3771,-5.3125 5.3125,-5.3125 2.9355,0 5.3125,2.3771 5.3125,5.3125 0,2.9354 -2.377,5.3125 -5.3125,5.3125 z m -35.4375,0 c -2.9354,0 -5.3124,-2.3771 -5.3125,-5.3125 0,-2.9354 2.377,-5.3125 5.3125,-5.3125 2.9354,0 5.3126,2.3771 5.3125,5.3125 0,2.9354 -2.3771,5.3125 -5.3125,5.3125 z m -35.4375,0 c -2.9354,0 -5.3125,-2.3771 -5.3125,-5.3125 0,-2.9354 2.3771,-5.3125 5.3125,-5.3125 2.9354,0 5.3125,2.3771 5.3125,5.3125 0,2.9354 -2.3771,5.3125 -5.3125,5.3125 z m -35.4375,0 c -2.9355,0 -5.3124,-2.3771 -5.3125,-5.3125 0,-2.9354 2.377,-5.3125 5.3125,-5.3125 2.9353,0 5.34375,2.3771 5.34375,5.3125 0,2.9354 -2.40845,5.3125 -5.34375,5.3125 z m 106.3125,-35.4375 c -2.9353,0 -5.3125,-2.3771 -5.3125,-5.3125 0,-2.9354 2.3771,-5.3125 5.3125,-5.3125 2.9355,0 5.3125,2.3771 5.3125,5.3125 0,2.9354 -2.377,5.3125 -5.3125,5.3125 z m -35.4375,0 c -2.9354,0 -5.3124,-2.3771 -5.3125,-5.3125 0,-2.9354 2.377,-5.3125 5.3125,-5.3125 2.9354,0 5.3126,2.3771 5.3125,5.3125 0,2.9354 -2.3771,5.3125 -5.3125,5.3125 z m -35.4375,0 c -2.9354,0 -5.3125,-2.3771 -5.3125,-5.3125 0,-2.9354 2.3771,-5.3125 5.3125,-5.3125 2.9354,0 5.3125,2.3771 5.3125,5.3125 0,2.9354 -2.3771,5.3125 -5.3125,5.3125 z m -35.4375,0 c -2.9355,0 -5.3124,-2.3771 -5.3125,-5.3125 0,-2.9354 2.377,-5.3125 5.3125,-5.3125 2.9353,0 5.34375,2.3771 5.34375,5.3125 0,2.9354 -2.40845,5.3125 -5.34375,5.3125 z m 106.3125,-35.4375 c -2.9353,0 -5.3125,-2.3771 -5.3125,-5.3125 0,-2.9354 2.3771,-5.3125 5.3125,-5.3125 2.9355,0 5.3125,2.3771 5.3125,5.3125 0,2.9354 -2.377,5.3125 -5.3125,5.3125 z m -35.4375,0 c -2.9354,0 -5.3124,-2.3771 -5.3125,-5.3125 0,-2.9354 2.377,-5.3125 5.3125,-5.3125 2.9354,0 5.3126,2.3771 5.3125,5.3125 0,2.9354 -2.3771,5.3125 -5.3125,5.3125 z m -35.4375,0 c -2.9354,0 -5.3125,-2.3771 -5.3125,-5.3125 0,-2.9354 2.3771,-5.3125 5.3125,-5.3125 2.9354,0 5.3125,2.3771 5.3125,5.3125 0,2.9354 -2.3771,5.3125 -5.3125,5.3125 z m -35.4375,0 c -2.9355,0 -5.3124,-2.3771 -5.3125,-5.3125 0,-2.9354 2.377,-5.3125 5.3125,-5.3125 2.9353,0 5.34375,2.3771 5.34375,5.3125 0,2.9354 -2.40845,5.3125 -5.34375,5.3125 z m 106.3125,-35.4375 c -2.9353,0 -5.3125,-2.3771 -5.3125,-5.3125 0,-2.9354 2.3771,-5.3125 5.3125,-5.3125 2.9355,0 5.3125,2.3771 5.3125,5.3125 0,2.9354 -2.377,5.3125 -5.3125,5.3125 z m -35.4375,0 c -2.9354,0 -5.3124,-2.3771 -5.3125,-5.3125 0,-2.9354 2.377,-5.3125 5.3125,-5.3125 2.9354,0 5.3126,2.3771 5.3125,5.3125 0,2.9354 -2.3771,5.3125 -5.3125,5.3125 z m -35.4375,0 c -2.9354,0 -5.3125,-2.3771 -5.3125,-5.3125 0,-2.9354 2.3771,-5.3125 5.3125,-5.3125 2.9354,0 5.3125,2.3771 5.3125,5.3125 0,2.9354 -2.3771,5.3125 -5.3125,5.3125 z m -35.4375,0 c -2.9355,0 -5.3124,-2.3771 -5.3125,-5.3125 0,-2.9354 2.377,-5.3125 5.3125,-5.3125 2.9353,0 5.34375,2.3771 5.34375,5.3125 0,2.9354 -2.40845,5.3125 -5.34375,5.3125 z"
       style="fill:#008080;fill-opacity:0.50000000000000000;stroke:none;display:inline" />
    <path
       id="path3135"
       d="m 839.76161,680.31016 c 10.6168,0 17.68669,-7.10205 17.6875,-17.71875 l 0.0312,-177.15625 c 8.2e-4,-10.62992 -7.08875,-17.71875 -17.71875,-17.71875 l -106.31255,0 c -10.6167,0 -17.6867,7.08883 -17.6875,17.71875 l -0.031,177.15625 c -8e-4,10.6167 7.0889,17.71875 17.7188,17.71875 l 106.31255,0 z m 0.5,-12.4375 c -0.17866,0.018 -0.34778,0 -0.53125,0 -2.9353,0 -5.3125,-2.3771 -5.3125,-5.3125 0,-2.9354 2.3771,-5.3125 5.3125,-5.3125 2.9355,0 5.3125,2.3771 5.3125,5.3125 0,2.7519 -2.10132,5.0406 -4.78125,5.3125 z m -35.4375,0 c -0.17866,0.018 -0.34779,0 -0.53125,0 -2.9354,0 -5.3124,-2.3771 -5.3125,-5.3125 0,-2.9354 2.377,-5.3125 5.3125,-5.3125 2.9354,0 5.3126,2.3771 5.3125,5.3125 0,2.7519 -2.10141,5.0406 -4.78125,5.3125 z m -35.4375,0 c -0.1787,0.018 -0.3478,0 -0.5313,0 -2.9353,0 -5.3125,-2.3771 -5.3124,-5.3125 0,-2.9354 2.3772,-5.3125 5.3124,-5.3125 2.9354,0 5.3126,2.3771 5.3126,5.3125 0,2.7519 -2.1015,5.0406 -4.7813,5.3125 z m -35.4375,0 c -0.1789,0.018 -0.3478,0 -0.5312,0 -2.9357,0 -5.3124,-2.3771 -5.3126,-5.3125 0,-2.9354 2.3769,-5.3125 5.3126,-5.3125 2.9352,0 5.3437,2.3771 5.3437,5.3125 0,2.7519 -2.1293,5.0406 -4.8125,5.3125 z m 106.3125,-35.4375 c -0.17866,0.018 -0.34778,0 -0.53125,0 -2.9353,0 -5.3125,-2.3771 -5.3125,-5.3125 0,-2.9354 2.3771,-5.3125 5.3125,-5.3125 2.9355,0 5.3125,2.3771 5.3125,5.3125 0,2.7519 -2.10132,5.0406 -4.78125,5.3125 z m -35.4375,0 c -0.17866,0.018 -0.34779,0 -0.53125,0 -2.9354,0 -5.3124,-2.3771 -5.3125,-5.3125 0,-2.9354 2.377,-5.3125 5.3125,-5.3125 2.9354,0 5.3126,2.3771 5.3125,5.3125 0,2.7519 -2.10141,5.0406 -4.78125,5.3125 z m -35.4375,0 c -0.1787,0.018 -0.3478,0 -0.5313,0 -2.9353,0 -5.3125,-2.3771 -5.3124,-5.3125 0,-2.9354 2.3772,-5.3125 5.3124,-5.3125 2.9354,0 5.3126,2.3771 5.3126,5.3125 0,2.7519 -2.1015,5.0406 -4.7813,5.3125 z m -35.4375,0 c -0.1789,0.018 -0.3478,0 -0.5312,0 -2.9357,0 -5.3124,-2.3771 -5.3126,-5.3125 0,-2.9354 2.3769,-5.3125 5.3126,-5.3125 2.9352,0 5.3437,2.3771 5.3437,5.3125 0,2.7519 -2.1293,5.0406 -4.8125,5.3125 z m 106.3125,-35.4375 c -0.17866,0.0181 -0.34778,0 -0.53125,0 -2.9353,0 -5.3125,-2.3771 -5.3125,-5.3125 0,-2.9354 2.3771,-5.3125 5.3125,-5.3125 2.9355,0 5.3125,2.3771 5.3125,5.3125 0,2.75194 -2.10132,5.04059 -4.78125,5.3125 z m -35.4375,0 c -0.17866,0.0181 -0.34779,0 -0.53125,0 -2.9354,0 -5.3124,-2.3771 -5.3125,-5.3125 0,-2.9354 2.377,-5.3125 5.3125,-5.3125 2.9354,0 5.3126,2.3771 5.3125,5.3125 0,2.75194 -2.10141,5.04059 -4.78125,5.3125 z m -35.4375,0 c -0.1787,0.0181 -0.3478,0 -0.5313,0 -2.9353,0 -5.3125,-2.3771 -5.3124,-5.3125 0,-2.9354 2.3772,-5.3125 5.3124,-5.3125 2.9354,0 5.3126,2.3771 5.3126,5.3125 0,2.75194 -2.1015,5.04059 -4.7813,5.3125 z m -35.4375,0 c -0.1789,0.0181 -0.3478,0 -0.5312,0 -2.9357,0 -5.3124,-2.3771 -5.3126,-5.3125 0,-2.9354 2.3769,-5.3125 5.3126,-5.3125 2.9352,0 5.3437,2.3771 5.3437,5.3125 0,2.75194 -2.1293,5.04059 -4.8125,5.3125 z m 106.3125,-35.4375 c -0.17866,0.0181 -0.34778,0 -0.53125,0 -2.9353,0 -5.3125,-2.3771 -5.3125,-5.3125 0,-2.9354 2.3771,-5.3125 5.3125,-5.3125 2.9355,0 5.3125,2.3771 5.3125,5.3125 0,2.75194 -2.10132,5.04059 -4.78125,5.3125 z m -35.4375,0 c -0.17866,0.0181 -0.34779,0 -0.53125,0 -2.9354,0 -5.3124,-2.3771 -5.3125,-5.3125 0,-2.9354 2.377,-5.3125 5.3125,-5.3125 2.9354,0 5.3126,2.3771 5.3125,5.3125 0,2.75194 -2.10141,5.04059 -4.78125,5.3125 z m -35.4375,0 c -0.1787,0.0181 -0.3478,0 -0.5313,0 -2.9353,0 -5.3125,-2.3771 -5.3124,-5.3125 0,-2.9354 2.3772,-5.3125 5.3124,-5.3125 2.9354,0 5.3126,2.3771 5.3126,5.3125 0,2.75194 -2.1015,5.04059 -4.7813,5.3125 z m -35.4375,0 c -0.1789,0.0181 -0.3478,0 -0.5312,0 -2.9357,0 -5.3124,-2.3771 -5.3126,-5.3125 0,-2.9354 2.3769,-5.3125 5.3126,-5.3125 2.9352,0 5.3437,2.3771 5.3437,5.3125 0,2.75194 -2.1293,5.04059 -4.8125,5.3125 z m 105.78125,-35.40625 c -2.9353,0 -5.3125,-2.3771 -5.3125,-5.3125 0,-2.9354 2.3771,-5.3125 5.3125,-5.3125 2.9355,0 5.3125,2.3771 5.3125,5.3125 0,2.9354 -2.377,5.3125 -5.3125,5.3125 z m -35.4375,0 c -2.9354,0 -5.3124,-2.3771 -5.3125,-5.3125 0,-2.9354 2.377,-5.3125 5.3125,-5.3125 2.9354,0 5.3126,2.3771 5.3125,5.3125 0,2.9354 -2.3771,5.3125 -5.3125,5.3125 z m -35.43755,0 c -2.9353,0 -5.3125,-2.3771 -5.3124,-5.3125 0,-2.9354 2.3772,-5.3125 5.3124,-5.3125 2.9354,0 5.3126,2.3771 5.3126,5.3125 0,2.9354 -2.3772,5.3125 -5.3126,5.3125 z m -35.4374,0 c -2.9357,0 -5.3124,-2.3771 -5.3126,-5.3125 0,-2.9354 2.3769,-5.3125 5.3126,-5.3125 2.9352,0 5.3437,2.3771 5.3437,5.3125 0,2.9354 -2.4085,5.3125 -5.3437,5.3125 z m 106.31245,-35.4375 c -2.9353,0 -5.3125,-2.3771 -5.3125,-5.3125 0,-2.9354 2.3771,-5.3125 5.3125,-5.3125 2.9355,0 5.3125,2.3771 5.3125,5.3125 0,2.9354 -2.377,5.3125 -5.3125,5.3125 z m -35.4375,0 c -2.9354,0 -5.3124,-2.3771 -5.3125,-5.3125 0,-2.9354 2.377,-5.3125 5.3125,-5.3125 2.9354,0 5.3126,2.3771 5.3125,5.3125 0,2.9354 -2.3771,5.3125 -5.3125,5.3125 z m -35.43755,0 c -2.9353,0 -5.3125,-2.3771 -5.3124,-5.3125 0,-2.9354 2.3772,-5.3125 5.3124,-5.3125 2.9354,0 5.3126,2.3771 5.3126,5.3125 0,2.9354 -2.3772,5.3125 -5.3126,5.3125 z m -35.4374,0 c -2.9357,0 -5.3124,-2.3771 -5.3126,-5.3125 0,-2.9354 2.3769,-5.3125 5.3126,-5.3125 2.9352,0 5.3437,2.3771 5.3437,5.3125 0,2.9354 -2.4085,5.3125 -5.3437,5.3125 z"
       style="fill:#008080;fill-opacity:0.50000000000000000;stroke:none;display:inline"
       inkscape:connector-curvature="0" />
    <path
       id="path3135-1"
       d="m 839.76181,460.6251 c 10.6168,0 17.6867,-7.102 17.6875,-17.7187 l 0.031,-177.15628 c 9e-4,-10.62992 -7.0887,-17.71875 -17.7187,-17.71875 l -106.31257,0 c -10.6167,0 -17.6867,7.08883 -17.6875,17.71875 l -0.031,177.15628 c -8e-4,10.6167 7.0889,17.7187 17.7188,17.7187 l 106.31257,0 z m 0.5,-12.4375 c -0.1786,0.018 -0.3477,0 -0.5312,0 -2.9353,0 -5.3125,-2.3771 -5.3125,-5.3125 0,-2.9354 2.3771,-5.3125 5.3125,-5.3125 2.9355,0 5.3125,2.3771 5.3125,5.3125 0,2.7519 -2.1013,5.0406 -4.7813,5.3125 z m -35.4375,0 c -0.1786,0.018 -0.3478,0 -0.5312,0 -2.9354,0 -5.3124,-2.3771 -5.3125,-5.3125 0,-2.9354 2.377,-5.3125 5.3125,-5.3125 2.9354,0 5.3126,2.3771 5.3125,5.3125 0,2.7519 -2.1014,5.0406 -4.7813,5.3125 z m -35.43747,0 c -0.1787,0.018 -0.3478,0 -0.5313,0 -2.9353,0 -5.3125,-2.3771 -5.3124,-5.3125 0,-2.9354 2.3772,-5.3125 5.3124,-5.3125 2.9354,0 5.3126,2.3771 5.3126,5.3125 0,2.7519 -2.1015,5.0406 -4.7813,5.3125 z m -35.4375,0 c -0.1789,0.018 -0.3478,0 -0.5312,0 -2.9357,0 -5.3124,-2.3771 -5.3126,-5.3125 0,-2.9354 2.3769,-5.3125 5.3126,-5.3125 2.9352,0 5.3437,2.3771 5.3437,5.3125 0,2.7519 -2.1293,5.0406 -4.8125,5.3125 z m 106.31247,-35.4375 c -0.1786,0.018 -0.3477,0 -0.5312,0 -2.9353,0 -5.3125,-2.3771 -5.3125,-5.3125 0,-2.9354 2.3771,-5.3125 5.3125,-5.3125 2.9355,0 5.3125,2.3771 5.3125,5.3125 0,2.7519 -2.1013,5.0406 -4.7813,5.3125 z m -35.4375,0 c -0.1786,0.018 -0.3478,0 -0.5312,0 -2.9354,0 -5.3124,-2.3771 -5.3125,-5.3125 0,-2.9354 2.377,-5.3125 5.3125,-5.3125 2.9354,0 5.3126,2.3771 5.3125,5.3125 0,2.7519 -2.1014,5.0406 -4.7813,5.3125 z m -35.43747,0 c -0.1787,0.018 -0.3478,0 -0.5313,0 -2.9353,0 -5.3125,-2.3771 -5.3124,-5.3125 0,-2.9354 2.3772,-5.3125 5.3124,-5.3125 2.9354,0 5.3126,2.3771 5.3126,5.3125 0,2.7519 -2.1015,5.0406 -4.7813,5.3125 z m -35.4375,0 c -0.1789,0.018 -0.3478,0 -0.5312,0 -2.9357,0 -5.3124,-2.3771 -5.3126,-5.3125 0,-2.9354 2.3769,-5.3125 5.3126,-5.3125 2.9352,0 5.3437,2.3771 5.3437,5.3125 0,2.7519 -2.1293,5.0406 -4.8125,5.3125 z m 106.31247,-35.4375 c -0.1786,0.018 -0.3477,0 -0.5312,0 -2.9353,0 -5.3125,-2.3771 -5.3125,-5.3125 0,-2.9354 2.3771,-5.3125 5.3125,-5.3125 2.9355,0 5.3125,2.3771 5.3125,5.3125 0,2.752 -2.1013,5.0406 -4.7813,5.3125 z m -35.4375,0 c -0.1786,0.018 -0.3478,0 -0.5312,0 -2.9354,0 -5.3124,-2.3771 -5.3125,-5.3125 0,-2.9354 2.377,-5.3125 5.3125,-5.3125 2.9354,0 5.3126,2.3771 5.3125,5.3125 0,2.752 -2.1014,5.0406 -4.7813,5.3125 z m -35.43747,0 c -0.1787,0.018 -0.3478,0 -0.5313,0 -2.9353,0 -5.3125,-2.3771 -5.3124,-5.3125 0,-2.9354 2.3772,-5.3125 5.3124,-5.3125 2.9354,0 5.3126,2.3771 5.3126,5.3125 0,2.752 -2.1015,5.0406 -4.7813,5.3125 z m -35.4375,0 c -0.1789,0.018 -0.3478,0 -0.5312,0 -2.9357,0 -5.3124,-2.3771 -5.3126,-5.3125 0,-2.9354 2.3769,-5.3125 5.3126,-5.3125 2.9352,0 5.3437,2.3771 5.3437,5.3125 0,2.752 -2.1293,5.0406 -4.8125,5.3125 z m 106.31247,-35.43748 c -0.1786,0.0181 -0.3477,0 -0.5312,0 -2.9353,0 -5.3125,-2.3771 -5.3125,-5.3125 0,-2.9354 2.3771,-5.3125 5.3125,-5.3125 2.9355,0 5.3125,2.3771 5.3125,5.3125 0,2.75194 -2.1013,5.04059 -4.7813,5.3125 z m -35.4375,0 c -0.1786,0.0181 -0.3478,0 -0.5312,0 -2.9354,0 -5.3124,-2.3771 -5.3125,-5.3125 0,-2.9354 2.377,-5.3125 5.3125,-5.3125 2.9354,0 5.3126,2.3771 5.3125,5.3125 0,2.75194 -2.1014,5.04059 -4.7813,5.3125 z m -35.43747,0 c -0.1787,0.0181 -0.3478,0 -0.5313,0 -2.9353,0 -5.3125,-2.3771 -5.3124,-5.3125 0,-2.9354 2.3772,-5.3125 5.3124,-5.3125 2.9354,0 5.3126,2.3771 5.3126,5.3125 0,2.75194 -2.1015,5.04059 -4.7813,5.3125 z m -35.4375,0 c -0.1789,0.0181 -0.3478,0 -0.5312,0 -2.9357,0 -5.3124,-2.3771 -5.3126,-5.3125 0,-2.9354 2.3769,-5.3125 5.3126,-5.3125 2.9352,0 5.3437,2.3771 5.3437,5.3125 0,2.75194 -2.1293,5.04059 -4.8125,5.3125 z m 105.78127,-35.40625 c -2.9353,0 -5.3125,-2.3771 -5.3125,-5.3125 0,-2.9354 2.3771,-5.3125 5.3125,-5.3125 2.9355,0 5.3125,2.3771 5.3125,5.3125 0,2.9354 -2.377,5.3125 -5.3125,5.3125 z m -35.4375,0 c -2.9354,0 -5.3124,-2.3771 -5.3125,-5.3125 0,-2.9354 2.377,-5.3125 5.3125,-5.3125 2.9354,0 5.3126,2.3771 5.3125,5.3125 0,2.9354 -2.3771,5.3125 -5.3125,5.3125 z m -35.43757,0 c -2.9353,0 -5.3125,-2.3771 -5.3124,-5.3125 0,-2.9354 2.3772,-5.3125 5.3124,-5.3125 2.9354,0 5.3126,2.3771 5.3126,5.3125 0,2.9354 -2.3772,5.3125 -5.3126,5.3125 z m -35.4374,0 c -2.9357,0 -5.3124,-2.3771 -5.3126,-5.3125 0,-2.9354 2.3769,-5.3125 5.3126,-5.3125 2.9352,0 5.3437,2.3771 5.3437,5.3125 0,2.9354 -2.4085,5.3125 -5.3437,5.3125 z m 106.31247,-35.4375 c -2.9353,0 -5.3125,-2.3771 -5.3125,-5.3125 0,-2.9354 2.3771,-5.3125 5.3125,-5.3125 2.9355,0 5.3125,2.3771 5.3125,5.3125 0,2.9354 -2.377,5.3125 -5.3125,5.3125 z m -35.4375,0 c -2.9354,0 -5.3124,-2.3771 -5.3125,-5.3125 0,-2.9354 2.377,-5.3125 5.3125,-5.3125 2.9354,0 5.3126,2.3771 5.3125,5.3125 0,2.9354 -2.3771,5.3125 -5.3125,5.3125 z m -35.43757,0 c -2.9353,0 -5.3125,-2.3771 -5.3124,-5.3125 0,-2.9354 2.3772,-5.3125 5.3124,-5.3125 2.9354,0 5.3126,2.3771 5.3126,5.3125 0,2.9354 -2.3772,5.3125 -5.3126,5.3125 z m -35.4374,0 c -2.9357,0 -5.3124,-2.3771 -5.3126,-5.3125 0,-2.9354 2.3769,-5.3125 5.3126,-5.3125 2.9352,0 5.3437,2.3771 5.3437,5.3125 0,2.9354 -2.4085,5.3125 -5.3437,5.3125 z"
       style="fill:#008080;fill-opacity:0.50000000000000000;stroke:none;display:inline"
       inkscape:connector-curvature="0" />
    <path
       inkscape:connector-curvature="0"
       id="rect3140"
       d="m 988.56697,471.25972 0,-10.62503 17.71883,0 0,-96.93749 -17.71883,0 0,-10.62497 -35.43744,0 0,10.62497 -35.4376,0 0,-10.62497 -35.4374,0 0,10.62497 -17.6876,0 0,96.93749 17.6876,0 0,10.62503 35.4374,0 0,-10.62503 35.4376,0 0,10.62503 35.43744,0 z m 0,-18.34373 c -2.9354,0 -5.31244,-2.3772 -5.31244,-5.3125 0,-2.9354 2.37704,-5.3125 5.31244,-5.3125 2.9355,0 5.3126,2.3771 5.3126,5.3125 0,2.9353 -2.3771,5.3125 -5.3126,5.3125 z m -35.43744,0 c -2.9355,0 -5.3126,-2.3772 -5.3126,-5.3125 0,-2.9354 2.3771,-5.3125 5.3126,-5.3125 2.9354,0 5.3124,2.3771 5.3124,5.3125 0,2.9353 -2.377,5.3125 -5.3124,5.3125 z m -35.4376,0 c -2.9354,0 -5.3124,-2.3772 -5.3124,-5.3125 0,-2.9354 2.377,-5.3125 5.3124,-5.3125 2.9355,0 5.3126,2.3771 5.3126,5.3125 0,2.9353 -2.3771,5.3125 -5.3126,5.3125 z m -35.4374,0 c -2.9355,0 -5.3126,-2.3772 -5.3126,-5.3125 0,-2.9354 2.3771,-5.3125 5.3126,-5.3125 2.9354,0 5.3124,2.3771 5.3124,5.3125 0,2.9353 -2.377,5.3125 -5.3124,5.3125 z m 88.5937,-17.7188 c -2.9354,0 -5.3125,-2.3771 -5.3125,-5.3125 0,-2.9353 2.3771,-5.3125 5.3125,-5.3125 2.9353,0 5.3125,2.3772 5.3125,5.3125 0,2.9354 -2.3772,5.3125 -5.3125,5.3125 z m -35.4375,0 c -2.9354,0 -5.3125,-2.3771 -5.3125,-5.3125 0,-2.9353 2.3771,-5.3125 5.3125,-5.3125 2.9353,0 5.3125,2.3772 5.3125,5.3125 0,2.9354 -2.3772,5.3125 -5.3125,5.3125 z m -35.4375,0 c -2.9353,0 -5.3125,-2.3771 -5.3125,-5.3125 0,-2.9353 2.3772,-5.3125 5.3125,-5.3125 2.9354,0 5.3124,2.3772 5.3125,5.3125 0,2.9354 -2.3771,5.3125 -5.3125,5.3125 z m 88.59374,-17.7187 c -2.9353,0 -5.31244,-2.3772 -5.31244,-5.3125 0,-2.9354 2.37704,-5.3125 5.31244,-5.3125 2.9354,0 5.3126,2.3771 5.3126,5.3125 0,2.9353 -2.3771,5.3125 -5.3126,5.3125 z m -35.43744,0 c -2.9354,0 -5.3126,-2.3772 -5.3126,-5.3125 0,-2.9354 2.3771,-5.3125 5.3126,-5.3125 2.9353,0 5.3124,2.3771 5.3124,5.3125 0,2.9353 -2.377,5.3125 -5.3124,5.3125 z m -35.4376,0 c -2.9353,0 -5.3124,-2.3772 -5.3124,-5.3125 0,-2.9354 2.377,-5.3125 5.3124,-5.3125 2.9354,0 5.3126,2.3771 5.3126,5.3125 0,2.9353 -2.3771,5.3125 -5.3126,5.3125 z m -35.4374,0 c -2.9354,0 -5.3126,-2.3772 -5.3126,-5.3125 0,-2.9354 2.3771,-5.3125 5.3126,-5.3125 2.9353,0 5.3124,2.3771 5.3124,5.3125 0,2.9353 -2.377,5.3125 -5.3124,5.3125 z m 88.5937,-17.7188 c -2.9354,0 -5.3125,-2.3771 -5.3125,-5.3125 0,-2.9353 2.3771,-5.3125 5.3125,-5.3125 2.9353,0 5.3125,2.3772 5.3125,5.3125 0,2.9354 -2.3772,5.3125 -5.3125,5.3125 z m -35.4375,0 c -2.9354,0 -5.3125,-2.3771 -5.3125,-5.3125 0,-2.9353 2.3771,-5.3125 5.3125,-5.3125 2.9353,0 5.3125,2.3772 5.3125,5.3125 0,2.9354 -2.3772,5.3125 -5.3125,5.3125 z m -35.4375,0 c -2.9353,0 -5.3125,-2.3771 -5.3125,-5.3125 0,-2.9353 2.3772,-5.3125 5.3125,-5.3125 2.9354,0 5.3124,2.3772 5.3125,5.3125 0,2.9354 -2.3771,5.3125 -5.3125,5.3125 z M 988.56697,382.041 c -2.9354,0 -5.31244,-2.3772 -5.31244,-5.3125 0,-2.9354 2.37704,-5.3125 5.31244,-5.3125 2.9355,0 5.3126,2.3771 5.3126,5.3125 0,2.9353 -2.3771,5.3125 -5.3126,5.3125 z m -35.43744,0 c -2.9355,0 -5.3126,-2.3772 -5.3126,-5.3125 0,-2.9354 2.3771,-5.3125 5.3126,-5.3125 2.9354,0 5.3124,2.3771 5.3124,5.3125 0,2.9353 -2.377,5.3125 -5.3124,5.3125 z m -35.4376,0 c -2.9354,0 -5.3124,-2.3772 -5.3124,-5.3125 0,-2.9354 2.377,-5.3125 5.3124,-5.3125 2.9355,0 5.3126,2.3771 5.3126,5.3125 0,2.9353 -2.3771,5.3125 -5.3126,5.3125 z m -35.4374,0 c -2.9355,0 -5.3126,-2.3772 -5.3126,-5.3125 0,-2.9354 2.3771,-5.3125 5.3126,-5.3125 2.9354,0 5.3124,2.3771 5.3124,5.3125 0,2.9353 -2.377,5.3125 -5.3124,5.3125 z"
       style="fill:#008080;fill-opacity:0.5;stroke:none" />
    <path
       inkscape:connector-curvature="0"
       id="rect3140-5"
       d="m 882.29911,229.05655 0,10.625 -17.7188,0 0,96.93738 17.7188,0 0,10.62504 35.4375,0 0,-10.62504 35.4376,0 0,10.62504 35.4374,0 0,-10.62504 17.68759,0 0,-96.93738 -17.68759,0 0,-10.625 -35.4374,0 0,10.625 -35.4376,0 0,-10.625 -35.4375,0 z m 0,18.3437 c 2.9354,0 5.3125,2.3772 5.3125,5.3125 0,2.9354 -2.3771,5.3125 -5.3125,5.3125 -2.9355,0 -5.3126,-2.3771 -5.3126,-5.3125 0,-2.9353 2.3771,-5.3125 5.3126,-5.3125 z m 35.4375,0 c 2.9355,0 5.3126,2.3772 5.3126,5.3125 0,2.9354 -2.3771,5.3125 -5.3126,5.3125 -2.9354,0 -5.3124,-2.3771 -5.3124,-5.3125 0,-2.9353 2.377,-5.3125 5.3124,-5.3125 z m 35.4376,0 c 2.9354,0 5.3124,2.3772 5.3124,5.3125 0,2.9354 -2.377,5.3125 -5.3124,5.3125 -2.9355,0 -5.3126,-2.3771 -5.3126,-5.3125 0,-2.9353 2.3771,-5.3125 5.3126,-5.3125 z m 35.4374,0 c 2.9355,0 5.3126,2.3772 5.3126,5.3125 0,2.9354 -2.3771,5.3125 -5.3126,5.3125 -2.9354,0 -5.3124,-2.3771 -5.3124,-5.3125 0,-2.9353 2.377,-5.3125 5.3124,-5.3125 z m -88.5937,17.7188 c 2.9354,0 5.3125,2.3771 5.3125,5.3125 0,2.9353 -2.3771,5.3125 -5.3125,5.3125 -2.9353,0 -5.3125,-2.3772 -5.3125,-5.3125 0,-2.9354 2.3772,-5.3125 5.3125,-5.3125 z m 35.4375,0 c 2.9354,0 5.3125,2.3771 5.3125,5.3125 0,2.9353 -2.3771,5.3125 -5.3125,5.3125 -2.9353,0 -5.3125,-2.3772 -5.3125,-5.3125 0,-2.9354 2.3772,-5.3125 5.3125,-5.3125 z m 35.4375,0 c 2.9353,0 5.3125,2.3771 5.3125,5.3125 0,2.9353 -2.3772,5.3125 -5.3125,5.3125 -2.9354,0 -5.3124,-2.3772 -5.3125,-5.3125 0,-2.9354 2.3771,-5.3125 5.3125,-5.3125 z m -88.5938,17.7187 c 2.9353,0 5.3125,2.3772 5.3125,5.3125 0,2.9354 -2.3771,5.3125 -5.3125,5.3125 -2.9354,0 -5.3126,-2.3771 -5.3126,-5.3125 0,-2.9353 2.3771,-5.3125 5.3126,-5.3125 z m 35.4375,0 c 2.9354,0 5.3126,2.3772 5.3126,5.3125 0,2.9354 -2.3771,5.3125 -5.3126,5.3125 -2.9353,0 -5.3124,-2.3771 -5.3124,-5.3125 0,-2.9353 2.377,-5.3125 5.3124,-5.3125 z m 35.4376,0 c 2.9353,0 5.3124,2.3772 5.3124,5.3125 0,2.9354 -2.377,5.3125 -5.3124,5.3125 -2.9354,0 -5.3126,-2.3771 -5.3126,-5.3125 0,-2.9353 2.3771,-5.3125 5.3126,-5.3125 z m 35.4374,0 c 2.9354,0 5.3126,2.3772 5.3126,5.3125 0,2.9354 -2.3771,5.3125 -5.3126,5.3125 -2.9353,0 -5.3124,-2.3771 -5.3124,-5.3125 0,-2.9353 2.377,-5.3125 5.3124,-5.3125 z m -88.5937,17.7188 c 2.9354,0 5.3125,2.3771 5.3125,5.3125 0,2.9353 -2.3771,5.3125 -5.3125,5.3125 -2.9353,0 -5.3125,-2.3772 -5.3125,-5.3125 0,-2.9354 2.3772,-5.3125 5.3125,-5.3125 z m 35.4375,0 c 2.9354,0 5.3125,2.3771 5.3125,5.3125 0,2.9353 -2.3771,5.3125 -5.3125,5.3125 -2.9353,0 -5.3125,-2.3772 -5.3125,-5.3125 0,-2.9354 2.3772,-5.3125 5.3125,-5.3125 z m 35.4375,0 c 2.9353,0 5.3125,2.3771 5.3125,5.3125 0,2.9353 -2.3772,5.3125 -5.3125,5.3125 -2.9354,0 -5.3124,-2.3772 -5.3125,-5.3125 0,-2.9354 2.3771,-5.3125 5.3125,-5.3125 z m -88.5938,17.7187 c 2.9354,0 5.3125,2.3772 5.3125,5.3124 0,2.9354 -2.3771,5.3125 -5.3125,5.3125 -2.9355,0 -5.3126,-2.3771 -5.3126,-5.3125 0,-2.9352 2.3771,-5.3124 5.3126,-5.3124 z m 35.4375,0 c 2.9355,0 5.3126,2.3772 5.3126,5.3124 0,2.9354 -2.3771,5.3125 -5.3126,5.3125 -2.9354,0 -5.3124,-2.3771 -5.3124,-5.3125 0,-2.9352 2.377,-5.3124 5.3124,-5.3124 z m 35.4376,0 c 2.9354,0 5.3124,2.3772 5.3124,5.3124 0,2.9354 -2.377,5.3125 -5.3124,5.3125 -2.9355,0 -5.3126,-2.3771 -5.3126,-5.3125 0,-2.9352 2.3771,-5.3124 5.3126,-5.3124 z m 35.4374,0 c 2.9355,0 5.3126,2.3772 5.3126,5.3124 0,2.9354 -2.3771,5.3125 -5.3126,5.3125 -2.9354,0 -5.3124,-2.3771 -5.3124,-5.3125 0,-2.9352 2.377,-5.3124 5.3124,-5.3124 z"
       style="fill:#008080;fill-opacity:0.5;stroke:none;display:inline" />
    <path
       inkscape:connector-curvature="0"
       id="path3662"
       d="m 1084.2608,329.50972 c -39.1383,0 -70.875,31.73671 -70.875,70.875 0,39.13829 31.7367,70.875 70.875,70.875 39.1383,0 70.875,-31.73671 70.875,-70.875 0,-39.13829 -31.7367,-70.875 -70.875,-70.875 z m 0,12.40625 c 2.9354,0 5.3125,2.37713 5.3125,5.3125 0,2.93537 -2.3771,5.3125 -5.3125,5.3125 -2.9354,0 -5.3125,-2.37713 -5.3125,-5.3125 0,-2.93537 2.3771,-5.3125 5.3125,-5.3125 z m -26.7188,7.125 c 1.8849,-0.0489 3.741,0.90855 4.75,2.65625 1.4677,2.54211 0.5734,5.78231 -1.9687,7.25 -2.5421,1.46769 -5.7823,0.60461 -7.25,-1.9375 -1.4677,-2.54211 -0.6046,-5.78231 1.9375,-7.25 0.7944,-0.45865 1.6745,-0.6965 2.5312,-0.71875 z m 52.9063,0 c 1.0212,-0.0722 2.078,0.16837 3.0312,0.71875 2.5422,1.46769 3.4052,4.70789 1.9375,7.25 -1.4676,2.54211 -4.7078,3.40519 -7.25,1.9375 -2.5421,-1.46769 -3.4051,-4.70789 -1.9375,-7.25 0.9173,-1.58882 2.5168,-2.53597 4.2188,-2.65625 z m -72.0938,19.4375 c 0.8568,0.0222 1.7369,0.2601 2.5313,0.71875 2.5421,1.46769 3.4052,4.70789 1.9375,7.25 -1.4677,2.54211 -4.7079,3.43644 -7.25,1.96875 -2.5421,-1.46769 -3.4052,-4.73914 -1.9375,-7.28125 1.009,-1.7477 2.8339,-2.7052 4.7187,-2.65625 z m 91.7813,0 c 1.8848,-0.0489 3.741,0.90855 4.75,2.65625 1.4677,2.54211 0.6046,5.81356 -1.9375,7.28125 -2.5421,1.46769 -5.8136,0.57336 -7.2813,-1.96875 -1.4676,-2.54211 -0.5733,-5.78231 1.9688,-7.25 0.7944,-0.45865 1.6432,-0.6965 2.5,-0.71875 z m -63.5938,8.875 c 2.9354,0 5.3125,2.37713 5.3125,5.3125 0,2.93537 -2.3771,5.3125 -5.3125,5.3125 -2.9353,0 -5.3125,-2.37713 -5.3125,-5.3125 0,-2.93537 2.3772,-5.3125 5.3125,-5.3125 z m 35.4375,0 c 2.9354,0 5.3125,2.37713 5.3125,5.3125 0,2.93537 -2.3771,5.3125 -5.3125,5.3125 -2.9353,0 -5.3125,-2.37713 -5.3125,-5.3125 0,-2.93537 2.3772,-5.3125 5.3125,-5.3125 z m -70.875,17.71875 c 2.9354,0 5.3125,2.37713 5.3125,5.3125 0,2.93537 -2.3771,5.3125 -5.3125,5.3125 -2.9353,0 -5.3125,-2.37713 -5.3125,-5.3125 0,-2.93537 2.3772,-5.3125 5.3125,-5.3125 z m 53.1563,0 c 2.9354,0 5.3125,2.37713 5.3125,5.3125 0,2.93537 -2.3771,5.3125 -5.3125,5.3125 -2.9354,0 -5.3125,-2.37713 -5.3125,-5.3125 0,-2.93537 2.3771,-5.3125 5.3125,-5.3125 z m 53.1562,0 c 2.9354,0 5.3125,2.37713 5.3125,5.3125 0,2.93537 -2.3771,5.3125 -5.3125,5.3125 -2.9353,0 -5.3125,-2.37713 -5.3125,-5.3125 0,-2.93537 2.3772,-5.3125 5.3125,-5.3125 z m -70.875,17.71875 c 2.9354,0 5.3125,2.37713 5.3125,5.3125 0,2.93537 -2.3771,5.3125 -5.3125,5.3125 -2.9353,0 -5.3125,-2.37713 -5.3125,-5.3125 0,-2.93537 2.3772,-5.3125 5.3125,-5.3125 z m 35.4375,0 c 2.9354,0 5.3125,2.37713 5.3125,5.3125 0,2.93537 -2.3771,5.3125 -5.3125,5.3125 -2.9353,0 -5.3125,-2.37713 -5.3125,-5.3125 0,-2.93537 2.3772,-5.3125 5.3125,-5.3125 z m -63.9062,8.84375 c 1.8848,-0.0489 3.741,0.90855 4.75,2.65625 1.4677,2.54211 0.6046,5.78231 -1.9375,7.25 -2.5421,1.46769 -5.7823,0.60461 -7.25,-1.9375 -1.4677,-2.54211 -0.6046,-5.78231 1.9375,-7.25 0.7944,-0.45865 1.6432,-0.6965 2.5,-0.71875 z m 92.3437,0 c 0.8568,0.0222 1.7369,0.2601 2.5313,0.71875 2.5421,1.46769 3.4052,4.70789 1.9375,7.25 -1.4677,2.54211 -4.7079,3.40519 -7.25,1.9375 -2.5421,-1.46769 -3.4364,-4.70789 -1.9688,-7.25 1.0091,-1.7477 2.8652,-2.7052 4.75,-2.65625 z m -73.0937,19.46875 c 1.0212,-0.0722 2.0467,0.13712 3,0.6875 2.5421,1.46769 3.4364,4.73914 1.9687,7.28125 -1.4676,2.54211 -4.7391,3.40519 -7.2812,1.9375 -2.5421,-1.46769 -3.4052,-4.70789 -1.9375,-7.25 0.9173,-1.58882 2.548,-2.53597 4.25,-2.65625 z m 53.375,0 c 1.8848,-0.0489 3.7097,0.90855 4.7187,2.65625 1.4677,2.54211 0.6047,5.78231 -1.9375,7.25 -2.5421,1.46769 -5.7823,0.60461 -7.25,-1.9375 -1.4676,-2.54211 -0.6046,-5.81356 1.9375,-7.28125 0.7945,-0.45865 1.6745,-0.66525 2.5313,-0.6875 z m -27,7.125 c 0.1787,-0.0181 0.379,0 0.5625,0 2.9354,0 5.3125,2.37713 5.3125,5.3125 0,2.93537 -2.3771,5.3125 -5.3125,5.3125 -2.9354,0 -5.3125,-2.37713 -5.3125,-5.3125 0,-2.75191 2.0699,-5.04032 4.75,-5.3125 z"
       style="fill:#008080;fill-opacity:0.5;stroke:none" />
    <path
       inkscape:connector-curvature="0"
       id="path3662-5"
       d="m 488.96749,379.11602 c -39.13829,0 -70.875,31.73671 -70.875,70.875 0,39.13829 31.73671,70.875 70.875,70.875 39.13829,0 70.87503,-31.73671 70.87503,-70.875 0,-39.13829 -31.73674,-70.875 -70.87503,-70.875 z m 0,12.40625 c 2.93537,0 5.3125,2.37713 5.3125,5.3125 0,2.93537 -2.37713,5.3125 -5.3125,5.3125 -2.93537,0 -5.3125,-2.37713 -5.3125,-5.3125 0,-2.93537 2.37713,-5.3125 5.3125,-5.3125 z m -26.71875,7.125 c 1.88485,-0.0489 3.74097,0.90855 4.75,2.65625 1.46769,2.54211 0.57336,5.78231 -1.96875,7.25 -2.54211,1.46769 -5.78231,0.60461 -7.25,-1.9375 -1.46769,-2.54211 -0.60461,-5.78231 1.9375,-7.25 0.79441,-0.45865 1.6745,-0.6965 2.53125,-0.71875 z m 52.90625,0 c 1.02117,-0.0722 2.07796,0.16837 3.03125,0.71875 2.54211,1.46769 3.40519,4.70789 1.9375,7.25 -1.46769,2.54211 -4.70789,3.40519 -7.25,1.9375 -2.54211,-1.46769 -3.40519,-4.70789 -1.9375,-7.25 0.9173,-1.58882 2.5168,-2.53597 4.21875,-2.65625 z m -72.09375,19.4375 c 0.85675,0.0222 1.73684,0.2601 2.53125,0.71875 2.54211,1.46769 3.40519,4.70789 1.9375,7.25 -1.46769,2.54211 -4.70789,3.43644 -7.25,1.96875 -2.54211,-1.46769 -3.40519,-4.73914 -1.9375,-7.28125 1.00903,-1.7477 2.8339,-2.7052 4.71875,-2.65625 z m 91.78125,0 c 1.88485,-0.0489 3.74097,0.90855 4.75,2.65625 1.46769,2.54211 0.60461,5.81356 -1.9375,7.28125 -2.54211,1.46769 -5.81356,0.57336 -7.28125,-1.96875 -1.46769,-2.54211 -0.57336,-5.78231 1.96875,-7.25 0.79441,-0.45865 1.64325,-0.6965 2.5,-0.71875 z m -63.59375,8.875 c 2.93537,0 5.3125,2.37713 5.3125,5.3125 0,2.93537 -2.37713,5.3125 -5.3125,5.3125 -2.93537,0 -5.3125,-2.37713 -5.3125,-5.3125 0,-2.93537 2.37713,-5.3125 5.3125,-5.3125 z m 35.4375,0 c 2.93537,0 5.3125,2.37713 5.3125,5.3125 0,2.93537 -2.37713,5.3125 -5.3125,5.3125 -2.93537,0 -5.3125,-2.37713 -5.3125,-5.3125 0,-2.93537 2.37713,-5.3125 5.3125,-5.3125 z m -70.875,17.71875 c 2.93537,0 5.3125,2.37713 5.3125,5.3125 0,2.93537 -2.37713,5.3125 -5.3125,5.3125 -2.93537,0 -5.3125,-2.37713 -5.3125,-5.3125 0,-2.93537 2.37713,-5.3125 5.3125,-5.3125 z m 53.15625,0 c 2.93537,0 5.3125,2.37713 5.3125,5.3125 0,2.93537 -2.37713,5.3125 -5.3125,5.3125 -2.93537,0 -5.3125,-2.37713 -5.3125,-5.3125 0,-2.93537 2.37713,-5.3125 5.3125,-5.3125 z m 53.15625,0 c 2.93537,0 5.3125,2.37713 5.3125,5.3125 0,2.93537 -2.37713,5.3125 -5.3125,5.3125 -2.93537,0 -5.3125,-2.37713 -5.3125,-5.3125 0,-2.93537 2.37713,-5.3125 5.3125,-5.3125 z m -70.875,17.71875 c 2.93537,0 5.3125,2.37713 5.3125,5.3125 0,2.93537 -2.37713,5.3125 -5.3125,5.3125 -2.93537,0 -5.3125,-2.37713 -5.3125,-5.3125 0,-2.93537 2.37713,-5.3125 5.3125,-5.3125 z m 35.4375,0 c 2.93537,0 5.3125,2.37713 5.3125,5.3125 0,2.93537 -2.37713,5.3125 -5.3125,5.3125 -2.93537,0 -5.3125,-2.37713 -5.3125,-5.3125 0,-2.93537 2.37713,-5.3125 5.3125,-5.3125 z m -63.90625,8.84375 c 1.88485,-0.0489 3.74097,0.90855 4.75,2.65625 1.46769,2.54211 0.60461,5.78231 -1.9375,7.25 -2.54211,1.46769 -5.78231,0.60461 -7.25,-1.9375 -1.46769,-2.54211 -0.60461,-5.78231 1.9375,-7.25 0.79441,-0.45865 1.64325,-0.6965 2.5,-0.71875 z m 92.34375,0 c 0.85675,0.0222 1.73684,0.2601 2.53125,0.71875 2.54211,1.46769 3.40519,4.70789 1.9375,7.25 -1.46769,2.54211 -4.70789,3.40519 -7.25,1.9375 -2.54211,-1.46769 -3.43644,-4.70789 -1.96875,-7.25 1.00903,-1.7477 2.86515,-2.7052 4.75,-2.65625 z m -73.09375,19.46875 c 1.02117,-0.0722 2.04671,0.13712 3,0.6875 2.54211,1.46769 3.43644,4.73914 1.96875,7.28125 -1.46769,2.54211 -4.73914,3.40519 -7.28125,1.9375 -2.54211,-1.46769 -3.40519,-4.70789 -1.9375,-7.25 0.9173,-1.58882 2.54805,-2.53597 4.25,-2.65625 z m 53.375,0 c 1.88485,-0.0489 3.70972,0.90855 4.71875,2.65625 1.46769,2.54211 0.60461,5.78231 -1.9375,7.25 -2.54211,1.46769 -5.78231,0.60461 -7.25,-1.9375 -1.46769,-2.54211 -0.60461,-5.81356 1.9375,-7.28125 0.79441,-0.45865 1.6745,-0.66525 2.53125,-0.6875 z m -27,7.125 c 0.17867,-0.0181 0.37904,0 0.5625,0 2.93537,0 5.3125,2.37713 5.3125,5.3125 0,2.93537 -2.37713,5.3125 -5.3125,5.3125 -2.93537,0 -5.3125,-2.37713 -5.3125,-5.3125 0,-2.75191 2.0699,-5.04032 4.75,-5.3125 z"
       style="fill:#008080;fill-opacity:0.5;stroke:none;display:inline" />
    <path
       sodipodi:nodetypes="ssssssssscsssccsssccsssccssscsssssssssssssssssssscscsccscsccscsccscscssssssssssssssssssss"
       inkscape:connector-curvature="0"
       id="rect3822-4-8-1"
       d="m 559.84252,248.01815 c 0,-10.6167 -7.0866,-17.7033 -17.7165,-17.7033 l -106.31211,0 c -10.6168,0 -17.7034,7.0866 -17.7034,17.7033 l 0,106.31243 c 0,10.62992 7.0866,17.71654 17.7166,17.71654 l 106.31211,0 c 10.6167,0 17.7033,-7.08662 17.7033,-17.71654 z m -12.3772,0.018 c 0,2.9354 -2.3771,5.3125 -5.3126,5.3125 -2.9353,0 -5.3437,-2.3771 -5.3437,-5.3125 0,-2.9354 2.4084,-5.3125 5.3437,-5.3125 2.9355,0 5.3125,2.3771 5.3126,5.3125 z m 0,35.4375 c 0,2.9354 -2.3771,5.3124 -5.3126,5.3124 -2.9353,0 -5.3437,-2.377 -5.3437,-5.3124 0,-2.9354 2.4084,-5.3125 5.3437,-5.3125 2.9355,0 5.3125,2.3771 5.3126,5.3125 z m 0,35.43743 c 0,2.9354 -2.3771,5.3125 -5.3126,5.3125 -2.9353,0 -5.3437,-2.3771 -5.3437,-5.3125 0,-2.9354 2.4084,-5.3125 5.3437,-5.3125 2.9355,0 5.3125,2.3771 5.3126,5.3125 z m 0,35.4375 c 0,2.9354 -2.3771,5.3125 -5.3126,5.3125 -2.9353,0 -5.3437,-2.3771 -5.3437,-5.3125 0,-2.9354 2.4084,-5.3125 5.3437,-5.3125 2.9355,0 5.3125,2.3771 5.3126,5.3125 z m -35.4376,-106.31243 c 0,2.9354 -2.377,5.3125 -5.3124,5.3125 -2.9354,0 -5.3126,-2.3771 -5.3126,-5.3125 0,-2.9354 2.3772,-5.3125 5.3126,-5.3125 2.9354,0 5.3124,2.3771 5.3124,5.3125 z m 0,35.4375 c 0,2.9354 -2.377,5.3124 -5.3124,5.3124 -2.9354,0 -5.3126,-2.377 -5.3126,-5.3124 0,-2.9354 2.3772,-5.3125 5.3126,-5.3125 2.9354,0 5.3124,2.3771 5.3124,5.3125 z m 0,35.43743 c 0,2.9354 -2.377,5.3125 -5.3124,5.3125 -2.9354,0 -5.3126,-2.3771 -5.3126,-5.3125 0,-2.9354 2.3772,-5.3125 5.3126,-5.3125 2.9354,0 5.3124,2.3771 5.3124,5.3125 z m 0,35.4375 c 0,2.9354 -2.377,5.3125 -5.3124,5.3125 -2.9354,0 -5.3126,-2.3771 -5.3126,-5.3125 0,-2.9354 2.3772,-5.3125 5.3126,-5.3125 2.9354,0 5.3124,2.3771 5.3124,5.3125 z M 476.59061,248.03615 c 0,2.9354 -2.3771,5.3125 -5.3126,5.3125 -2.9354,0 -5.3125,-2.3771 -5.3124,-5.3125 0,-2.9354 2.377,-5.3125 5.3124,-5.3125 2.9354,0 5.3125,2.3771 5.3126,5.3125 z m 0,35.4375 c 0,2.9354 -2.3771,5.3124 -5.3126,5.3124 -2.9354,0 -5.3125,-2.377 -5.3124,-5.3124 0,-2.9354 2.377,-5.3125 5.3124,-5.3125 2.9354,0 5.3125,2.3771 5.3126,5.3125 z m 0,35.43743 c 0,2.9354 -2.3771,5.3125 -5.3126,5.3125 -2.9354,0 -5.3125,-2.3771 -5.3124,-5.3125 0,-2.9354 2.377,-5.3125 5.3124,-5.3125 2.9354,0 5.3125,2.3771 5.3126,5.3125 z m 0,35.4375 c 0,2.9354 -2.3771,5.3125 -5.3126,5.3125 -2.9354,0 -5.3125,-2.3771 -5.3124,-5.3125 0,-2.9354 2.377,-5.3125 5.3124,-5.3125 2.9354,0 5.3125,2.3771 5.3126,5.3125 z m -35.4376,-106.31243 c 0,2.9354 -2.377,5.3125 -5.3124,5.3125 -2.9355,0 -5.3126,-2.3771 -5.3126,-5.3125 0,-2.9354 2.3771,-5.3125 5.3126,-5.3125 2.9353,0 5.3124,2.3771 5.3124,5.3125 z m 0,35.4375 c 0,2.9354 -2.377,5.3124 -5.3124,5.3124 -2.9355,0 -5.3126,-2.377 -5.3126,-5.3124 0,-2.9354 2.3771,-5.3125 5.3126,-5.3125 2.9353,0 5.3124,2.3771 5.3124,5.3125 z m 0,35.43743 c 0,2.9354 -2.377,5.3125 -5.3124,5.3125 -2.9355,0 -5.3126,-2.3771 -5.3126,-5.3125 0,-2.9354 2.3771,-5.3125 5.3126,-5.3125 2.9353,0 5.3124,2.3771 5.3124,5.3125 z m 0,35.4375 c 0,2.9354 -2.377,5.3125 -5.3124,5.3125 -2.9355,0 -5.3126,-2.3771 -5.3126,-5.3125 0,-2.9354 2.3771,-5.3125 5.3126,-5.3125 2.9353,0 5.3124,2.3771 5.3124,5.3125 z"
       style="fill:#008080;fill-opacity:0.5;stroke:none;display:inline" />
    <path
       inkscape:connector-curvature="0"
       id="rect4500"
       d="m 435.8113,526.70313 0,10.625 -17.71875,0 0,26.03125 17.71875,0 0,10.65625 35.4375,0 0,-10.65625 35.4375,0 0,10.65625 35.43748,0 0,-10.65625 17.71874,0 0,-26.03125 -17.71874,0 0,-10.625 -35.43748,0 0,10.625 -35.4375,0 0,-10.625 -35.4375,0 z m 0,18.34375 c 2.93537,0 5.34375,2.37713 5.34375,5.3125 0,2.93537 -2.40838,5.3125 -5.34375,5.3125 -2.93537,0 -5.3125,-2.37713 -5.3125,-5.3125 0,-2.93537 2.37713,-5.3125 5.3125,-5.3125 z m 35.4375,0 c 2.93537,0 5.3125,2.37713 5.3125,5.3125 0,2.93537 -2.37713,5.3125 -5.3125,5.3125 -2.93537,0 -5.3125,-2.37713 -5.3125,-5.3125 0,-2.93537 2.37713,-5.3125 5.3125,-5.3125 z m 35.4375,0 c 2.93537,0 5.3125,2.37713 5.3125,5.3125 0,2.93537 -2.37713,5.3125 -5.3125,5.3125 -2.93537,0 -5.3125,-2.37713 -5.3125,-5.3125 0,-2.93537 2.37713,-5.3125 5.3125,-5.3125 z m 35.43748,0 c 2.9354,0 5.3125,2.37713 5.3125,5.3125 0,2.93537 -2.3771,5.3125 -5.3125,5.3125 -2.9354,0 -5.3125,-2.37713 -5.3125,-5.3125 0,-2.93537 2.3771,-5.3125 5.3125,-5.3125 z"
       style="fill:#008080;fill-opacity:0.5;stroke:none" />
    <path
       inkscape:connector-curvature="0"
       id="rect4500-0"
       d="m 435.82904,579.85273 0,10.625 -17.7188,0 0,26.03125 17.7188,0 0,10.65625 35.4375,0 0,-10.65625 35.4375,0 0,10.65625 35.4375,0 0,-10.65625 17.7186,0 0,-26.03125 -17.7186,0 0,-10.625 -35.4375,0 0,10.625 -35.4375,0 0,-10.625 -35.4375,0 z m 0,18.34375 c 2.9353,0 5.3437,2.37713 5.3437,5.3125 0,2.93537 -2.4084,5.3125 -5.3437,5.3125 -2.9354,0 -5.3125,-2.37713 -5.3125,-5.3125 0,-2.93537 2.3771,-5.3125 5.3125,-5.3125 z m 35.4375,0 c 2.9353,0 5.3125,2.37713 5.3125,5.3125 0,2.93537 -2.3772,5.3125 -5.3125,5.3125 -2.9354,0 -5.3125,-2.37713 -5.3125,-5.3125 0,-2.93537 2.3771,-5.3125 5.3125,-5.3125 z m 35.4375,0 c 2.9353,0 5.3125,2.37713 5.3125,5.3125 0,2.93537 -2.3772,5.3125 -5.3125,5.3125 -2.9354,0 -5.3125,-2.37713 -5.3125,-5.3125 0,-2.93537 2.3771,-5.3125 5.3125,-5.3125 z m 35.4375,0 c 2.9354,0 5.3125,2.37713 5.3125,5.3125 0,2.93537 -2.3771,5.3125 -5.3125,5.3125 -2.9354,0 -5.3125,-2.37713 -5.3125,-5.3125 0,-2.93537 2.3771,-5.3125 5.3125,-5.3125 z"
       style="fill:#008080;fill-opacity:0.5;stroke:none;display:inline" />
    <path
       inkscape:connector-curvature="0"
       d=""
       style="fill:none;stroke:#000000"
       id="path3084" />
    <g
       id="g3085">
      <path
         id="path3081"
         d="M 906.4375 478.34375 C 902.91831 478.34375 899.69685 479.6269 897.21875 481.75 L 892.90625 481.75 L 889.375 485.3125 L 889.375 506.5625 L 885.8125 510.09375 L 869.21875 510.09375 L 864.5625 513.65625 L 864.5625 559.6875 L 868.09375 563.25 L 885.1875 563.25 L 889.375 566.78125 L 889.375 627.03125 L 885.8125 630.5625 L 885.8125 666 L 889.375 669.5625 L 889.375 673.09375 L 892.90625 676.625 L 932.6875 676.625 C 935.12914 678.5965 938.21973 679.78125 941.59375 679.78125 C 944.96674 679.78125 948.04858 678.5955 950.46875 676.625 L 1035.8438 676.625 C 1038.2752 680.9332 1042.8565 683.84375 1048.1562 683.84375 C 1053.4559 683.84375 1058.0685 680.9332 1060.5 676.625 L 1126.7812 676.625 L 1130.3125 673.0625 L 1130.3125 669.5625 L 1137.4062 662.46875 L 1137.4062 656.03125 C 1139.1587 653.65915 1140.2188 650.7429 1140.2188 647.5625 C 1140.2188 644.3768 1139.1631 641.44795 1137.4062 639.09375 L 1137.4062 557.03125 C 1139.1587 554.65915 1140.2188 551.7429 1140.2188 548.5625 C 1140.2648 548.0415 1140.2933 547.5204 1140.2812 547 C 1140.2013 543.3587 1138.7942 539.8646 1137.4062 538.4375 L 1130.3125 531.375 L 1130.3125 500.90625 C 1132.0444 498.55575 1133.0938 495.67685 1133.0938 492.53125 C 1133.0938 484.69985 1126.7375 478.34375 1118.9062 478.34375 C 1115.393 478.34375 1112.1944 479.6357 1109.7188 481.75 L 1092.8125 481.75 C 1090.3344 479.6269 1087.1128 478.34375 1083.5938 478.34375 C 1080.0746 478.34375 1076.8843 479.6269 1074.4062 481.75 L 1057.375 481.75 C 1054.8969 479.6269 1051.6753 478.34375 1048.1562 478.34375 C 1044.6371 478.34375 1041.4468 479.6269 1038.9688 481.75 L 1021.9375 481.75 C 1019.4594 479.6269 1016.2692 478.34375 1012.75 478.34375 C 1009.2308 478.34375 1006.0093 479.6269 1003.5312 481.75 L 986.5 481.75 C 984.0219 479.6269 980.83169 478.34375 977.3125 478.34375 C 973.79331 478.34375 970.57185 479.6269 968.09375 481.75 L 952.0625 481.75 C 950.25268 480.9124 948.23068 480.4373 946.09375 480.4375 C 943.95683 480.4375 941.94565 480.9124 940.125 481.75 L 915.65625 481.75 C 913.17632 479.6199 909.96319 478.34375 906.4375 478.34375 z M 906.4375 487.1875 C 909.37287 487.1875 911.75 489.5648 911.75 492.5 C 911.75 495.4354 909.37287 497.8125 906.4375 497.8125 C 903.50213 497.8125 901.125 495.4355 901.125 492.5 C 901.125 489.5648 903.50213 487.1875 906.4375 487.1875 z M 977.3125 487.1875 C 980.24787 487.1875 982.625 489.5648 982.625 492.5 C 982.625 495.4354 980.24787 497.8125 977.3125 497.8125 C 974.37713 497.8125 972 495.4355 972 492.5 C 972 489.5648 974.37713 487.1875 977.3125 487.1875 z M 1012.7188 487.1875 C 1015.6541 487.1875 1018.0312 489.5648 1018.0312 492.5 C 1018.0312 495.4357 1015.654 497.8125 1012.7188 497.8125 C 1009.7834 497.8125 1007.4063 495.4357 1007.4062 492.5 C 1007.4062 489.5648 1009.7834 487.1875 1012.7188 487.1875 z M 1048.1562 487.1875 C 1050.9082 487.1875 1053.1965 489.28865 1053.4688 491.96875 C 1053.4867 492.14745 1053.4688 492.3167 1053.4688 492.5 C 1053.4688 495.4354 1051.0917 497.8125 1048.1562 497.8125 C 1045.2209 497.8125 1042.8438 495.4355 1042.8438 492.5 C 1042.8438 489.5648 1045.221 487.1875 1048.1562 487.1875 z M 1083.5938 487.1875 C 1086.529 487.1875 1088.9062 489.5648 1088.9062 492.5 C 1088.9062 495.4354 1086.529 497.8125 1083.5938 497.8125 C 1080.6582 497.8125 1078.2812 495.4355 1078.2812 492.5 C 1078.2812 489.5648 1080.6583 487.1875 1083.5938 487.1875 z M 1118.875 487.1875 C 1121.8104 487.1875 1124.1875 489.5648 1124.1875 492.5 C 1124.1875 495.4356 1121.8104 497.8122 1118.875 497.8125 C 1115.9396 497.8125 1113.5625 495.4356 1113.5625 492.5 C 1113.5625 489.5648 1115.9396 487.1872 1118.875 487.1875 z M 946.03125 489.28125 C 948.97144 489.28125 951.34375 491.62198 951.34375 494.5625 C 951.34375 497.50241 948.97144 499.90625 946.03125 499.90625 C 943.09106 499.90625 940.71875 497.50253 940.71875 494.5625 C 940.71875 491.62198 943.09106 489.28125 946.03125 489.28125 z M 906.4375 522.625 C 909.37287 522.625 911.75 525.002 911.75 527.9375 C 911.75 530.8727 909.37287 533.25 906.4375 533.25 C 903.50213 533.25 901.125 530.8727 901.125 527.9375 C 901.125 525.0021 903.50213 522.625 906.4375 522.625 z M 941.875 522.625 C 944.81037 522.625 947.1875 525.002 947.1875 527.9375 C 947.1875 530.8727 944.81037 533.25 941.875 533.25 C 938.93963 533.25 936.5625 530.8727 936.5625 527.9375 C 936.5625 525.0021 938.93963 522.625 941.875 522.625 z M 977.3125 522.625 C 980.24787 522.625 982.625 525.002 982.625 527.9375 C 982.625 530.8727 980.24787 533.25 977.3125 533.25 C 974.37713 533.25 972 530.8727 972 527.9375 C 972 525.0021 974.37713 522.625 977.3125 522.625 z M 1012.75 522.625 C 1015.6854 522.625 1018.0625 525.002 1018.0625 527.9375 C 1018.0625 530.8727 1015.6854 533.25 1012.75 533.25 C 1009.8146 533.25 1007.4062 530.8727 1007.4062 527.9375 C 1007.4062 525.0021 1009.8146 522.625 1012.75 522.625 z M 1048.1562 522.625 C 1050.9082 522.625 1053.1965 524.72615 1053.4688 527.40625 C 1053.4867 527.58495 1053.4688 527.7539 1053.4688 527.9375 C 1053.4688 530.8727 1051.0917 533.25 1048.1562 533.25 C 1045.2209 533.25 1042.8438 530.8727 1042.8438 527.9375 C 1042.8438 525.0021 1045.221 522.625 1048.1562 522.625 z M 1083.5938 522.625 C 1086.529 522.625 1088.9062 525.002 1088.9062 527.9375 C 1088.9062 530.8727 1086.529 533.25 1083.5938 533.25 C 1080.6582 533.25 1078.2812 530.8727 1078.2812 527.9375 C 1078.2812 525.0021 1080.6583 522.625 1083.5938 522.625 z M 1126.0312 543.28125 C 1128.9715 543.28125 1131.3438 545.62186 1131.3438 548.5625 C 1131.3438 551.50217 1128.9715 553.90625 1126.0312 553.90625 C 1123.091 553.90625 1120.7188 551.50217 1120.7188 548.5625 C 1120.7188 545.62174 1123.091 543.28125 1126.0312 543.28125 z M 906.4375 558.0625 C 909.37287 558.0625 911.75 560.4398 911.75 563.375 C 911.75 566.3104 909.37287 568.6875 906.4375 568.6875 C 903.50213 568.6875 901.125 566.3105 901.125 563.375 C 901.125 560.4398 903.50213 558.0625 906.4375 558.0625 z M 941.875 558.0625 C 944.81037 558.0625 947.1875 560.4398 947.1875 563.375 C 947.1875 566.3104 944.81037 568.6875 941.875 568.6875 C 938.93963 568.6875 936.5625 566.3105 936.5625 563.375 C 936.5625 560.4398 938.93963 558.0625 941.875 558.0625 z M 977.3125 558.0625 C 980.24787 558.0625 982.625 560.4398 982.625 563.375 C 982.625 566.3104 980.24787 568.6875 977.3125 568.6875 C 974.37713 568.6875 972 566.3105 972 563.375 C 972 560.4398 974.37713 558.0625 977.3125 558.0625 z M 1012.75 558.0625 C 1015.6854 558.0625 1018.0625 560.4398 1018.0625 563.375 C 1018.0625 566.3104 1015.6854 568.6875 1012.75 568.6875 C 1009.8146 568.6875 1007.4062 566.3105 1007.4062 563.375 C 1007.4062 560.4398 1009.8146 558.0625 1012.75 558.0625 z M 1048.1562 558.0625 C 1050.9082 558.0625 1053.1965 560.16365 1053.4688 562.84375 C 1053.4867 563.02245 1053.4688 563.1917 1053.4688 563.375 C 1053.4688 566.3104 1051.0917 568.6875 1048.1562 568.6875 C 1045.2209 568.6875 1042.8438 566.3105 1042.8438 563.375 C 1042.8438 560.4398 1045.221 558.0625 1048.1562 558.0625 z M 1083.5938 558.0625 C 1086.529 558.0625 1088.9062 560.4398 1088.9062 563.375 C 1088.9062 566.3104 1086.529 568.6875 1083.5938 568.6875 C 1080.6582 568.6875 1078.2812 566.3105 1078.2812 563.375 C 1078.2812 560.4398 1080.6583 558.0625 1083.5938 558.0625 z M 906.40625 593.5 C 909.15816 593.5 911.44684 595.60135 911.71875 598.28125 C 911.73685 598.45995 911.71875 598.6287 911.71875 598.8125 C 911.71875 601.7477 909.34162 604.1253 906.40625 604.125 C 903.47088 604.125 901.09375 601.7474 901.09375 598.8125 C 901.09375 595.8768 903.47088 593.5003 906.40625 593.5 z M 941.875 593.5 C 944.81037 593.5 947.1875 595.877 947.1875 598.8125 C 947.1875 601.7477 944.81037 604.125 941.875 604.125 C 938.93963 604.125 936.5625 601.7477 936.5625 598.8125 C 936.5625 595.8771 938.93963 593.5 941.875 593.5 z M 977.3125 593.5 C 980.24787 593.5 982.625 595.877 982.625 598.8125 C 982.625 601.7477 980.24787 604.125 977.3125 604.125 C 974.37713 604.125 972 601.7477 972 598.8125 C 972 595.8771 974.37713 593.5 977.3125 593.5 z M 1012.75 593.5 C 1015.6854 593.5 1018.0625 595.877 1018.0625 598.8125 C 1018.0625 601.7477 1015.6854 604.125 1012.75 604.125 C 1009.8146 604.125 1007.4062 601.7477 1007.4062 598.8125 C 1007.4062 595.8771 1009.8146 593.5 1012.75 593.5 z M 1048.1562 593.5 C 1050.9082 593.5 1053.1965 595.60115 1053.4688 598.28125 C 1053.4867 598.45995 1053.4688 598.6289 1053.4688 598.8125 C 1053.4688 601.7477 1051.0917 604.125 1048.1562 604.125 C 1045.2209 604.125 1042.8438 601.7477 1042.8438 598.8125 C 1042.8438 595.8771 1045.221 593.5 1048.1562 593.5 z M 1083.5938 593.5 C 1086.529 593.5 1088.9062 595.877 1088.9062 598.8125 C 1088.9062 601.7477 1086.529 604.125 1083.5938 604.125 C 1080.6582 604.125 1078.2812 601.7477 1078.2812 598.8125 C 1078.2812 595.8771 1080.6583 593.5 1083.5938 593.5 z M 1119.0312 593.5 C 1121.9666 593.5 1124.3438 595.877 1124.3438 598.8125 C 1124.3438 601.7477 1121.9667 604.125 1119.0312 604.125 C 1116.0959 604.125 1113.7188 601.7477 1113.7188 598.8125 C 1113.7188 595.8771 1116.096 593.5 1119.0312 593.5 z M 906.40625 628.9375 C 909.15816 628.9375 911.44684 631.03885 911.71875 633.71875 C 911.73685 633.89745 911.71875 634.0665 911.71875 634.25 C 911.71875 637.1854 909.34162 639.5625 906.40625 639.5625 C 903.47088 639.5625 901.09375 637.1852 901.09375 634.25 C 901.09375 631.3145 903.47088 628.9375 906.40625 628.9375 z M 941.875 628.9375 C 944.81037 628.9375 947.1875 631.3148 947.1875 634.25 C 947.1875 637.1854 944.81037 639.5625 941.875 639.5625 C 938.93963 639.5625 936.5625 637.1855 936.5625 634.25 C 936.5625 631.3148 938.93963 628.9375 941.875 628.9375 z M 977.3125 628.9375 C 980.24787 628.9375 982.625 631.3148 982.625 634.25 C 982.625 637.1854 980.24787 639.5625 977.3125 639.5625 C 974.37713 639.5625 972 637.1855 972 634.25 C 972 631.3148 974.37713 628.9375 977.3125 628.9375 z M 1012.75 628.9375 C 1015.6854 628.9375 1018.0625 631.3148 1018.0625 634.25 C 1018.0625 637.1854 1015.6854 639.5625 1012.75 639.5625 C 1009.8146 639.5625 1007.4062 637.1855 1007.4062 634.25 C 1007.4062 631.3148 1009.8146 628.9375 1012.75 628.9375 z M 1048.1562 628.9375 C 1050.9082 628.9375 1053.1965 631.0072 1053.4688 633.6875 C 1053.4867 633.866 1053.4688 634.0667 1053.4688 634.25 C 1053.4688 637.1854 1051.0917 639.5625 1048.1562 639.5625 C 1045.2209 639.5625 1042.8438 637.1855 1042.8438 634.25 C 1042.8438 631.3148 1045.221 628.9375 1048.1562 628.9375 z M 1083.5938 628.9375 C 1086.529 628.9375 1088.9062 631.3148 1088.9062 634.25 C 1088.9062 637.1854 1086.529 639.5625 1083.5938 639.5625 C 1080.6582 639.5625 1078.2812 637.1855 1078.2812 634.25 C 1078.2812 631.3148 1080.6583 628.9375 1083.5938 628.9375 z M 1126.0312 642.28125 C 1128.9715 642.28125 1131.3438 644.62186 1131.3438 647.5625 C 1131.3438 650.50217 1128.9715 652.90625 1126.0312 652.90625 C 1123.091 652.90625 1120.7188 650.50217 1120.7188 647.5625 C 1120.7188 644.62174 1123.091 642.28125 1126.0312 642.28125 z M 941.53125 660.28125 C 944.47144 660.28125 946.84375 662.62186 946.84375 665.5625 C 946.84375 668.50217 944.47144 670.90625 941.53125 670.90625 C 938.59106 670.90625 936.21875 668.50241 936.21875 665.5625 C 936.21875 662.62174 938.59106 660.28125 941.53125 660.28125 z M 1047.5938 664.375 C 1047.7722 664.357 1047.9415 664.375 1048.125 664.375 C 1051.0604 664.375 1053.4688 666.7519 1053.4688 669.6875 C 1053.4688 672.6227 1051.0604 675.0003 1048.125 675 C 1045.1896 675 1042.8125 672.6224 1042.8125 669.6875 C 1042.8125 666.9355 1044.9135 664.6474 1047.5938 664.375 z "
         style="fill:#008b00;fill-opacity:0.32535885;stroke:none;display:inline" />
      <g
         transform="matrix(0,1,-1,0,1545.9774,-671.65499)"
         id="g3454">
        <path
           inkscape:connector-curvature="0"
           d="m 1340.2813,433.37389 -15,0 -3,1 -2,2 -1,3 0,2 1,3 2,2 3,1 15,0"
           style="fill:none;stroke:#000000"
           id="path3086" />
        <path
           inkscape:connector-curvature="0"
           d="m 1333.2813,455.37389 -14,0 m 10,0 3,3 1,2 0,3 -1,2 -3,1 -10,0"
           style="fill:none;stroke:#000000"
           id="path3088" />
        <path
           inkscape:connector-curvature="0"
           d="m 1333.2813,478.37389 -1,-2 -2,-2 -3,-1 -2,0 -3,1 -2,2 -1,2 0,3 1,2 2,2 3,1 2,0 3,-1 2,-2 1,-2 0,-3"
           style="fill:none;stroke:#000000"
           id="path3090" />
      </g>
    </g>
    <path
       inkscape:connector-curvature="0"
       id="rect4500-0-3"
       d="m 435.81132,633.00234 0,10.625 -17.7188,0 0,26.0313 17.7188,0 0,10.6562 35.4375,0 0,-10.6562 35.4375,0 0,10.6562 35.4376,0 0,-10.6562 17.7186,0 0,-26.0313 -17.7186,0 0,-10.625 -35.4376,0 0,10.625 -35.4375,0 0,-10.625 -35.4375,0 z m 0,18.3438 c 2.9353,0 5.3437,2.3771 5.3437,5.3125 0,2.9354 -2.4084,5.3125 -5.3437,5.3125 -2.9354,0 -5.3125,-2.3771 -5.3125,-5.3125 0,-2.9354 2.3771,-5.3125 5.3125,-5.3125 z m 35.4375,0 c 2.9353,0 5.3125,2.3771 5.3125,5.3125 0,2.9354 -2.3772,5.3125 -5.3125,5.3125 -2.9354,0 -5.3125,-2.3771 -5.3125,-5.3125 0,-2.9354 2.3771,-5.3125 5.3125,-5.3125 z m 35.4375,0 c 2.9353,0 5.3125,2.3771 5.3125,5.3125 0,2.9354 -2.3772,5.3125 -5.3125,5.3125 -2.9354,0 -5.3125,-2.3771 -5.3125,-5.3125 0,-2.9354 2.3771,-5.3125 5.3125,-5.3125 z m 35.4376,0 c 2.9354,0 5.3125,2.3771 5.3125,5.3125 0,2.9354 -2.3771,5.3125 -5.3125,5.3125 -2.9354,0 -5.3125,-2.3771 -5.3125,-5.3125 0,-2.9354 2.3771,-5.3125 5.3125,-5.3125 z"
       style="fill:#008080;fill-opacity:0.5;stroke:none;display:inline" />
    <path
       style="fill:#008080;fill-opacity:0.5;stroke:none;display:inline"
       d="M 1031.0938 251.59375 C 1020.4769 251.59375 1013.375 258.66455 1013.375 269.28125 L 1013.375 304.71875 C 1013.375 315.34867 1020.4637 322.4375 1031.0938 322.4375 L 1137.4062 322.4375 C 1148.023 322.4375 1155.125 315.34867 1155.125 304.71875 L 1155.125 269.28125 C 1155.125 258.66455 1148.0361 251.59375 1137.4062 251.59375 L 1031.0938 251.59375 z M 1031.125 264 C 1034.0603 264 1036.4375 266.3771 1036.4375 269.3125 C 1036.4375 272.2479 1034.0604 274.625 1031.125 274.625 C 1028.1895 274.625 1025.8125 272.2479 1025.8125 269.3125 C 1025.8125 266.3771 1028.1895 264 1031.125 264 z M 1066.5625 264 C 1069.4979 264 1071.8749 266.3771 1071.875 269.3125 C 1071.875 272.2479 1069.498 274.625 1066.5625 274.625 C 1063.6271 274.625 1061.2499 272.2479 1061.25 269.3125 C 1061.25 266.3771 1063.6271 264 1066.5625 264 z M 1102 264 C 1104.9354 264 1107.3125 266.3771 1107.3125 269.3125 C 1107.3125 272.2479 1104.9354 274.625 1102 274.625 C 1099.0646 274.625 1096.6875 272.2479 1096.6875 269.3125 C 1096.6875 266.3771 1099.0646 264 1102 264 z M 1137.4375 264 C 1140.373 264 1142.7499 266.3771 1142.75 269.3125 C 1142.75 272.2479 1140.373 274.625 1137.4375 274.625 C 1134.5022 274.625 1132.0938 272.2479 1132.0938 269.3125 C 1132.0938 266.3771 1134.5022 264 1137.4375 264 z M 1031.125 299.4375 C 1034.0603 299.4375 1036.4375 301.8146 1036.4375 304.75 C 1036.4375 307.6854 1034.0604 310.0625 1031.125 310.0625 C 1028.1895 310.0625 1025.8125 307.6854 1025.8125 304.75 C 1025.8125 301.8146 1028.1895 299.4375 1031.125 299.4375 z M 1066.5625 299.4375 C 1069.4979 299.4375 1071.8749 301.8146 1071.875 304.75 C 1071.875 307.6854 1069.498 310.0625 1066.5625 310.0625 C 1063.6271 310.0625 1061.2499 307.6854 1061.25 304.75 C 1061.25 301.8146 1063.6271 299.4375 1066.5625 299.4375 z M 1102 299.4375 C 1104.9354 299.4375 1107.3125 301.8146 1107.3125 304.75 C 1107.3125 307.6854 1104.9354 310.0625 1102 310.0625 C 1099.0646 310.0625 1096.6875 307.6854 1096.6875 304.75 C 1096.6875 301.8146 1099.0646 299.4375 1102 299.4375 z M 1137.4375 299.4375 C 1140.373 299.4375 1142.7499 301.8146 1142.75 304.75 C 1142.75 307.6854 1140.373 310.0625 1137.4375 310.0625 C 1134.5022 310.0625 1132.0938 307.6854 1132.0938 304.75 C 1132.0938 301.8146 1134.5022 299.4375 1137.4375 299.4375 z "
       id="path3058" />
  </g>
</svg>
