<?xml version="1.0" encoding="UTF-8" standalone="no"?>
<!-- Created with Inkscape (http://www.inkscape.org/) -->

<svg
   xmlns:dc="http://purl.org/dc/elements/1.1/"
   xmlns:cc="http://creativecommons.org/ns#"
   xmlns:rdf="http://www.w3.org/1999/02/22-rdf-syntax-ns#"
   xmlns:svg="http://www.w3.org/2000/svg"
   xmlns="http://www.w3.org/2000/svg"
   xmlns:sodipodi="http://sodipodi.sourceforge.net/DTD/sodipodi-0.dtd"
   xmlns:inkscape="http://www.inkscape.org/namespaces/inkscape"
   width="3188.9763"
   height="2125.9841"
   id="svg2"
   version="1.1"
   inkscape:version="0.48.4 r9939"
   sodipodi:docname="robot-final.svg">
  <sodipodi:namedview
     id="base"
     pagecolor="#ffffff"
     bordercolor="#666666"
     borderopacity="1.0"
     inkscape:pageopacity="0.0"
     inkscape:pageshadow="2"
     inkscape:zoom="0.5187249"
     inkscape:cx="923.48966"
     inkscape:cy="1144.27"
     inkscape:document-units="mm"
     inkscape:current-layer="layer1"
     showgrid="true"
     inkscape:snap-object-midpoints="true"
     inkscape:snap-bbox="true"
     inkscape:object-paths="false"
     inkscape:snap-nodes="true"
     inkscape:object-nodes="false"
     inkscape:snap-global="true"
     inkscape:snap-grids="true"
     inkscape:window-width="1920"
     inkscape:window-height="1030"
     inkscape:window-x="0"
     inkscape:window-y="0"
     inkscape:window-maximized="1"
     inkscape:snap-smooth-nodes="false"
     units="mm">
    <inkscape:grid
       type="xygrid"
       id="grid2985"
       empspacing="10"
       visible="true"
       enabled="true"
       snapvisiblegridlinesonly="true"
       units="mm"
       spacingx="1mm"
       spacingy="1mm"
       empcolor="#ff9500"
       empopacity="0.25098039" />
  </sodipodi:namedview>
  <defs
     id="defs4" />
  <metadata
     id="metadata7">
    <rdf:RDF>
      <cc:Work
         rdf:about="">
        <dc:format>image/svg+xml</dc:format>
        <dc:type
           rdf:resource="http://purl.org/dc/dcmitype/StillImage" />
        <dc:title></dc:title>
      </cc:Work>
    </rdf:RDF>
  </metadata>
  <g
     inkscape:groupmode="layer"
     id="layer6"
     inkscape:label="Calibration"
     style="display:inline"
     transform="translate(0,1073.622)">
    <g
       id="g9652"
       transform="translate(1694.7077,390.10579)">
      <path
         id="rect3479"
         d="m 6.0797252,-117.27122 0,166.531296 258.6875048,0 0,-166.531296 -258.6875048,0 z m 21.2812998,21.249996 70.8437,0 0,10.65625 -70.8437,0 0,-10.65625 z m -0.094,28.2813 71.0312,0 0,10.8124 -71.0312,0 0,-10.8124 z m -0.094,28.25 71.2187,0 0,10.9687 -71.2187,0 0,-10.9687 z m -0.094,28.25 71.4062,0 0,11.15619974 -71.4062,0 0,-11.15619974 z m -0.094,28.25 71.5937,0 0,11.3437 -71.5937,0 0,-11.3437 z"
         style="fill:#004453;fill-opacity:0.37914692;stroke:none;display:inline"
         inkscape:connector-curvature="0" />
      <path
         id="path3025"
         style="fill:none;stroke:#000000;stroke-width:0.89999998;display:inline"
         d="m 111.09843,-101.18276 9.9,0 -5.4,7.199996 2.7,0 1.8,0.9 0.9,0.9 0.9,2.7 0,1.8 -0.9,2.7 -1.8,1.8 -2.7,0.9 -2.7,0 -2.7,-0.9 -0.9,-0.9 -0.9,-1.8"
         inkscape:connector-curvature="0" />
      <path
         id="path3027"
         style="fill:none;stroke:#000000;stroke-width:0.89999998;display:inline"
         d="m 127.29843,-94.882764 9.9,12.6 m 0,-12.6 -9.9,12.6"
         inkscape:connector-curvature="0" />
      <path
         id="path3029"
         style="fill:none;stroke:#000000;stroke-width:0.89999998;display:inline"
         d="m 143.49843,-96.682764 0,-0.9 0.9,-1.8 0.9,-0.899996 1.8,-0.9 3.6,0 1.8,0.9 0.9,0.899996 0.9,1.8 0,1.8 -0.9,1.8 -1.8,2.7 -9,9 12.6,0"
         inkscape:connector-curvature="0" />
      <path
         id="path3031"
         style="fill:none;stroke:#000000;stroke-width:0.89999998;display:inline"
         d="m 165.99843,-101.18276 -2.7,0.9 -1.8,2.699996 -0.9,4.5 0,2.7 0.9,4.5 1.8,2.7 2.7,0.9 1.8,0 2.7,-0.9 1.8,-2.7 0.9,-4.5 0,-2.7 -0.9,-4.5 -1.8,-2.699996 -2.7,-0.9 -1.8,0"
         inkscape:connector-curvature="0" />
      <path
         id="path3033"
         style="fill:none;stroke:#000000;stroke-width:0.89999998;display:inline"
         d="m 179.49843,-94.882764 0,12.6 m 0,-9 2.7,-2.7 1.8,-0.9 2.7,0 1.8,0.9 0.9,2.7 0,9 m 0,-9 2.7,-2.7 1.8,-0.9 2.7,0 1.8,0.9 0.9,2.7 0,9"
         inkscape:connector-curvature="0" />
      <path
         id="path3035"
         style="fill:none;stroke:#000000;stroke-width:0.89999998;display:inline"
         d="m 206.49843,-94.882764 0,12.6 m 0,-9 2.7,-2.7 1.8,-0.9 2.7,0 1.8,0.9 0.9,2.7 0,9 m 0,-9 2.7,-2.7 1.8,-0.9 2.7,0 1.8,0.9 0.9,2.7 0,9"
         inkscape:connector-curvature="0" />
      <path
         inkscape:connector-curvature="0"
         d="m 118.19843,-70.136324 0,16.2 m -8.1,-8.1 16.2,0"
         style="fill:none;stroke:#000000;stroke-width:0.89999998;display:inline"
         id="path3097" />
      <path
         inkscape:connector-curvature="0"
         d="m 137.99843,-72.836324 -2.7,0.9 -1.8,2.7 -0.9,4.5 0,2.7 0.9,4.5 1.8,2.7 2.7,0.9 1.8,0 2.7,-0.9 1.8,-2.7 0.9,-4.5 0,-2.7 -0.9,-4.5 -1.8,-2.7 -2.7,-0.9 -1.8,0"
         style="fill:none;stroke:#000000;stroke-width:0.89999998;display:inline"
         id="path3099" />
      <path
         inkscape:connector-curvature="0"
         d="m 151.49843,-58.436324 -0.9,0.9 0.9,0.9 0.9,-0.9 -0.9,-0.9"
         style="fill:none;stroke:#000000;stroke-width:0.89999998;display:inline"
         id="path3101" />
      <path
         inkscape:connector-curvature="0"
         d="m 163.19843,-72.836324 -2.7,0.9 -1.8,2.7 -0.9,4.5 0,2.7 0.9,4.5 1.8,2.7 2.7,0.9 1.8,0 2.7,-0.9 1.8,-2.7 0.9,-4.5 0,-2.7 -0.9,-4.5 -1.8,-2.7 -2.7,-0.9 -1.8,0"
         style="fill:none;stroke:#000000;stroke-width:0.89999998;display:inline"
         id="path3103" />
      <path
         inkscape:connector-curvature="0"
         d="m 186.59843,-72.836324 -9,0 -0.9,8.1 0.9,-0.9 2.7,-0.9 2.7,0 2.7,0.9 1.8,1.8 0.9,2.7 0,1.8 -0.9,2.7 -1.8,1.8 -2.7,0.9 -2.7,0 -2.7,-0.9 -0.9,-0.9 -0.9,-1.8"
         style="fill:none;stroke:#000000;stroke-width:0.89999998;display:inline"
         id="path3105" />
      <path
         inkscape:connector-curvature="0"
         d="m 194.69843,-66.536324 0,12.6 m 0,-9 2.7,-2.7 1.8,-0.9 2.7,0 1.8,0.9 0.9,2.7 0,9 m 0,-9 2.7,-2.7 1.8,-0.9 2.7,0 1.8,0.9 0.9,2.7 0,9"
         style="fill:none;stroke:#000000;stroke-width:0.89999998;display:inline"
         id="path3107" />
      <path
         inkscape:connector-curvature="0"
         d="m 221.69843,-66.536324 0,12.6 m 0,-9 2.7,-2.7 1.8,-0.9 2.7,0 1.8,0.9 0.9,2.7 0,9 m 0,-9 2.7,-2.7 1.8,-0.9 2.7,0 1.8,0.9 0.9,2.7 0,9"
         style="fill:none;stroke:#000000;stroke-width:0.89999998;display:inline"
         id="path3109" />
      <path
         id="path3187"
         style="fill:none;stroke:#000000;stroke-width:0.89999998;display:inline"
         d="m 117.19843,-41.789824 0,16.2 m -8.1,-8.1 16.2,0"
         inkscape:connector-curvature="0" />
      <path
         id="path3189"
         style="fill:none;stroke:#000000;stroke-width:0.89999998;display:inline"
         d="m 136.99843,-44.489824 -2.7,0.9 -1.8,2.7 -0.9,4.5 0,2.7 0.9,4.5 1.8,2.7 2.7,0.9 1.8,0 2.7,-0.9 1.8,-2.7 0.9,-4.5 0,-2.7 -0.9,-4.5 -1.8,-2.7 -2.7,-0.9 -1.8,0"
         inkscape:connector-curvature="0" />
      <path
         id="path3191"
         style="fill:none;stroke:#000000;stroke-width:0.89999998;display:inline"
         d="m 150.49843,-30.089824 -0.9,0.9 0.9,0.9 0.9,-0.9 -0.9,-0.9"
         inkscape:connector-curvature="0" />
      <path
         id="path3193"
         style="fill:none;stroke:#000000;stroke-width:0.89999998;display:inline"
         d="m 159.49843,-40.889824 1.8,-0.9 2.7,-2.7 0,18.9"
         inkscape:connector-curvature="0" />
      <path
         id="path3195"
         style="fill:none;stroke:#000000;stroke-width:0.89999998;display:inline"
         d="m 175.69843,-38.189824 0,12.6 m 0,-9 2.7,-2.7 1.8,-0.9 2.7,0 1.8,0.9 0.9,2.7 0,9 m 0,-9 2.7,-2.7 1.8,-0.9 2.7,0 1.8,0.9 0.9,2.7 0,9"
         inkscape:connector-curvature="0" />
      <path
         id="path3197"
         style="fill:none;stroke:#000000;stroke-width:0.89999998;display:inline"
         d="m 202.69843,-38.189824 0,12.6 m 0,-9 2.7,-2.7 1.8,-0.9 2.7,0 1.8,0.9 0.9,2.7 0,9 m 0,-9 2.7,-2.7 1.8,-0.9 2.7,0 1.8,0.9 0.9,2.7 0,9"
         inkscape:connector-curvature="0" />
      <path
         inkscape:connector-curvature="0"
         d="m 118.19843,-13.443424 0,16.1999997 m -8.1,-8.1 16.2,0"
         style="fill:none;stroke:#000000;stroke-width:0.89999998;display:inline"
         id="path3289" />
      <path
         inkscape:connector-curvature="0"
         d="m 137.99843,-16.143424 -2.7,0.9 -1.8,2.7 -0.9,4.4999997 0,2.7 0.9,4.50000004 1.8,2.69999996 2.7,0.9 1.8,0 2.7,-0.9 1.8,-2.69999996 0.9,-4.50000004 0,-2.7 -0.9,-4.4999997 -1.8,-2.7 -2.7,-0.9 -1.8,0"
         style="fill:none;stroke:#000000;stroke-width:0.89999998;display:inline"
         id="path3291" />
      <path
         inkscape:connector-curvature="0"
         d="m 151.49843,-1.7434243 -0.9,0.90000004 0.9,0.9 0.9,-0.9 -0.9,-0.90000004"
         style="fill:none;stroke:#000000;stroke-width:0.89999998;display:inline"
         id="path3293" />
      <path
         inkscape:connector-curvature="0"
         d="m 160.49843,-12.543424 1.8,-0.9 2.7,-2.7 0,18.8999997"
         style="fill:none;stroke:#000000;stroke-width:0.89999998;display:inline"
         id="path3295" />
      <path
         inkscape:connector-curvature="0"
         d="m 186.59843,-16.143424 -9,0 -0.9,8.0999997 0.9,-0.9 2.7,-0.9 2.7,0 2.7,0.9 1.8,1.8 0.9,2.7 0,1.8 -0.9,2.70000004 -1.8,1.79999996 -2.7,0.9 -2.7,0 -2.7,-0.9 -0.9,-0.89999996 -0.9,-1.8"
         style="fill:none;stroke:#000000;stroke-width:0.89999998;display:inline"
         id="path3297" />
      <path
         inkscape:connector-curvature="0"
         d="m 194.69843,-9.8434243 0,12.6 m 0,-9 2.7,-2.7 1.8,-0.9 2.7,0 1.8,0.9 0.9,2.7 0,9 m 0,-9 2.7,-2.7 1.8,-0.9 2.7,0 1.8,0.9 0.9,2.7 0,9"
         style="fill:none;stroke:#000000;stroke-width:0.89999998;display:inline"
         id="path3299" />
      <path
         inkscape:connector-curvature="0"
         d="m 221.69843,-9.8434243 0,12.6 m 0,-9 2.7,-2.7 1.8,-0.9 2.7,0 1.8,0.9 0.9,2.7 0,9 m 0,-9 2.7,-2.7 1.8,-0.9 2.7,0 1.8,0.9 0.9,2.7 0,9"
         style="fill:none;stroke:#000000;stroke-width:0.89999998;display:inline"
         id="path3301" />
      <path
         id="path3409"
         style="fill:none;stroke:#000000;stroke-width:0.89999998;display:inline"
         d="m 117.19843,14.903076 0,16.2 m -8.1,-8.1 16.2,0"
         inkscape:connector-curvature="0" />
      <path
         id="path3411"
         style="fill:none;stroke:#000000;stroke-width:0.89999998;display:inline"
         d="m 136.99843,12.203076 -2.7,0.9 -1.8,2.7 -0.9,4.5 0,2.7 0.9,4.5 1.8,2.7 2.7,0.9 1.8,0 2.7,-0.9 1.8,-2.7 0.9,-4.5 0,-2.7 -0.9,-4.5 -1.8,-2.7 -2.7,-0.9 -1.8,0"
         inkscape:connector-curvature="0" />
      <path
         id="path3413"
         style="fill:none;stroke:#000000;stroke-width:0.89999998;display:inline"
         d="m 150.49843,26.603076 -0.9,0.9 0.9,0.9 0.9,-0.9 -0.9,-0.9"
         inkscape:connector-curvature="0" />
      <path
         id="path3415"
         style="fill:none;stroke:#000000;stroke-width:0.89999998;display:inline"
         d="m 157.69843,16.703076 0,-0.9 0.9,-1.8 0.9,-0.9 1.8,-0.9 3.6,0 1.8,0.9 0.9,0.9 0.9,1.8 0,1.8 -0.9,1.8 -1.8,2.7 -9,9 12.6,0"
         inkscape:connector-curvature="0" />
      <path
         id="path3417"
         style="fill:none;stroke:#000000;stroke-width:0.89999998;display:inline"
         d="m 175.69843,18.503076 0,12.6 m 0,-9 2.7,-2.7 1.8,-0.9 2.7,0 1.8,0.9 0.9,2.7 0,9 m 0,-9 2.7,-2.7 1.8,-0.9 2.7,0 1.8,0.9 0.9,2.7 0,9"
         inkscape:connector-curvature="0" />
      <path
         id="path3419"
         style="fill:none;stroke:#000000;stroke-width:0.89999998;display:inline"
         d="m 202.69843,18.503076 0,12.6 m 0,-9 2.7,-2.7 1.8,-0.9 2.7,0 1.8,0.9 0.9,2.7 0,9 m 0,-9 2.7,-2.7 1.8,-0.9 2.7,0 1.8,0.9 0.9,2.7 0,9"
         inkscape:connector-curvature="0" />
      <path
         inkscape:connector-curvature="0"
         id="path5526"
         d="m 52.155525,-71.202824 10.6299,-10.62994 10.63,10.62994"
         style="fill:none;stroke:#000000;stroke-width:1px;stroke-linecap:butt;stroke-linejoin:miter;stroke-opacity:1;display:inline" />
      <path
         inkscape:connector-curvature="0"
         id="path5526-1"
         d="m 52.155525,-42.856324 10.6299,-10.63 10.63,10.63"
         style="fill:none;stroke:#000000;stroke-width:1px;stroke-linecap:butt;stroke-linejoin:miter;stroke-opacity:1;display:inline" />
      <path
         inkscape:connector-curvature="0"
         id="path5526-5"
         d="m 52.155525,-14.509924 10.6299,-10.6299 10.63,10.6299"
         style="fill:none;stroke:#000000;stroke-width:1px;stroke-linecap:butt;stroke-linejoin:miter;stroke-opacity:1;display:inline" />
      <path
         inkscape:connector-curvature="0"
         id="path5526-8"
         d="m 52.155525,13.836576 10.6299,-10.6300003 10.63,10.6300003"
         style="fill:none;stroke:#000000;stroke-width:1px;stroke-linecap:butt;stroke-linejoin:miter;stroke-opacity:1;display:inline" />
    </g>
    <g
       id="g9691"
       transform="translate(1697.5678,390.1004)">
      <path
         id="rect4325"
         d="m 271.84063,-117.26583 0,35.437496 0,35.43751 0,35.4062 0,35.4375 0,35.4375 70.8437,0 0,-35.4375 0.1875,0 0,-35.4375 0.1875,0 0,-35.4062 0.1563,0 0,-35.43751 0.1875,0 0,-35.437496 -71.5625,0 z"
         style="fill:#7cb053;fill-opacity:0.37914692;stroke:none;display:inline"
         inkscape:connector-curvature="0" />
      <path
         d="m 302.11153,36.308676 0,-1 1,-2 1,-1 2,-1 4,0 2,1 1,1 1,2 0,2 -1,2 -2,3 -10,10 14,0"
         style="fill:none;stroke:#000000;display:inline"
         id="path4430"
         inkscape:connector-curvature="0" />
      <path
         d="m 327.11153,31.308676 -3,1 -2,3 -1,5 0,3 1,5 2,3 3,1 2,0 3,-1 2,-3 1,-5 0,-3 -1,-5 -2,-3 -3,-1 -2,0"
         style="fill:none;stroke:#000000;display:inline"
         id="path4432"
         inkscape:connector-curvature="0" />
      <path
         inkscape:connector-curvature="0"
         d="m 285.11153,-1.1243243 0,18.0000003 m -9,-9.0000003 18,0"
         style="fill:none;stroke:#000000;display:inline"
         id="path4946" />
      <path
         inkscape:connector-curvature="0"
         d="m 307.11153,-4.1243243 -3,1 -2,3.00000004 -1,4.99999996 0,3 1,5.0000003 2,3 3,1 2,0 3,-1 2,-3 1,-5.0000003 0,-3 -1,-4.99999996 -2,-3.00000004 -3,-1 -2,0"
         style="fill:none;stroke:#000000;display:inline"
         id="path4948" />
      <path
         inkscape:connector-curvature="0"
         d="m 333.11153,-4.1243243 -10,0 -1,9 1,-1 3,-1 3,0 3,1 2,2 1,3 0,2.0000003 -1,3 -2,2 -3,1 -3,0 -3,-1 -1,-1 -1,-2"
         style="fill:none;stroke:#000000;display:inline"
         id="path4950" />
      <path
         id="path5077"
         style="fill:none;stroke:#000000;display:inline"
         d="m 285.11153,-36.557424 0,18 m -9,-9 18,0"
         inkscape:connector-curvature="0" />
      <path
         id="path5079"
         style="fill:none;stroke:#000000;display:inline"
         d="m 304.11153,-35.557424 2,-1 3,-3 0,21"
         inkscape:connector-curvature="0" />
      <path
         id="path5081"
         style="fill:none;stroke:#000000;display:inline"
         d="m 327.11153,-39.557424 -3,1 -2,3 -1,5 0,3 1,5 2,3 3,1 2,0 3,-1 2,-3 1,-5 0,-3 -1,-5 -2,-3 -3,-1 -2,0"
         inkscape:connector-curvature="0" />
      <path
         inkscape:connector-curvature="0"
         d="m 285.11153,-71.990524 0,18 m -9,-9 18,0"
         style="fill:none;stroke:#000000;display:inline"
         id="path5211" />
      <path
         inkscape:connector-curvature="0"
         d="m 304.11153,-70.990524 2,-1 3,-2.99999 0,20.99999"
         style="fill:none;stroke:#000000;display:inline"
         id="path5213" />
      <path
         inkscape:connector-curvature="0"
         d="m 333.11153,-74.990514 -10,0 -1,8.99999 1,-1 3,-1 3,0 3,1 2,2 1,3 0,2 -1,3 -2,2 -3,1 -3,0 -3,-1 -1,-1 -1,-2"
         style="fill:none;stroke:#000000;display:inline"
         id="path5215" />
      <path
         id="path5353"
         style="fill:none;stroke:#000000;display:inline"
         d="m 285.11153,-107.42358 0,17.999996 m -9,-9 18,0"
         inkscape:connector-curvature="0" />
      <path
         id="path5355"
         style="fill:none;stroke:#000000;display:inline"
         d="m 302.11153,-105.42358 0,-1 1,-2 1,-1 2,-1 4,0 2,1 1,1 1,2 0,2 -1,2 -2,2.999996 -10,10 14,0"
         inkscape:connector-curvature="0" />
      <path
         id="path5357"
         style="fill:none;stroke:#000000;display:inline"
         d="m 327.11153,-110.42358 -3,1 -2,3 -1,5 0,2.999996 1,5 2,3 3,1 2,0 3,-1 2,-3 1,-5 0,-2.999996 -1,-5 -2,-3 -3,-1 -2,0"
         inkscape:connector-curvature="0" />
      <path
         inkscape:connector-curvature="0"
         id="path5492"
         d="m 275.37523,24.462276 63.7796,0"
         style="fill:none;stroke:#000000;stroke-width:1px;stroke-linecap:butt;stroke-linejoin:miter;stroke-opacity:1;display:inline" />
      <path
         inkscape:connector-curvature="0"
         id="path5492-5"
         d="m 275.37523,-10.970824 63.7796,0"
         style="fill:none;stroke:#000000;stroke-width:1px;stroke-linecap:butt;stroke-linejoin:miter;stroke-opacity:1;display:inline" />
      <path
         inkscape:connector-curvature="0"
         id="path5492-0"
         d="m 275.37523,-46.403924 63.7796,0"
         style="fill:none;stroke:#000000;stroke-width:1px;stroke-linecap:butt;stroke-linejoin:miter;stroke-opacity:1;display:inline" />
      <path
         inkscape:connector-curvature="0"
         id="path5492-9"
         d="m 275.37523,-81.836964 63.7796,0"
         style="fill:none;stroke:#000000;stroke-width:1px;stroke-linecap:butt;stroke-linejoin:miter;stroke-opacity:1;display:inline" />
      <path
         inkscape:connector-curvature="0"
         d="m 296.63513,-89.823584 -0.9,0.9 0.9,0.9 0.9,-0.9 -0.9,-0.9"
         style="fill:none;stroke:#000000;stroke-width:0.89999998;display:inline"
         id="path3101-7" />
      <path
         inkscape:connector-curvature="0"
         d="m 296.63513,-54.390524 -0.9,0.9 0.9,0.9 0.9,-0.9 -0.9,-0.9"
         style="fill:none;stroke:#000000;stroke-width:0.89999998;display:inline"
         id="path3101-6" />
      <path
         inkscape:connector-curvature="0"
         d="m 296.63513,-18.957424 -0.9,0.9 0.9,0.9 0.9,-0.9 -0.9,-0.9"
         style="fill:none;stroke:#000000;stroke-width:0.89999998;display:inline"
         id="path3101-8" />
      <path
         inkscape:connector-curvature="0"
         d="m 296.63513,16.475676 -0.9,0.8999 0.9,0.9001 0.9,-0.9001 -0.9,-0.8999"
         style="fill:none;stroke:#000000;stroke-width:0.89999998;display:inline"
         id="path3101-84" />
    </g>
  </g>
  <g
     inkscape:label="Base platters"
     inkscape:groupmode="layer"
     id="layer1"
     style="display:inline"
     transform="translate(0,1073.622)">
    <path
       id="path11902"
       style="fill:none;stroke:#000000"
       d=""
       inkscape:connector-curvature="0" />
  </g>
  <g
     inkscape:groupmode="layer"
     id="layer7"
     inkscape:label="Verticals"
     style="display:inline"
     transform="translate(0,1073.622)" />
  <g
     inkscape:groupmode="layer"
     id="layer8"
     inkscape:label="Wheels"
     style="display:inline" />
  <g
     inkscape:groupmode="layer"
     id="layer9"
     inkscape:label="Bearings (working layer)"
     style="display:none">
    <g
       id="g4920"
       transform="translate(-83.248198,-26.569461)">
      <g
         id="g4618">
        <g
           id="g4606"
           transform="translate(17.716536,102.7559)">
          <path
             style="fill:#000000;fill-opacity:0.32352941;stroke:none;display:inline"
             d="m 868.13471,1608.6512 0,0.031 0,10.625 -17.7187,0 -0.031,0 0,56.6562 0,35.4688 0.031,0 0,-0.031 17.7187,0 0,0.031 0,7.0625 0,3.5625 106.28126,0 0,-3.5625 0,-7.0938 17.7187,0 0,-35.4375 0,-56.6562 -17.7187,0 0,-0.031 0,-7.0625 0,-0.031 0,-3.5 0,-0.031 -106.28126,0 z m 53.125,46.4062 c 5.6751,0 10.28126,4.6062 10.28126,10.2813 0,5.675 -4.60616,10.2812 -10.28126,10.2812 -5.675,0 -10.2812,-4.6062 -10.2812,-10.2812 0,-5.6751 4.6062,-10.2813 10.2812,-10.2813 z"
             id="path3005-1"
             inkscape:connector-curvature="0" />
          <path
             inkscape:connector-curvature="0"
             id="path14174-9-4-1"
             d="m 921.25115,1553.7347 c -61.64281,0 -111.625,49.951 -111.625,111.5938 0,61.6429 49.98219,111.625 111.625,111.625 61.64282,0 111.62505,-49.9821 111.62505,-111.625 0,-61.6429 -49.98213,-111.5936 -111.62505,-111.5938 z m 0,18.625 c 2.44722,0 4.4375,1.997 4.4375,4.4375 0,2.4403 -1.99028,4.4063 -4.4375,4.4063 -2.4473,0 -4.40625,-1.966 -4.40625,-4.4063 0,-2.4404 1.95895,-4.4375 4.40625,-4.4375 z m -14.1875,23.5 0,44.8125 c -12.97304,-7.4244 -25.93662,-14.8548 -38.90625,-22.2813 10.001,-11.3042 23.54924,-19.4101 38.90625,-22.5312 z m 28.37502,0 c 15.372,3.1243 28.9337,11.2408 38.9375,22.5625 -12.98,7.4987 -25.9575,14.9996 -38.9375,22.5 l 0,-45.0625 z m -91.21877,20.7812 c 0.852,-0.06 1.7359,0.1353 2.53125,0.5938 2.12091,1.2228 2.84952,3.9446 1.625,6.0625 -1.22452,2.1179 -3.9416,2.8166 -6.0625,1.5937 -2.12091,-1.2228 -2.81827,-3.9133 -1.59375,-6.0312 0.76531,-1.3237 2.08009,-2.1184 3.5,-2.2188 z m 153.62497,0 c 1.5726,-0.041 3.12703,0.7613 3.96883,2.2188 1.2245,2.12 0.4959,4.8074 -1.625,6.0312 -2.12093,1.2241 -4.80683,0.5263 -6.03123,-1.5937 -1.2245,-2.12 -0.5272,-4.8385 1.5937,-6.0625 0.6628,-0.3826 1.379,-0.5756 2.0937,-0.5938 z m -143.84372,26.3438 c 12.97147,7.4854 25.93476,14.9823 38.90625,22.4688 -12.94756,7.4782 -25.89621,14.958 -38.84375,22.4374 -2.38087,-7.0898 -3.6875,-14.6712 -3.6875,-22.5624 0,-7.8117 1.28986,-15.3152 3.625,-22.3438 z m 134.50002,0 c 2.3351,7.0286 3.625,14.5321 3.625,22.3438 0,7.8912 -1.3066,15.4726 -3.6875,22.5624 -12.9475,-7.4793 -25.8962,-14.9592 -38.8438,-22.4374 12.9714,-7.4865 25.9348,-14.9834 38.9063,-22.4688 z m -67.25002,19.8125 c 1.4677,0 2.65625,1.1885 2.65625,2.6563 0,1.4676 -1.18855,2.6566 -2.65625,2.6562 -1.4676,0 -2.65625,-1.1886 -2.65625,-2.6562 0,-1.4677 1.18865,-2.6567 2.65625,-2.6563 z m -14.1875,27.2187 0,44.7813 c -15.28895,-3.1074 -28.79326,-11.1495 -38.78125,-22.375 l 38.78125,-22.4063 z m 28.37502,0 c 12.9267,7.4575 25.8545,14.9163 38.7812,22.375 -9.9896,11.2349 -23.4842,19.2973 -38.7812,22.4063 l 0,-44.7813 z m -91.00002,15.1876 c 1.57259,-0.041 3.0956,0.7654 3.9375,2.2187 1.22452,2.1138 0.49591,4.8421 -1.625,6.0625 -2.1209,1.2204 -4.80673,0.4887 -6.03125,-1.625 -1.22452,-2.114 -0.52716,-4.8111 1.59375,-6.0312 0.66278,-0.3816 1.41024,-0.6071 2.125,-0.625 z m 153.65622,0 c 0.7149,0.018 1.431,0.2435 2.09383,0.625 2.1209,1.2202 2.8495,3.9173 1.625,6.0312 -1.2245,2.1138 -3.94163,2.8454 -6.06253,1.625 -2.1209,-1.2204 -2.8184,-3.9488 -1.5937,-6.0625 0.8416,-1.4533 2.365,-2.2598 3.9374,-2.2187 z m -76.84372,44.3124 c 2.44722,0 4.4375,1.9898 4.4375,4.4376 0,2.4475 -1.99028,4.4062 -4.4375,4.4062 -2.4473,0 -4.40625,-1.9589 -4.40625,-4.4062 0,-2.4477 1.95895,-4.4376 4.40625,-4.4376 z"
             style="fill:#be00a0;fill-opacity:0.46846846;stroke:none;display:inline" />
          <g
             transform="translate(-35.433454,-106.29839)"
             id="g4597">
            <path
               sodipodi:type="arc"
               style="fill:#bcbcbc;fill-opacity:0.71957679;stroke:none"
               id="path3174"
               sodipodi:cx="566.92914"
               sodipodi:cy="1629.9211"
               sodipodi:rx="35.433071"
               sodipodi:ry="35.433071"
               d="m 602.36221,1629.9211 a 35.433071,35.433071 0 1 1 -70.86614,0 35.433071,35.433071 0 1 1 70.86614,0 z"
               transform="matrix(0.89999997,0,0,0.89999997,446.45821,395.78093)" />
            <path
               inkscape:connector-curvature="0"
               style="fill:#85fc8e;fill-opacity:0.71957679;stroke:none"
               d="m 885.84104,1828.3414 0,10.625 12.375,0 0,-10.625 -12.375,0 z m 23.0313,0 0,10.625 26.5625,0 0,-10.625 -26.5625,0 z m 69.0937,0 0,10.625 26.56256,0 0,-10.625 -26.56256,0 z m 37.18756,0 0,10.625 12.4063,0 0,-10.625 -12.4063,0 z"
               id="rect3178" />
            <path
               inkscape:connector-curvature="0"
               style="fill:#fcd985;fill-opacity:0.71957679;stroke:none;display:inline"
               d="m 908.88527,1867.2806 0,10.6563 16.28878,0 0,-10.6563 -16.28878,0 z m -23.04193,0.031 0,10.6563 12.38076,0 0,-10.6563 -12.38076,0 z"
               id="path4406" />
            <path
               style="fill:#d785fc;fill-opacity:0.71957679;stroke:none"
               d="m 889.37154,1807.0914 0,10.625 8.8437,0 0.015,67.3163 10.6299,0 0.012,-67.3163 8.8437,0 0,-10.625 -8.8437,0 -10.6563,0 z"
               id="rect3230"
               inkscape:connector-curvature="0"
               sodipodi:nodetypes="ccccccccccc" />
            <path
               inkscape:connector-curvature="0"
               style="fill:#8a85fc;fill-opacity:0.71957679;stroke:none"
               d="m 871.65354,1817.7164 0,10.625 26.5625,0 0,-10.625 -26.5625,0 z m 37.2188,0 0,10.625 95.65626,0 0,-10.625 -95.65626,0 z m 106.28126,0 0,10.625 26.5938,0 0,-10.625 -26.5938,0 z"
               id="rect3234" />
            <path
               inkscape:connector-curvature="0"
               style="fill:#fcd985;fill-opacity:0.71957679;stroke:none;display:inline"
               d="m 1004.5172,1867.3219 0,10.6563 -16.28883,0 0,-10.6563 16.28883,0 z m 23.0419,0.031 0,10.6563 -12.3808,0 0,-10.6563 12.3808,0 z"
               id="path4406-8" />
            <path
               style="fill:#d785fc;fill-opacity:0.71957679;stroke:none;display:inline"
               d="m 995.67187,1807.0857 0,10.625 8.84373,0 0.015,67.3163 10.6299,0 0.012,-67.3163 8.8437,0 0,-10.625 -8.8437,0 -10.6563,0 z"
               id="rect3230-5"
               inkscape:connector-curvature="0"
               sodipodi:nodetypes="ccccccccccc" />
          </g>
        </g>
        <path
           inkscape:connector-curvature="0"
           style="fill:#bcbcbc;fill-opacity:0.71957679;stroke:none;display:inline"
           d="m 1251.75,1693.6875 c -23.6436,11.4851 -39.9375,35.7254 -39.9375,63.7813 0,28.0557 16.2882,52.2984 39.9375,63.7812 l 61.8438,0 c 23.6493,-11.4828 39.9374,-35.7255 39.9374,-63.7812 0,-28.056 -16.316,-52.2962 -39.9687,-63.7813 l -61.8125,0 z m 30.9062,42.5313 c 11.7384,0 21.2813,9.5431 21.2813,21.2812 0,11.7384 -9.5429,21.25 -21.2813,21.25 -11.7382,0 -21.25,-9.5116 -21.25,-21.25 0,-11.7381 9.5118,-21.2812 21.25,-21.2812 z m -53.6874,15.9374 c 0.1785,-0.018 0.379,0 0.5624,0 2.9356,0 5.3126,2.3772 5.3126,5.3126 0,2.9354 -2.377,5.3124 -5.3126,5.3124 -2.9353,0 -5.3124,-2.377 -5.3124,-5.3124 0,-2.752 2.0697,-5.0405 4.75,-5.3126 z m 106.3124,0 c 0.1788,-0.018 0.3479,0 0.5313,0 2.9354,0 5.3125,2.3772 5.3125,5.3126 0,2.9354 -2.3771,5.3124 -5.3125,5.3124 -2.9353,0 -5.3125,-2.377 -5.3125,-5.3124 0,-2.752 2.1012,-5.0405 4.7812,-5.3126 z"
           id="path4542" />
        <rect
           style="fill:#bcbcbc;fill-opacity:0.71957679;stroke:none"
           id="rect4128-8"
           width="35.433079"
           height="10.629921"
           x="1264.9523"
           y="1702.549" />
        <rect
           style="fill:#bcbcbc;fill-opacity:0.71957679;stroke:none"
           id="rect4130-9"
           width="35.433079"
           height="10.629921"
           x="1264.9523"
           y="1801.7616" />
        <path
           inkscape:connector-curvature="0"
           style="fill:#bcbcbc;fill-opacity:0.71957679;stroke:none;display:inline"
           d="m 1102.9375,1693.6875 c -23.6501,11.4825 -39.9687,35.725 -39.9687,63.7813 0,28.0559 16.316,52.2961 39.9687,63.7812 l 61.8125,0 c 23.6527,-11.4851 39.9688,-35.7254 39.9688,-63.7812 0,-28.0562 -16.3186,-52.2988 -39.9688,-63.7813 l -61.8125,0 z m 30.9063,32.25 c 17.4191,0 31.5624,14.1119 31.5624,31.5313 0,17.4189 -14.1433,31.5312 -31.5624,31.5312 -17.4194,0 -31.5313,-14.1124 -31.5313,-31.5312 0,-17.4194 14.1119,-31.5313 31.5313,-31.5313 z m -53.1563,26.2187 c 2.9354,0 5.3125,2.3769 5.3125,5.3126 0,2.935 -2.3771,5.3124 -5.3125,5.3124 -2.9353,0 -5.3125,-2.3773 -5.3125,-5.3124 0,-2.9357 2.3772,-5.3126 5.3125,-5.3126 z m 106.3125,0 c 2.9354,0 5.3125,2.3769 5.3125,5.3126 0,2.935 -2.3771,5.3124 -5.3125,5.3124 -2.9353,0 -5.3125,-2.3773 -5.3125,-5.3124 0,-2.9357 2.3772,-5.3126 5.3125,-5.3126 z"
           id="path4531" />
        <rect
           style="fill:#bcbcbc;fill-opacity:0.71957679;stroke:none"
           id="rect4132-9"
           width="35.43309"
           height="10.629921"
           x="1116.1417"
           y="1801.7715" />
        <rect
           style="fill:#bcbcbc;fill-opacity:0.71957679;stroke:none"
           id="rect4134-5"
           width="35.43306"
           height="10.629921"
           x="1116.1417"
           y="1702.5588" />
        <path
           style="fill:#bcbcbc;fill-opacity:0.71957679;stroke:none"
           d="m 1101.9351,1828.3526 0,10.625 -24.7813,0 0,28.3437 24.8125,0 0,10.625 35.4375,0 0,-10.625 24.8125,0 -0.031,-28.3437 -24.8126,0 0,-10.625 -35.4374,0 z m -0.5313,19.5 c 0.1786,-0.018 0.3478,0 0.5313,0 2.9353,0 5.3124,2.3773 5.3124,5.3124 0,2.9357 -2.3771,5.3126 -5.3124,5.3126 -2.9356,0 -5.3126,-2.3769 -5.3126,-5.3126 0,-2.7518 2.1012,-5.0407 4.7813,-5.3124 z m 35.4375,0 c 0.1786,-0.018 0.348,0 0.5312,0 2.9356,0 5.3126,2.3773 5.3126,5.3124 0,2.9357 -2.377,5.3126 -5.3126,5.3126 -2.9353,0 -5.3124,-2.3769 -5.3124,-5.3126 0,-2.7518 2.1011,-5.0407 4.7812,-5.3124 z"
           id="path4548"
           inkscape:connector-curvature="0" />
        <path
           style="fill:#bcbcbc;fill-opacity:0.71957679;stroke:none;display:inline"
           d="m 1194.0611,1828.3526 0,10.625 -24.7813,0 0,28.3437 24.8125,0 0,10.625 35.4375,0 0,-10.625 24.8125,0 -0.031,-28.3437 -24.8126,0 0,-10.625 -35.4374,0 z m -0.5313,19.5 c 0.1786,-0.018 0.3478,0 0.5313,0 2.9353,0 5.3124,2.3773 5.3124,5.3124 0,2.9357 -2.3771,5.3126 -5.3124,5.3126 -2.9356,0 -5.3126,-2.3769 -5.3126,-5.3126 0,-2.7518 2.1012,-5.0407 4.7813,-5.3124 z m 35.4375,0 c 0.1786,-0.018 0.348,0 0.5312,0 2.9356,0 5.3126,2.3773 5.3126,5.3124 0,2.9357 -2.377,5.3126 -5.3126,5.3126 -2.9353,0 -5.3124,-2.3769 -5.3124,-5.3126 0,-2.7518 2.1011,-5.0407 4.7812,-5.3124 z"
           id="path4548-1"
           inkscape:connector-curvature="0" />
      </g>
    </g>
    <g
       id="g4899">
      <path
         style="fill:#000000;fill-opacity:0.32352941;stroke:none;display:inline"
         d="m 255.14259,1679.5174 0,0.031 0,10.625 -17.7187,0 -0.031,0 0,56.6562 0,35.4688 0.031,0 0,-0.031 17.7187,0 0,0.031 0,7.0625 0,3.5625 106.28126,0 0,-3.5625 0,-7.0938 17.7187,0 0,-35.4375 0,-56.6562 -17.7187,0 0,-0.031 0,-7.0625 0,-0.031 0,-3.5 0,-0.031 -106.28126,0 z m 53.125,46.4062 c 5.6751,0 10.28126,4.6062 10.28126,10.2813 0,5.675 -4.60616,10.2812 -10.28126,10.2812 -5.675,0 -10.2812,-4.6062 -10.2812,-10.2812 0,-5.6751 4.6062,-10.2813 10.2812,-10.2813 z"
         id="path3005-1-1"
         inkscape:connector-curvature="0" />
      <path
         inkscape:connector-curvature="0"
         id="path14174-9-4-1-6"
         d="m 308.25903,1624.6009 c -61.64281,0 -111.625,49.951 -111.625,111.5938 0,61.6429 49.98219,111.625 111.625,111.625 61.64282,0 111.62505,-49.9821 111.62505,-111.625 0,-61.6429 -49.98213,-111.5936 -111.62505,-111.5938 z m 0,18.625 c 2.44722,0 4.4375,1.997 4.4375,4.4375 0,2.4403 -1.99028,4.4063 -4.4375,4.4063 -2.4473,0 -4.40625,-1.966 -4.40625,-4.4063 0,-2.4404 1.95895,-4.4375 4.40625,-4.4375 z m -14.1875,23.5 0,44.8125 c -12.97304,-7.4244 -25.93662,-14.8548 -38.90625,-22.2813 10.001,-11.3042 23.54924,-19.4101 38.90625,-22.5312 z m 28.37502,0 c 15.372,3.1243 28.9337,11.2408 38.9375,22.5625 -12.98,7.4987 -25.9575,14.9996 -38.9375,22.5 l 0,-45.0625 z m -91.21877,20.7812 c 0.852,-0.06 1.7359,0.1353 2.53125,0.5938 2.12091,1.2228 2.84952,3.9446 1.625,6.0625 -1.22452,2.1179 -3.9416,2.8166 -6.0625,1.5937 -2.12091,-1.2228 -2.81827,-3.9133 -1.59375,-6.0312 0.76531,-1.3237 2.08009,-2.1184 3.5,-2.2188 z m 153.62497,0 c 1.5726,-0.041 3.12703,0.7613 3.96883,2.2188 1.2245,2.12 0.4959,4.8074 -1.625,6.0312 -2.12093,1.2241 -4.80683,0.5263 -6.03123,-1.5937 -1.2245,-2.12 -0.5272,-4.8385 1.5937,-6.0625 0.6628,-0.3826 1.379,-0.5756 2.0937,-0.5938 z m -143.84372,26.3438 c 12.97147,7.4854 25.93476,14.9823 38.90625,22.4688 -12.94756,7.4782 -25.89621,14.958 -38.84375,22.4374 -2.38087,-7.0898 -3.6875,-14.6712 -3.6875,-22.5624 0,-7.8117 1.28986,-15.3152 3.625,-22.3438 z m 134.50002,0 c 2.3351,7.0286 3.625,14.5321 3.625,22.3438 0,7.8912 -1.3066,15.4726 -3.6875,22.5624 -12.9475,-7.4793 -25.8962,-14.9592 -38.8438,-22.4374 12.9714,-7.4865 25.9348,-14.9834 38.9063,-22.4688 z m -67.25002,19.8125 c 1.4677,0 2.65625,1.1885 2.65625,2.6563 0,1.4676 -1.18855,2.6566 -2.65625,2.6562 -1.4676,0 -2.65625,-1.1886 -2.65625,-2.6562 0,-1.4677 1.18865,-2.6567 2.65625,-2.6563 z m -14.1875,27.2187 0,44.7813 c -15.28895,-3.1074 -28.79326,-11.1495 -38.78125,-22.375 l 38.78125,-22.4063 z m 28.37502,0 c 12.9267,7.4575 25.8545,14.9163 38.7812,22.375 -9.9896,11.2349 -23.4842,19.2973 -38.7812,22.4063 l 0,-44.7813 z m -91.00002,15.1876 c 1.57259,-0.041 3.0956,0.7654 3.9375,2.2187 1.22452,2.1138 0.49591,4.8421 -1.625,6.0625 -2.1209,1.2204 -4.80673,0.4887 -6.03125,-1.625 -1.22452,-2.114 -0.52716,-4.8111 1.59375,-6.0312 0.66278,-0.3816 1.41024,-0.6071 2.125,-0.625 z m 153.65622,0 c 0.7149,0.018 1.431,0.2435 2.09383,0.625 2.1209,1.2202 2.8495,3.9173 1.625,6.0312 -1.2245,2.1138 -3.94163,2.8454 -6.06253,1.625 -2.1209,-1.2204 -2.8184,-3.9488 -1.5937,-6.0625 0.8416,-1.4533 2.365,-2.2598 3.9374,-2.2187 z m -76.84372,44.3124 c 2.44722,0 4.4375,1.9898 4.4375,4.4376 0,2.4475 -1.99028,4.4062 -4.4375,4.4062 -2.4473,0 -4.40625,-1.9589 -4.40625,-4.4062 0,-2.4477 1.95895,-4.4376 4.40625,-4.4376 z"
         style="fill:#be00a0;fill-opacity:0.46846846;stroke:none;display:inline" />
      <g
         transform="translate(-4.33071e-8,-85.03937)"
         id="g4711">
        <g
           id="g4676"
           transform="translate(-1.7701735,-0.01140772)">
          <path
             transform="translate(-256.88977,283.46456)"
             d="m 602.36221,1629.9211 a 35.433071,35.433071 0 1 1 -70.86614,0 35.433071,35.433071 0 1 1 70.86614,0 z"
             sodipodi:ry="35.433071"
             sodipodi:rx="35.433071"
             sodipodi:cy="1629.9211"
             sodipodi:cx="566.92914"
             id="path3174-1"
             style="fill:#bcbcbc;fill-opacity:0.71957679;stroke:none"
             sodipodi:type="arc" />
          <path
             sodipodi:nodetypes="cccccccccccccccccccc"
             id="rect3178-4"
             d="m 239.18602,1877.9542 0,10.625 12.375,0 0,-10.625 z m 23.03125,0 0,10.625 23.01895,0 0,-10.6266 z m 72.62525,0 0,10.63 23.031,0 0,-10.625 z m 33.656,0 0,10.625 12.40625,0 0,-10.625 z"
             style="fill:#85fc8e;fill-opacity:0.71957679;stroke:none"
             inkscape:connector-curvature="0" />
          <path
             id="rect3178-7-2"
             d="m 239.18602,1924.0046 0,10.6563 12.375,0 0,-10.6563 -12.375,0 z m 23.03125,0 0,10.6563 14.15625,0 0,-10.6563 -14.15625,0 z m 81.46875,0 0,10.6563 14.1875,0 0,-10.6563 -14.1875,0 z m 24.8125,0 0,10.6563 12.40625,0 0,-10.6563 -12.40625,0 z"
             style="fill:#fcd985;fill-opacity:0.71957679;stroke:none;display:inline"
             inkscape:connector-curvature="0" />
          <path
             sodipodi:nodetypes="ccccccccccc"
             id="rect3230-3"
             d="m 242.71727,1856.7042 0,10.625 8.84375,0 0.0138,74.403 10.62992,0 0.0125,-74.403 8.84375,0 0,-10.625 -8.84375,0 -10.65625,0 z"
             style="fill:#d785fc;fill-opacity:0.71957679;stroke:none"
             inkscape:connector-curvature="0" />
          <path
             sodipodi:nodetypes="ccccccccccc"
             id="rect3232-2"
             d="m 349.02977,1856.7042 0,10.625 8.84375,0 5e-4,74.403 10.62992,0 -0.005,-74.403 8.875,0 0,-10.625 -8.875,0 -10.625,0 z"
             style="fill:#d785fc;fill-opacity:0.71957679;stroke:none"
             inkscape:connector-curvature="0" />
          <path
             id="rect3234-2"
             d="m 224.99852,1867.3292 0,10.625 26.5625,0 0,-10.625 -26.5625,0 z m 37.21875,0 0,10.625 95.65625,0 0,-10.625 -95.65625,0 z m 106.28125,0 0,10.625 26.59375,0 0,-10.625 -26.59375,0 z"
             style="fill:#8a85fc;fill-opacity:0.71957679;stroke:none"
             inkscape:connector-curvature="0" />
        </g>
      </g>
      <g
         transform="matrix(0,1,-1,0,2565.3656,1307.4802)"
         id="g4889">
        <path
           style="fill:#bcbcbc;fill-opacity:0.71957679;stroke:none;display:inline"
           d="m 357.87401,1951.3874 c 11.4851,23.6437 35.7254,39.9375 63.7813,39.9375 28.0557,0 52.2984,-16.2882 63.7812,-39.9375 l 0,-61.8437 c -11.4828,-23.6493 -35.7255,-39.9375 -63.7812,-39.9375 -28.056,0 -52.2962,16.316 -63.7813,39.9687 l 0,61.8125 z m 38.9687,-30.875 c 0,-13.6946 11.1179,-24.8437 24.8126,-24.8437 13.6947,0 24.7812,11.1491 24.7812,24.8437 0,13.6947 -11.0865,24.7813 -24.7812,24.7813 -13.6947,0 -24.8126,-11.0866 -24.8126,-24.7813 z m 19.5,53.6563 c -0.018,-0.1787 0,-0.379 0,-0.5625 0,-2.9354 2.3772,-5.3125 5.3126,-5.3125 2.9354,0 5.3124,2.3771 5.3124,5.3125 0,2.9354 -2.377,5.3125 -5.3124,5.3125 -2.752,0 -5.0405,-2.0699 -5.3126,-4.75 z m 0,-106.3125 c -0.018,-0.1787 0,-0.3478 0,-0.5313 0,-2.9353 2.3772,-5.3125 5.3126,-5.3125 2.9354,0 5.3124,2.3772 5.3124,5.3125 0,2.9354 -2.377,5.3125 -5.3124,5.3125 -2.752,0 -5.0405,-2.1011 -5.3126,-4.7812 z"
           id="path4658-2"
           inkscape:connector-curvature="0" />
        <path
           style="fill:#bcbcbc;fill-opacity:0.71957679;stroke:none;display:inline"
           d="m 357.87401,2100.1999 c 11.4825,23.6502 35.7251,39.9688 63.7813,39.9688 28.0559,0 52.2961,-16.3161 63.7812,-39.9688 l 0,-61.8125 c -11.4851,-23.6527 -35.7253,-39.9687 -63.7812,-39.9687 -28.0562,0 -52.2988,16.3186 -63.7813,39.9687 l 0,61.8125 z m 30.125,-30.9062 c 0,-18.5907 15.0655,-33.6563 33.6563,-33.6563 18.5905,0 33.6562,15.0656 33.6562,33.6563 0,18.5907 -15.0657,33.6562 -33.6562,33.6562 -18.5908,0 -33.6563,-15.0655 -33.6563,-33.6562 z m 28.3437,53.1562 c 0,-2.9353 2.3771,-5.3125 5.3126,-5.3125 2.9352,0 5.3124,2.3772 5.3124,5.3125 0,2.9354 -2.3772,5.3125 -5.3124,5.3125 -2.9355,0 -5.3126,-2.3771 -5.3126,-5.3125 z m 0,-106.3125 c 0,-2.9353 2.3771,-5.3125 5.3126,-5.3125 2.9352,0 5.3124,2.3772 5.3124,5.3125 0,2.9354 -2.3772,5.3125 -5.3124,5.3125 -2.9355,0 -5.3126,-2.3771 -5.3126,-5.3125 z"
           id="path4061-4-7"
           inkscape:connector-curvature="0" />
        <path
           style="fill:#bcbcbc;fill-opacity:0.71957679;stroke:none;display:inline"
           d="m 492.52301,1938.1815 10.625,0 0,24.8125 35.4375,0 0,-24.8125 10.6563,0 0,-35.4063 -10.6563,0 0,-24.8125 -35.4375,-0.031 0,24.8125 -10.625,0 0,35.4375 z m 23.0625,0.5312 c -0.018,-0.1786 0,-0.3477 0,-0.5312 0,-2.9354 2.3773,-5.3125 5.3125,-5.3125 2.9356,0 5.3125,2.3771 5.3125,5.3125 0,2.9354 -2.3769,5.3125 -5.3125,5.3125 -2.7518,0 -5.0406,-2.1012 -5.3125,-4.7813 z m 0,-35.4062 c -0.018,-0.1787 0,-0.3478 0,-0.5313 0,-2.9353 2.3773,-5.3125 5.3125,-5.3125 2.9356,0 5.3125,2.3772 5.3125,5.3125 0,2.9354 -2.3769,5.3125 -5.3125,5.3125 -2.7518,0 -5.0406,-2.1011 -5.3125,-4.7812 z"
           id="path4689-7"
           inkscape:connector-curvature="0" />
        <path
           inkscape:connector-curvature="0"
           style="fill:#bcbcbc;fill-opacity:0.71957679;stroke:none;display:inline"
           d="m 492.52301,2087.0004 10.625,0 0,24.8125 35.4375,0 0,-24.8125 10.6563,0 0,-35.4063 -10.6563,0 0,-24.8125 -35.4375,-0.031 0,24.8125 -10.625,0 0,35.4375 z m 23.0625,0.5312 c -0.018,-0.1786 0,-0.3478 0,-0.5312 0,-2.9354 2.3773,-5.3125 5.3125,-5.3125 2.9356,0 5.3125,2.3771 5.3125,5.3125 0,2.9354 -2.3769,5.3125 -5.3125,5.3125 -2.7518,0 -5.0406,-2.1012 -5.3125,-4.7813 z m 0,-35.4062 c -0.018,-0.1787 0,-0.3478 0,-0.5313 0,-2.9353 2.3773,-5.3125 5.3125,-5.3125 2.9356,0 5.3125,2.3772 5.3125,5.3125 0,2.9354 -2.3769,5.3125 -5.3125,5.3125 -2.7518,0 -5.0406,-2.1011 -5.3125,-4.7812 z"
           id="path4689-2-9" />
        <rect
           style="fill:#0f1e91;fill-opacity:0.33484485;stroke:none;display:inline"
           id="rect4128-31"
           width="35.433079"
           height="10.629921"
           x="-1938.1992"
           y="366.72556"
           transform="matrix(0,-1,1,0,0,0)" />
        <rect
           style="fill:#0f1e91;fill-opacity:0.33484485;stroke:none;display:inline"
           id="rect4130-98"
           width="35.433079"
           height="10.629921"
           x="-1938.1992"
           y="465.9382"
           transform="matrix(0,-1,1,0,0,0)" />
        <rect
           style="fill:#0f1e91;fill-opacity:0.33484485;stroke:none;display:inline"
           id="rect4132-6"
           width="35.43309"
           height="10.629921"
           x="-2087.0098"
           y="465.94821"
           transform="matrix(0,-1,1,0,0,0)" />
        <rect
           style="fill:#0f1e91;fill-opacity:0.33484485;stroke:none;display:inline"
           id="rect4134-50"
           width="35.43306"
           height="10.629921"
           x="-2087.0098"
           y="366.73557"
           transform="matrix(0,-1,1,0,0,0)" />
      </g>
    </g>
  </g>
  <g
     inkscape:groupmode="layer"
     id="layer10"
     inkscape:label="Bearings (production layer)"
     style="display:inline" />
  <g
     inkscape:groupmode="layer"
     id="layer5"
     inkscape:label="30x3 Slots (Motor mount)"
     style="display:inline"
     transform="translate(0,1073.622)" />
  <g
     inkscape:groupmode="layer"
     id="layer4"
     inkscape:label="5x3 Slots (Motor mount)"
     style="display:inline"
     transform="translate(0,1073.622)" />
  <g
     inkscape:groupmode="layer"
     id="layer3"
     inkscape:label="10x3 Slots"
     style="display:inline"
     transform="translate(0,1073.622)" />
  <g
     inkscape:groupmode="layer"
     id="layer2"
     inkscape:label="3x10 Slots"
     style="display:inline"
     transform="translate(0,1073.622)" />
</svg>
