<?xml version="1.0" encoding="UTF-8" standalone="no"?>
<!-- Created with Inkscape (http://www.inkscape.org/) -->

<svg
   xmlns:dc="http://purl.org/dc/elements/1.1/"
   xmlns:cc="http://creativecommons.org/ns#"
   xmlns:rdf="http://www.w3.org/1999/02/22-rdf-syntax-ns#"
   xmlns:svg="http://www.w3.org/2000/svg"
   xmlns="http://www.w3.org/2000/svg"
   xmlns:sodipodi="http://sodipodi.sourceforge.net/DTD/sodipodi-0.dtd"
   xmlns:inkscape="http://www.inkscape.org/namespaces/inkscape"
   width="3188.9763"
   height="2125.9841"
   id="svg2"
   version="1.1"
   inkscape:version="0.48.4 r9939"
   sodipodi:docname="castors-20mm-bearing.svg">
  <sodipodi:namedview
     id="base"
     pagecolor="#ffffff"
     bordercolor="#666666"
     borderopacity="1.0"
     inkscape:pageopacity="0.0"
     inkscape:pageshadow="2"
     inkscape:zoom="2.0748994"
     inkscape:cx="1139.0277"
     inkscape:cy="1757.9597"
     inkscape:document-units="mm"
     inkscape:current-layer="layer10"
     showgrid="true"
     inkscape:snap-object-midpoints="false"
     inkscape:snap-bbox="true"
     inkscape:object-paths="false"
     inkscape:snap-nodes="true"
     inkscape:object-nodes="false"
     inkscape:snap-global="true"
     inkscape:snap-grids="true"
     inkscape:window-width="1920"
     inkscape:window-height="1030"
     inkscape:window-x="0"
     inkscape:window-y="0"
     inkscape:window-maximized="1"
     inkscape:snap-smooth-nodes="false"
     units="mm">
    <inkscape:grid
       type="xygrid"
       id="grid2985"
       empspacing="10"
       visible="true"
       enabled="true"
       snapvisiblegridlinesonly="true"
       units="mm"
       spacingx="1mm"
       spacingy="1mm"
       empcolor="#ff9500"
       empopacity="0.25098039" />
  </sodipodi:namedview>
  <defs
     id="defs4" />
  <metadata
     id="metadata7">
    <rdf:RDF>
      <cc:Work
         rdf:about="">
        <dc:format>image/svg+xml</dc:format>
        <dc:type
           rdf:resource="http://purl.org/dc/dcmitype/StillImage" />
        <dc:title />
      </cc:Work>
    </rdf:RDF>
  </metadata>
  <g
     inkscape:groupmode="layer"
     id="layer10"
     inkscape:label="Verticals and Castors"
     style="display:inline">
    <path
       style="fill:#008080;fill-opacity:0.5;stroke:none;display:inline;opacity:1"
       d="m 961.22854,283.46444 c -23.6502,11.4825 -39.9687,35.7253 -39.9687,63.7812 0,28.0562 16.316,52.2962 39.9687,63.7813 l 61.81246,0 c 23.6527,-11.4851 39.9688,-35.7252 39.9688,-63.7813 0,-28.056 -16.3187,-52.2987 -39.9688,-63.7812 l -61.81246,0 z m 13.1875,8.875 35.43746,0 0,10.625 -35.43746,0 0,-10.625 z m 17.7188,21.25 c 18.59036,0 33.65616,15.0657 33.65616,33.6562 0,18.5906 -15.0658,33.6563 -33.65616,33.6563 -18.5908,0 -33.6563,-15.0657 -33.6563,-33.6563 0,-18.5904 15.0655,-33.6562 33.6563,-33.6562 z m -53.1563,28.3438 c 2.9353,0 5.3125,2.3771 5.3125,5.3124 0,2.9355 -2.3772,5.3126 -5.3125,5.3126 -2.9354,0 -5.3125,-2.377 -5.3125,-5.3126 0,-2.9353 2.3771,-5.3124 5.3125,-5.3124 z m 106.31246,0 c 2.9353,0 5.3125,2.3771 5.3125,5.3124 0,2.9355 -2.3772,5.3126 -5.3125,5.3126 -2.9354,0 -5.3125,-2.377 -5.3125,-5.3126 0,-2.9353 2.3771,-5.3124 5.3125,-5.3124 z m -70.87496,49.625 35.43746,0 0,10.625 -35.43746,0 0,-10.625 z"
       id="path3527-4"
       inkscape:connector-curvature="0" />
    <path
       style="fill:#008080;fill-opacity:0.5;stroke:none;display:inline;opacity:1"
       d="m 1110.0339,283.46789 c -23.6437,11.4851 -39.9375,35.72555 -39.9375,63.78125 0,28.0558 16.2882,52.29845 39.9375,63.78125 l 61.8438,0 c 23.6493,-11.4828 39.9374,-35.72535 39.9374,-63.78125 0,-28.0559 -16.316,-52.29615 -39.9687,-63.78125 l -61.8125,0 z m 13.1875,8.875 35.4375,0 0,10.625 -35.4375,0 0,-10.625 z m 17.6875,26.53125 c 15.6431,0 28.4064,12.72194 28.4062,28.375 0,15.65339 -12.7631,28.3125 -28.4062,28.3125 -15.6433,0 -28.2812,-12.65911 -28.2812,-28.3125 0,-15.65306 12.6379,-28.375 28.2812,-28.375 z m -53.6562,23.0625 c 0.1783,-0.018 0.3793,0 0.5624,0 2.9357,0 5.3126,2.3773 5.3126,5.3125 0,2.9357 -2.3769,5.3125 -5.3126,5.3125 -2.9353,0 -5.3124,-2.3768 -5.3124,-5.3125 0,-2.7518 2.0697,-5.0408 4.75,-5.3125 z m 106.3124,0 c 0.1787,-0.018 0.3478,0 0.5313,0 2.9353,0 5.3125,2.3773 5.3125,5.3125 0,2.9357 -2.3772,5.3125 -5.3125,5.3125 -2.9354,0 -5.3125,-2.3768 -5.3125,-5.3125 0,-2.7518 2.1013,-5.0408 4.7812,-5.3125 z m -70.3437,49.59375 35.4375,0 0,10.65625 -35.4375,0 0,-10.65625 z"
       id="path3019"
       inkscape:connector-curvature="0" />
    <path
       style="fill:#000000;fill-opacity:0.50000000000000000;stroke:none;display:inline"
       d="m 1279.1651,340.18669 0,-10.625 24.8125,0 0,-35.4375 -24.8125,0 0,-10.6563 -35.4063,0 0,10.6563 -24.8125,0 -0.031,35.4375 24.8125,0 0,10.625 35.4375,0 z m 0.5312,-23.0625 c -0.1786,0.018 -0.3477,0 -0.5312,0 -2.9354,0 -5.3125,-2.3773 -5.3125,-5.3125 0,-2.9356 2.3771,-5.3125 5.3125,-5.3125 2.9354,0 5.3125,2.3769 5.3125,5.3125 0,2.7518 -2.1012,5.0406 -4.7813,5.3125 z m -35.4062,0 c -0.1787,0.018 -0.3478,0 -0.5313,0 -2.9353,0 -5.3125,-2.3773 -5.3125,-5.3125 0,-2.9356 2.3772,-5.3125 5.3125,-5.3125 2.9354,0 5.3125,2.3769 5.3125,5.3125 0,2.7518 -2.1011,5.0406 -4.7812,5.3125 z"
       id="path4689-7-0-3"
       inkscape:connector-curvature="0" />
    <path
       inkscape:connector-curvature="0"
       style="fill:#000000;fill-opacity:0.50000000000000000;stroke:none;display:inline"
       d="m 1279.1652,403.96622 0,-10.625 24.8125,0 0,-35.4375 -24.8125,0 0,-10.6563 -35.4064,0 0,10.6563 -24.8125,0 -0.031,35.4375 24.8125,0 0,10.625 35.4375,0 z m 0.5311,-23.0625 c -0.1785,0.018 -0.3478,0 -0.5311,0 -2.9354,0 -5.3125,-2.3773 -5.3125,-5.3125 0,-2.9356 2.3771,-5.3125 5.3125,-5.3125 2.9353,0 5.3125,2.3769 5.3125,5.3125 0,2.7518 -2.1012,5.0406 -4.7814,5.3125 z m -35.4061,0 c -0.1787,0.018 -0.3478,0 -0.5314,0 -2.9353,0 -5.3125,-2.3773 -5.3125,-5.3125 0,-2.9356 2.3772,-5.3125 5.3125,-5.3125 2.9355,0 5.3125,2.3769 5.3125,5.3125 0,2.7518 -2.101,5.0406 -4.7811,5.3125 z"
       id="path4689-2-9-9-2" />
    <path
       style="fill:#008080;fill-opacity:0.5;stroke:none;display:inline;opacity:1"
       d="m 961.22854,418.11011 c -23.6502,11.4825 -39.9687,35.7253 -39.9687,63.7812 0,28.0562 16.316,52.2962 39.9687,63.7813 l 61.81246,0 c 23.6527,-11.4851 39.9688,-35.7252 39.9688,-63.7813 0,-28.056 -16.3187,-52.2987 -39.9688,-63.7812 l -61.81246,0 z m 13.1875,8.875 35.43746,0 0,10.625 -35.43746,0 0,-10.625 z m 17.7188,21.25 c 18.59036,0 33.65616,15.0657 33.65616,33.6562 0,18.5906 -15.0658,33.6563 -33.65616,33.6563 -18.5908,0 -33.6563,-15.0657 -33.6563,-33.6563 0,-18.5904 15.0655,-33.6562 33.6563,-33.6562 z m -53.1563,28.3438 c 2.9353,0 5.3125,2.3771 5.3125,5.3124 0,2.9355 -2.3772,5.3126 -5.3125,5.3126 -2.9354,0 -5.3125,-2.377 -5.3125,-5.3126 0,-2.9353 2.3771,-5.3124 5.3125,-5.3124 z m 106.31246,0 c 2.9353,0 5.3125,2.3771 5.3125,5.3124 0,2.9355 -2.3772,5.3126 -5.3125,5.3126 -2.9354,0 -5.3125,-2.377 -5.3125,-5.3126 0,-2.9353 2.3771,-5.3124 5.3125,-5.3124 z m -70.87496,49.625 35.43746,0 0,10.625 -35.43746,0 0,-10.625 z"
       id="path3527-4-0"
       inkscape:connector-curvature="0" />
    <path
       style="fill:#008080;fill-opacity:0.5;stroke:none;display:inline;opacity:1"
       d="m 1110.0339,418.11356 c -23.6437,11.4851 -39.9375,35.72555 -39.9375,63.78125 0,28.0558 16.2882,52.29845 39.9375,63.78125 l 61.8438,0 c 23.6493,-11.4828 39.9374,-35.72535 39.9374,-63.78125 0,-28.0559 -16.316,-52.29615 -39.9687,-63.78125 l -61.8125,0 z m 13.1875,8.875 35.4375,0 0,10.625 -35.4375,0 0,-10.625 z m 17.6875,26.53125 c 15.6431,0 28.4064,12.72194 28.4062,28.375 0,15.65339 -12.7631,28.3125 -28.4062,28.3125 -15.6433,0 -28.2812,-12.65911 -28.2812,-28.3125 0,-15.65306 12.6379,-28.375 28.2812,-28.375 z m -53.6562,23.0625 c 0.1783,-0.018 0.3793,0 0.5624,0 2.9357,0 5.3126,2.3773 5.3126,5.3125 0,2.9357 -2.3769,5.3125 -5.3126,5.3125 -2.9353,0 -5.3124,-2.3768 -5.3124,-5.3125 0,-2.7518 2.0697,-5.0408 4.75,-5.3125 z m 106.3124,0 c 0.1787,-0.018 0.3478,0 0.5313,0 2.9353,0 5.3125,2.3773 5.3125,5.3125 0,2.9357 -2.3772,5.3125 -5.3125,5.3125 -2.9354,0 -5.3125,-2.3768 -5.3125,-5.3125 0,-2.7518 2.1013,-5.0408 4.7812,-5.3125 z m -70.3437,49.59375 35.4375,0 0,10.65625 -35.4375,0 0,-10.65625 z"
       id="path3019-8"
       inkscape:connector-curvature="0" />
    <path
       style="fill:#000000;fill-opacity:0.50000000000000000;stroke:none;display:inline"
       d="m 1279.1651,474.83236 0,-10.625 24.8125,0 0,-35.4375 -24.8125,0 0,-10.6563 -35.4063,0 0,10.6563 -24.8125,0 -0.031,35.4375 24.8125,0 0,10.625 35.4375,0 z m 0.5312,-23.0625 c -0.1786,0.018 -0.3477,0 -0.5312,0 -2.9354,0 -5.3125,-2.3773 -5.3125,-5.3125 0,-2.9356 2.3771,-5.3125 5.3125,-5.3125 2.9354,0 5.3125,2.3769 5.3125,5.3125 0,2.7518 -2.1012,5.0406 -4.7813,5.3125 z m -35.4062,0 c -0.1787,0.018 -0.3478,0 -0.5313,0 -2.9353,0 -5.3125,-2.3773 -5.3125,-5.3125 0,-2.9356 2.3772,-5.3125 5.3125,-5.3125 2.9354,0 5.3125,2.3769 5.3125,5.3125 0,2.7518 -2.1011,5.0406 -4.7812,5.3125 z"
       id="path4689-7-0-3-3"
       inkscape:connector-curvature="0" />
    <path
       inkscape:connector-curvature="0"
       style="fill:#000000;fill-opacity:0.50000000000000000;stroke:none;display:inline"
       d="m 1279.1652,538.61189 0,-10.625 24.8125,0 0,-35.4375 -24.8125,0 0,-10.6563 -35.4064,0 0,10.6563 -24.8125,0 -0.031,35.4375 24.8125,0 0,10.625 35.4375,0 z m 0.5311,-23.0625 c -0.1785,0.018 -0.3478,0 -0.5311,0 -2.9354,0 -5.3125,-2.3773 -5.3125,-5.3125 0,-2.9356 2.3771,-5.3125 5.3125,-5.3125 2.9353,0 5.3125,2.3769 5.3125,5.3125 0,2.7518 -2.1012,5.0406 -4.7814,5.3125 z m -35.4061,0 c -0.1787,0.018 -0.3478,0 -0.5314,0 -2.9353,0 -5.3125,-2.3773 -5.3125,-5.3125 0,-2.9356 2.3772,-5.3125 5.3125,-5.3125 2.9355,0 5.3125,2.3769 5.3125,5.3125 0,2.7518 -2.101,5.0406 -4.7811,5.3125 z"
       id="path4689-2-9-9-2-5" />
  </g>
</svg>
