<?xml version="1.0" encoding="UTF-8" standalone="no"?>
<!-- Created with Inkscape (http://www.inkscape.org/) -->

<svg
   xmlns:dc="http://purl.org/dc/elements/1.1/"
   xmlns:cc="http://creativecommons.org/ns#"
   xmlns:rdf="http://www.w3.org/1999/02/22-rdf-syntax-ns#"
   xmlns:svg="http://www.w3.org/2000/svg"
   xmlns="http://www.w3.org/2000/svg"
   xmlns:sodipodi="http://sodipodi.sourceforge.net/DTD/sodipodi-0.dtd"
   xmlns:inkscape="http://www.inkscape.org/namespaces/inkscape"
   width="3188.9763"
   height="2125.9841"
   id="svg2"
   version="1.1"
   inkscape:version="0.48.4 r9939"
   sodipodi:docname="motor-mounts-6v.svg">
  <sodipodi:namedview
     id="base"
     pagecolor="#ffffff"
     bordercolor="#666666"
     borderopacity="1.0"
     inkscape:pageopacity="0.0"
     inkscape:pageshadow="2"
     inkscape:zoom="2.0748993"
     inkscape:cx="1660.0723"
     inkscape:cy="1741.5149"
     inkscape:document-units="mm"
     inkscape:current-layer="layer7"
     showgrid="true"
     inkscape:snap-object-midpoints="false"
     inkscape:snap-bbox="true"
     inkscape:object-paths="false"
     inkscape:snap-nodes="true"
     inkscape:object-nodes="false"
     inkscape:snap-global="true"
     inkscape:snap-grids="true"
     inkscape:window-width="1920"
     inkscape:window-height="1030"
     inkscape:window-x="0"
     inkscape:window-y="0"
     inkscape:window-maximized="1"
     inkscape:snap-smooth-nodes="false"
     units="mm">
    <inkscape:grid
       type="xygrid"
       id="grid2985"
       empspacing="10"
       visible="true"
       enabled="true"
       snapvisiblegridlinesonly="true"
       units="mm"
       spacingx="1mm"
       spacingy="1mm"
       empcolor="#ff9500"
       empopacity="0.25098039" />
  </sodipodi:namedview>
  <defs
     id="defs4" />
  <metadata
     id="metadata7">
    <rdf:RDF>
      <cc:Work
         rdf:about="">
        <dc:format>image/svg+xml</dc:format>
        <dc:type
           rdf:resource="http://purl.org/dc/dcmitype/StillImage" />
        <dc:title></dc:title>
      </cc:Work>
    </rdf:RDF>
  </metadata>
  <g
     inkscape:groupmode="layer"
     id="layer6"
     inkscape:label="Calibration"
     style="display:inline"
     transform="translate(0,1073.622)" />
  <g
     inkscape:label="Base platters"
     inkscape:groupmode="layer"
     id="layer1"
     style="display:inline"
     transform="translate(0,1073.622)">
    <path
       id="path11902"
       style="fill:none;stroke:#000000"
       d=""
       inkscape:connector-curvature="0" />
  </g>
  <g
     inkscape:groupmode="layer"
     id="layer7"
     inkscape:label="Verticals"
     style="display:inline"
     transform="translate(0,1073.622)">
    <path
       style="fill:#000000;fill-opacity:0.32352941;stroke:none;display:inline"
       d="m 1512.9943,-861.0237 0,10.625 -17.7187,0 0,91.25 17.7187,0 0,10.625 106.2813,0 0,-10.625 17.7187,0 0,-91.25 -17.7187,0 0,-10.625 -106.2813,0 z m 53.1563,12.25 c 24.3095,0 43.9686,19.7308 43.9687,44.03125 0,24.30061 -19.6594,43.96875 -43.9687,43.96875 -24.3095,0 -44.0313,-19.66814 -44.0313,-43.96875 0,-24.30045 19.722,-44.03125 44.0313,-44.03125 z m -54.9688,9 c 2.9354,0 5.3125,2.3771 5.3125,5.3125 0,2.9354 -2.3771,5.3125 -5.3125,5.3125 -2.9353,0 -5.3125,-2.3771 -5.3125,-5.3125 0,-2.9354 2.3772,-5.3125 5.3125,-5.3125 z m 109.8438,0 c 2.9354,0 5.3124,2.3771 5.3124,5.3125 10e-5,2.9354 -2.377,5.3125 -5.3124,5.3125 -2.9355,0 -5.3126,-2.3771 -5.3126,-5.3125 0,-2.9354 2.3771,-5.3125 5.3126,-5.3125 z m -109.8438,59.34375 c 2.9354,0 5.3125,2.3772 5.3125,5.3125 0,2.9354 -2.3771,5.3125 -5.3125,5.3125 -2.9353,0 -5.3125,-2.3771 -5.3125,-5.3125 0,-2.9353 2.3772,-5.3125 5.3125,-5.3125 z m 109.8438,0 c 2.9354,0 5.3124,2.3772 5.3124,5.3125 10e-5,2.9354 -2.377,5.3125 -5.3124,5.3125 -2.9355,0 -5.3126,-2.3771 -5.3126,-5.3125 0,-2.9353 2.3771,-5.3125 5.3126,-5.3125 z"
       id="path3044"
       inkscape:connector-curvature="0" />
    <path
       style="fill:#000000;fill-opacity:0.32352941;stroke:none;display:inline"
       d="m 1661.8132,-861.0237 0,10.625 -17.7187,0 0,91.25 17.7187,0 0,10.625 106.2813,0 0,-10.625 17.7187,0 0,-91.25 -17.7187,0 0,-10.625 -106.2813,0 z m 53.1563,11.96875 c 24.4704,0 44.2499,19.8512 44.25,44.3125 0,24.46156 -19.7798,44.25 -44.25,44.25 -24.4704,0 -44.3125,-19.78844 -44.3126,-44.25 0,-24.4613 19.8422,-44.3125 44.3126,-44.3125 z"
       id="path3067"
       inkscape:connector-curvature="0" />
    <path
       style="fill:#000000;fill-opacity:0.32352941;stroke:none;display:inline"
       d="M 1792.9062 212.59375 L 1792.9062 314.46875 L 1810.625 314.46875 L 1810.625 325.09375 L 1916.9062 325.09375 L 1916.9062 314.46875 L 1934.625 314.46875 L 1934.6562 212.59375 L 1916.9375 212.59375 L 1916.9375 223.21875 L 1902.75 223.21875 L 1902.75 248.46875 C 1905.9484 254.57546 1907.75 261.50446 1907.75 268.875 C 1907.75 293.17566 1888.0905 312.84375 1863.7812 312.84375 C 1839.4717 312.84375 1819.75 293.17566 1819.75 268.875 C 1819.75 261.47965 1821.5859 254.52782 1824.8125 248.40625 L 1824.8125 223.21875 L 1810.625 223.21875 L 1810.625 212.59375 L 1792.9062 212.59375 z M 1808.8125 233.84375 C 1811.7479 233.84375 1814.125 236.22085 1814.125 239.15625 C 1814.125 242.09165 1811.7479 244.46875 1808.8125 244.46875 C 1805.8772 244.46875 1803.5 242.09165 1803.5 239.15625 C 1803.5 236.22085 1805.8772 233.84375 1808.8125 233.84375 z M 1918.6562 233.84375 C 1921.5917 233.84375 1923.9688 236.22085 1923.9688 239.15625 C 1923.9688 242.09165 1921.5916 244.46875 1918.6562 244.46875 C 1915.7207 244.46875 1913.3438 242.09165 1913.3438 239.15625 C 1913.3438 236.22085 1915.7207 233.84375 1918.6562 233.84375 z M 1808.8125 293.1875 C 1811.7479 293.1875 1814.125 295.5647 1814.125 298.5 C 1814.125 301.4354 1811.7479 303.8125 1808.8125 303.8125 C 1805.8772 303.8125 1803.5 301.4354 1803.5 298.5 C 1803.5 295.5647 1805.8772 293.1875 1808.8125 293.1875 z M 1918.6562 293.1875 C 1921.5917 293.1875 1923.9688 295.5647 1923.9688 298.5 C 1923.9688 301.4354 1921.5916 303.8125 1918.6562 303.8125 C 1915.7207 303.8125 1913.3438 301.4354 1913.3438 298.5 C 1913.3438 295.5647 1915.7207 293.1875 1918.6562 293.1875 z "
       transform="translate(0,-1073.622)"
       id="path3044-5" />
    <path
       style="fill:#000000;fill-opacity:0.32352941;stroke:none;display:inline"
       d="m 1512.9943,-740.55125 0,10.625 -17.7187,0 0,91.25005 17.7187,0 0,10.625 106.2813,0 0,-10.625 17.7187,0 0,-91.25005 -17.7187,0 0,-10.625 -106.2813,0 z m 53.1563,12.25 c 24.3095,0 43.9686,19.7308 43.9687,44.0313 0,24.30061 -19.6594,43.96875 -43.9687,43.96875 -24.3095,0 -44.0313,-19.66814 -44.0313,-43.96875 0,-24.3005 19.722,-44.0313 44.0313,-44.0313 z m -54.9688,9 c 2.9354,0 5.3125,2.3771 5.3125,5.3125 0,2.9354 -2.3771,5.3125 -5.3125,5.3125 -2.9353,0 -5.3125,-2.3771 -5.3125,-5.3125 0,-2.9354 2.3772,-5.3125 5.3125,-5.3125 z m 109.8438,0 c 2.9354,0 5.3124,2.3771 5.3124,5.3125 10e-5,2.9354 -2.377,5.3125 -5.3124,5.3125 -2.9355,0 -5.3126,-2.3771 -5.3126,-5.3125 0,-2.9354 2.3771,-5.3125 5.3126,-5.3125 z m -109.8438,59.3438 c 2.9354,0 5.3125,2.3772 5.3125,5.3125 0,2.9354 -2.3771,5.3125 -5.3125,5.3125 -2.9353,0 -5.3125,-2.3771 -5.3125,-5.3125 0,-2.9353 2.3772,-5.3125 5.3125,-5.3125 z m 109.8438,0 c 2.9354,0 5.3124,2.3772 5.3124,5.3125 10e-5,2.9354 -2.377,5.3125 -5.3124,5.3125 -2.9355,0 -5.3126,-2.3771 -5.3126,-5.3125 0,-2.9353 2.3771,-5.3125 5.3126,-5.3125 z"
       id="path3044-6"
       inkscape:connector-curvature="0" />
    <path
       style="fill:#000000;fill-opacity:0.32352941;stroke:none;display:inline"
       d="m 1661.8132,-740.55125 0,10.625 -17.7187,0 0,91.25005 17.7187,0 0,10.625 106.2813,0 0,-10.625 17.7187,0 0,-91.25005 -17.7187,0 0,-10.625 -106.2813,0 z m 53.1563,11.9688 c 24.4704,0 44.2499,19.8512 44.25,44.3125 0,24.46156 -19.7798,44.25 -44.25,44.25 -24.4704,0 -44.3125,-19.78844 -44.3126,-44.25 0,-24.4613 19.8422,-44.3125 44.3126,-44.3125 z"
       id="path3067-8"
       inkscape:connector-curvature="0" />
    <path
       inkscape:connector-curvature="0"
       style="fill:#000000;fill-opacity:0.32352941;stroke:none;display:inline"
       d="m 1792.9062,-740.55575 0,101.875 17.7188,0 0,10.625 106.2812,0 0,-10.625 17.7188,0 0.031,-101.875 -17.7187,0 0,10.625 -14.1875,0 0,25.25 c 3.1984,6.1067 5,13.0357 5,20.4062 0,24.30071 -19.6595,43.9688 -43.9688,43.9688 -24.3095,0 -44.0312,-19.66809 -44.0312,-43.9688 0,-7.3953 1.8359,-14.3471 5.0625,-20.4687 l 0,-25.1875 -14.1875,0 0,-10.625 -17.7188,0 z m 15.9063,21.25 c 2.9354,0 5.3125,2.3771 5.3125,5.3125 0,2.9354 -2.3771,5.3125 -5.3125,5.3125 -2.9353,0 -5.3125,-2.3771 -5.3125,-5.3125 0,-2.9354 2.3772,-5.3125 5.3125,-5.3125 z m 109.8437,0 c 2.9355,0 5.3126,2.3771 5.3126,5.3125 0,2.9354 -2.3772,5.3125 -5.3126,5.3125 -2.9355,0 -5.3124,-2.3771 -5.3124,-5.3125 0,-2.9354 2.3769,-5.3125 5.3124,-5.3125 z m -109.8437,59.34375 c 2.9354,0 5.3125,2.3772 5.3125,5.3125 0,2.9354 -2.3771,5.3125 -5.3125,5.3125 -2.9353,0 -5.3125,-2.3771 -5.3125,-5.3125 0,-2.9353 2.3772,-5.3125 5.3125,-5.3125 z m 109.8437,0 c 2.9355,0 5.3126,2.3772 5.3126,5.3125 0,2.9354 -2.3772,5.3125 -5.3126,5.3125 -2.9355,0 -5.3124,-2.3771 -5.3124,-5.3125 0,-2.9353 2.3769,-5.3125 5.3124,-5.3125 z"
       id="path3044-5-1" />
    <path
       style="fill:#000000;fill-opacity:0.32352941;stroke:none;display:inline"
       d="m 1346.47,-861.0237 -0.062,91.25 0.031,0 141.75,0 0,-91.25 -141.7188,0 z m 15.375,10.6562 c 0.1786,-0.018 0.3479,0 0.5312,0 2.9356,0 5.3126,2.3772 5.3126,5.3125 0,2.9354 -2.377,5.3125 -5.3126,5.3125 -2.935,0 -5.3126,-2.3771 -5.3124,-5.3125 0,-2.7519 2.1016,-5.0405 4.7812,-5.3125 z m 109.8438,0 c 0.1786,-0.018 0.3477,0 0.5312,0 2.9354,0 5.3125,2.3772 5.3125,5.3125 0,2.9354 -2.3771,5.3125 -5.3125,5.3125 -2.9354,0 -5.3125,-2.3771 -5.3125,-5.3125 0,-2.7519 2.1013,-5.0405 4.7813,-5.3125 z m -54.3438,21.6875 c 6.8454,0 12.4062,5.5608 12.4062,12.4063 0,6.8454 -5.5607,12.4062 -12.4062,12.4062 -6.8454,0 -12.375,-5.5608 -12.375,-12.4062 0,-6.8455 5.5295,-12.4063 12.375,-12.4063 z m -30.2812,7.0938 c 0.1786,-0.018 0.3477,0 0.5312,0 2.9354,0 5.3125,2.3771 5.3125,5.3125 0,2.9354 -2.3771,5.3125 -5.3125,5.3125 -2.9354,0 -5.3125,-2.3771 -5.3125,-5.3125 0,-2.7519 2.1013,-5.0406 4.7813,-5.3125 z m 59.5312,0 c 0.1787,-0.018 0.3479,0 0.5312,0 2.9354,0 5.3124,2.3771 5.3126,5.3125 0,2.9354 -2.3771,5.3125 -5.3126,5.3125 -2.9354,0 -5.3124,-2.3771 -5.3124,-5.3125 0,-2.7519 2.1013,-5.0406 4.7812,-5.3125 z m -84.75,30.5625 c 0.1786,-0.018 0.3479,0 0.5312,0 2.9356,0 5.3126,2.3771 5.3126,5.3125 0,2.93537 -2.377,5.3125 -5.3126,5.3125 -2.935,0 -5.3126,-2.37713 -5.3124,-5.3125 0,-2.7519 2.1016,-5.0406 4.7812,-5.3125 z m 109.8438,0 c 0.1786,-0.018 0.3477,0 0.5312,0 2.9354,0 5.3125,2.3771 5.3125,5.3125 0,2.93537 -2.3771,5.3125 -5.3125,5.3125 -2.9354,0 -5.3125,-2.37713 -5.3125,-5.3125 0,-2.7519 2.1013,-5.0406 4.7813,-5.3125 z"
       id="path3021"
       inkscape:connector-curvature="0" />
    <path
       style="fill:#000000;fill-opacity:0.32352941;stroke:none;display:inline"
       d="m 1346.47,-761.8111 -0.062,91.25 0.031,0 141.75,0 0,-91.25 -141.7188,0 z m 15.375,10.6562 c 0.1786,-0.018 0.3479,0 0.5312,0 2.9356,0 5.3126,2.3772 5.3126,5.3125 0,2.9354 -2.377,5.3125 -5.3126,5.3125 -2.935,0 -5.3126,-2.3771 -5.3124,-5.3125 0,-2.7519 2.1016,-5.0405 4.7812,-5.3125 z m 109.8438,0 c 0.1786,-0.018 0.3477,0 0.5312,0 2.9354,0 5.3125,2.3772 5.3125,5.3125 0,2.9354 -2.3771,5.3125 -5.3125,5.3125 -2.9354,0 -5.3125,-2.3771 -5.3125,-5.3125 0,-2.7519 2.1013,-5.0405 4.7813,-5.3125 z m -54.3438,21.6875 c 6.8454,0 12.4062,5.5608 12.4062,12.4063 0,6.8454 -5.5607,12.4062 -12.4062,12.4062 -6.8454,0 -12.375,-5.5608 -12.375,-12.4062 0,-6.8455 5.5295,-12.4063 12.375,-12.4063 z m -30.2812,7.0938 c 0.1786,-0.018 0.3477,0 0.5312,0 2.9354,0 5.3125,2.3771 5.3125,5.3125 0,2.9354 -2.3771,5.3125 -5.3125,5.3125 -2.9354,0 -5.3125,-2.3771 -5.3125,-5.3125 0,-2.7519 2.1013,-5.0406 4.7813,-5.3125 z m 59.5312,0 c 0.1787,-0.018 0.3479,0 0.5312,0 2.9354,0 5.3124,2.3771 5.3126,5.3125 0,2.9354 -2.3771,5.3125 -5.3126,5.3125 -2.9354,0 -5.3124,-2.3771 -5.3124,-5.3125 0,-2.7519 2.1013,-5.0406 4.7812,-5.3125 z m -84.75,30.5625 c 0.1786,-0.018 0.3479,0 0.5312,0 2.9356,0 5.3126,2.3771 5.3126,5.3125 0,2.93537 -2.377,5.3125 -5.3126,5.3125 -2.935,0 -5.3126,-2.37713 -5.3124,-5.3125 0,-2.7519 2.1016,-5.0406 4.7812,-5.3125 z m 109.8438,0 c 0.1786,-0.018 0.3477,0 0.5312,0 2.9354,0 5.3125,2.3771 5.3125,5.3125 0,2.93537 -2.3771,5.3125 -5.3125,5.3125 -2.9354,0 -5.3125,-2.37713 -5.3125,-5.3125 0,-2.7519 2.1013,-5.0406 4.7813,-5.3125 z"
       id="path3021-2"
       inkscape:connector-curvature="0" />
  </g>
  <g
     inkscape:groupmode="layer"
     id="layer8"
     inkscape:label="Wheels"
     style="display:inline" />
  <g
     inkscape:groupmode="layer"
     id="layer9"
     inkscape:label="Bearings (working layer)"
     style="display:inline" />
  <g
     inkscape:groupmode="layer"
     id="layer10"
     inkscape:label="Bearings (production layer)"
     style="display:inline" />
  <g
     inkscape:groupmode="layer"
     id="layer5"
     inkscape:label="30x3 Slots (Motor mount)"
     style="display:inline"
     transform="translate(0,1073.622)" />
  <g
     inkscape:groupmode="layer"
     id="layer4"
     inkscape:label="5x3 Slots (Motor mount)"
     style="display:inline"
     transform="translate(0,1073.622)" />
  <g
     inkscape:groupmode="layer"
     id="layer3"
     inkscape:label="10x3 Slots"
     style="display:inline"
     transform="translate(0,1073.622)" />
  <g
     inkscape:groupmode="layer"
     id="layer2"
     inkscape:label="3x10 Slots"
     style="display:inline"
     transform="translate(0,1073.622)" />
</svg>
