<?xml version="1.0" encoding="UTF-8" standalone="no"?>
<!-- Created with Inkscape (http://www.inkscape.org/) -->

<svg
   xmlns:dc="http://purl.org/dc/elements/1.1/"
   xmlns:cc="http://creativecommons.org/ns#"
   xmlns:rdf="http://www.w3.org/1999/02/22-rdf-syntax-ns#"
   xmlns:svg="http://www.w3.org/2000/svg"
   xmlns="http://www.w3.org/2000/svg"
   xmlns:sodipodi="http://sodipodi.sourceforge.net/DTD/sodipodi-0.dtd"
   xmlns:inkscape="http://www.inkscape.org/namespaces/inkscape"
   width="3188.9763"
   height="2125.9841"
   id="svg2"
   version="1.1"
   inkscape:version="0.48.4 r9939"
   sodipodi:docname="verticals+castors.svg">
  <sodipodi:namedview
     id="base"
     pagecolor="#ffffff"
     bordercolor="#666666"
     borderopacity="1.0"
     inkscape:pageopacity="0.0"
     inkscape:pageshadow="2"
     inkscape:zoom="1.4671754"
     inkscape:cx="1403.8518"
     inkscape:cy="1754.2736"
     inkscape:document-units="mm"
     inkscape:current-layer="layer10"
     showgrid="true"
     inkscape:snap-object-midpoints="true"
     inkscape:snap-bbox="true"
     inkscape:object-paths="false"
     inkscape:snap-nodes="true"
     inkscape:object-nodes="false"
     inkscape:snap-global="true"
     inkscape:snap-grids="true"
     inkscape:window-width="1920"
     inkscape:window-height="1030"
     inkscape:window-x="0"
     inkscape:window-y="0"
     inkscape:window-maximized="1"
     inkscape:snap-smooth-nodes="false"
     units="mm">
    <inkscape:grid
       type="xygrid"
       id="grid2985"
       empspacing="10"
       visible="true"
       enabled="true"
       snapvisiblegridlinesonly="true"
       units="mm"
       spacingx="1mm"
       spacingy="1mm"
       empcolor="#ff9500"
       empopacity="0.25098039" />
  </sodipodi:namedview>
  <defs
     id="defs4" />
  <metadata
     id="metadata7">
    <rdf:RDF>
      <cc:Work
         rdf:about="">
        <dc:format>image/svg+xml</dc:format>
        <dc:type
           rdf:resource="http://purl.org/dc/dcmitype/StillImage" />
        <dc:title></dc:title>
      </cc:Work>
    </rdf:RDF>
  </metadata>
  <g
     inkscape:groupmode="layer"
     id="layer10"
     inkscape:label="Verticals and Castors"
     style="display:inline">
    <path
       inkscape:connector-curvature="0"
       id="rect3845-8-9"
       d="m 956.69291,254.22724 0,-101.87008 17.7188,0 0,-10.625 106.28119,0 0,10.625 17.7188,0 0.014,101.87008 -17.7166,0 0,-10.6299 -10.6299,0 -0.011,-54.48918 c -10e-4,-4.8923 -3.9514,-8.875 -8.8437,-8.875 -4.8923,0 -8.875,3.9827 -8.875,8.875 l -2.375,0 c -3.9802,-8.3813 -12.5108,-14.1875 -22.4063,-14.1875 -9.8954,0 -18.4573,5.8062 -22.4375,14.1875 l -2.375,0 c 0,-4.8923 -3.98269,-8.875 -8.87499,-8.875 -4.8922,0 -8.8411,3.9628 -8.8411,8.8551 l -2e-4,54.50908 -10.6299,0 0,10.6299 z"
       style="fill:#000000;fill-opacity:0.32352941;stroke:none;display:inline"
       sodipodi:nodetypes="cccccccccccssccsccsscccc" />
    <path
       style="fill:#000000;fill-opacity:0.32352941;stroke:none;display:inline"
       d="m 1123.2925,141.73216 0,10.625 -17.7187,0 -0.062,91.25 0.031,0 0,0 17.7165,0 0,10.625 106.2812,0 0.018,-10.625 17.7165,0 0.015,-91.25 -17.6875,0 -0.031,-10.625 z m 53.1585,45.08337 c 5.675,0 10.2812,4.6062 10.2812,10.2813 0,5.675 -4.6061,10.2812 -10.2812,10.2812 -5.675,0 -10.2813,-4.6062 -10.2813,-10.2812 0,-5.6751 4.6062,-10.2813 10.2813,-10.2813 z"
       id="path3545-1-2"
       inkscape:connector-curvature="0"
       sodipodi:nodetypes="cccccccccccccccsssss" />
    <path
       style="fill:#000000;fill-opacity:0.32352941;stroke:none;display:inline"
       d="m 1272.0494,141.73219 0,10.625 -17.7187,0 0,91.24016 17.7165,0 0,10.62992 106.2813,-0.005 0.02,-10.62492 17.7166,0 -0.018,-91.24019 -17.7187,0 0,-10.625 z m 53.1585,13.7192 c 23.4851,0 42.4999,19.0774 42.5,42.5625 0,23.48525 -19.015,42.50005 -42.5,42.50005 -23.4852,0 -42.5313,-19.0148 -42.5313,-42.50005 0,-23.4851 19.0462,-42.5625 42.5313,-42.5625 z"
       id="path3549-6-7"
       inkscape:connector-curvature="0"
       sodipodi:nodetypes="cccccccccccccsssss" />
    <path
       inkscape:connector-curvature="0"
       id="rect3845-8-9-4"
       d="m 956.69291,262.2046 0,101.87008 17.7188,0 0,10.625 106.28119,0 0,-10.625 17.7188,0 0.014,-101.87008 -17.7166,0 0,10.6299 -10.6299,0 -0.011,54.48918 c -10e-4,4.8923 -3.9514,8.875 -8.8437,8.875 -4.8923,0 -8.875,-3.9827 -8.875,-8.875 l -2.375,0 c -3.9802,8.3813 -12.5108,14.1875 -22.4063,14.1875 -9.8954,0 -18.4573,-5.8062 -22.4375,-14.1875 l -2.375,0 c 0,4.8923 -3.98269,8.875 -8.87499,8.875 -4.8922,0 -8.8411,-3.9628 -8.8411,-8.8551 l -2e-4,-54.50908 -10.6299,0 0,-10.6299 z"
       style="fill:#000000;fill-opacity:0.32352941;stroke:none;display:inline"
       sodipodi:nodetypes="cccccccccccssccsccsscccc" />
    <path
       style="fill:#000000;fill-opacity:0.32352941;stroke:none;display:inline"
       d="m 1272.0494,258.6613 0,10.625 -17.7187,0 0,91.24019 17.7165,0 0,10.62992 106.2813,-0.005 0.02,-10.62492 17.7166,0 -0.018,-91.24019 -17.7187,0 0,-10.625 z m 53.1585,13.7192 c 23.4851,0 42.4999,19.0774 42.5,42.5625 0,23.48528 -19.015,42.50008 -42.5,42.50008 -23.4852,0 -42.5313,-19.0148 -42.5313,-42.50008 0,-23.4851 19.0462,-42.5625 42.5313,-42.5625 z"
       id="path3549-6-7-6"
       inkscape:connector-curvature="0"
       sodipodi:nodetypes="cccccccccccccsssss" />
    <path
       style="fill:#000000;fill-opacity:0.32352941;stroke:none;display:inline"
       d="m 1123.2925,258.6613 0,10.625 -17.7187,0 -0.062,91.25 0.031,0 0,0 17.7165,0 0,10.625 106.2812,0 0.018,-10.625 17.7165,0 0.015,-91.25 -17.6875,0 -0.031,-10.625 z m 53.1585,45.0834 c 5.675,0 10.2812,4.6062 10.2812,10.2813 0,5.675 -4.6061,10.2812 -10.2812,10.2812 -5.675,0 -10.2813,-4.6062 -10.2813,-10.2812 0,-5.6751 4.6062,-10.2813 10.2813,-10.2813 z"
       id="path3545-1-2-0"
       inkscape:connector-curvature="0"
       sodipodi:nodetypes="cccccccccccccccsssss" />
  </g>
</svg>
