<?xml version="1.0" encoding="UTF-8" standalone="no"?>
<!-- Created with Inkscape (http://www.inkscape.org/) -->

<svg
   xmlns:dc="http://purl.org/dc/elements/1.1/"
   xmlns:cc="http://creativecommons.org/ns#"
   xmlns:rdf="http://www.w3.org/1999/02/22-rdf-syntax-ns#"
   xmlns:svg="http://www.w3.org/2000/svg"
   xmlns="http://www.w3.org/2000/svg"
   xmlns:sodipodi="http://sodipodi.sourceforge.net/DTD/sodipodi-0.dtd"
   xmlns:inkscape="http://www.inkscape.org/namespaces/inkscape"
   width="3188.9763"
   height="2125.9841"
   id="svg2"
   version="1.1"
   inkscape:version="0.48.4 r9939"
   sodipodi:docname="platters-dual-castor.svg">
  <sodipodi:namedview
     id="base"
     pagecolor="#ffffff"
     bordercolor="#666666"
     borderopacity="1.0"
     inkscape:pageopacity="0.0"
     inkscape:pageshadow="2"
     inkscape:zoom="1.0374497"
     inkscape:cx="1154.2557"
     inkscape:cy="1047.4429"
     inkscape:document-units="mm"
     inkscape:current-layer="layer1"
     showgrid="true"
     inkscape:snap-object-midpoints="true"
     inkscape:snap-bbox="true"
     inkscape:object-paths="false"
     inkscape:snap-nodes="true"
     inkscape:object-nodes="false"
     inkscape:snap-global="true"
     inkscape:snap-grids="true"
     inkscape:window-width="1920"
     inkscape:window-height="1030"
     inkscape:window-x="0"
     inkscape:window-y="0"
     inkscape:window-maximized="1"
     inkscape:snap-smooth-nodes="false"
     units="mm">
    <inkscape:grid
       empopacity="0.25098039"
       empcolor="#ff9500"
       spacingy="1mm"
       spacingx="1mm"
       units="mm"
       snapvisiblegridlinesonly="true"
       enabled="true"
       visible="true"
       empspacing="10"
       id="grid2985"
       type="xygrid" />
  </sodipodi:namedview>
  <defs
     id="defs4" />
  <metadata
     id="metadata7">
    <rdf:RDF>
      <cc:Work
         rdf:about="">
        <dc:format>image/svg+xml</dc:format>
        <dc:type
           rdf:resource="http://purl.org/dc/dcmitype/StillImage" />
        <dc:title></dc:title>
      </cc:Work>
    </rdf:RDF>
  </metadata>
  <g
     transform="translate(0,1073.622)"
     style="display:inline"
     inkscape:label="Calibration"
     id="layer6"
     inkscape:groupmode="layer" />
  <g
     transform="translate(0,1073.622)"
     style="display:inline"
     id="layer1"
     inkscape:groupmode="layer"
     inkscape:label="Base platters">
    <g
       id="g3367">
      <path
         id="path3508"
         transform="translate(0,-1073.622)"
         d="M 1233.0938 708.65625 C 1197.6472 708.64205 1063.0308 831.41747 1063.0312 868.125 L 1063.0312 1158.6875 C 1063.0305 1195.4004 1197.6472 1318.0809 1233.0938 1318.0938 L 1516.5312 1318.0938 C 1551.9781 1318.0815 1686.6572 1195.4004 1686.6562 1158.6875 L 1686.6562 868.125 C 1686.6562 831.41747 1551.9783 708.64195 1516.5312 708.65625 L 1233.0938 708.65625 z M 1285.6875 719.28125 C 1285.866 719.26315 1286.0351 719.28125 1286.2188 719.28125 C 1289.1541 719.28125 1291.5312 721.65835 1291.5312 724.59375 C 1291.5312 727.52905 1289.1541 729.9375 1286.2188 729.9375 C 1283.2832 729.9375 1280.9062 727.52905 1280.9062 724.59375 C 1280.9062 721.84181 1283.0075 719.55316 1285.6875 719.28125 z M 1321.6562 719.28125 L 1357.0938 719.28125 L 1357.0938 729.90625 L 1321.6562 729.90625 L 1321.6562 719.28125 z M 1392.5 719.28125 L 1427.9375 719.28125 L 1427.9375 729.90625 L 1392.5 729.90625 L 1392.5 719.28125 z M 1462.8438 719.28125 C 1463.0222 719.26315 1463.1915 719.28125 1463.375 719.28125 C 1466.3104 719.28125 1468.6875 721.65835 1468.6875 724.59375 C 1468.6875 727.52905 1466.3104 729.9375 1463.375 729.9375 C 1460.4396 729.9375 1458.0625 727.52905 1458.0625 724.59375 C 1458.0625 721.84181 1460.1636 719.55316 1462.8438 719.28125 z M 1286.2188 737 L 1318.125 737.03125 L 1321.6875 740.5625 L 1321.6875 747.65625 L 1427.9688 747.65625 L 1427.9688 740.5625 L 1431.5312 737.03125 L 1463.375 737 L 1466.9375 740.5625 L 1489.5 740.53125 C 1498.5505 740.53125 1505.9062 751.6141 1505.9062 765.3125 C 1505.9064 779.0109 1498.5505 790.115 1489.5 790.125 L 1466.9375 790.15625 L 1463.375 793.6875 L 1431.5312 793.71875 L 1427.9688 790.1875 L 1427.9688 783.09375 L 1321.6875 783.09375 L 1321.6875 790.1875 L 1318.125 793.71875 L 1286.2188 793.6875 L 1282.6875 790.15625 L 1260.0938 790.125 C 1251.043 790.125 1243.6875 779.0109 1243.6875 765.3125 C 1243.6875 751.6141 1251.043 740.52625 1260.0938 740.53125 L 1282.6875 740.5625 L 1286.2188 737 z M 1516.5625 742.28125 C 1519.4979 742.28125 1521.875 744.6897 1521.875 747.625 C 1521.875 750.5604 1519.4979 752.9375 1516.5625 752.9375 C 1513.6271 752.9375 1511.25 750.5604 1511.25 747.625 C 1511.25 744.6897 1513.6271 742.28125 1516.5625 742.28125 z M 1233.0938 742.3125 C 1236.0287 742.3125 1238.4064 744.72095 1238.4062 747.65625 C 1238.4062 750.59165 1236.0289 752.96875 1233.0938 752.96875 C 1230.1581 752.96875 1227.7814 750.59165 1227.7812 747.65625 C 1227.7812 744.72095 1230.1579 742.3125 1233.0938 742.3125 z M 1181.6875 765.34375 L 1192.3125 765.34375 L 1192.3125 800.78125 L 1181.6875 800.78125 L 1181.6875 765.34375 z M 1557.3125 765.34375 L 1567.9375 765.34375 L 1567.9375 800.78125 L 1557.3125 800.78125 L 1557.3125 765.34375 z M 1516.5312 777.71875 C 1519.4667 777.71875 1521.875 780.12718 1521.875 783.0625 C 1521.875 785.9979 1519.4667 788.375 1516.5312 788.375 C 1513.5958 788.375 1511.2186 785.9979 1511.2188 783.0625 C 1511.2188 780.12718 1513.5959 777.71875 1516.5312 777.71875 z M 1162.2188 777.75 C 1165.1537 777.75 1167.5314 780.1272 1167.5312 783.0625 C 1167.5312 785.9979 1165.1538 788.375 1162.2188 788.375 C 1159.2831 788.375 1156.9064 785.9979 1156.9062 783.0625 C 1156.9062 780.1272 1159.2829 777.75 1162.2188 777.75 z M 1233.125 777.75 C 1236.0604 777.75 1238.4375 780.15843 1238.4375 783.09375 C 1238.4375 786.02915 1236.0604 788.40625 1233.125 788.40625 C 1230.1896 788.40625 1227.7814 786.02915 1227.7812 783.09375 C 1227.7812 780.15843 1230.1896 777.75 1233.125 777.75 z M 1587.4375 777.75 C 1590.3729 777.75 1592.75 780.1272 1592.75 783.0625 C 1592.75 785.9979 1590.3729 788.375 1587.4375 788.375 C 1584.5021 788.375 1582.125 785.9979 1582.125 783.0625 C 1582.125 780.1272 1584.5021 777.75 1587.4375 777.75 z M 1321.6562 800.75 L 1427.9688 800.75 L 1427.9688 811.375 L 1321.6562 811.375 L 1321.6562 800.75 z M 1481.0938 813.15625 C 1484.0291 813.15625 1486.4375 815.53335 1486.4375 818.46875 C 1486.4375 821.40405 1484.0288 823.78125 1481.0938 823.78125 C 1478.1582 823.78125 1475.7814 821.40405 1475.7812 818.46875 C 1475.7812 815.53335 1478.1581 813.15625 1481.0938 813.15625 z M 1133.875 813.1875 L 1169.3125 813.1875 L 1169.3125 823.8125 L 1133.875 823.8125 L 1133.875 813.1875 z M 1204.7188 813.1875 L 1240.1562 813.1875 L 1240.1562 823.8125 L 1204.7188 823.8125 L 1204.7188 813.1875 z M 1268.5625 813.1875 C 1271.4978 813.1875 1273.875 815.5646 1273.875 818.5 C 1273.875 821.4353 1271.4978 823.8125 1268.5625 823.8125 C 1265.6271 823.8125 1263.2188 821.4353 1263.2188 818.5 C 1263.2188 815.5646 1265.6271 813.1875 1268.5625 813.1875 z M 1509.4688 813.1875 L 1544.9062 813.1875 L 1544.9062 823.8125 L 1509.4688 823.8125 L 1509.4688 813.1875 z M 1580.3125 813.1875 L 1615.75 813.1875 L 1615.75 823.8125 L 1580.3125 823.8125 L 1580.3125 813.1875 z M 1303.9375 820.28125 L 1321.6562 820.28125 L 1321.6562 830.90625 L 1303.9375 830.90625 L 1303.9375 820.28125 z M 1427.9688 820.28125 L 1445.6875 820.28125 L 1445.6875 830.90625 L 1427.9688 830.90625 L 1427.9688 820.28125 z M 1181.6875 836.21875 L 1192.3125 836.21875 L 1192.3125 871.65625 L 1181.6875 871.65625 L 1181.6875 836.21875 z M 1557.3125 836.21875 L 1567.9375 836.21875 L 1567.9375 871.65625 L 1557.3125 871.65625 L 1557.3125 836.21875 z M 1303.4062 848.59375 C 1303.5849 848.57575 1303.7851 848.59375 1303.9688 848.59375 C 1306.904 848.59375 1309.2814 850.97095 1309.2812 853.90625 C 1309.2812 856.84165 1306.9039 859.21875 1303.9688 859.21875 C 1301.0332 859.21875 1298.6564 856.84165 1298.6562 853.90625 C 1298.6562 851.15445 1300.7267 848.86565 1303.4062 848.59375 z M 1445.125 848.59375 C 1445.3037 848.57575 1445.504 848.59375 1445.6875 848.59375 C 1448.6229 848.59375 1451 850.97095 1451 853.90625 C 1451 856.84165 1448.6229 859.21875 1445.6875 859.21875 C 1442.7522 859.21875 1440.375 856.84165 1440.375 853.90625 C 1440.375 851.15445 1442.4452 848.86565 1445.125 848.59375 z M 1481.0938 848.59375 C 1484.0291 848.59375 1486.4375 850.97095 1486.4375 853.90625 C 1486.4375 856.84165 1484.0288 859.21875 1481.0938 859.21875 C 1478.1582 859.21875 1475.7814 856.84165 1475.7812 853.90625 C 1475.7812 850.97095 1478.1581 848.59375 1481.0938 848.59375 z M 1622.8438 848.59375 C 1625.7791 848.59375 1628.1564 850.97085 1628.1562 853.90625 C 1628.1562 856.84155 1625.7789 859.21875 1622.8438 859.21875 C 1619.9082 859.21875 1617.5314 856.84155 1617.5312 853.90625 C 1617.5312 850.97085 1619.9081 848.59375 1622.8438 848.59375 z M 1126.7812 848.625 C 1129.7169 848.625 1132.0936 851.0021 1132.0938 853.9375 C 1132.0938 856.8728 1129.7171 859.25 1126.7812 859.25 C 1123.846 859.25 1121.4686 856.8728 1121.4688 853.9375 C 1121.4688 851.0021 1123.8461 848.625 1126.7812 848.625 z M 1162.2188 848.625 C 1165.1537 848.625 1167.5314 851.0022 1167.5312 853.9375 C 1167.5312 856.8729 1165.1538 859.25 1162.2188 859.25 C 1159.2831 859.25 1156.9064 856.8729 1156.9062 853.9375 C 1156.9062 851.0022 1159.2829 848.625 1162.2188 848.625 z M 1233.0938 848.625 C 1236.0287 848.625 1238.4064 851.0022 1238.4062 853.9375 C 1238.4062 856.8729 1236.0288 859.25 1233.0938 859.25 C 1230.1581 859.25 1227.7814 856.8729 1227.7812 853.9375 C 1227.7812 851.0022 1230.1579 848.625 1233.0938 848.625 z M 1268.5625 848.625 C 1271.4978 848.625 1273.875 851.0022 1273.875 853.9375 C 1273.875 856.8729 1271.4978 859.25 1268.5625 859.25 C 1265.6271 859.25 1263.2188 856.8729 1263.2188 853.9375 C 1263.2188 851.0022 1265.6271 848.625 1268.5625 848.625 z M 1516.5625 848.625 C 1519.4979 848.625 1521.875 851.0022 1521.875 853.9375 C 1521.875 856.8729 1519.4979 859.25 1516.5625 859.25 C 1513.6271 859.25 1511.25 856.8729 1511.25 853.9375 C 1511.25 851.0022 1513.6271 848.625 1516.5625 848.625 z M 1587.4375 848.625 C 1590.3729 848.625 1592.75 851.0022 1592.75 853.9375 C 1592.75 856.8729 1590.3729 859.25 1587.4375 859.25 C 1584.5021 859.25 1582.125 856.8729 1582.125 853.9375 C 1582.125 851.0022 1584.5021 848.625 1587.4375 848.625 z M 1197.6562 884.03125 C 1200.5919 884.03125 1202.9686 886.43963 1202.9688 889.375 C 1202.9688 892.31037 1200.5919 894.6875 1197.6562 894.6875 C 1194.7211 894.6875 1192.3436 892.31037 1192.3438 889.375 C 1192.3438 886.43963 1194.7212 884.03125 1197.6562 884.03125 z M 1303.375 884.03125 C 1303.5537 884.01325 1303.754 884.03125 1303.9375 884.03125 C 1306.8729 884.03125 1309.2814 886.40835 1309.2812 889.34375 C 1309.2812 892.27905 1306.8729 894.65635 1303.9375 894.65625 C 1301.0021 894.65625 1298.625 892.27895 1298.625 889.34375 C 1298.625 886.59185 1300.6952 884.30315 1303.375 884.03125 z M 1445.125 884.03125 C 1445.3037 884.01325 1445.504 884.03125 1445.6875 884.03125 C 1448.6229 884.03125 1451 886.40835 1451 889.34375 C 1451 892.27905 1448.6229 894.65635 1445.6875 894.65625 C 1442.7522 894.65625 1440.375 892.27895 1440.375 889.34375 C 1440.375 886.59185 1442.4452 884.30315 1445.125 884.03125 z M 1481.0938 884.03125 C 1484.0291 884.03125 1486.4375 886.40845 1486.4375 889.34375 C 1486.4375 892.27905 1484.0288 894.65635 1481.0938 894.65625 C 1478.1582 894.65625 1475.7814 892.27895 1475.7812 889.34375 C 1475.7812 886.40845 1478.1581 884.03135 1481.0938 884.03125 z M 1516.5312 884.03125 C 1519.4667 884.03125 1521.875 886.40845 1521.875 889.34375 C 1521.875 892.27905 1519.4667 894.65635 1516.5312 894.65625 C 1513.5958 894.65625 1511.2186 892.27895 1511.2188 889.34375 C 1511.2188 886.40845 1513.5959 884.03135 1516.5312 884.03125 z M 1552 884.03125 C 1554.9354 884.03125 1557.3125 886.43963 1557.3125 889.375 C 1557.3125 892.31037 1554.9354 894.6875 1552 894.6875 C 1549.0646 894.6875 1546.6875 892.31037 1546.6875 889.375 C 1546.6875 886.43963 1549.0646 884.03125 1552 884.03125 z M 1587.4062 884.03125 C 1590.3417 884.03125 1592.7186 886.40845 1592.7188 889.34375 C 1592.7188 892.27905 1590.3418 894.65635 1587.4062 894.65625 C 1584.4708 894.65625 1582.0936 892.27895 1582.0938 889.34375 C 1582.0938 886.40845 1584.4709 884.03135 1587.4062 884.03125 z M 1622.8438 884.03125 C 1625.7791 884.03125 1628.1564 886.40845 1628.1562 889.34375 C 1628.1562 892.27905 1625.7789 894.65635 1622.8438 894.65625 C 1619.9082 894.65625 1617.5314 892.27895 1617.5312 889.34375 C 1617.5312 886.40845 1619.9081 884.03135 1622.8438 884.03125 z M 1126.7812 884.0625 C 1129.7169 884.0625 1132.0936 886.4397 1132.0938 889.375 C 1132.0938 892.3104 1129.7171 894.6875 1126.7812 894.6875 C 1123.846 894.6875 1121.4686 892.3104 1121.4688 889.375 C 1121.4688 886.4397 1123.8461 884.0625 1126.7812 884.0625 z M 1162.2188 884.0625 C 1165.154 884.0625 1167.5314 886.4397 1167.5312 889.375 C 1167.5312 892.3104 1165.1539 894.6875 1162.2188 894.6875 C 1159.2831 894.6875 1156.9064 892.3104 1156.9062 889.375 C 1156.9062 886.4397 1159.2829 884.0625 1162.2188 884.0625 z M 1233.125 884.0625 C 1236.0604 884.0625 1238.4375 886.4397 1238.4375 889.375 C 1238.4375 892.3104 1236.0604 894.6875 1233.125 894.6875 C 1230.1896 894.6875 1227.7814 892.3104 1227.7812 889.375 C 1227.7812 886.4397 1230.1896 884.0625 1233.125 884.0625 z M 1268.5625 884.0625 C 1271.4978 884.0625 1273.875 886.4397 1273.875 889.375 C 1273.875 892.3104 1271.4978 894.6875 1268.5625 894.6875 C 1265.6271 894.6875 1263.2188 892.3104 1263.2188 889.375 C 1263.2188 886.4397 1265.6271 884.0625 1268.5625 884.0625 z M 1660.0625 889.34375 L 1670.6875 889.34375 L 1670.6875 924.78125 L 1660.0625 924.78125 L 1660.0625 889.34375 z M 1078.9688 889.40625 L 1089.5938 889.40625 L 1089.5938 924.84375 L 1078.9688 924.84375 L 1078.9688 889.40625 z M 1481.125 919.40625 C 1484.0604 919.40625 1486.4375 921.8147 1486.4375 924.75 C 1486.4375 927.6854 1484.0604 930.0625 1481.125 930.0625 C 1478.1896 930.0625 1475.8125 927.6854 1475.8125 924.75 C 1475.8125 921.8147 1478.1896 919.40625 1481.125 919.40625 z M 1516.5312 919.40625 C 1519.4667 919.40625 1521.875 921.8147 1521.875 924.75 C 1521.875 927.6854 1519.4667 930.0625 1516.5312 930.0625 C 1513.5958 930.0625 1511.2186 927.6854 1511.2188 924.75 C 1511.2188 921.8147 1513.5959 919.40625 1516.5312 919.40625 z M 1551.9688 919.40625 C 1554.9041 919.40625 1557.2814 921.8147 1557.2812 924.75 C 1557.2812 927.6854 1554.9039 930.0625 1551.9688 930.0625 C 1549.0332 930.0625 1546.6564 927.6854 1546.6562 924.75 C 1546.6562 921.8147 1549.0331 919.40625 1551.9688 919.40625 z M 1587.4062 919.40625 C 1590.3417 919.40625 1592.7186 921.8147 1592.7188 924.75 C 1592.7188 927.6854 1590.3418 930.0625 1587.4062 930.0625 C 1584.4708 930.0625 1582.0936 927.6854 1582.0938 924.75 C 1582.0938 921.8147 1584.4709 919.40625 1587.4062 919.40625 z M 1622.8438 919.40625 C 1625.7791 919.40625 1628.1564 921.8147 1628.1562 924.75 C 1628.1562 927.6854 1625.7789 930.0625 1622.8438 930.0625 C 1619.9082 930.0625 1617.5314 927.6854 1617.5312 924.75 C 1617.5312 921.8147 1619.9081 919.40625 1622.8438 919.40625 z M 1126.8125 919.46875 C 1129.7478 919.46875 1132.125 921.8772 1132.125 924.8125 C 1132.125 927.7479 1129.7478 930.125 1126.8125 930.125 C 1123.8771 930.125 1121.5 927.7479 1121.5 924.8125 C 1121.5 921.8772 1123.8771 919.46875 1126.8125 919.46875 z M 1162.25 919.46875 C 1165.1853 919.46875 1167.5625 921.8772 1167.5625 924.8125 C 1167.5625 927.7479 1165.1853 930.125 1162.25 930.125 C 1159.3146 930.125 1156.9375 927.7479 1156.9375 924.8125 C 1156.9375 921.8772 1159.3146 919.46875 1162.25 919.46875 z M 1197.6875 919.46875 C 1200.6228 919.46875 1203 921.8772 1203 924.8125 C 1203 927.7479 1200.6228 930.125 1197.6875 930.125 C 1194.7521 930.125 1192.375 927.7479 1192.375 924.8125 C 1192.375 921.8772 1194.7521 919.46875 1197.6875 919.46875 z M 1233.125 919.46875 C 1236.0603 919.46875 1238.4375 921.8772 1238.4375 924.8125 C 1238.4375 927.7479 1236.0603 930.125 1233.125 930.125 C 1230.1896 930.125 1227.7814 927.7479 1227.7812 924.8125 C 1227.7812 921.8772 1230.1896 919.46875 1233.125 919.46875 z M 1268.5312 919.46875 C 1271.4669 919.46875 1273.8436 921.8772 1273.8438 924.8125 C 1273.8438 927.7479 1271.4671 930.125 1268.5312 930.125 C 1265.5963 930.125 1263.2186 927.7479 1263.2188 924.8125 C 1263.2188 921.8772 1265.5961 919.46875 1268.5312 919.46875 z M 1321.6562 928.3125 L 1427.9688 928.3125 L 1427.9688 938.9375 L 1321.6562 938.9375 L 1321.6562 928.3125 z M 1445.6875 954.84375 C 1448.6229 954.84375 1451 957.22095 1451 960.15625 C 1451 963.09165 1448.6229 965.46875 1445.6875 965.46875 C 1442.7521 965.46875 1440.375 963.09175 1440.375 960.15625 C 1440.375 957.22095 1442.7521 954.84375 1445.6875 954.84375 z M 1481.125 954.84375 C 1484.0604 954.84375 1486.4375 957.22095 1486.4375 960.15625 C 1486.4375 963.09165 1484.0604 965.46875 1481.125 965.46875 C 1478.1896 965.46875 1475.8125 963.09175 1475.8125 960.15625 C 1475.8125 957.22095 1478.1896 954.84375 1481.125 954.84375 z M 1516.5312 954.84375 C 1519.4667 954.84375 1521.875 957.22095 1521.875 960.15625 C 1521.875 963.09165 1519.4667 965.46875 1516.5312 965.46875 C 1513.5958 965.46875 1511.2186 963.09175 1511.2188 960.15625 C 1511.2188 957.22095 1513.5959 954.84375 1516.5312 954.84375 z M 1551.9688 954.84375 C 1554.9041 954.84375 1557.2814 957.22095 1557.2812 960.15625 C 1557.2812 963.09165 1554.9039 965.46875 1551.9688 965.46875 C 1549.0332 965.46875 1546.6564 963.09175 1546.6562 960.15625 C 1546.6562 957.22095 1549.0331 954.84375 1551.9688 954.84375 z M 1587.4062 954.84375 C 1590.3417 954.84375 1592.7186 957.22095 1592.7188 960.15625 C 1592.7188 963.09165 1590.3418 965.46875 1587.4062 965.46875 C 1584.4708 965.46875 1582.0936 963.09175 1582.0938 960.15625 C 1582.0938 957.22095 1584.4709 954.84375 1587.4062 954.84375 z M 1622.8438 954.84375 C 1625.7791 954.84375 1628.1564 957.22095 1628.1562 960.15625 C 1628.1562 963.09165 1625.7789 965.46875 1622.8438 965.46875 C 1619.9082 965.46875 1617.5314 963.09175 1617.5312 960.15625 C 1617.5312 957.22095 1619.9081 954.84375 1622.8438 954.84375 z M 1126.8125 954.90625 C 1129.7478 954.90625 1132.125 957.28315 1132.125 960.21875 C 1132.125 963.15395 1129.7478 965.53125 1126.8125 965.53125 C 1123.8771 965.53125 1121.5 963.15395 1121.5 960.21875 C 1121.5 957.28315 1123.8771 954.90625 1126.8125 954.90625 z M 1162.25 954.90625 C 1165.1853 954.90625 1167.5625 957.28315 1167.5625 960.21875 C 1167.5625 963.15395 1165.1853 965.53125 1162.25 965.53125 C 1159.3146 965.53125 1156.9375 963.15395 1156.9375 960.21875 C 1156.9375 957.28315 1159.3146 954.90625 1162.25 954.90625 z M 1197.6875 954.90625 C 1200.6228 954.90625 1203 957.28315 1203 960.21875 C 1203 963.15395 1200.6228 965.53125 1197.6875 965.53125 C 1194.7521 965.53125 1192.375 963.15395 1192.375 960.21875 C 1192.375 957.28315 1194.7521 954.90625 1197.6875 954.90625 z M 1233.125 954.90625 C 1236.0603 954.90625 1238.4375 957.28315 1238.4375 960.21875 C 1238.4375 963.15395 1236.0603 965.53125 1233.125 965.53125 C 1230.1896 965.53125 1227.7814 963.15395 1227.7812 960.21875 C 1227.7812 957.28315 1230.1896 954.90625 1233.125 954.90625 z M 1268.5312 954.90625 C 1271.4669 954.90625 1273.8436 957.28315 1273.8438 960.21875 C 1273.8438 963.15395 1271.4671 965.53125 1268.5312 965.53125 C 1265.5963 965.53125 1263.2186 963.15395 1263.2188 960.21875 C 1263.2188 957.28315 1265.5961 954.90625 1268.5312 954.90625 z M 1303.9688 954.90625 C 1306.904 954.90625 1309.2814 957.28315 1309.2812 960.21875 C 1309.2812 963.15395 1306.9039 965.53125 1303.9688 965.53125 C 1301.0331 965.53125 1298.6564 963.15395 1298.6562 960.21875 C 1298.6564 957.28315 1301.0331 954.90625 1303.9688 954.90625 z M 1660.0625 960.21875 L 1670.6875 960.21875 L 1670.6875 995.65625 L 1660.0625 995.65625 L 1660.0625 960.21875 z M 1078.9688 960.25 L 1089.5938 960.25 L 1089.5938 995.6875 L 1078.9688 995.6875 L 1078.9688 960.25 z M 1357.0938 977.90625 C 1357.3942 977.90625 1357.7012 977.9276 1358 977.9375 L 1391.625 977.9375 C 1391.9289 977.9275 1392.2256 977.90625 1392.5312 977.90625 C 1412.1003 977.90645 1427.9686 993.7745 1427.9688 1013.3438 C 1427.9688 1032.9126 1412.1005 1048.7812 1392.5312 1048.7812 L 1357.0938 1048.7812 C 1337.5245 1048.7814 1321.6564 1032.9126 1321.6562 1013.3438 C 1321.6562 993.7745 1337.5244 977.90625 1357.0938 977.90625 z M 1445.6875 990.28125 C 1448.6229 990.28125 1451 992.65825 1451 995.59375 C 1451 998.52905 1448.6229 1000.9063 1445.6875 1000.9062 C 1442.7521 1000.9062 1440.375 998.52905 1440.375 995.59375 C 1440.375 992.65835 1442.7521 990.28125 1445.6875 990.28125 z M 1481.125 990.28125 C 1484.0604 990.28125 1486.4375 992.65825 1486.4375 995.59375 C 1486.4375 998.52905 1484.0604 1000.9063 1481.125 1000.9062 C 1478.1896 1000.9062 1475.8125 998.52905 1475.8125 995.59375 C 1475.8125 992.65835 1478.1896 990.28125 1481.125 990.28125 z M 1516.5312 990.28125 C 1519.4667 990.28125 1521.875 992.65825 1521.875 995.59375 C 1521.875 998.52905 1519.4667 1000.9063 1516.5312 1000.9062 C 1513.5958 1000.9062 1511.2186 998.52905 1511.2188 995.59375 C 1511.2188 992.65835 1513.5959 990.28125 1516.5312 990.28125 z M 1551.9688 990.28125 C 1554.9041 990.28125 1557.2814 992.65825 1557.2812 995.59375 C 1557.2812 998.52905 1554.9039 1000.9063 1551.9688 1000.9062 C 1549.0332 1000.9062 1546.6564 998.52905 1546.6562 995.59375 C 1546.6562 992.65835 1549.0331 990.28125 1551.9688 990.28125 z M 1587.4062 990.28125 C 1590.3417 990.28125 1592.7186 992.65825 1592.7188 995.59375 C 1592.7188 998.52905 1590.3418 1000.9063 1587.4062 1000.9062 C 1584.4708 1000.9062 1582.0936 998.52905 1582.0938 995.59375 C 1582.0938 992.65835 1584.4709 990.28125 1587.4062 990.28125 z M 1622.8438 990.28125 C 1625.7791 990.28125 1628.1564 992.65825 1628.1562 995.59375 C 1628.1562 998.52905 1625.7789 1000.9063 1622.8438 1000.9062 C 1619.9082 1000.9062 1617.5314 998.52905 1617.5312 995.59375 C 1617.5312 992.65835 1619.9081 990.28125 1622.8438 990.28125 z M 1126.8125 990.34375 C 1129.7478 990.34375 1132.125 992.72105 1132.125 995.65625 C 1132.125 998.59185 1129.7478 1000.9687 1126.8125 1000.9688 C 1123.8771 1000.9688 1121.5 998.59185 1121.5 995.65625 C 1121.5 992.72105 1123.8771 990.34375 1126.8125 990.34375 z M 1162.25 990.34375 C 1165.1853 990.34375 1167.5625 992.72105 1167.5625 995.65625 C 1167.5625 998.59185 1165.1853 1000.9687 1162.25 1000.9688 C 1159.3146 1000.9688 1156.9375 998.59185 1156.9375 995.65625 C 1156.9375 992.72105 1159.3146 990.34375 1162.25 990.34375 z M 1197.6875 990.34375 C 1200.6228 990.34375 1203 992.72105 1203 995.65625 C 1203 998.59185 1200.6228 1000.9687 1197.6875 1000.9688 C 1194.7521 1000.9688 1192.375 998.59185 1192.375 995.65625 C 1192.375 992.72105 1194.7521 990.34375 1197.6875 990.34375 z M 1233.125 990.34375 C 1236.0603 990.34375 1238.4375 992.72105 1238.4375 995.65625 C 1238.4375 998.59185 1236.0603 1000.9687 1233.125 1000.9688 C 1230.1896 1000.9688 1227.7814 998.59185 1227.7812 995.65625 C 1227.7812 992.72105 1230.1896 990.34375 1233.125 990.34375 z M 1268.5312 990.34375 C 1271.4669 990.34375 1273.8436 992.72105 1273.8438 995.65625 C 1273.8438 998.59185 1271.4671 1000.9687 1268.5312 1000.9688 C 1265.5963 1000.9688 1263.2186 998.59185 1263.2188 995.65625 C 1263.2188 992.72105 1265.5961 990.34375 1268.5312 990.34375 z M 1303.9688 990.34375 C 1306.904 990.34375 1309.2814 992.72105 1309.2812 995.65625 C 1309.2812 998.59185 1306.9039 1000.9687 1303.9688 1000.9688 C 1301.0331 1000.9688 1298.6564 998.59185 1298.6562 995.65625 C 1298.6564 992.72105 1301.0331 990.34375 1303.9688 990.34375 z M 1445.6875 1025.7188 C 1448.6229 1025.7188 1451 1028.0961 1451 1031.0312 C 1451 1033.9669 1448.6229 1036.3438 1445.6875 1036.3438 C 1442.7521 1036.3438 1440.375 1033.9669 1440.375 1031.0312 C 1440.375 1028.0961 1442.7521 1025.7188 1445.6875 1025.7188 z M 1481.125 1025.7188 C 1484.0604 1025.7188 1486.4375 1028.0961 1486.4375 1031.0312 C 1486.4375 1033.9669 1484.0604 1036.3438 1481.125 1036.3438 C 1478.1896 1036.3438 1475.8125 1033.9669 1475.8125 1031.0312 C 1475.8125 1028.0961 1478.1896 1025.7188 1481.125 1025.7188 z M 1516.5312 1025.7188 C 1519.4667 1025.7188 1521.875 1028.0961 1521.875 1031.0312 C 1521.875 1033.9669 1519.4667 1036.3438 1516.5312 1036.3438 C 1513.5958 1036.3438 1511.2186 1033.9669 1511.2188 1031.0312 C 1511.2188 1028.0961 1513.5959 1025.7188 1516.5312 1025.7188 z M 1551.9688 1025.7188 C 1554.9041 1025.7188 1557.2814 1028.0961 1557.2812 1031.0312 C 1557.2812 1033.9669 1554.9039 1036.3438 1551.9688 1036.3438 C 1549.0332 1036.3438 1546.6564 1033.9669 1546.6562 1031.0312 C 1546.6562 1028.0961 1549.0331 1025.7188 1551.9688 1025.7188 z M 1587.4062 1025.7188 C 1590.3417 1025.7188 1592.7186 1028.0961 1592.7188 1031.0312 C 1592.7188 1033.9669 1590.3418 1036.3438 1587.4062 1036.3438 C 1584.4708 1036.3438 1582.0936 1033.9669 1582.0938 1031.0312 C 1582.0938 1028.0961 1584.4709 1025.7188 1587.4062 1025.7188 z M 1622.8438 1025.7188 C 1625.7791 1025.7188 1628.1564 1028.0961 1628.1562 1031.0312 C 1628.1562 1033.9669 1625.7789 1036.3438 1622.8438 1036.3438 C 1619.9082 1036.3438 1617.5314 1033.9669 1617.5312 1031.0312 C 1617.5312 1028.0961 1619.9081 1025.7188 1622.8438 1025.7188 z M 1126.8125 1025.7812 C 1129.7478 1025.7812 1132.125 1028.1581 1132.125 1031.0938 C 1132.125 1034.029 1129.7478 1036.4062 1126.8125 1036.4062 C 1123.8771 1036.4062 1121.5 1034.029 1121.5 1031.0938 C 1121.5 1028.1584 1123.8771 1025.7812 1126.8125 1025.7812 z M 1162.25 1025.7812 C 1165.1853 1025.7812 1167.5625 1028.1581 1167.5625 1031.0938 C 1167.5625 1034.029 1165.1853 1036.4062 1162.25 1036.4062 C 1159.3146 1036.4062 1156.9375 1034.029 1156.9375 1031.0938 C 1156.9375 1028.1584 1159.3146 1025.7812 1162.25 1025.7812 z M 1197.6875 1025.7812 C 1200.6228 1025.7812 1203 1028.1581 1203 1031.0938 C 1203 1034.029 1200.6228 1036.4062 1197.6875 1036.4062 C 1194.7521 1036.4062 1192.375 1034.029 1192.375 1031.0938 C 1192.375 1028.1584 1194.7521 1025.7812 1197.6875 1025.7812 z M 1233.125 1025.7812 C 1236.0603 1025.7812 1238.4375 1028.1581 1238.4375 1031.0938 C 1238.4375 1034.029 1236.0603 1036.4062 1233.125 1036.4062 C 1230.1896 1036.4062 1227.7814 1034.029 1227.7812 1031.0938 C 1227.7812 1028.1584 1230.1896 1025.7812 1233.125 1025.7812 z M 1268.5312 1025.7812 C 1271.4669 1025.7812 1273.8436 1028.1581 1273.8438 1031.0938 C 1273.8438 1034.029 1271.4671 1036.4062 1268.5312 1036.4062 C 1265.5963 1036.4062 1263.2186 1034.029 1263.2188 1031.0938 C 1263.2188 1028.1584 1265.5961 1025.7812 1268.5312 1025.7812 z M 1303.9688 1025.7812 C 1306.904 1025.7812 1309.2814 1028.1581 1309.2812 1031.0938 C 1309.2812 1034.029 1306.9039 1036.4062 1303.9688 1036.4062 C 1301.0331 1036.4062 1298.6564 1034.029 1298.6562 1031.0938 C 1298.6564 1028.1584 1301.0331 1025.7812 1303.9688 1025.7812 z M 1660.0625 1031.0938 L 1670.6875 1031.0938 L 1670.6875 1066.5312 L 1660.0625 1066.5312 L 1660.0625 1031.0938 z M 1078.9688 1031.125 L 1089.5938 1031.125 L 1089.5938 1066.5625 L 1078.9688 1066.5625 L 1078.9688 1031.125 z M 1445.6875 1061.1562 C 1448.6229 1061.1562 1451 1063.5332 1451 1066.4688 C 1451 1069.404 1448.6229 1071.7812 1445.6875 1071.7812 C 1442.7521 1071.7812 1440.375 1069.404 1440.375 1066.4688 C 1440.375 1063.5334 1442.7521 1061.1564 1445.6875 1061.1562 z M 1481.125 1061.1562 C 1484.0604 1061.1562 1486.4375 1063.5332 1486.4375 1066.4688 C 1486.4375 1069.404 1484.0604 1071.7812 1481.125 1071.7812 C 1478.1896 1071.7812 1475.8125 1069.404 1475.8125 1066.4688 C 1475.8125 1063.5334 1478.1896 1061.1564 1481.125 1061.1562 z M 1516.5312 1061.1562 C 1519.4667 1061.1562 1521.875 1063.5332 1521.875 1066.4688 C 1521.875 1069.404 1519.4667 1071.7812 1516.5312 1071.7812 C 1513.5958 1071.7812 1511.2186 1069.404 1511.2188 1066.4688 C 1511.2188 1063.5334 1513.5959 1061.1564 1516.5312 1061.1562 z M 1551.9688 1061.1562 C 1554.9041 1061.1562 1557.2814 1063.5332 1557.2812 1066.4688 C 1557.2812 1069.404 1554.9039 1071.7812 1551.9688 1071.7812 C 1549.0332 1071.7812 1546.6564 1069.404 1546.6562 1066.4688 C 1546.6562 1063.5334 1549.0331 1061.1564 1551.9688 1061.1562 z M 1587.4062 1061.1562 C 1590.3417 1061.1562 1592.7186 1063.5332 1592.7188 1066.4688 C 1592.7188 1069.404 1590.3418 1071.7812 1587.4062 1071.7812 C 1584.4708 1071.7812 1582.0936 1069.404 1582.0938 1066.4688 C 1582.0938 1063.5334 1584.4709 1061.1564 1587.4062 1061.1562 z M 1622.8438 1061.1562 C 1625.7791 1061.1562 1628.1564 1063.5332 1628.1562 1066.4688 C 1628.1562 1069.404 1625.7789 1071.7812 1622.8438 1071.7812 C 1619.9082 1071.7812 1617.5314 1069.404 1617.5312 1066.4688 C 1617.5312 1063.5334 1619.9081 1061.1564 1622.8438 1061.1562 z M 1126.8125 1061.2188 C 1129.7478 1061.2188 1132.125 1063.5962 1132.125 1066.5312 C 1132.125 1069.4669 1129.7478 1071.8438 1126.8125 1071.8438 C 1123.8771 1071.8438 1121.5 1069.4669 1121.5 1066.5312 C 1121.5 1063.5961 1123.8771 1061.2186 1126.8125 1061.2188 z M 1162.25 1061.2188 C 1165.1853 1061.2188 1167.5625 1063.5962 1167.5625 1066.5312 C 1167.5625 1069.4669 1165.1853 1071.8438 1162.25 1071.8438 C 1159.3146 1071.8438 1156.9375 1069.4669 1156.9375 1066.5312 C 1156.9375 1063.5961 1159.3146 1061.2186 1162.25 1061.2188 z M 1197.6875 1061.2188 C 1200.6228 1061.2188 1203 1063.5962 1203 1066.5312 C 1203 1069.4669 1200.6228 1071.8438 1197.6875 1071.8438 C 1194.7521 1071.8438 1192.375 1069.4669 1192.375 1066.5312 C 1192.375 1063.5961 1194.7521 1061.2186 1197.6875 1061.2188 z M 1233.125 1061.2188 C 1236.0603 1061.2188 1238.4375 1063.5962 1238.4375 1066.5312 C 1238.4375 1069.4669 1236.0603 1071.8438 1233.125 1071.8438 C 1230.1896 1071.8438 1227.7814 1069.4669 1227.7812 1066.5312 C 1227.7812 1063.5961 1230.1896 1061.2186 1233.125 1061.2188 z M 1268.5312 1061.2188 C 1271.4669 1061.2188 1273.8436 1063.5962 1273.8438 1066.5312 C 1273.8438 1069.4669 1271.4671 1071.8438 1268.5312 1071.8438 C 1265.5963 1071.8438 1263.2186 1069.4669 1263.2188 1066.5312 C 1263.2188 1063.5961 1265.5961 1061.2186 1268.5312 1061.2188 z M 1303.9688 1061.2188 C 1306.904 1061.2188 1309.2814 1063.5962 1309.2812 1066.5312 C 1309.2812 1069.4669 1306.9039 1071.8438 1303.9688 1071.8438 C 1301.0331 1071.8438 1298.6564 1069.4669 1298.6562 1066.5312 C 1298.6564 1063.5961 1301.0331 1061.2186 1303.9688 1061.2188 z M 1321.6562 1087.75 L 1427.9688 1087.75 L 1427.9688 1098.375 L 1321.6562 1098.375 L 1321.6562 1087.75 z M 1481.125 1096.5938 C 1484.0604 1096.5938 1486.4375 1098.9712 1486.4375 1101.9062 C 1486.4375 1104.8419 1484.0604 1107.2188 1481.125 1107.2188 C 1478.1896 1107.2188 1475.8125 1104.8419 1475.8125 1101.9062 C 1475.8125 1098.9711 1478.1896 1096.5938 1481.125 1096.5938 z M 1516.5312 1096.5938 C 1519.4667 1096.5938 1521.875 1098.9712 1521.875 1101.9062 C 1521.875 1104.8419 1519.4667 1107.2188 1516.5312 1107.2188 C 1513.5958 1107.2188 1511.2186 1104.8419 1511.2188 1101.9062 C 1511.2188 1098.9711 1513.5959 1096.5938 1516.5312 1096.5938 z M 1551.9688 1096.5938 C 1554.9041 1096.5938 1557.2814 1098.9712 1557.2812 1101.9062 C 1557.2812 1104.8419 1554.9039 1107.2188 1551.9688 1107.2188 C 1549.0332 1107.2188 1546.6564 1104.8419 1546.6562 1101.9062 C 1546.6562 1098.9711 1549.0331 1096.5938 1551.9688 1096.5938 z M 1587.4062 1096.5938 C 1590.3417 1096.5938 1592.7186 1098.9712 1592.7188 1101.9062 C 1592.7188 1104.8419 1590.3418 1107.2188 1587.4062 1107.2188 C 1584.4708 1107.2188 1582.0936 1104.8419 1582.0938 1101.9062 C 1582.0938 1098.9711 1584.4709 1096.5938 1587.4062 1096.5938 z M 1622.8438 1096.5938 C 1625.7791 1096.5938 1628.1564 1098.9712 1628.1562 1101.9062 C 1628.1562 1104.8419 1625.7789 1107.2188 1622.8438 1107.2188 C 1619.9082 1107.2188 1617.5314 1104.8419 1617.5312 1101.9062 C 1617.5312 1098.9711 1619.9081 1096.5938 1622.8438 1096.5938 z M 1126.8125 1096.6562 C 1129.7478 1096.6562 1132.125 1099.0332 1132.125 1101.9688 C 1132.125 1104.904 1129.7478 1107.2812 1126.8125 1107.2812 C 1123.8771 1107.2812 1121.5 1104.904 1121.5 1101.9688 C 1121.5 1099.0334 1123.8771 1096.6562 1126.8125 1096.6562 z M 1162.25 1096.6562 C 1165.1853 1096.6562 1167.5625 1099.0332 1167.5625 1101.9688 C 1167.5625 1104.904 1165.1853 1107.2812 1162.25 1107.2812 C 1159.3146 1107.2812 1156.9375 1104.904 1156.9375 1101.9688 C 1156.9375 1099.0334 1159.3146 1096.6562 1162.25 1096.6562 z M 1197.6875 1096.6562 C 1200.6228 1096.6562 1203 1099.0332 1203 1101.9688 C 1203 1104.904 1200.6228 1107.2812 1197.6875 1107.2812 C 1194.7521 1107.2812 1192.375 1104.904 1192.375 1101.9688 C 1192.375 1099.0334 1194.7521 1096.6562 1197.6875 1096.6562 z M 1233.125 1096.6562 C 1236.0603 1096.6562 1238.4375 1099.0332 1238.4375 1101.9688 C 1238.4375 1104.904 1236.0603 1107.2812 1233.125 1107.2812 C 1230.1896 1107.2812 1227.7814 1104.904 1227.7812 1101.9688 C 1227.7812 1099.0334 1230.1896 1096.6562 1233.125 1096.6562 z M 1268.5312 1096.6562 C 1271.4669 1096.6562 1273.8436 1099.0332 1273.8438 1101.9688 C 1273.8438 1104.904 1271.4671 1107.2812 1268.5312 1107.2812 C 1265.5963 1107.2812 1263.2186 1104.904 1263.2188 1101.9688 C 1263.2188 1099.0334 1265.5961 1096.6562 1268.5312 1096.6562 z M 1660.0625 1101.9375 L 1670.6875 1101.9375 L 1670.6875 1137.375 L 1660.0625 1137.375 L 1660.0625 1101.9375 z M 1078.9688 1102 L 1089.5938 1102 L 1089.5938 1137.4375 L 1078.9688 1137.4375 L 1078.9688 1102 z M 1197.6562 1132.0625 C 1200.5919 1132.0625 1202.9686 1134.471 1202.9688 1137.4062 C 1202.9688 1140.3418 1200.5919 1142.7188 1197.6562 1142.7188 C 1194.7211 1142.7188 1192.3436 1140.3418 1192.3438 1137.4062 C 1192.3438 1134.471 1194.7212 1132.0625 1197.6562 1132.0625 z M 1303.375 1132.0625 C 1303.5537 1132.0445 1303.754 1132.0625 1303.9375 1132.0625 C 1306.8729 1132.0625 1309.2814 1134.4396 1309.2812 1137.375 C 1309.2812 1140.3104 1306.8729 1142.6875 1303.9375 1142.6875 C 1301.0021 1142.6875 1298.625 1140.3104 1298.625 1137.375 C 1298.625 1134.6232 1300.6952 1132.3343 1303.375 1132.0625 z M 1445.125 1132.0625 C 1445.3037 1132.0445 1445.504 1132.0625 1445.6875 1132.0625 C 1448.6229 1132.0625 1451 1134.4396 1451 1137.375 C 1451 1140.3104 1448.6229 1142.6875 1445.6875 1142.6875 C 1442.7522 1142.6875 1440.375 1140.3104 1440.375 1137.375 C 1440.375 1134.6232 1442.4452 1132.3343 1445.125 1132.0625 z M 1481.0938 1132.0625 C 1484.0291 1132.0625 1486.4375 1134.4396 1486.4375 1137.375 C 1486.4375 1140.3104 1484.0288 1142.6875 1481.0938 1142.6875 C 1478.1582 1142.6875 1475.7814 1140.3104 1475.7812 1137.375 C 1475.7812 1134.4396 1478.1581 1132.0625 1481.0938 1132.0625 z M 1516.5312 1132.0625 C 1519.4667 1132.0625 1521.875 1134.4396 1521.875 1137.375 C 1521.875 1140.3104 1519.4667 1142.6875 1516.5312 1142.6875 C 1513.5958 1142.6875 1511.2186 1140.3104 1511.2188 1137.375 C 1511.2188 1134.4396 1513.5959 1132.0625 1516.5312 1132.0625 z M 1552 1132.0625 C 1554.9354 1132.0625 1557.3125 1134.471 1557.3125 1137.4062 C 1557.3125 1140.3418 1554.9354 1142.7188 1552 1142.7188 C 1549.0646 1142.7188 1546.6875 1140.3418 1546.6875 1137.4062 C 1546.6875 1134.471 1549.0646 1132.0625 1552 1132.0625 z M 1587.4062 1132.0625 C 1590.3417 1132.0625 1592.7186 1134.4396 1592.7188 1137.375 C 1592.7188 1140.3104 1590.3418 1142.6875 1587.4062 1142.6875 C 1584.4708 1142.6875 1582.0936 1140.3104 1582.0938 1137.375 C 1582.0938 1134.4396 1584.4709 1132.0625 1587.4062 1132.0625 z M 1622.8438 1132.0625 C 1625.7791 1132.0625 1628.1564 1134.4396 1628.1562 1137.375 C 1628.1562 1140.3104 1625.7789 1142.6875 1622.8438 1142.6875 C 1619.9082 1142.6875 1617.5314 1140.3104 1617.5312 1137.375 C 1617.5312 1134.4396 1619.9081 1132.0625 1622.8438 1132.0625 z M 1126.7812 1132.0938 C 1129.7169 1132.0938 1132.0936 1134.4712 1132.0938 1137.4062 C 1132.0938 1140.3418 1129.7171 1142.7188 1126.7812 1142.7188 C 1123.846 1142.7188 1121.4686 1140.3419 1121.4688 1137.4062 C 1121.4688 1134.4711 1123.8461 1132.0938 1126.7812 1132.0938 z M 1162.2188 1132.0938 C 1165.154 1132.0938 1167.5314 1134.4712 1167.5312 1137.4062 C 1167.5312 1140.3418 1165.1539 1142.7188 1162.2188 1142.7188 C 1159.2831 1142.7188 1156.9064 1140.3419 1156.9062 1137.4062 C 1156.9062 1134.4711 1159.2829 1132.0938 1162.2188 1132.0938 z M 1233.125 1132.0938 C 1236.0604 1132.0938 1238.4375 1134.4712 1238.4375 1137.4062 C 1238.4375 1140.3418 1236.0604 1142.7188 1233.125 1142.7188 C 1230.1896 1142.7188 1227.7814 1140.3419 1227.7812 1137.4062 C 1227.7812 1134.4711 1230.1896 1132.0938 1233.125 1132.0938 z M 1268.5625 1132.0938 C 1271.4978 1132.0938 1273.875 1134.4712 1273.875 1137.4062 C 1273.875 1140.3418 1271.4978 1142.7188 1268.5625 1142.7188 C 1265.6271 1142.7188 1263.2188 1140.3419 1263.2188 1137.4062 C 1263.2188 1134.4711 1265.6271 1132.0938 1268.5625 1132.0938 z M 1181.6875 1155.125 L 1192.3125 1155.125 L 1192.3125 1190.5625 L 1181.6875 1190.5625 L 1181.6875 1155.125 z M 1557.3125 1155.125 L 1567.9375 1155.125 L 1567.9375 1190.5625 L 1557.3125 1190.5625 L 1557.3125 1155.125 z M 1162.2188 1167.5 C 1165.1536 1167.5 1167.5314 1169.8768 1167.5312 1172.8125 C 1167.5312 1175.7475 1165.1536 1178.125 1162.2188 1178.125 C 1159.2831 1178.125 1156.9064 1175.7475 1156.9062 1172.8125 C 1156.9062 1169.8768 1159.2829 1167.5 1162.2188 1167.5 z M 1233.0938 1167.5 C 1236.0286 1167.5 1238.4064 1169.8768 1238.4062 1172.8125 C 1238.4062 1175.7475 1236.0286 1178.125 1233.0938 1178.125 C 1230.1581 1178.125 1227.7814 1175.7475 1227.7812 1172.8125 C 1227.7812 1169.8768 1230.1579 1167.5 1233.0938 1167.5 z M 1303.4062 1167.5 C 1303.5849 1167.482 1303.7851 1167.5 1303.9688 1167.5 C 1306.9041 1167.5 1309.2814 1169.8772 1309.2812 1172.8125 C 1309.2812 1175.7479 1306.904 1178.125 1303.9688 1178.125 C 1301.0332 1178.125 1298.6564 1175.7479 1298.6562 1172.8125 C 1298.6562 1170.0607 1300.7267 1167.772 1303.4062 1167.5 z M 1445.125 1167.5 C 1445.3037 1167.482 1445.504 1167.5 1445.6875 1167.5 C 1448.6229 1167.5 1451 1169.8772 1451 1172.8125 C 1451 1175.7479 1448.6229 1178.125 1445.6875 1178.125 C 1442.7522 1178.125 1440.375 1175.7479 1440.375 1172.8125 C 1440.375 1170.0607 1442.4452 1167.772 1445.125 1167.5 z M 1481.0938 1167.5 C 1484.0291 1167.5 1486.4375 1169.8771 1486.4375 1172.8125 C 1486.4375 1175.7478 1484.0288 1178.125 1481.0938 1178.125 C 1478.1582 1178.125 1475.7814 1175.7478 1475.7812 1172.8125 C 1475.7812 1169.8771 1478.1581 1167.5 1481.0938 1167.5 z M 1516.5625 1167.5 C 1519.4979 1167.5 1521.875 1169.8768 1521.875 1172.8125 C 1521.875 1175.7475 1519.4979 1178.125 1516.5625 1178.125 C 1513.6271 1178.125 1511.25 1175.7475 1511.25 1172.8125 C 1511.25 1169.8768 1513.6271 1167.5 1516.5625 1167.5 z M 1587.4375 1167.5 C 1590.3729 1167.5 1592.75 1169.8768 1592.75 1172.8125 C 1592.75 1175.7475 1590.3729 1178.125 1587.4375 1178.125 C 1584.5021 1178.125 1582.125 1175.7475 1582.125 1172.8125 C 1582.125 1169.8768 1584.5021 1167.5 1587.4375 1167.5 z M 1622.8438 1167.5 C 1625.7791 1167.5 1628.1564 1169.8772 1628.1562 1172.8125 C 1628.1562 1175.7479 1625.7789 1178.125 1622.8438 1178.125 C 1619.9082 1178.125 1617.5314 1175.7479 1617.5312 1172.8125 C 1617.5312 1169.8772 1619.9081 1167.5 1622.8438 1167.5 z M 1126.7812 1167.5312 C 1129.7169 1167.5312 1132.0936 1169.9082 1132.0938 1172.8438 C 1132.0938 1175.779 1129.7171 1178.1562 1126.7812 1178.1562 C 1123.846 1178.1562 1121.4686 1175.7789 1121.4688 1172.8438 C 1121.4688 1169.9084 1123.8461 1167.5312 1126.7812 1167.5312 z M 1268.5625 1167.5312 C 1271.4978 1167.5312 1273.875 1169.9082 1273.875 1172.8438 C 1273.875 1175.7789 1271.4978 1178.1562 1268.5625 1178.1562 C 1265.6271 1178.1562 1263.2188 1175.7789 1263.2188 1172.8438 C 1263.2188 1169.9081 1265.6271 1167.5312 1268.5625 1167.5312 z M 1303.9375 1195.875 L 1321.6562 1195.875 L 1321.6562 1206.5 L 1303.9375 1206.5 L 1303.9375 1195.875 z M 1427.9688 1195.875 L 1445.6875 1195.875 L 1445.6875 1206.5 L 1427.9688 1206.5 L 1427.9688 1195.875 z M 1133.875 1202.9375 L 1169.3125 1202.9375 L 1169.3125 1213.5625 L 1133.875 1213.5625 L 1133.875 1202.9375 z M 1204.7188 1202.9375 L 1240.1562 1202.9375 L 1240.1562 1213.5625 L 1204.7188 1213.5625 L 1204.7188 1202.9375 z M 1481.0938 1202.9375 C 1484.0291 1202.9375 1486.4375 1205.3147 1486.4375 1208.25 C 1486.4375 1211.1854 1484.0288 1213.5625 1481.0938 1213.5625 C 1478.1582 1213.5625 1475.7814 1211.1854 1475.7812 1208.25 C 1475.7812 1205.3147 1478.1581 1202.9375 1481.0938 1202.9375 z M 1509.4688 1202.9375 L 1544.9062 1202.9375 L 1544.9062 1213.5625 L 1509.4688 1213.5625 L 1509.4688 1202.9375 z M 1580.3125 1202.9375 L 1615.75 1202.9375 L 1615.75 1213.5625 L 1580.3125 1213.5625 L 1580.3125 1202.9375 z M 1268.5625 1202.9688 C 1271.4978 1202.9688 1273.875 1205.3462 1273.875 1208.2812 C 1273.875 1211.2169 1271.4978 1213.5938 1268.5625 1213.5938 C 1265.6271 1213.5938 1263.2188 1211.2169 1263.2188 1208.2812 C 1263.2188 1205.3461 1265.6271 1202.9688 1268.5625 1202.9688 z M 1321.6562 1215.3125 L 1427.9688 1215.3125 L 1427.9688 1225.9375 L 1321.6562 1225.9375 L 1321.6562 1215.3125 z M 1181.6875 1226 L 1192.3125 1226 L 1192.3125 1261.4375 L 1181.6875 1261.4375 L 1181.6875 1226 z M 1557.3125 1226 L 1567.9375 1226 L 1567.9375 1261.4375 L 1557.3125 1261.4375 L 1557.3125 1226 z M 1286.2188 1233.0625 L 1318.1562 1233.0938 L 1321.7188 1236.625 L 1321.7188 1243.7188 L 1428 1243.7188 L 1428 1236.625 L 1431.5625 1233.0938 L 1463.375 1233.0625 L 1466.9375 1236.625 L 1489.5312 1236.5938 C 1498.5819 1236.5936 1505.9375 1247.6766 1505.9375 1261.375 C 1505.9375 1275.0734 1498.5819 1286.1775 1489.5312 1286.1875 L 1466.9375 1286.2188 L 1463.375 1289.75 L 1431.5625 1289.7812 L 1428 1286.25 L 1428 1279.1562 L 1321.7188 1279.1562 L 1321.7188 1286.25 L 1318.1562 1289.7812 L 1286.2188 1289.75 L 1282.6875 1286.2188 L 1260.125 1286.1875 C 1251.0744 1286.1875 1243.7188 1275.0734 1243.7188 1261.375 C 1243.7188 1247.6766 1251.0744 1236.5887 1260.125 1236.5938 L 1282.6875 1236.625 L 1286.2188 1233.0625 z M 1516.5312 1238.3438 C 1519.4667 1238.3438 1521.875 1240.721 1521.875 1243.6562 C 1521.875 1246.5918 1519.4667 1249 1516.5312 1249 C 1513.5958 1249 1511.2186 1246.5918 1511.2188 1243.6562 C 1511.2188 1240.7211 1513.5959 1238.3438 1516.5312 1238.3438 z M 1162.2188 1238.375 C 1165.1536 1238.375 1167.5314 1240.7518 1167.5312 1243.6875 C 1167.5312 1246.6225 1165.1536 1249 1162.2188 1249 C 1159.2831 1249 1156.9064 1246.6225 1156.9062 1243.6875 C 1156.9062 1240.7518 1159.2829 1238.375 1162.2188 1238.375 z M 1233.125 1238.375 C 1236.0604 1238.375 1238.4375 1240.7521 1238.4375 1243.6875 C 1238.4375 1246.6228 1236.0604 1249.0314 1233.125 1249.0312 C 1230.1896 1249.0312 1227.7812 1246.6228 1227.7812 1243.6875 C 1227.7812 1240.7521 1230.1896 1238.375 1233.125 1238.375 z M 1587.4375 1238.375 C 1590.3729 1238.375 1592.75 1240.7518 1592.75 1243.6875 C 1592.75 1246.6225 1590.3729 1249 1587.4375 1249 C 1584.5021 1249 1582.125 1246.6225 1582.125 1243.6875 C 1582.125 1240.7518 1584.5021 1238.375 1587.4375 1238.375 z M 1516.5625 1273.7812 C 1519.4979 1273.7814 1521.875 1276.1581 1521.875 1279.0938 C 1521.875 1282.0289 1519.4979 1284.4375 1516.5625 1284.4375 C 1513.6271 1284.4375 1511.25 1282.0289 1511.25 1279.0938 C 1511.25 1276.1581 1513.6271 1273.7812 1516.5625 1273.7812 z M 1233.0938 1273.8125 C 1236.0287 1273.8125 1238.4064 1276.1896 1238.4062 1279.125 C 1238.4062 1282.0604 1236.0289 1284.4685 1233.0938 1284.4688 C 1230.1581 1284.4688 1227.7814 1282.0603 1227.7812 1279.125 C 1227.7812 1276.1896 1230.1581 1273.8125 1233.0938 1273.8125 z M 1286.2188 1296.8438 C 1289.1541 1296.8438 1291.5312 1299.221 1291.5312 1302.1562 C 1291.5312 1305.0918 1289.154 1307.5 1286.2188 1307.5 C 1283.2832 1307.4999 1280.9062 1305.0917 1280.9062 1302.1562 C 1280.9062 1299.221 1283.2833 1296.8438 1286.2188 1296.8438 z M 1321.6562 1296.8438 L 1357.0938 1296.8438 L 1357.0938 1307.4688 L 1321.6562 1307.4688 L 1321.6562 1296.8438 z M 1392.5 1296.8438 L 1427.9375 1296.8438 L 1427.9375 1307.4688 L 1392.5 1307.4688 L 1392.5 1296.8438 z M 1463.375 1296.8438 C 1466.3104 1296.8438 1468.6875 1299.221 1468.6875 1302.1562 C 1468.6875 1305.0918 1466.3104 1307.5 1463.375 1307.5 C 1460.4396 1307.4999 1458.0625 1305.0917 1458.0625 1302.1562 C 1458.0625 1299.221 1460.4396 1296.8438 1463.375 1296.8438 z "
         style="fill:#000080;fill-opacity:0.32352941000000002;stroke:none" />
      <path
         id="path4599"
         transform="translate(0,-1073.622)"
         d="M 602.375 708.6875 C 566.92858 708.673 432.28076 831.41557 432.28125 868.125 L 432.28125 1158.6562 C 432.28076 1195.371 566.92858 1318.1121 602.375 1318.125 L 885.8125 1318.125 C 921.25949 1318.1128 1055.9073 1195.371 1055.9062 1158.6562 L 1055.9062 868.125 C 1055.9072 831.41557 921.25949 708.6732 885.8125 708.6875 L 602.375 708.6875 z M 655.5 719.25 C 658.4354 719.25 660.8125 721.65835 660.8125 724.59375 C 660.8125 727.52915 658.4354 729.90625 655.5 729.90625 C 652.5646 729.90625 650.1875 727.52915 650.1875 724.59375 C 650.1875 721.65845 652.5646 719.2501 655.5 719.25 z M 832.6875 719.25 C 835.6229 719.25 838 721.65835 838 724.59375 C 838 727.52915 835.6229 729.90625 832.6875 729.90625 C 829.7521 729.90625 827.375 727.52915 827.375 724.59375 C 827.375 721.65845 829.7521 719.2501 832.6875 719.25 z M 690.9375 719.28125 L 726.375 719.28125 L 726.375 729.90625 L 690.9375 729.90625 L 690.9375 719.28125 z M 761.8125 719.28125 L 797.25 719.28125 L 797.25 729.90625 L 761.8125 729.90625 L 761.8125 719.28125 z M 655.5 737 L 687.4375 737 L 690.96875 740.5625 L 690.96875 747.625 L 797.28125 747.625 L 797.28125 740.5625 L 800.8125 737 L 832.6875 737 L 836.21875 740.5625 L 858.8125 740.5 C 867.863 740.5 875.1875 751.58285 875.1875 765.28125 C 875.1875 778.97965 867.863 790.07445 858.8125 790.09375 L 836.21875 790.15625 L 832.6875 793.6875 L 800.8125 793.6875 L 797.28125 790.15625 L 797.28125 783.0625 L 690.96875 783.0625 L 690.96875 790.15625 L 687.4375 793.6875 L 655.5 793.6875 L 651.96875 790.15625 L 629.375 790.09375 C 620.3244 790.09375 613 778.97965 613 765.28125 C 613 751.58285 620.3244 740.4857 629.375 740.5 L 651.96875 740.5625 L 655.5 737 z M 885.84375 742.34375 C 888.77915 742.34375 891.15625 744.7522 891.15625 747.6875 C 891.15625 750.6229 888.77915 753 885.84375 753 C 882.90835 753 880.53125 750.6229 880.53125 747.6875 C 880.53125 744.7522 882.90835 742.34375 885.84375 742.34375 z M 602.375 742.375 C 605.3103 742.375 607.6875 744.78355 607.6875 747.71875 C 607.6875 750.65425 605.3103 753.03125 602.375 753.03125 C 599.4396 753.03125 597.0625 750.65425 597.0625 747.71875 C 597.0625 744.78355 599.4396 742.375 602.375 742.375 z M 551 765.34375 L 561.625 765.34375 L 561.625 800.78125 L 551 800.78125 L 551 765.34375 z M 926.59375 765.34375 L 937.21875 765.34375 L 937.21875 800.78125 L 926.59375 800.78125 L 926.59375 765.34375 z M 531.46875 777.75 C 534.40405 777.75 536.78125 780.1272 536.78125 783.0625 C 536.78125 785.9979 534.40405 788.375 531.46875 788.375 C 528.53325 788.375 526.15625 785.9979 526.15625 783.0625 C 526.15625 780.1272 528.53325 777.75 531.46875 777.75 z M 956.6875 777.75 C 959.6229 777.75 962 780.1272 962 783.0625 C 962 785.9979 959.6229 788.375 956.6875 788.375 C 953.7521 788.375 951.375 785.9979 951.375 783.0625 C 951.375 780.1272 953.7521 777.75 956.6875 777.75 z M 885.8125 777.78125 C 888.7479 777.78125 891.15625 780.1897 891.15625 783.125 C 891.15625 786.0604 888.7479 788.4375 885.8125 788.4375 C 882.8772 788.4375 880.5 786.0604 880.5 783.125 C 880.5 780.1897 882.8772 777.78125 885.8125 777.78125 z M 602.40625 777.8125 C 605.34165 777.8125 607.71875 780.22095 607.71875 783.15625 C 607.71875 786.09165 605.34165 788.46875 602.40625 788.46875 C 599.47085 788.46875 597.0625 786.09165 597.0625 783.15625 C 597.0625 780.22095 599.47085 777.8125 602.40625 777.8125 z M 690.9375 800.84375 L 797.25 800.84375 L 797.25 811.46875 L 690.9375 811.46875 L 690.9375 800.84375 z M 503.15625 813.1875 L 538.59375 813.1875 L 538.59375 823.8125 L 503.15625 823.8125 L 503.15625 813.1875 z M 574.03125 813.1875 L 609.46875 813.1875 L 609.46875 823.8125 L 574.03125 823.8125 L 574.03125 813.1875 z M 878.75 813.1875 L 914.1875 813.1875 L 914.1875 823.8125 L 878.75 823.8125 L 878.75 813.1875 z M 949.59375 813.1875 L 985.03125 813.1875 L 985.03125 823.8125 L 949.59375 823.8125 L 949.59375 813.1875 z M 850.375 813.21875 C 853.31037 813.21875 855.71875 815.59585 855.71875 818.53125 C 855.71875 821.46655 853.31037 823.84375 850.375 823.84375 C 847.43963 823.84375 845.0625 821.46655 845.0625 818.53125 C 845.0625 815.59585 847.43963 813.21875 850.375 813.21875 z M 637.84375 813.25 C 640.77905 813.25 643.15625 815.6271 643.15625 818.5625 C 643.15625 821.4978 640.77905 823.875 637.84375 823.875 C 634.90835 823.875 632.5 821.4978 632.5 818.5625 C 632.5 815.6271 634.90835 813.25 637.84375 813.25 z M 690.9375 820.25 L 797.25 820.25 L 797.25 830.90625 L 690.9375 830.90625 L 690.9375 820.25 z M 551 836.21875 L 561.625 836.21875 L 561.625 871.65625 L 551 871.65625 L 551 836.21875 z M 926.59375 836.21875 L 937.21875 836.21875 L 937.21875 871.65625 L 926.59375 871.65625 L 926.59375 836.21875 z M 531.46875 848.625 C 534.40405 848.625 536.78125 851.0022 536.78125 853.9375 C 536.78125 856.8729 534.40405 859.25 531.46875 859.25 C 528.53325 859.25 526.15625 856.8729 526.15625 853.9375 C 526.15625 851.0022 528.53325 848.625 531.46875 848.625 z M 602.34375 848.625 C 605.27905 848.625 607.65625 851.0022 607.65625 853.9375 C 607.65625 856.8729 605.27905 859.25 602.34375 859.25 C 599.40825 859.25 597.03125 856.8729 597.03125 853.9375 C 597.03125 851.0022 599.40825 848.625 602.34375 848.625 z M 885.8125 848.625 C 888.7479 848.625 891.125 851.0022 891.125 853.9375 C 891.125 856.8729 888.7479 859.25 885.8125 859.25 C 882.8771 859.25 880.5 856.8729 880.5 853.9375 C 880.5 851.0022 882.8771 848.625 885.8125 848.625 z M 956.6875 848.625 C 959.6229 848.625 962 851.0022 962 853.9375 C 962 856.8729 959.6229 859.25 956.6875 859.25 C 953.7521 859.25 951.375 856.8729 951.375 853.9375 C 951.375 851.0022 953.7521 848.625 956.6875 848.625 z M 672.65625 848.65625 C 672.83495 848.63825 673.03525 848.65625 673.21875 848.65625 C 676.15415 848.65625 678.5625 851.03335 678.5625 853.96875 C 678.5625 856.9041 676.15415 859.28125 673.21875 859.28125 C 670.28335 859.28125 667.90625 856.9041 667.90625 853.96875 C 667.90625 851.21685 669.97645 848.92815 672.65625 848.65625 z M 814.375 848.65625 C 814.5537 848.63825 814.754 848.65625 814.9375 848.65625 C 817.8729 848.65625 820.28125 851.03335 820.28125 853.96875 C 820.28125 856.9041 817.8729 859.28125 814.9375 859.28125 C 812.0021 859.28125 809.625 856.9041 809.625 853.96875 C 809.625 851.21685 811.6952 848.92815 814.375 848.65625 z M 850.375 848.65625 C 853.31037 848.65625 855.71875 851.03345 855.71875 853.96875 C 855.71875 856.9041 853.31037 859.28135 850.375 859.28125 C 847.43963 859.28125 845.0625 856.9041 845.0625 853.96875 C 845.0625 851.03345 847.43963 848.65625 850.375 848.65625 z M 992.125 848.65625 C 995.0604 848.65625 997.4375 851.03335 997.4375 853.96875 C 997.4375 856.904 995.0604 859.28125 992.125 859.28125 C 989.1897 859.28125 986.8125 856.904 986.8125 853.96875 C 986.8125 851.03335 989.1897 848.65625 992.125 848.65625 z M 496.0625 848.6875 C 498.9979 848.6875 501.375 851.0646 501.375 854 C 501.375 856.93525 498.9979 859.3125 496.0625 859.3125 C 493.1271 859.3125 490.75 856.93525 490.75 854 C 490.75 851.0646 493.1271 848.6875 496.0625 848.6875 z M 637.84375 848.6875 C 640.77905 848.6875 643.15625 851.0647 643.15625 854 C 643.15625 856.93535 640.77905 859.3125 637.84375 859.3125 C 634.90835 859.3125 632.5 856.93535 632.5 854 C 632.5 851.0647 634.90835 848.6875 637.84375 848.6875 z M 566.9375 884.03125 C 569.87287 884.03125 572.25 886.43963 572.25 889.375 C 572.25 892.31037 569.87287 894.6875 566.9375 894.6875 C 564.00213 894.6875 561.625 892.31037 561.625 889.375 C 561.625 886.43963 564.00213 884.03125 566.9375 884.03125 z M 921.25 884.03125 C 924.18537 884.03125 926.5625 886.43963 926.5625 889.375 C 926.5625 892.31037 924.18537 894.6875 921.25 894.6875 C 918.31463 894.6875 915.9375 892.31037 915.9375 889.375 C 915.9375 886.43963 918.31463 884.03125 921.25 884.03125 z M 672.65625 884.09375 C 672.83495 884.07575 673.03525 884.09375 673.21875 884.09375 C 676.15415 884.09375 678.5625 886.47105 678.5625 889.40625 C 678.5625 892.34185 676.15415 894.71875 673.21875 894.71875 C 670.28335 894.71875 667.90625 892.34185 667.90625 889.40625 C 667.90625 886.65445 669.97645 884.36545 672.65625 884.09375 z M 814.40625 884.09375 C 814.5849 884.07575 814.78529 884.09375 814.96875 884.09375 C 817.90415 884.09375 820.28125 886.47105 820.28125 889.40625 C 820.28125 892.34185 817.90415 894.71875 814.96875 894.71875 C 812.03345 894.71875 809.65625 892.34185 809.65625 889.40625 C 809.65625 886.65445 811.72647 884.36545 814.40625 884.09375 z M 850.375 884.09375 C 853.31037 884.09375 855.71875 886.47105 855.71875 889.40625 C 855.71875 892.34185 853.31037 894.71875 850.375 894.71875 C 847.43963 894.71875 845.0625 892.34185 845.0625 889.40625 C 845.0625 886.47105 847.43963 884.09375 850.375 884.09375 z M 885.8125 884.09375 C 888.7479 884.09375 891.15625 886.47105 891.15625 889.40625 C 891.15625 892.34185 888.7479 894.71875 885.8125 894.71875 C 882.8772 894.71875 880.5 892.34185 880.5 889.40625 C 880.5 886.47105 882.8772 884.09375 885.8125 884.09375 z M 956.6875 884.09375 C 959.6229 884.09375 962 886.47105 962 889.40625 C 962 892.34185 959.6229 894.71875 956.6875 894.71875 C 953.7522 894.71875 951.375 892.34185 951.375 889.40625 C 951.375 886.47105 953.7522 884.09375 956.6875 884.09375 z M 992.125 884.09375 C 995.0604 884.09375 997.4375 886.47105 997.4375 889.40625 C 997.4375 892.34185 995.0604 894.71875 992.125 894.71875 C 989.1897 894.71875 986.8125 892.34185 986.8125 889.40625 C 986.8125 886.47105 989.1897 884.09375 992.125 884.09375 z M 496.0625 884.125 C 498.9979 884.125 501.375 886.5022 501.375 889.4375 C 501.375 892.3729 498.9979 894.75 496.0625 894.75 C 493.1271 894.75 490.75 892.3729 490.75 889.4375 C 490.75 886.5022 493.1271 884.125 496.0625 884.125 z M 531.5 884.125 C 534.4354 884.125 536.8125 886.5022 536.8125 889.4375 C 536.8125 892.3729 534.4354 894.75 531.5 894.75 C 528.5646 894.75 526.1875 892.3729 526.1875 889.4375 C 526.1875 886.5022 528.5646 884.125 531.5 884.125 z M 602.40625 884.125 C 605.34165 884.125 607.71875 886.5022 607.71875 889.4375 C 607.71875 892.3729 605.34165 894.75 602.40625 894.75 C 599.47085 894.75 597.0625 892.3729 597.0625 889.4375 C 597.0625 886.5022 599.47085 884.125 602.40625 884.125 z M 637.84375 884.125 C 640.77905 884.125 643.15625 886.5022 643.15625 889.4375 C 643.15625 892.3729 640.77905 894.75 637.84375 894.75 C 634.90835 894.75 632.5 892.3729 632.5 889.4375 C 632.5 886.5022 634.90835 884.125 637.84375 884.125 z M 1029.3438 889.4375 L 1039.9688 889.4375 L 1039.9688 924.875 L 1029.3438 924.875 L 1029.3438 889.4375 z M 448.25 889.46875 L 458.875 889.46875 L 458.875 924.90625 L 448.25 924.90625 L 448.25 889.46875 z M 849.875 919.5 C 850.05366 919.482 850.22279 919.5 850.40625 919.5 C 853.34162 919.5 855.71875 921.90835 855.71875 924.84375 C 855.71875 927.77905 853.34162 930.15625 850.40625 930.15625 C 847.47088 930.15625 845.09375 927.77905 845.09375 924.84375 C 845.09375 922.09175 847.19517 919.7753 849.875 919.5 z M 885.28125 919.5 C 885.45985 919.482 885.6291 919.5 885.8125 919.5 C 888.7479 919.5 891.15625 921.90835 891.15625 924.84375 C 891.15625 927.77905 888.7479 930.15625 885.8125 930.15625 C 882.8772 930.15625 880.5 927.77905 880.5 924.84375 C 880.5 922.09175 882.60145 919.7753 885.28125 919.5 z M 920.71875 919.5 C 920.89735 919.482 921.0666 919.5 921.25 919.5 C 924.1854 919.5 926.5625 921.90835 926.5625 924.84375 C 926.5625 927.77905 924.1854 930.15625 921.25 930.15625 C 918.3147 930.15625 915.9375 927.77905 915.9375 924.84375 C 915.9375 922.09175 918.03895 919.7753 920.71875 919.5 z M 956.15625 919.5 C 956.33485 919.482 956.5041 919.5 956.6875 919.5 C 959.6229 919.5 962 921.90835 962 924.84375 C 962 927.77905 959.6229 930.15625 956.6875 930.15625 C 953.7522 930.15625 951.375 927.77905 951.375 924.84375 C 951.375 922.09175 953.47645 919.7753 956.15625 919.5 z M 991.59375 919.5 C 991.77235 919.482 991.9416 919.5 992.125 919.5 C 995.0604 919.5 997.4375 921.90835 997.4375 924.84375 C 997.4375 927.77905 995.0604 930.15625 992.125 930.15625 C 989.1897 930.15625 986.8125 927.77905 986.8125 924.84375 C 986.8125 922.09175 988.91395 919.7753 991.59375 919.5 z M 496.09375 919.53125 C 499.02905 919.53125 501.40625 921.9397 501.40625 924.875 C 501.40625 927.8105 499.02905 930.1875 496.09375 930.1875 C 493.15835 930.1875 490.78125 927.8105 490.78125 924.875 C 490.78125 921.9397 493.15835 919.53125 496.09375 919.53125 z M 531.53125 919.53125 C 534.46655 919.53125 536.84375 921.9397 536.84375 924.875 C 536.84375 927.8105 534.46655 930.1875 531.53125 930.1875 C 528.59585 930.1875 526.21875 927.8105 526.21875 924.875 C 526.21875 921.9397 528.59585 919.53125 531.53125 919.53125 z M 566.96875 919.53125 C 569.90405 919.53125 572.28125 921.9397 572.28125 924.875 C 572.28125 927.8105 569.90405 930.1875 566.96875 930.1875 C 564.03335 930.1875 561.65625 927.8105 561.65625 924.875 C 561.65625 921.9397 564.03335 919.53125 566.96875 919.53125 z M 602.40625 919.53125 C 605.34155 919.53125 607.71875 921.9397 607.71875 924.875 C 607.71875 927.8105 605.34155 930.1875 602.40625 930.1875 C 599.47085 930.1875 597.0625 927.8105 597.0625 924.875 C 597.0625 921.9397 599.47085 919.53125 602.40625 919.53125 z M 637.8125 919.53125 C 640.7479 919.53125 643.125 921.9397 643.125 924.875 C 643.125 927.8105 640.7479 930.1875 637.8125 930.1875 C 634.8771 930.1875 632.5 927.8105 632.5 924.875 C 632.5 921.9397 634.8771 919.53125 637.8125 919.53125 z M 690.9375 928.40625 L 797.25 928.40625 L 797.25 939.03125 L 690.9375 939.03125 L 690.9375 928.40625 z M 814.4375 954.9375 C 814.61616 954.9195 814.78529 954.9375 814.96875 954.9375 C 817.90412 954.9375 820.28125 957.3146 820.28125 960.25 C 820.28125 963.1854 817.90412 965.5625 814.96875 965.5625 C 812.03338 965.5625 809.65625 963.1854 809.65625 960.25 C 809.65625 957.4982 811.75767 955.2094 814.4375 954.9375 z M 849.875 954.9375 C 850.05366 954.9195 850.22279 954.9375 850.40625 954.9375 C 853.34162 954.9375 855.71875 957.3146 855.71875 960.25 C 855.71875 963.1854 853.34162 965.5625 850.40625 965.5625 C 847.47088 965.5625 845.09375 963.1854 845.09375 960.25 C 845.09375 957.4982 847.19517 955.2094 849.875 954.9375 z M 885.28125 954.9375 C 885.45985 954.9195 885.6291 954.9375 885.8125 954.9375 C 888.7479 954.9375 891.15625 957.3146 891.15625 960.25 C 891.15625 963.1854 888.7479 965.5625 885.8125 965.5625 C 882.8772 965.5625 880.5 963.1854 880.5 960.25 C 880.5 957.4982 882.60145 955.2094 885.28125 954.9375 z M 920.71875 954.9375 C 920.89735 954.9195 921.0666 954.9375 921.25 954.9375 C 924.1854 954.9375 926.5625 957.3146 926.5625 960.25 C 926.5625 963.1854 924.1854 965.5625 921.25 965.5625 C 918.3147 965.5625 915.9375 963.1854 915.9375 960.25 C 915.9375 957.4982 918.03895 955.2094 920.71875 954.9375 z M 956.15625 954.9375 C 956.33485 954.9195 956.5041 954.9375 956.6875 954.9375 C 959.6229 954.9375 962 957.3146 962 960.25 C 962 963.1854 959.6229 965.5625 956.6875 965.5625 C 953.7522 965.5625 951.375 963.1854 951.375 960.25 C 951.375 957.4982 953.47645 955.2094 956.15625 954.9375 z M 991.59375 954.9375 C 991.77235 954.9195 991.9416 954.9375 992.125 954.9375 C 995.0604 954.9375 997.4375 957.3146 997.4375 960.25 C 997.4375 963.1854 995.0604 965.5625 992.125 965.5625 C 989.1897 965.5625 986.8125 963.1854 986.8125 960.25 C 986.8125 957.4982 988.91395 955.2094 991.59375 954.9375 z M 496.09375 954.96875 C 499.02905 954.96875 501.40625 957.34585 501.40625 960.28125 C 501.40625 963.21675 499.02905 965.59375 496.09375 965.59375 C 493.15835 965.59375 490.78125 963.21685 490.78125 960.28125 C 490.78125 957.34615 493.15835 954.96875 496.09375 954.96875 z M 531.53125 954.96875 C 534.46655 954.96875 536.84375 957.34585 536.84375 960.28125 C 536.84375 963.21675 534.46655 965.59375 531.53125 965.59375 C 528.59585 965.59375 526.21875 963.21685 526.21875 960.28125 C 526.21875 957.34615 528.59585 954.96875 531.53125 954.96875 z M 566.96875 954.96875 C 569.90405 954.96875 572.28125 957.34585 572.28125 960.28125 C 572.28125 963.21675 569.90405 965.59375 566.96875 965.59375 C 564.03335 965.59375 561.65625 963.21685 561.65625 960.28125 C 561.65625 957.34615 564.03335 954.96875 566.96875 954.96875 z M 602.40625 954.96875 C 605.34155 954.96875 607.71875 957.34585 607.71875 960.28125 C 607.71875 963.21675 605.34155 965.59375 602.40625 965.59375 C 599.47085 965.59375 597.0625 963.21685 597.0625 960.28125 C 597.0625 957.34615 599.47085 954.96875 602.40625 954.96875 z M 637.8125 954.96875 C 640.7479 954.96875 643.125 957.34585 643.125 960.28125 C 643.125 963.21675 640.7479 965.59375 637.8125 965.59375 C 634.8771 965.59375 632.5 963.21685 632.5 960.28125 C 632.5 957.34615 634.8771 954.96875 637.8125 954.96875 z M 673.25 954.96875 C 676.18537 954.96875 678.5625 957.34585 678.5625 960.28125 C 678.5625 963.21675 676.18537 965.59375 673.25 965.59375 C 670.31463 965.59375 667.9375 963.21685 667.9375 960.28125 C 667.9375 957.34615 670.31463 954.96875 673.25 954.96875 z M 1029.3438 960.28125 L 1039.9688 960.28125 L 1039.9688 995.71875 L 1029.3438 995.71875 L 1029.3438 960.28125 z M 448.25 960.34375 L 458.875 960.34375 L 458.875 995.78125 L 448.25 995.78125 L 448.25 960.34375 z M 726.375 977.96875 C 726.67559 977.96875 726.98245 977.9901 727.28125 978 L 760.90625 978 C 761.21016 977.99 761.50673 977.96875 761.8125 977.96875 C 781.38164 977.96855 797.25 993.83735 797.25 1013.4062 C 797.25 1032.9754 781.38164 1048.8438 761.8125 1048.8438 L 726.375 1048.8438 C 706.80586 1048.8436 690.9375 1032.9754 690.9375 1013.4062 C 690.9375 993.83735 706.80586 977.96875 726.375 977.96875 z M 814.4375 990.375 C 814.61616 990.357 814.78529 990.375 814.96875 990.375 C 817.90412 990.375 820.28125 992.7522 820.28125 995.6875 C 820.28125 998.6229 817.90412 1001 814.96875 1001 C 812.03338 1001 809.65625 998.623 809.65625 995.6875 C 809.65625 992.9357 811.75767 990.6469 814.4375 990.375 z M 849.875 990.375 C 850.05366 990.357 850.22279 990.375 850.40625 990.375 C 853.34162 990.375 855.71875 992.7522 855.71875 995.6875 C 855.71875 998.6229 853.34162 1001 850.40625 1001 C 847.47088 1001 845.09375 998.623 845.09375 995.6875 C 845.09375 992.9357 847.19517 990.6469 849.875 990.375 z M 885.28125 990.375 C 885.45985 990.357 885.6291 990.375 885.8125 990.375 C 888.7479 990.375 891.15625 992.7522 891.15625 995.6875 C 891.15625 998.6229 888.7479 1001 885.8125 1001 C 882.8772 1001 880.5 998.623 880.5 995.6875 C 880.5 992.9357 882.60145 990.6469 885.28125 990.375 z M 920.71875 990.375 C 920.89735 990.357 921.0666 990.375 921.25 990.375 C 924.1854 990.375 926.5625 992.7522 926.5625 995.6875 C 926.5625 998.6229 924.1854 1001 921.25 1001 C 918.3147 1001 915.9375 998.623 915.9375 995.6875 C 915.9375 992.9357 918.03895 990.6469 920.71875 990.375 z M 956.15625 990.375 C 956.33485 990.357 956.5041 990.375 956.6875 990.375 C 959.6229 990.375 962 992.7522 962 995.6875 C 962 998.6229 959.6229 1001 956.6875 1001 C 953.7522 1001 951.375 998.623 951.375 995.6875 C 951.375 992.9357 953.47645 990.6469 956.15625 990.375 z M 531.53125 990.40625 C 534.46655 990.40625 536.84375 992.78325 536.84375 995.71875 C 536.84375 998.65395 534.46655 1001.0313 531.53125 1001.0312 C 528.59585 1001.0312 526.21875 998.65405 526.21875 995.71875 C 526.21875 992.78335 528.59585 990.40625 531.53125 990.40625 z M 566.96875 990.40625 C 569.90405 990.40625 572.28125 992.78325 572.28125 995.71875 C 572.28125 998.65395 569.90405 1001.0313 566.96875 1001.0312 C 564.03335 1001.0312 561.65625 998.65405 561.65625 995.71875 C 561.65625 992.78335 564.03335 990.40625 566.96875 990.40625 z M 602.40625 990.40625 C 605.34155 990.40625 607.71875 992.78325 607.71875 995.71875 C 607.71875 998.65395 605.34155 1001.0313 602.40625 1001.0312 C 599.47085 1001.0312 597.0625 998.65405 597.0625 995.71875 C 597.0625 992.78335 599.47085 990.40625 602.40625 990.40625 z M 637.8125 990.40625 C 640.7479 990.40625 643.125 992.78325 643.125 995.71875 C 643.125 998.65395 640.7479 1001.0313 637.8125 1001.0312 C 634.8771 1001.0312 632.5 998.65405 632.5 995.71875 C 632.5 992.78335 634.8771 990.40625 637.8125 990.40625 z M 673.25 990.40625 C 676.18537 990.40625 678.5625 992.78325 678.5625 995.71875 C 678.5625 998.65395 676.18537 1001.0313 673.25 1001.0312 C 670.31463 1001.0312 667.9375 998.65405 667.9375 995.71875 C 667.9375 992.78335 670.31463 990.40625 673.25 990.40625 z M 496.0625 992.125 C 507.80399 992.125 517.3125 1001.6335 517.3125 1013.375 C 517.3125 1025.1165 507.80399 1034.6562 496.0625 1034.6562 C 484.32101 1034.6562 474.8125 1025.1165 474.8125 1013.375 C 474.8125 1001.6335 484.32101 992.125 496.0625 992.125 z M 992.125 992.125 C 1003.8665 992.125 1013.375 1001.6335 1013.375 1013.375 C 1013.375 1025.1165 1003.8665 1034.6562 992.125 1034.6562 C 980.38351 1034.6562 970.875 1025.1165 970.875 1013.375 C 970.875 1001.6335 980.38351 992.125 992.125 992.125 z M 814.4375 1025.8125 C 814.61616 1025.7945 814.78529 1025.8125 814.96875 1025.8125 C 817.90412 1025.8125 820.28125 1028.1897 820.28125 1031.125 C 820.28125 1034.0605 817.90412 1036.4375 814.96875 1036.4375 C 812.03338 1036.4375 809.65625 1034.0605 809.65625 1031.125 C 809.65625 1028.3732 811.75767 1026.0843 814.4375 1025.8125 z M 849.875 1025.8125 C 850.05366 1025.7945 850.22279 1025.8125 850.40625 1025.8125 C 853.34162 1025.8125 855.71875 1028.1897 855.71875 1031.125 C 855.71875 1034.0605 853.34162 1036.4375 850.40625 1036.4375 C 847.47088 1036.4375 845.09375 1034.0605 845.09375 1031.125 C 845.09375 1028.3732 847.19517 1026.0843 849.875 1025.8125 z M 885.28125 1025.8125 C 885.45985 1025.7945 885.6291 1025.8125 885.8125 1025.8125 C 888.7479 1025.8125 891.15625 1028.1897 891.15625 1031.125 C 891.15625 1034.0605 888.7479 1036.4375 885.8125 1036.4375 C 882.8772 1036.4375 880.5 1034.0605 880.5 1031.125 C 880.5 1028.3732 882.60145 1026.0843 885.28125 1025.8125 z M 920.71875 1025.8125 C 920.89735 1025.7945 921.0666 1025.8125 921.25 1025.8125 C 924.1854 1025.8125 926.5625 1028.1897 926.5625 1031.125 C 926.5625 1034.0605 924.1854 1036.4375 921.25 1036.4375 C 918.3147 1036.4375 915.9375 1034.0605 915.9375 1031.125 C 915.9375 1028.3732 918.03895 1026.0843 920.71875 1025.8125 z M 956.15625 1025.8125 C 956.33485 1025.7945 956.5041 1025.8125 956.6875 1025.8125 C 959.6229 1025.8125 962 1028.1897 962 1031.125 C 962 1034.0605 959.6229 1036.4375 956.6875 1036.4375 C 953.7522 1036.4375 951.375 1034.0605 951.375 1031.125 C 951.375 1028.3732 953.47645 1026.0843 956.15625 1025.8125 z M 531.53125 1025.8438 C 534.46655 1025.8438 536.84375 1028.2212 536.84375 1031.1562 C 536.84375 1034.0919 534.46655 1036.4688 531.53125 1036.4688 C 528.59585 1036.4688 526.21875 1034.0919 526.21875 1031.1562 C 526.21875 1028.2213 528.59585 1025.8438 531.53125 1025.8438 z M 566.96875 1025.8438 C 569.90405 1025.8438 572.28125 1028.2212 572.28125 1031.1562 C 572.28125 1034.0919 569.90405 1036.4688 566.96875 1036.4688 C 564.03335 1036.4688 561.65625 1034.0919 561.65625 1031.1562 C 561.65625 1028.2213 564.03335 1025.8438 566.96875 1025.8438 z M 602.40625 1025.8438 C 605.34155 1025.8438 607.71875 1028.2212 607.71875 1031.1562 C 607.71875 1034.0919 605.34155 1036.4688 602.40625 1036.4688 C 599.47085 1036.4688 597.0625 1034.0919 597.0625 1031.1562 C 597.0625 1028.2213 599.47085 1025.8438 602.40625 1025.8438 z M 637.8125 1025.8438 C 640.7479 1025.8438 643.125 1028.2212 643.125 1031.1562 C 643.125 1034.0919 640.7479 1036.4688 637.8125 1036.4688 C 634.8771 1036.4688 632.5 1034.0919 632.5 1031.1562 C 632.5 1028.2213 634.8771 1025.8438 637.8125 1025.8438 z M 673.25 1025.8438 C 676.18537 1025.8438 678.5625 1028.2212 678.5625 1031.1562 C 678.5625 1034.0919 676.18537 1036.4688 673.25 1036.4688 C 670.31463 1036.4688 667.9375 1034.0919 667.9375 1031.1562 C 667.9375 1028.2213 670.31463 1025.8438 673.25 1025.8438 z M 1029.3438 1031.1562 L 1039.9688 1031.1562 L 1039.9688 1066.5938 L 1029.3438 1066.5938 L 1029.3438 1031.1562 z M 448.25 1031.1875 L 458.875 1031.1875 L 458.875 1066.625 L 448.25 1066.625 L 448.25 1031.1875 z M 814.4375 1061.25 C 814.61616 1061.232 814.78529 1061.25 814.96875 1061.25 C 817.90412 1061.25 820.28125 1063.6271 820.28125 1066.5625 C 820.28125 1069.4979 817.90412 1071.875 814.96875 1071.875 C 812.03338 1071.875 809.65625 1069.4979 809.65625 1066.5625 C 809.65625 1063.8106 811.75767 1061.5219 814.4375 1061.25 z M 849.875 1061.25 C 850.05366 1061.232 850.22279 1061.25 850.40625 1061.25 C 853.34162 1061.25 855.71875 1063.6271 855.71875 1066.5625 C 855.71875 1069.4979 853.34162 1071.875 850.40625 1071.875 C 847.47088 1071.875 845.09375 1069.4979 845.09375 1066.5625 C 845.09375 1063.8106 847.19517 1061.5219 849.875 1061.25 z M 885.28125 1061.25 C 885.45985 1061.232 885.6291 1061.25 885.8125 1061.25 C 888.7479 1061.25 891.15625 1063.6271 891.15625 1066.5625 C 891.15625 1069.4979 888.7479 1071.875 885.8125 1071.875 C 882.8772 1071.875 880.5 1069.4979 880.5 1066.5625 C 880.5 1063.8106 882.60145 1061.5219 885.28125 1061.25 z M 920.71875 1061.25 C 920.89735 1061.232 921.0666 1061.25 921.25 1061.25 C 924.1854 1061.25 926.5625 1063.6271 926.5625 1066.5625 C 926.5625 1069.4979 924.1854 1071.875 921.25 1071.875 C 918.3147 1071.875 915.9375 1069.4979 915.9375 1066.5625 C 915.9375 1063.8106 918.03895 1061.5219 920.71875 1061.25 z M 956.15625 1061.25 C 956.33485 1061.232 956.5041 1061.25 956.6875 1061.25 C 959.6229 1061.25 962 1063.6271 962 1066.5625 C 962 1069.4979 959.6229 1071.875 956.6875 1071.875 C 953.7522 1071.875 951.375 1069.4979 951.375 1066.5625 C 951.375 1063.8106 953.47645 1061.5219 956.15625 1061.25 z M 991.59375 1061.25 C 991.77235 1061.232 991.9416 1061.25 992.125 1061.25 C 995.0604 1061.25 997.4375 1063.6271 997.4375 1066.5625 C 997.4375 1069.4979 995.0604 1071.875 992.125 1071.875 C 989.1897 1071.875 986.8125 1069.4979 986.8125 1066.5625 C 986.8125 1063.8106 988.91395 1061.5219 991.59375 1061.25 z M 496.09375 1061.2812 C 499.02905 1061.2812 501.40625 1063.6582 501.40625 1066.5938 C 501.40625 1069.5289 499.02905 1071.9062 496.09375 1071.9062 C 493.15835 1071.9062 490.78125 1069.529 490.78125 1066.5938 C 490.78125 1063.6582 493.15835 1061.2812 496.09375 1061.2812 z M 531.53125 1061.2812 C 534.46655 1061.2812 536.84375 1063.6582 536.84375 1066.5938 C 536.84375 1069.5289 534.46655 1071.9062 531.53125 1071.9062 C 528.59585 1071.9062 526.21875 1069.529 526.21875 1066.5938 C 526.21875 1063.6582 528.59585 1061.2812 531.53125 1061.2812 z M 566.96875 1061.2812 C 569.90405 1061.2812 572.28125 1063.6582 572.28125 1066.5938 C 572.28125 1069.5289 569.90405 1071.9062 566.96875 1071.9062 C 564.03335 1071.9062 561.65625 1069.529 561.65625 1066.5938 C 561.65625 1063.6582 564.03335 1061.2812 566.96875 1061.2812 z M 602.40625 1061.2812 C 605.34155 1061.2812 607.71875 1063.6582 607.71875 1066.5938 C 607.71875 1069.5289 605.34155 1071.9062 602.40625 1071.9062 C 599.47085 1071.9062 597.0625 1069.529 597.0625 1066.5938 C 597.0625 1063.6582 599.47085 1061.2812 602.40625 1061.2812 z M 637.8125 1061.2812 C 640.7479 1061.2812 643.125 1063.6582 643.125 1066.5938 C 643.125 1069.5289 640.7479 1071.9062 637.8125 1071.9062 C 634.8771 1071.9062 632.5 1069.529 632.5 1066.5938 C 632.5 1063.6582 634.8771 1061.2812 637.8125 1061.2812 z M 673.25 1061.2812 C 676.18537 1061.2812 678.5625 1063.6582 678.5625 1066.5938 C 678.5625 1069.5289 676.18537 1071.9062 673.25 1071.9062 C 670.31463 1071.9062 667.9375 1069.529 667.9375 1066.5938 C 667.9375 1063.6582 670.31463 1061.2812 673.25 1061.2812 z M 690.9375 1087.8438 L 797.25 1087.8438 L 797.25 1098.4688 L 690.9375 1098.4688 L 690.9375 1087.8438 z M 849.875 1096.6875 C 850.05366 1096.6695 850.22279 1096.6875 850.40625 1096.6875 C 853.34162 1096.6875 855.71875 1099.0648 855.71875 1102 C 855.71875 1104.9356 853.34162 1107.3125 850.40625 1107.3125 C 847.47088 1107.3125 845.09375 1104.9356 845.09375 1102 C 845.09375 1099.2482 847.19517 1096.9594 849.875 1096.6875 z M 885.28125 1096.6875 C 885.45985 1096.6695 885.6291 1096.6875 885.8125 1096.6875 C 888.7479 1096.6875 891.15625 1099.0648 891.15625 1102 C 891.15625 1104.9356 888.7479 1107.3125 885.8125 1107.3125 C 882.8772 1107.3125 880.5 1104.9356 880.5 1102 C 880.5 1099.2482 882.60145 1096.9594 885.28125 1096.6875 z M 920.71875 1096.6875 C 920.89735 1096.6695 921.0666 1096.6875 921.25 1096.6875 C 924.1854 1096.6875 926.5625 1099.0648 926.5625 1102 C 926.5625 1104.9356 924.1854 1107.3125 921.25 1107.3125 C 918.3147 1107.3125 915.9375 1104.9356 915.9375 1102 C 915.9375 1099.2482 918.03895 1096.9594 920.71875 1096.6875 z M 956.15625 1096.6875 C 956.33485 1096.6695 956.5041 1096.6875 956.6875 1096.6875 C 959.6229 1096.6875 962 1099.0648 962 1102 C 962 1104.9356 959.6229 1107.3125 956.6875 1107.3125 C 953.7522 1107.3125 951.375 1104.9356 951.375 1102 C 951.375 1099.2482 953.47645 1096.9594 956.15625 1096.6875 z M 991.59375 1096.6875 C 991.77235 1096.6695 991.9416 1096.6875 992.125 1096.6875 C 995.0604 1096.6875 997.4375 1099.0648 997.4375 1102 C 997.4375 1104.9356 995.0604 1107.3125 992.125 1107.3125 C 989.1897 1107.3125 986.8125 1104.9356 986.8125 1102 C 986.8125 1099.2482 988.91395 1096.9594 991.59375 1096.6875 z M 496.09375 1096.7188 C 499.02905 1096.7188 501.40625 1099.0962 501.40625 1102.0312 C 501.40625 1104.9669 499.02905 1107.3438 496.09375 1107.3438 C 493.15835 1107.3438 490.78125 1104.9669 490.78125 1102.0312 C 490.78125 1099.0963 493.15835 1096.7188 496.09375 1096.7188 z M 531.53125 1096.7188 C 534.46655 1096.7188 536.84375 1099.0962 536.84375 1102.0312 C 536.84375 1104.9669 534.46655 1107.3438 531.53125 1107.3438 C 528.59585 1107.3438 526.21875 1104.9669 526.21875 1102.0312 C 526.21875 1099.0963 528.59585 1096.7188 531.53125 1096.7188 z M 566.96875 1096.7188 C 569.90405 1096.7188 572.28125 1099.0962 572.28125 1102.0312 C 572.28125 1104.9669 569.90405 1107.3438 566.96875 1107.3438 C 564.03335 1107.3438 561.65625 1104.9669 561.65625 1102.0312 C 561.65625 1099.0963 564.03335 1096.7188 566.96875 1096.7188 z M 602.40625 1096.7188 C 605.34155 1096.7188 607.71875 1099.0962 607.71875 1102.0312 C 607.71875 1104.9669 605.34155 1107.3438 602.40625 1107.3438 C 599.47085 1107.3438 597.0625 1104.9669 597.0625 1102.0312 C 597.0625 1099.0963 599.47085 1096.7188 602.40625 1096.7188 z M 637.8125 1096.7188 C 640.7479 1096.7188 643.125 1099.0962 643.125 1102.0312 C 643.125 1104.9669 640.7479 1107.3438 637.8125 1107.3438 C 634.8771 1107.3438 632.5 1104.9669 632.5 1102.0312 C 632.5 1099.0963 634.8771 1096.7188 637.8125 1096.7188 z M 1029.3438 1102.0312 L 1039.9688 1102.0312 L 1039.9688 1137.4688 L 1029.3438 1137.4688 L 1029.3438 1102.0312 z M 448.25 1102.0625 L 458.875 1102.0625 L 458.875 1137.5 L 448.25 1137.5 L 448.25 1102.0625 z M 566.9375 1132.0625 C 569.87287 1132.0625 572.25 1134.471 572.25 1137.4062 C 572.25 1140.3418 569.87287 1142.7188 566.9375 1142.7188 C 564.00213 1142.7188 561.625 1140.3417 561.625 1137.4062 C 561.625 1134.471 564.00213 1132.0625 566.9375 1132.0625 z M 921.25 1132.0625 C 924.18537 1132.0625 926.5625 1134.471 926.5625 1137.4062 C 926.5625 1140.3418 924.18537 1142.7188 921.25 1142.7188 C 918.31463 1142.7188 915.9375 1140.3417 915.9375 1137.4062 C 915.9375 1134.471 918.31463 1132.0625 921.25 1132.0625 z M 672.65625 1132.125 C 672.83495 1132.107 673.03525 1132.125 673.21875 1132.125 C 676.15415 1132.125 678.5625 1134.502 678.5625 1137.4375 C 678.5625 1140.3728 676.15415 1142.75 673.21875 1142.75 C 670.28335 1142.75 667.90625 1140.3728 667.90625 1137.4375 C 667.90625 1134.6856 669.97645 1132.3969 672.65625 1132.125 z M 814.40625 1132.125 C 814.5849 1132.107 814.78529 1132.125 814.96875 1132.125 C 817.90415 1132.125 820.28125 1134.502 820.28125 1137.4375 C 820.28125 1140.3728 817.90415 1142.75 814.96875 1142.75 C 812.03345 1142.75 809.65625 1140.3728 809.65625 1137.4375 C 809.65625 1134.6856 811.72647 1132.3969 814.40625 1132.125 z M 850.375 1132.125 C 853.31037 1132.125 855.71875 1134.502 855.71875 1137.4375 C 855.71875 1140.3728 853.31037 1142.75 850.375 1142.75 C 847.43963 1142.75 845.0625 1140.3728 845.0625 1137.4375 C 845.0625 1134.502 847.43963 1132.125 850.375 1132.125 z M 885.8125 1132.125 C 888.7479 1132.125 891.15625 1134.502 891.15625 1137.4375 C 891.15625 1140.3728 888.7479 1142.75 885.8125 1142.75 C 882.8772 1142.75 880.5 1140.3728 880.5 1137.4375 C 880.5 1134.502 882.8772 1132.125 885.8125 1132.125 z M 956.6875 1132.125 C 959.6229 1132.125 962 1134.502 962 1137.4375 C 962 1140.3728 959.6229 1142.75 956.6875 1142.75 C 953.7522 1142.75 951.375 1140.3728 951.375 1137.4375 C 951.375 1134.502 953.7522 1132.125 956.6875 1132.125 z M 992.125 1132.125 C 995.0604 1132.125 997.4375 1134.502 997.4375 1137.4375 C 997.4375 1140.3728 995.0604 1142.75 992.125 1142.75 C 989.1897 1142.75 986.8125 1140.3728 986.8125 1137.4375 C 986.8125 1134.502 989.1897 1132.125 992.125 1132.125 z M 496.0625 1132.1562 C 498.9979 1132.1562 501.375 1134.5331 501.375 1137.4688 C 501.375 1140.4039 498.9979 1142.7812 496.0625 1142.7812 C 493.1271 1142.7812 490.75 1140.4038 490.75 1137.4688 C 490.75 1134.5331 493.1271 1132.1562 496.0625 1132.1562 z M 531.5 1132.1562 C 534.4354 1132.1562 536.8125 1134.5331 536.8125 1137.4688 C 536.8125 1140.4039 534.4354 1142.7812 531.5 1142.7812 C 528.5646 1142.7812 526.1875 1140.4038 526.1875 1137.4688 C 526.1875 1134.5331 528.5646 1132.1562 531.5 1132.1562 z M 602.40625 1132.1562 C 605.34165 1132.1562 607.71875 1134.5331 607.71875 1137.4688 C 607.71875 1140.4039 605.34165 1142.7812 602.40625 1142.7812 C 599.47085 1142.7812 597.0625 1140.4038 597.0625 1137.4688 C 597.0625 1134.5331 599.47085 1132.1562 602.40625 1132.1562 z M 637.84375 1132.1562 C 640.77905 1132.1562 643.15625 1134.5331 643.15625 1137.4688 C 643.15625 1140.4039 640.77905 1142.7812 637.84375 1142.7812 C 634.90835 1142.7812 632.5 1140.4038 632.5 1137.4688 C 632.5 1134.5331 634.90835 1132.1562 637.84375 1132.1562 z M 551 1155.125 L 561.625 1155.125 L 561.625 1190.5625 L 551 1190.5625 L 551 1155.125 z M 926.59375 1155.125 L 937.21875 1155.125 L 937.21875 1190.5625 L 926.59375 1190.5625 L 926.59375 1155.125 z M 531.46875 1167.5 C 534.40395 1167.5 536.78125 1169.8768 536.78125 1172.8125 C 536.78125 1175.7476 534.40395 1178.125 531.46875 1178.125 C 528.53325 1178.125 526.15625 1175.7476 526.15625 1172.8125 C 526.15625 1169.8768 528.53325 1167.5 531.46875 1167.5 z M 602.34375 1167.5 C 605.27895 1167.5 607.65625 1169.8768 607.65625 1172.8125 C 607.65625 1175.7476 605.27895 1178.125 602.34375 1178.125 C 599.40825 1178.125 597.03125 1175.7476 597.03125 1172.8125 C 597.03125 1169.8768 599.40825 1167.5 602.34375 1167.5 z M 885.8125 1167.5 C 888.7479 1167.5 891.125 1169.8768 891.125 1172.8125 C 891.125 1175.7476 888.7479 1178.125 885.8125 1178.125 C 882.8771 1178.125 880.5 1175.7476 880.5 1172.8125 C 880.5 1169.8768 882.8771 1167.5 885.8125 1167.5 z M 956.6875 1167.5 C 959.6229 1167.5 962 1169.8768 962 1172.8125 C 962 1175.7476 959.6229 1178.125 956.6875 1178.125 C 953.7521 1178.125 951.375 1175.7476 951.375 1172.8125 C 951.375 1169.8768 953.7521 1167.5 956.6875 1167.5 z M 672.65625 1167.5625 C 672.83495 1167.5445 673.03525 1167.5625 673.21875 1167.5625 C 676.15415 1167.5625 678.5625 1169.9396 678.5625 1172.875 C 678.5625 1175.8103 676.15415 1178.1875 673.21875 1178.1875 C 670.28335 1178.1875 667.90625 1175.8103 667.90625 1172.875 C 667.90625 1170.1232 669.97645 1167.8343 672.65625 1167.5625 z M 814.375 1167.5625 C 814.5537 1167.5445 814.754 1167.5625 814.9375 1167.5625 C 817.8729 1167.5625 820.28125 1169.9396 820.28125 1172.875 C 820.28125 1175.8103 817.8729 1178.1875 814.9375 1178.1875 C 812.0021 1178.1875 809.625 1175.8103 809.625 1172.875 C 809.625 1170.1232 811.6952 1167.8343 814.375 1167.5625 z M 850.375 1167.5625 C 853.31037 1167.5625 855.71875 1169.9396 855.71875 1172.875 C 855.71875 1175.8103 853.31037 1178.1875 850.375 1178.1875 C 847.43963 1178.1875 845.0625 1175.8103 845.0625 1172.875 C 845.0625 1169.9396 847.43963 1167.5625 850.375 1167.5625 z M 992.125 1167.5625 C 995.0604 1167.5625 997.4375 1169.9397 997.4375 1172.875 C 997.4375 1175.8105 995.0604 1178.1875 992.125 1178.1875 C 989.1897 1178.1875 986.8125 1175.8105 986.8125 1172.875 C 986.8125 1169.9397 989.1897 1167.5625 992.125 1167.5625 z M 496.0625 1167.5938 C 498.9979 1167.5938 501.375 1169.9712 501.375 1172.9062 C 501.375 1175.8419 498.9979 1178.2188 496.0625 1178.2188 C 493.1271 1178.2188 490.75 1175.8419 490.75 1172.9062 C 490.75 1169.9711 493.1271 1167.5938 496.0625 1167.5938 z M 637.84375 1167.5938 C 640.77905 1167.5938 643.15625 1169.971 643.15625 1172.9062 C 643.15625 1175.8416 640.77905 1178.2188 637.84375 1178.2188 C 634.90835 1178.2188 632.5 1175.8418 632.5 1172.9062 C 632.5 1169.971 634.90835 1167.5938 637.84375 1167.5938 z M 690.9375 1195.875 L 797.25 1195.875 L 797.25 1206.5312 L 690.9375 1206.5312 L 690.9375 1195.875 z M 503.15625 1202.9375 L 538.59375 1202.9375 L 538.59375 1213.5625 L 503.15625 1213.5625 L 503.15625 1202.9375 z M 574.03125 1202.9375 L 609.46875 1202.9375 L 609.46875 1213.5625 L 574.03125 1213.5625 L 574.03125 1202.9375 z M 878.75 1202.9375 L 914.1875 1202.9375 L 914.1875 1213.5625 L 878.75 1213.5625 L 878.75 1202.9375 z M 949.59375 1202.9375 L 985.03125 1202.9375 L 985.03125 1213.5625 L 949.59375 1213.5625 L 949.59375 1202.9375 z M 850.375 1203 C 853.31037 1203 855.71875 1205.3772 855.71875 1208.3125 C 855.71875 1211.2479 853.31037 1213.625 850.375 1213.625 C 847.43963 1213.625 845.0625 1211.2479 845.0625 1208.3125 C 845.0625 1205.3772 847.43963 1203 850.375 1203 z M 637.84375 1203.0312 C 640.77905 1203.0312 643.15625 1205.4081 643.15625 1208.3438 C 643.15625 1211.279 640.77905 1213.6562 637.84375 1213.6562 C 634.90835 1213.6562 632.5 1211.279 632.5 1208.3438 C 632.5 1205.4082 634.90835 1203.0312 637.84375 1203.0312 z M 690.9375 1215.4062 L 797.25 1215.4062 L 797.25 1226.0312 L 690.9375 1226.0312 L 690.9375 1215.4062 z M 551 1226 L 561.625 1226 L 561.625 1261.4375 L 551 1261.4375 L 551 1226 z M 926.59375 1226 L 937.21875 1226 L 937.21875 1261.4375 L 926.59375 1261.4375 L 926.59375 1226 z M 655.5 1233.0625 L 687.4375 1233.0625 L 690.96875 1236.625 L 690.96875 1243.6875 L 797.28125 1243.6875 L 797.28125 1236.625 L 800.8125 1233.0625 L 832.6875 1233.0625 L 836.21875 1236.625 L 858.8125 1236.5938 C 867.863 1236.5938 875.1875 1247.6766 875.1875 1261.375 C 875.1875 1275.0734 867.863 1286.1682 858.8125 1286.1875 L 836.21875 1286.2188 L 832.6875 1289.75 L 800.8125 1289.75 L 797.28125 1286.2188 L 797.28125 1279.125 L 690.96875 1279.125 L 690.96875 1286.2188 L 687.4375 1289.75 L 655.5 1289.75 L 651.96875 1286.2188 L 629.375 1286.1875 C 620.3244 1286.1875 613 1275.0734 613 1261.375 C 613 1247.6766 620.3244 1236.5793 629.375 1236.5938 L 651.96875 1236.625 L 655.5 1233.0625 z M 531.46875 1238.375 C 534.40395 1238.375 536.78125 1240.7518 536.78125 1243.6875 C 536.78125 1246.6225 534.40395 1249 531.46875 1249 C 528.53325 1249 526.15625 1246.6225 526.15625 1243.6875 C 526.15625 1240.7518 528.53325 1238.375 531.46875 1238.375 z M 956.6875 1238.375 C 959.6229 1238.375 962 1240.7518 962 1243.6875 C 962 1246.6225 959.6229 1249 956.6875 1249 C 953.7521 1249 951.375 1246.6225 951.375 1243.6875 C 951.375 1240.7518 953.7521 1238.375 956.6875 1238.375 z M 885.8125 1238.4062 C 888.7479 1238.4062 891.15625 1240.7831 891.15625 1243.7188 C 891.15625 1246.6539 888.7479 1249.0625 885.8125 1249.0625 C 882.8772 1249.0625 880.5 1246.6538 880.5 1243.7188 C 880.5 1240.7831 882.8772 1238.4062 885.8125 1238.4062 z M 602.40625 1238.4375 C 605.34165 1238.4375 607.71875 1240.8146 607.71875 1243.75 C 607.71875 1246.6854 605.34165 1249.0938 602.40625 1249.0938 C 599.47085 1249.0938 597.0625 1246.6853 597.0625 1243.75 C 597.0625 1240.8146 599.47085 1238.4375 602.40625 1238.4375 z M 885.84375 1273.8438 C 888.77915 1273.8436 891.15625 1276.221 891.15625 1279.1562 C 891.15625 1282.0918 888.77915 1284.5 885.84375 1284.5 C 882.90835 1284.5 880.53125 1282.0919 880.53125 1279.1562 C 880.53125 1276.221 882.90835 1273.8438 885.84375 1273.8438 z M 602.375 1273.875 C 605.3103 1273.875 607.6875 1276.252 607.6875 1279.1875 C 607.6875 1282.1227 605.3103 1284.5312 602.375 1284.5312 C 599.4396 1284.5312 597.0625 1282.1227 597.0625 1279.1875 C 597.0625 1276.252 599.4396 1273.875 602.375 1273.875 z M 655.5 1296.8438 C 658.4354 1296.8438 660.8125 1299.221 660.8125 1302.1562 C 660.8125 1305.0916 658.4354 1307.5 655.5 1307.5 C 652.5646 1307.4999 650.1875 1305.0916 650.1875 1302.1562 C 650.1875 1299.2209 652.5646 1296.8436 655.5 1296.8438 z M 690.9375 1296.8438 L 726.375 1296.8438 L 726.375 1307.4688 L 690.9375 1307.4688 L 690.9375 1296.8438 z M 761.8125 1296.8438 L 797.25 1296.8438 L 797.25 1307.4688 L 761.8125 1307.4688 L 761.8125 1296.8438 z M 832.6875 1296.8438 C 835.6229 1296.8438 838 1299.221 838 1302.1562 C 838 1305.0916 835.6229 1307.5 832.6875 1307.5 C 829.7521 1307.4999 827.375 1305.0916 827.375 1302.1562 C 827.375 1299.2209 829.7521 1296.8436 832.6875 1296.8438 z "
         style="fill:#000080;fill-opacity:0.32352941000000002;stroke:none" />
      <path
         id="path11902"
         style="fill:none;stroke:#000000"
         d=""
         inkscape:connector-curvature="0" />
      <g
         inkscape:label="Hershey Text"
         transform="translate(1320.5387,49.282137)"
         id="g12719">
        <path
           inkscape:connector-curvature="0"
           d="m 1,-10 1,1 0,3 -1,4 -1,3 -1,2 -2,3 -2,2 -2,1 -1,0 -1,-1 0,-3 1,-5 1,-3 1,-2 2,-3 2,-2 2,-1 3,-1 3,0 2,1 1,2 0,2 -1,2 -1,1 -2,1 -3,1 M 1,-2 2,-2 5,-1 6,0 7,2 7,5 6,7 5,8 3,9 0,9 -2,8 -3,6"
           style="fill:none;stroke:#000000"
           transform="translate(12,0)"
           id="path12721" />
        <path
           inkscape:connector-curvature="0"
           d="M 3,3 2,1 0,0 -2,0 -4,1 -5,2 -6,4 -6,6 -5,8 -3,9 -1,9 1,8 2,6 4,0 3,5 3,8 4,9 5,9 7,8 8,7 10,4"
           style="fill:none;stroke:#000000"
           transform="translate(29,0)"
           id="path12723" />
        <path
           inkscape:connector-curvature="0"
           d="m -4,4 2,-3 1,-2 0,2 2,3 1,2 0,2 -2,1 M -4,8 -2,9 2,9 4,8 5,7 7,4"
           style="fill:none;stroke:#000000"
           transform="translate(43,0)"
           id="path12725" />
        <path
           inkscape:connector-curvature="0"
           d="M -3,7 -1,6 0,5 1,3 1,1 0,0 -1,0 -3,1 -4,3 -4,6 -3,8 -1,9 1,9 3,8 4,7 6,4"
           style="fill:none;stroke:#000000"
           transform="translate(54,0)"
           id="path12727" />
        <path
           inkscape:connector-curvature="0"
           d="m 1,-10 1,1 0,3 -1,4 -1,3 -1,2 -2,3 -2,2 -2,1 -1,0 -1,-1 0,-3 1,-5 1,-3 1,-2 2,-3 2,-2 2,-1 3,-1 3,0 2,1 1,2 0,2 -1,2 -1,1 -2,1 -3,1 M 1,-2 2,-2 5,-1 6,0 7,2 7,5 6,7 5,8 3,9 0,9 -2,8 -3,6"
           style="fill:none;stroke:#000000"
           transform="translate(72,0)"
           id="path12729" />
        <path
           inkscape:connector-curvature="0"
           d="m 0,0 -2,0 -2,1 -1,1 -1,2 0,2 1,2 2,1 2,0 L 1,8 2,7 3,5 3,3 2,1 0,0 -1,1 -1,3 0,5 2,6 5,6 7,5 8,4"
           style="fill:none;stroke:#000000"
           transform="translate(89,0)"
           id="path12731" />
        <path
           inkscape:connector-curvature="0"
           d="M -3,4 -1,1 1,-3 M 4,-12 -2,6 -2,8 -1,9 1,9 3,8 4,7 6,4 m -8,-8 7,0"
           style="fill:none;stroke:#000000"
           transform="translate(100,0)"
           id="path12733" />
      </g>
      <g
         id="g13876"
         transform="matrix(0.5670103,0,0,0.5670103,1341.3685,101.78225)"
         inkscape:label="Hershey Text">
        <path
           id="path13878"
           transform="translate(10,0)"
           style="fill:none;stroke:#000000"
           d="m -6,-12 0,21 m 0,-11 2,-2 2,-1 3,0 2,1 2,2 L 6,1 6,3 5,6 3,8 1,9 -2,9 -4,8 -6,6"
           inkscape:connector-curvature="0" />
        <path
           id="path13880"
           transform="translate(27,0)"
           style="fill:none;stroke:#000000"
           d="M -6,-5 0,9 M 6,-5 0,9 l -2,4 -2,2 -2,1 -1,0"
           inkscape:connector-curvature="0" />
        <path
           id="path13882"
           transform="translate(43,0)"
           style="fill:none;stroke:#000000"
           d=""
           inkscape:connector-curvature="0" />
        <path
           id="path13884"
           transform="translate(59,0)"
           style="fill:none;stroke:#000000"
           d="M 0,-12 0,9 m -7,-21 14,0"
           inkscape:connector-curvature="0" />
        <path
           id="path13886"
           transform="translate(76,0)"
           style="fill:none;stroke:#000000"
           d="m -1,-5 -2,1 -2,2 -1,3 0,2 1,3 2,2 2,1 L 2,9 4,8 6,6 7,3 7,1 6,-2 4,-4 2,-5 -1,-5"
           inkscape:connector-curvature="0" />
        <path
           id="path13888"
           transform="translate(101,0)"
           style="fill:none;stroke:#000000"
           d="m -11,-5 0,14 m 0,-10 3,-3 2,-1 3,0 2,1 1,3 0,10 m 0,-10 3,-3 2,-1 3,0 2,1 1,3 0,10"
           inkscape:connector-curvature="0" />
      </g>
      <path
         style="fill:none;stroke:#000000;stroke-width:1px;stroke-linecap:butt;stroke-linejoin:miter;stroke-opacity:1"
         d="m 1286.2205,-279.92133 -0,439.37008"
         id="path4318"
         inkscape:connector-curvature="0"
         sodipodi:nodetypes="cc" />
      <path
         style="fill:none;stroke:#000000;stroke-width:1px;stroke-linecap:butt;stroke-linejoin:miter;stroke-opacity:1"
         d="m 1463.3858,159.44875 0,-439.37008"
         id="path4320"
         inkscape:connector-curvature="0"
         sodipodi:nodetypes="cc" />
      <path
         style="fill:none;stroke:#000000;stroke-width:1px;stroke-linecap:butt;stroke-linejoin:miter;stroke-opacity:1"
         d="m 1374.831,-364.9369 0,38.97638"
         id="path4331"
         inkscape:connector-curvature="0" />
      <path
         style="fill:none;stroke:#000000;stroke-width:1px;stroke-linecap:butt;stroke-linejoin:miter;stroke-opacity:1"
         d="m 1374.831,244.5119 0,-38.9764"
         id="path4333"
         inkscape:connector-curvature="0" />
      <g
         inkscape:label="Hershey Text"
         transform="matrix(0.53686471,0,0,0.53686471,1318.7008,76.181028)"
         id="g3649">
        <path
           inkscape:connector-curvature="0"
           style="fill:none;stroke:#000000"
           d="m -4,-8 2,-1 3,-3 0,21"
           transform="translate(10,0)"
           id="path3651" />
        <path
           inkscape:connector-curvature="0"
           style="fill:none;stroke:#000000"
           d="M 3,-12 -7,2 8,2 M 3,-12 3,9"
           transform="translate(30,0)"
           id="path3653" />
        <path
           inkscape:connector-curvature="0"
           style="fill:none;stroke:#000000"
           d="M 9,-16 -9,16"
           transform="translate(51,0)"
           id="path3655" />
        <path
           inkscape:connector-curvature="0"
           style="fill:none;stroke:#000000"
           d="m -4,-8 2,-1 3,-3 0,21"
           transform="translate(72,0)"
           id="path3657" />
        <path
           inkscape:connector-curvature="0"
           style="fill:none;stroke:#000000"
           d="m -1,-12 -3,1 -2,3 -1,5 0,3 1,5 2,3 3,1 2,0 3,-1 2,-3 1,-5 0,-3 -1,-5 -2,-3 -3,-1 -2,0"
           transform="translate(92,0)"
           id="path3659" />
        <path
           inkscape:connector-curvature="0"
           style="fill:none;stroke:#000000"
           d="M 9,-16 -9,16"
           transform="translate(113,0)"
           id="path3661" />
        <path
           inkscape:connector-curvature="0"
           style="fill:none;stroke:#000000"
           d="m -6,-7 0,-1 1,-2 1,-1 2,-1 4,0 2,1 1,1 1,2 0,2 L 5,-4 3,-1 -7,9 7,9"
           transform="translate(134,0)"
           id="path3663" />
        <path
           inkscape:connector-curvature="0"
           style="fill:none;stroke:#000000"
           d="m -1,-12 -3,1 -2,3 -1,5 0,3 1,5 2,3 3,1 2,0 3,-1 2,-3 1,-5 0,-3 -1,-5 -2,-3 -3,-1 -2,0"
           transform="translate(154,0)"
           id="path3665" />
        <path
           inkscape:connector-curvature="0"
           style="fill:none;stroke:#000000"
           d="m -4,-8 2,-1 3,-3 0,21"
           transform="translate(174,0)"
           id="path3667" />
        <path
           inkscape:connector-curvature="0"
           style="fill:none;stroke:#000000"
           d="m -5,-12 11,0 -6,8 3,0 2,1 1,1 L 7,1 7,3 6,6 4,8 1,9 -2,9 -5,8 -6,7 -7,5"
           transform="translate(194,0)"
           id="path3669" />
      </g>
    </g>
  </g>
  <g
     transform="translate(0,1073.622)"
     style="display:inline"
     inkscape:label="Verticals"
     id="layer7"
     inkscape:groupmode="layer" />
  <g
     style="display:inline"
     inkscape:label="Wheels"
     id="layer8"
     inkscape:groupmode="layer" />
  <g
     style="display:inline"
     inkscape:label="Bearings (working layer)"
     id="layer9"
     inkscape:groupmode="layer" />
  <g
     style="display:inline"
     inkscape:label="Bearings (production layer)"
     id="layer10"
     inkscape:groupmode="layer" />
  <g
     transform="translate(0,1073.622)"
     style="display:inline"
     inkscape:label="30x3 Slots (Motor mount)"
     id="layer5"
     inkscape:groupmode="layer" />
  <g
     transform="translate(0,1073.622)"
     style="display:inline"
     inkscape:label="5x3 Slots (Motor mount)"
     id="layer4"
     inkscape:groupmode="layer" />
  <g
     transform="translate(0,1073.622)"
     style="display:inline"
     inkscape:label="10x3 Slots"
     id="layer3"
     inkscape:groupmode="layer" />
  <g
     transform="translate(0,1073.622)"
     style="display:inline"
     inkscape:label="3x10 Slots"
     id="layer2"
     inkscape:groupmode="layer" />
</svg>
