<?xml version="1.0" encoding="UTF-8" standalone="no"?>
<!-- Created with Inkscape (http://www.inkscape.org/) -->

<svg
   xmlns:dc="http://purl.org/dc/elements/1.1/"
   xmlns:cc="http://creativecommons.org/ns#"
   xmlns:rdf="http://www.w3.org/1999/02/22-rdf-syntax-ns#"
   xmlns:svg="http://www.w3.org/2000/svg"
   xmlns="http://www.w3.org/2000/svg"
   xmlns:sodipodi="http://sodipodi.sourceforge.net/DTD/sodipodi-0.dtd"
   xmlns:inkscape="http://www.inkscape.org/namespaces/inkscape"
   width="3188.9763"
   height="2125.9841"
   id="svg2"
   version="1.1"
   inkscape:version="0.48.4 r9939"
   sodipodi:docname="verticals+castors.svg">
  <sodipodi:namedview
     id="base"
     pagecolor="#ffffff"
     bordercolor="#666666"
     borderopacity="1.0"
     inkscape:pageopacity="0.0"
     inkscape:pageshadow="2"
     inkscape:zoom="1.0374497"
     inkscape:cx="1126.5874"
     inkscape:cy="1708.0031"
     inkscape:document-units="mm"
     inkscape:current-layer="layer10"
     showgrid="true"
     inkscape:snap-object-midpoints="false"
     inkscape:snap-bbox="true"
     inkscape:object-paths="false"
     inkscape:snap-nodes="true"
     inkscape:object-nodes="false"
     inkscape:snap-global="true"
     inkscape:snap-grids="true"
     inkscape:window-width="1920"
     inkscape:window-height="1030"
     inkscape:window-x="0"
     inkscape:window-y="0"
     inkscape:window-maximized="1"
     inkscape:snap-smooth-nodes="false"
     units="mm">
    <inkscape:grid
       type="xygrid"
       id="grid2985"
       empspacing="10"
       visible="true"
       enabled="true"
       snapvisiblegridlinesonly="true"
       units="mm"
       spacingx="1mm"
       spacingy="1mm"
       empcolor="#ff9500"
       empopacity="0.25098039" />
  </sodipodi:namedview>
  <defs
     id="defs4" />
  <metadata
     id="metadata7">
    <rdf:RDF>
      <cc:Work
         rdf:about="">
        <dc:format>image/svg+xml</dc:format>
        <dc:type
           rdf:resource="http://purl.org/dc/dcmitype/StillImage" />
        <dc:title></dc:title>
      </cc:Work>
    </rdf:RDF>
  </metadata>
  <g
     inkscape:groupmode="layer"
     id="layer10"
     inkscape:label="Verticals and Castors"
     style="display:inline">
    <path
       style="fill:#000000;fill-opacity:0.32352941;stroke:none;display:inline"
       d="m 1225.9843,216.12839 c 0,-10.6167 -7.0866,-17.7033 -17.7165,-17.7033 l -106.3124,0 c -10.6168,0 -17.7034,7.0866 -17.7034,17.7033 l 0,106.31243 c 0,10.62992 7.0866,17.71654 17.7166,17.71654 l 106.3124,0 c 10.6167,0 17.7033,-7.08662 17.7033,-17.71654 z m -12.3772,0.018 c 0,2.9354 -2.3771,5.3125 -5.3126,5.3125 -2.9353,0 -5.3437,-2.3771 -5.3437,-5.3125 0,-2.9354 2.4084,-5.3125 5.3437,-5.3125 2.9355,0 5.3125,2.3771 5.3126,5.3125 z m 0,35.4375 c 0,2.9354 -2.3771,5.3124 -5.3126,5.3124 -2.9353,0 -5.3437,-2.377 -5.3437,-5.3124 0,-2.9354 2.4084,-5.3125 5.3437,-5.3125 2.9355,0 5.3125,2.3771 5.3126,5.3125 z m 0,35.43743 c 0,2.9354 -2.3771,5.3125 -5.3126,5.3125 -2.9353,0 -5.3437,-2.3771 -5.3437,-5.3125 0,-2.9354 2.4084,-5.3125 5.3437,-5.3125 2.9355,0 5.3125,2.3771 5.3126,5.3125 z m 0,35.4375 c 0,2.9354 -2.3771,5.3125 -5.3126,5.3125 -2.9353,0 -5.3437,-2.3771 -5.3437,-5.3125 0,-2.9354 2.4084,-5.3125 5.3437,-5.3125 2.9355,0 5.3125,2.3771 5.3126,5.3125 z m -35.4376,-106.31243 c 0,2.9354 -2.377,5.3125 -5.3124,5.3125 -2.9354,0 -5.3126,-2.3771 -5.3126,-5.3125 0,-2.9354 2.3772,-5.3125 5.3126,-5.3125 2.9354,0 5.3124,2.3771 5.3124,5.3125 z m 0,35.4375 c 0,2.9354 -2.377,5.3124 -5.3124,5.3124 -2.9354,0 -5.3126,-2.377 -5.3126,-5.3124 0,-2.9354 2.3772,-5.3125 5.3126,-5.3125 2.9354,0 5.3124,2.3771 5.3124,5.3125 z m 0,35.43743 c 0,2.9354 -2.377,5.3125 -5.3124,5.3125 -2.9354,0 -5.3126,-2.3771 -5.3126,-5.3125 0,-2.9354 2.3772,-5.3125 5.3126,-5.3125 2.9354,0 5.3124,2.3771 5.3124,5.3125 z m 0,35.4375 c 0,2.9354 -2.377,5.3125 -5.3124,5.3125 -2.9354,0 -5.3126,-2.3771 -5.3126,-5.3125 0,-2.9354 2.3772,-5.3125 5.3126,-5.3125 2.9354,0 5.3124,2.3771 5.3124,5.3125 z m -35.4374,-106.31243 c 0,2.9354 -2.3771,5.3125 -5.3126,5.3125 -2.9354,0 -5.3125,-2.3771 -5.3124,-5.3125 0,-2.9354 2.377,-5.3125 5.3124,-5.3125 2.9354,0 5.3125,2.3771 5.3126,5.3125 z m 0,35.4375 c 0,2.9354 -2.3771,5.3124 -5.3126,5.3124 -2.9354,0 -5.3125,-2.377 -5.3124,-5.3124 0,-2.9354 2.377,-5.3125 5.3124,-5.3125 2.9354,0 5.3125,2.3771 5.3126,5.3125 z m 0,35.43743 c 0,2.9354 -2.3771,5.3125 -5.3126,5.3125 -2.9354,0 -5.3125,-2.3771 -5.3124,-5.3125 0,-2.9354 2.377,-5.3125 5.3124,-5.3125 2.9354,0 5.3125,2.3771 5.3126,5.3125 z m 0,35.4375 c 0,2.9354 -2.3771,5.3125 -5.3126,5.3125 -2.9354,0 -5.3125,-2.3771 -5.3124,-5.3125 0,-2.9354 2.377,-5.3125 5.3124,-5.3125 2.9354,0 5.3125,2.3771 5.3126,5.3125 z m -35.4376,-106.31243 c 0,2.9354 -2.377,5.3125 -5.3124,5.3125 -2.9355,0 -5.3126,-2.3771 -5.3126,-5.3125 0,-2.9354 2.3771,-5.3125 5.3126,-5.3125 2.9353,0 5.3124,2.3771 5.3124,5.3125 z m 0,35.4375 c 0,2.9354 -2.377,5.3124 -5.3124,5.3124 -2.9355,0 -5.3126,-2.377 -5.3126,-5.3124 0,-2.9354 2.3771,-5.3125 5.3126,-5.3125 2.9353,0 5.3124,2.3771 5.3124,5.3125 z m 0,35.43743 c 0,2.9354 -2.377,5.3125 -5.3124,5.3125 -2.9355,0 -5.3126,-2.3771 -5.3126,-5.3125 0,-2.9354 2.3771,-5.3125 5.3126,-5.3125 2.9353,0 5.3124,2.3771 5.3124,5.3125 z m 0,35.4375 c 0,2.9354 -2.377,5.3125 -5.3124,5.3125 -2.9355,0 -5.3126,-2.3771 -5.3126,-5.3125 0,-2.9354 2.3771,-5.3125 5.3126,-5.3125 2.9353,0 5.3124,2.3771 5.3124,5.3125 z"
       id="rect3822-4"
       inkscape:connector-curvature="0"
       sodipodi:nodetypes="ssssssssscsssccsssccsssccssscsssssssssssssssssssscscsccscsccscsccscscssssssssssssssssssss" />
    <path
       style="fill:#000000;fill-opacity:0.32352941;stroke:none;display:inline"
       d="m 1070.0787,336.60082 c 0,-10.6167 -7.0866,-17.7033 -17.7165,-17.7033 l -106.31211,0 c -10.6168,0 -17.7034,7.0866 -17.7034,17.7033 l 0,106.31243 c 0,10.62992 7.0866,17.71654 17.7166,17.71654 l 106.31211,0 c 10.6167,0 17.7033,-7.08662 17.7033,-17.71654 z m -12.3772,0.018 c 0,2.9354 -2.3771,5.3125 -5.3126,5.3125 -2.9353,0 -5.3437,-2.3771 -5.3437,-5.3125 0,-2.9354 2.4084,-5.3125 5.3437,-5.3125 2.9355,0 5.3125,2.3771 5.3126,5.3125 z m 0,35.4375 c 0,2.9354 -2.3771,5.3124 -5.3126,5.3124 -2.9353,0 -5.3437,-2.377 -5.3437,-5.3124 0,-2.9354 2.4084,-5.3125 5.3437,-5.3125 2.9355,0 5.3125,2.3771 5.3126,5.3125 z m 0,35.43743 c 0,2.9354 -2.3771,5.3125 -5.3126,5.3125 -2.9353,0 -5.3437,-2.3771 -5.3437,-5.3125 0,-2.9354 2.4084,-5.3125 5.3437,-5.3125 2.9355,0 5.3125,2.3771 5.3126,5.3125 z m 0,35.4375 c 0,2.9354 -2.3771,5.3125 -5.3126,5.3125 -2.9353,0 -5.3437,-2.3771 -5.3437,-5.3125 0,-2.9354 2.4084,-5.3125 5.3437,-5.3125 2.9355,0 5.3125,2.3771 5.3126,5.3125 z m -35.4376,-106.31243 c 0,2.9354 -2.377,5.3125 -5.3124,5.3125 -2.9354,0 -5.3126,-2.3771 -5.3126,-5.3125 0,-2.9354 2.3772,-5.3125 5.3126,-5.3125 2.9354,0 5.3124,2.3771 5.3124,5.3125 z m 0,35.4375 c 0,2.9354 -2.377,5.3124 -5.3124,5.3124 -2.9354,0 -5.3126,-2.377 -5.3126,-5.3124 0,-2.9354 2.3772,-5.3125 5.3126,-5.3125 2.9354,0 5.3124,2.3771 5.3124,5.3125 z m 0,35.43743 c 0,2.9354 -2.377,5.3125 -5.3124,5.3125 -2.9354,0 -5.3126,-2.3771 -5.3126,-5.3125 0,-2.9354 2.3772,-5.3125 5.3126,-5.3125 2.9354,0 5.3124,2.3771 5.3124,5.3125 z m 0,35.4375 c 0,2.9354 -2.377,5.3125 -5.3124,5.3125 -2.9354,0 -5.3126,-2.3771 -5.3126,-5.3125 0,-2.9354 2.3772,-5.3125 5.3126,-5.3125 2.9354,0 5.3124,2.3771 5.3124,5.3125 z M 986.82679,336.61882 c 0,2.9354 -2.3771,5.3125 -5.3126,5.3125 -2.9354,0 -5.3125,-2.3771 -5.3124,-5.3125 0,-2.9354 2.377,-5.3125 5.3124,-5.3125 2.9354,0 5.3125,2.3771 5.3126,5.3125 z m 0,35.4375 c 0,2.9354 -2.3771,5.3124 -5.3126,5.3124 -2.9354,0 -5.3125,-2.377 -5.3124,-5.3124 0,-2.9354 2.377,-5.3125 5.3124,-5.3125 2.9354,0 5.3125,2.3771 5.3126,5.3125 z m 0,35.43743 c 0,2.9354 -2.3771,5.3125 -5.3126,5.3125 -2.9354,0 -5.3125,-2.3771 -5.3124,-5.3125 0,-2.9354 2.377,-5.3125 5.3124,-5.3125 2.9354,0 5.3125,2.3771 5.3126,5.3125 z m 0,35.4375 c 0,2.9354 -2.3771,5.3125 -5.3126,5.3125 -2.9354,0 -5.3125,-2.3771 -5.3124,-5.3125 0,-2.9354 2.377,-5.3125 5.3124,-5.3125 2.9354,0 5.3125,2.3771 5.3126,5.3125 z m -35.4376,-106.31243 c 0,2.9354 -2.377,5.3125 -5.3124,5.3125 -2.9355,0 -5.3126,-2.3771 -5.3126,-5.3125 0,-2.9354 2.3771,-5.3125 5.3126,-5.3125 2.9353,0 5.3124,2.3771 5.3124,5.3125 z m 0,35.4375 c 0,2.9354 -2.377,5.3124 -5.3124,5.3124 -2.9355,0 -5.3126,-2.377 -5.3126,-5.3124 0,-2.9354 2.3771,-5.3125 5.3126,-5.3125 2.9353,0 5.3124,2.3771 5.3124,5.3125 z m 0,35.43743 c 0,2.9354 -2.377,5.3125 -5.3124,5.3125 -2.9355,0 -5.3126,-2.3771 -5.3126,-5.3125 0,-2.9354 2.3771,-5.3125 5.3126,-5.3125 2.9353,0 5.3124,2.3771 5.3124,5.3125 z m 0,35.4375 c 0,2.9354 -2.377,5.3125 -5.3124,5.3125 -2.9355,0 -5.3126,-2.3771 -5.3126,-5.3125 0,-2.9354 2.3771,-5.3125 5.3126,-5.3125 2.9353,0 5.3124,2.3771 5.3124,5.3125 z"
       id="rect3822-4-8"
       inkscape:connector-curvature="0"
       sodipodi:nodetypes="ssssssssscsssccsssccsssccssscsssssssssssssssssssscscsccscsccscsccscscssssssssssssssssssss" />
    <path
       style="fill:#000000;fill-opacity:0.32352941;stroke:none;display:inline"
       d="m 1275.5883,460.6298 0,-10.6562 17.7188,0 0,-91.2188 -17.7188,0 0,-10.625 -35.4374,0 0,10.625 -35.4376,0 0,-10.625 -35.4062,0 0,10.625 -17.7188,0 0,91.2188 17.7188,0 0,10.6562 35.4062,0 0,-10.6562 35.4376,0 0,10.6562 35.4374,0 z m 0,-33.2187 c -2.9355,0 -5.3437,-2.3773 -5.3437,-5.3125 0,-2.9354 2.4082,-5.3125 5.3437,-5.3125 2.9355,0 5.3126,2.377 5.3126,5.3125 0,2.9353 -2.3771,5.3125 -5.3126,5.3125 z m -35.4374,0 c -2.9356,0 -5.3126,-2.3773 -5.3126,-5.3125 0,-2.9354 2.377,-5.3125 5.3126,-5.3125 2.9354,0 5.3124,2.377 5.3124,5.3125 0,2.9353 -2.377,5.3125 -5.3124,5.3125 z m -35.4376,0 c -2.9355,0 -5.3124,-2.3773 -5.3124,-5.3125 0,-2.9354 2.3769,-5.3125 5.3124,-5.3125 2.9355,0 5.3126,2.377 5.3126,5.3125 0,2.9353 -2.3771,5.3125 -5.3126,5.3125 z m -35.4374,0 c -2.9356,0 -5.3126,-2.3773 -5.3126,-5.3125 0,-2.9354 2.377,-5.3125 5.3126,-5.3125 2.9354,0 5.3124,2.377 5.3124,5.3125 0,2.9353 -2.377,5.3125 -5.3124,5.3125 z m 53.1562,-17.6875 c -2.9339,0 -5.3124,-2.3786 -5.3125,-5.3125 0,-2.9338 2.3787,-5.3127 5.3125,-5.3125 2.9338,0 5.3125,2.3789 5.3125,5.3125 0,2.9338 -2.3787,5.3125 -5.3125,5.3125 z m 53.6875,-17.75 c -0.1785,0.018 -0.3476,0 -0.5313,0 -2.9355,0 -5.3437,-2.3769 -5.3437,-5.3125 0,-2.9353 2.4082,-5.3125 5.3437,-5.3125 2.9355,0 5.3126,2.3773 5.3126,5.3125 0,2.7521 -2.1011,5.0402 -4.7813,5.3125 z m -35.4375,0 c -0.1786,0.018 -0.3476,0 -0.5312,0 -2.9356,0 -5.3126,-2.3769 -5.3126,-5.3125 0,-2.9353 2.377,-5.3125 5.3126,-5.3125 2.9354,0 5.3124,2.3773 5.3124,5.3125 0,2.7521 -2.1011,5.0402 -4.7812,5.3125 z m -35.4375,0 c -0.1785,0.018 -0.3476,0 -0.5313,0 -2.9355,0 -5.3124,-2.3769 -5.3124,-5.3125 0,-2.9353 2.3769,-5.3125 5.3124,-5.3125 2.9355,0 5.3126,2.3773 5.3126,5.3125 0,2.7521 -2.1011,5.0402 -4.7813,5.3125 z m -35.4375,0 c -0.1786,0.018 -0.3476,0 -0.5312,0 -2.9356,0 -5.3126,-2.3769 -5.3126,-5.3125 0,-2.9353 2.377,-5.3125 5.3126,-5.3125 2.9354,0 5.3124,2.3773 5.3124,5.3125 0,2.7521 -2.1011,5.0402 -4.7812,5.3125 z"
       id="path3772-7"
       inkscape:connector-curvature="0" />
    <path
       style="fill:#000000;fill-opacity:0.32352941;stroke:none;display:inline"
       d="m 1094.8773,467.71817 0,10.6562 -17.7188,0 0,91.2188 17.7188,0 0,10.625 35.4374,0 0,-10.625 35.4376,0 0,10.625 35.4062,0 0,-10.625 17.7188,0 0,-91.2188 -17.7188,0 0,-10.6562 -35.4062,0 0,10.6562 -35.4376,0 0,-10.6562 -35.4374,0 z m 0,33.2187 c 2.9355,0 5.3437,2.3773 5.3437,5.3125 0,2.9354 -2.4082,5.3125 -5.3437,5.3125 -2.9355,0 -5.3126,-2.377 -5.3126,-5.3125 0,-2.9353 2.3771,-5.3125 5.3126,-5.3125 z m 35.4374,0 c 2.9356,0 5.3126,2.3773 5.3126,5.3125 0,2.9354 -2.377,5.3125 -5.3126,5.3125 -2.9354,0 -5.3124,-2.377 -5.3124,-5.3125 0,-2.9353 2.377,-5.3125 5.3124,-5.3125 z m 35.4376,0 c 2.9355,0 5.3124,2.3773 5.3124,5.3125 0,2.9354 -2.3769,5.3125 -5.3124,5.3125 -2.9355,0 -5.3126,-2.377 -5.3126,-5.3125 0,-2.9353 2.3771,-5.3125 5.3126,-5.3125 z m 35.4374,0 c 2.9356,0 5.3126,2.3773 5.3126,5.3125 0,2.9354 -2.377,5.3125 -5.3126,5.3125 -2.9354,0 -5.3124,-2.377 -5.3124,-5.3125 0,-2.9353 2.377,-5.3125 5.3124,-5.3125 z m -53.1562,17.6875 c 2.9339,0 5.3124,2.3786 5.3125,5.3125 0,2.9338 -2.3787,5.3127 -5.3125,5.3125 -2.9338,0 -5.3125,-2.3789 -5.3125,-5.3125 0,-2.9338 2.3787,-5.3125 5.3125,-5.3125 z m -53.6875,17.75 c 0.1785,-0.018 0.3476,0 0.5313,0 2.9355,0 5.3437,2.3769 5.3437,5.31255 0,2.9353 -2.4082,5.3125 -5.3437,5.3125 -2.9355,0 -5.3126,-2.3773 -5.3126,-5.3125 0,-2.75215 2.1011,-5.04025 4.7813,-5.31255 z m 35.4375,0 c 0.1786,-0.018 0.3476,0 0.5312,0 2.9356,0 5.3126,2.3769 5.3126,5.31255 0,2.9353 -2.377,5.3125 -5.3126,5.3125 -2.9354,0 -5.3124,-2.3773 -5.3124,-5.3125 0,-2.75215 2.1011,-5.04025 4.7812,-5.31255 z m 35.4375,0 c 0.1785,-0.018 0.3476,0 0.5313,0 2.9355,0 5.3124,2.3769 5.3124,5.31255 0,2.9353 -2.3769,5.3125 -5.3124,5.3125 -2.9355,0 -5.3126,-2.3773 -5.3126,-5.3125 0,-2.75215 2.1011,-5.04025 4.7813,-5.31255 z m 35.4375,0 c 0.1786,-0.018 0.3476,0 0.5312,0 2.9356,0 5.3126,2.3769 5.3126,5.31255 0,2.9353 -2.377,5.3125 -5.3126,5.3125 -2.9354,0 -5.3124,-2.3773 -5.3124,-5.3125 0,-2.75215 2.1011,-5.04025 4.7812,-5.31255 z"
       id="path3772-77"
       inkscape:connector-curvature="0" />
    <path
       style="fill:#000000;fill-opacity:0.32352941;stroke:none;display:inline"
       d="m 1243.6962,467.71817 0,10.6562 -17.7188,0 0,91.2188 17.7188,0 0,10.625 35.4374,0 0,-10.625 35.4376,0 0,10.625 35.4062,0 0,-10.625 17.7188,0 0,-91.2188 -17.7188,0 0,-10.6562 -35.4062,0 0,10.6562 -35.4376,0 0,-10.6562 -35.4374,0 z m 0,33.2187 c 2.9355,0 5.3437,2.3773 5.3437,5.3125 0,2.9354 -2.4082,5.3125 -5.3437,5.3125 -2.9355,0 -5.3126,-2.377 -5.3126,-5.3125 0,-2.9353 2.3771,-5.3125 5.3126,-5.3125 z m 35.4374,0 c 2.9356,0 5.3126,2.3773 5.3126,5.3125 0,2.9354 -2.377,5.3125 -5.3126,5.3125 -2.9354,0 -5.3124,-2.377 -5.3124,-5.3125 0,-2.9353 2.377,-5.3125 5.3124,-5.3125 z m 35.4376,0 c 2.9355,0 5.3124,2.3773 5.3124,5.3125 0,2.9354 -2.3769,5.3125 -5.3124,5.3125 -2.9355,0 -5.3126,-2.377 -5.3126,-5.3125 0,-2.9353 2.3771,-5.3125 5.3126,-5.3125 z m 35.4374,0 c 2.9356,0 5.3126,2.3773 5.3126,5.3125 0,2.9354 -2.377,5.3125 -5.3126,5.3125 -2.9354,0 -5.3124,-2.377 -5.3124,-5.3125 0,-2.9353 2.377,-5.3125 5.3124,-5.3125 z m -53.1562,17.6875 c 2.9339,0 5.3124,2.3786 5.3125,5.3125 0,2.9338 -2.3787,5.3127 -5.3125,5.3125 -2.9338,0 -5.3125,-2.3789 -5.3125,-5.3125 0,-2.9338 2.3787,-5.3125 5.3125,-5.3125 z m -53.6875,17.75 c 0.1785,-0.018 0.3476,0 0.5313,0 2.9355,0 5.3437,2.3769 5.3437,5.31255 0,2.9353 -2.4082,5.3125 -5.3437,5.3125 -2.9355,0 -5.3126,-2.3773 -5.3126,-5.3125 0,-2.75215 2.1011,-5.04025 4.7813,-5.31255 z m 35.4375,0 c 0.1786,-0.018 0.3476,0 0.5312,0 2.9356,0 5.3126,2.3769 5.3126,5.31255 0,2.9353 -2.377,5.3125 -5.3126,5.3125 -2.9354,0 -5.3124,-2.3773 -5.3124,-5.3125 0,-2.75215 2.1011,-5.04025 4.7812,-5.31255 z m 35.4375,0 c 0.1785,-0.018 0.3476,0 0.5313,0 2.9355,0 5.3124,2.3769 5.3124,5.31255 0,2.9353 -2.3769,5.3125 -5.3124,5.3125 -2.9355,0 -5.3126,-2.3773 -5.3126,-5.3125 0,-2.75215 2.1011,-5.04025 4.7813,-5.31255 z m 35.4375,0 c 0.1786,-0.018 0.3476,0 0.5312,0 2.9356,0 5.3126,2.3769 5.3126,5.31255 0,2.9353 -2.377,5.3125 -5.3126,5.3125 -2.9354,0 -5.3124,-2.3773 -5.3124,-5.3125 0,-2.75215 2.1011,-5.04025 4.7812,-5.31255 z"
       id="path3772-9"
       inkscape:connector-curvature="0" />
    <path
       style="fill:#000000;fill-opacity:0.32352941;stroke:none;display:inline"
       d="m 1392.5151,467.71817 0,10.6562 -17.7188,0 0,91.2188 17.7188,0 0,10.625 35.4374,0 0,-10.625 35.4376,0 0,10.625 35.4062,0 0,-10.625 17.7188,0 0,-91.2188 -17.7188,0 0,-10.6562 -35.4062,0 0,10.6562 -35.4376,0 0,-10.6562 -35.4374,0 z m 0,33.2187 c 2.9355,0 5.3437,2.3773 5.3437,5.3125 0,2.9354 -2.4082,5.3125 -5.3437,5.3125 -2.9355,0 -5.3126,-2.377 -5.3126,-5.3125 0,-2.9353 2.3771,-5.3125 5.3126,-5.3125 z m 35.4374,0 c 2.9356,0 5.3126,2.3773 5.3126,5.3125 0,2.9354 -2.377,5.3125 -5.3126,5.3125 -2.9354,0 -5.3124,-2.377 -5.3124,-5.3125 0,-2.9353 2.377,-5.3125 5.3124,-5.3125 z m 35.4376,0 c 2.9355,0 5.3124,2.3773 5.3124,5.3125 0,2.9354 -2.3769,5.3125 -5.3124,5.3125 -2.9355,0 -5.3126,-2.377 -5.3126,-5.3125 0,-2.9353 2.3771,-5.3125 5.3126,-5.3125 z m 35.4374,0 c 2.9356,0 5.3126,2.3773 5.3126,5.3125 0,2.9354 -2.377,5.3125 -5.3126,5.3125 -2.9354,0 -5.3124,-2.377 -5.3124,-5.3125 0,-2.9353 2.377,-5.3125 5.3124,-5.3125 z m -53.1562,17.6875 c 2.9339,0 5.3124,2.3786 5.3125,5.3125 0,2.9338 -2.3787,5.3127 -5.3125,5.3125 -2.9338,0 -5.3125,-2.3789 -5.3125,-5.3125 0,-2.9338 2.3787,-5.3125 5.3125,-5.3125 z m -53.6875,17.75 c 0.1785,-0.018 0.3476,0 0.5313,0 2.9355,0 5.3437,2.3769 5.3437,5.31255 0,2.9353 -2.4082,5.3125 -5.3437,5.3125 -2.9355,0 -5.3126,-2.3773 -5.3126,-5.3125 0,-2.75215 2.1011,-5.04025 4.7813,-5.31255 z m 35.4375,0 c 0.1786,-0.018 0.3476,0 0.5312,0 2.9356,0 5.3126,2.3769 5.3126,5.31255 0,2.9353 -2.377,5.3125 -5.3126,5.3125 -2.9354,0 -5.3124,-2.3773 -5.3124,-5.3125 0,-2.75215 2.1011,-5.04025 4.7812,-5.31255 z m 35.4375,0 c 0.1785,-0.018 0.3476,0 0.5313,0 2.9355,0 5.3124,2.3769 5.3124,5.31255 0,2.9353 -2.3769,5.3125 -5.3124,5.3125 -2.9355,0 -5.3126,-2.3773 -5.3126,-5.3125 0,-2.75215 2.1011,-5.04025 4.7813,-5.31255 z m 35.4375,0 c 0.1786,-0.018 0.3476,0 0.5312,0 2.9356,0 5.3126,2.3769 5.3126,5.31255 0,2.9353 -2.377,5.3125 -5.3126,5.3125 -2.9354,0 -5.3124,-2.3773 -5.3124,-5.3125 0,-2.75215 2.1011,-5.04025 4.7812,-5.31255 z"
       id="path3772-31"
       inkscape:connector-curvature="0" />
    <path
       style="fill:#000000;fill-opacity:0.32352941;stroke:none;display:inline"
       d="m 1392.5286,588.19061 0,10.6562 -17.7188,0 0,91.2188 17.7188,0 0,10.62499 35.4374,0 0,-10.62499 35.4376,0 0,10.62499 35.4062,0 0,-10.62499 17.7188,0 0,-91.2188 -17.7188,0 0,-10.6562 -35.4062,0 0,10.6562 -35.4376,0 0,-10.6562 -35.4374,0 z m 0,33.2187 c 2.9355,0 5.3437,2.3773 5.3437,5.3125 0,2.9354 -2.4082,5.3125 -5.3437,5.3125 -2.9355,0 -5.3126,-2.377 -5.3126,-5.3125 0,-2.9353 2.3771,-5.3125 5.3126,-5.3125 z m 35.4374,0 c 2.9356,0 5.3126,2.3773 5.3126,5.3125 0,2.9354 -2.377,5.3125 -5.3126,5.3125 -2.9354,0 -5.3124,-2.377 -5.3124,-5.3125 0,-2.9353 2.377,-5.3125 5.3124,-5.3125 z m 35.4376,0 c 2.9355,0 5.3124,2.3773 5.3124,5.3125 0,2.9354 -2.3769,5.3125 -5.3124,5.3125 -2.9355,0 -5.3126,-2.377 -5.3126,-5.3125 0,-2.9353 2.3771,-5.3125 5.3126,-5.3125 z m 35.4374,0 c 2.9356,0 5.3126,2.3773 5.3126,5.3125 0,2.9354 -2.377,5.3125 -5.3126,5.3125 -2.9354,0 -5.3124,-2.377 -5.3124,-5.3125 0,-2.9353 2.377,-5.3125 5.3124,-5.3125 z m -53.1562,17.6875 c 2.9339,0 5.3124,2.3786 5.3125,5.3125 0,2.9338 -2.3787,5.3127 -5.3125,5.3125 -2.9338,0 -5.3125,-2.3789 -5.3125,-5.3125 0,-2.9338 2.3787,-5.3125 5.3125,-5.3125 z m -53.6875,17.75 c 0.1785,-0.018 0.3476,0 0.5313,0 2.9355,0 5.3437,2.3769 5.3437,5.31255 0,2.9353 -2.4082,5.3125 -5.3437,5.3125 -2.9355,0 -5.3126,-2.3773 -5.3126,-5.3125 0,-2.75215 2.1011,-5.04025 4.7813,-5.31255 z m 35.4375,0 c 0.1786,-0.018 0.3476,0 0.5312,0 2.9356,0 5.3126,2.3769 5.3126,5.31255 0,2.9353 -2.377,5.3125 -5.3126,5.3125 -2.9354,0 -5.3124,-2.3773 -5.3124,-5.3125 0,-2.75215 2.1011,-5.04025 4.7812,-5.31255 z m 35.4375,0 c 0.1785,-0.018 0.3476,0 0.5313,0 2.9355,0 5.3124,2.3769 5.3124,5.31255 0,2.9353 -2.3769,5.3125 -5.3124,5.3125 -2.9355,0 -5.3126,-2.3773 -5.3126,-5.3125 0,-2.75215 2.1011,-5.04025 4.7813,-5.31255 z m 35.4375,0 c 0.1786,-0.018 0.3476,0 0.5312,0 2.9356,0 5.3126,2.3769 5.3126,5.31255 0,2.9353 -2.377,5.3125 -5.3126,5.3125 -2.9354,0 -5.3124,-2.3773 -5.3124,-5.3125 0,-2.75215 2.1011,-5.04025 4.7812,-5.31255 z"
       id="path3772-98"
       inkscape:connector-curvature="0" />
    <path
       style="fill:#000000;fill-opacity:0.32352941;stroke:none;display:inline"
       d="m 1243.7029,588.63352 0,10.6562 -17.7188,0 0,91.2188 17.7188,0 0,10.625 35.4374,0 0,-10.625 35.4376,0 0,10.625 35.4062,0 0,-10.625 17.7188,0 0,-91.2188 -17.7188,0 0,-10.6562 -35.4062,0 0,10.6562 -35.4376,0 0,-10.6562 -35.4374,0 z m 0,33.2187 c 2.9355,0 5.3437,2.3773 5.3437,5.3125 0,2.9354 -2.4082,5.3125 -5.3437,5.3125 -2.9355,0 -5.3126,-2.377 -5.3126,-5.3125 0,-2.9353 2.3771,-5.3125 5.3126,-5.3125 z m 35.4374,0 c 2.9356,0 5.3126,2.3773 5.3126,5.3125 0,2.9354 -2.377,5.3125 -5.3126,5.3125 -2.9354,0 -5.3124,-2.377 -5.3124,-5.3125 0,-2.9353 2.377,-5.3125 5.3124,-5.3125 z m 35.4376,0 c 2.9355,0 5.3124,2.3773 5.3124,5.3125 0,2.9354 -2.3769,5.3125 -5.3124,5.3125 -2.9355,0 -5.3126,-2.377 -5.3126,-5.3125 0,-2.9353 2.3771,-5.3125 5.3126,-5.3125 z m 35.4374,0 c 2.9356,0 5.3126,2.3773 5.3126,5.3125 0,2.9354 -2.377,5.3125 -5.3126,5.3125 -2.9354,0 -5.3124,-2.377 -5.3124,-5.3125 0,-2.9353 2.377,-5.3125 5.3124,-5.3125 z m -53.1562,17.6875 c 2.9339,0 5.3124,2.3786 5.3125,5.3125 0,2.9338 -2.3787,5.3127 -5.3125,5.3125 -2.9338,0 -5.3125,-2.3789 -5.3125,-5.3125 0,-2.9338 2.3787,-5.3125 5.3125,-5.3125 z m -53.6875,17.75 c 0.1785,-0.018 0.3476,0 0.5313,0 2.9355,0 5.3437,2.3769 5.3437,5.31255 0,2.9353 -2.4082,5.3125 -5.3437,5.3125 -2.9355,0 -5.3126,-2.3773 -5.3126,-5.3125 0,-2.75215 2.1011,-5.04025 4.7813,-5.31255 z m 35.4375,0 c 0.1786,-0.018 0.3476,0 0.5312,0 2.9356,0 5.3126,2.3769 5.3126,5.31255 0,2.9353 -2.377,5.3125 -5.3126,5.3125 -2.9354,0 -5.3124,-2.3773 -5.3124,-5.3125 0,-2.75215 2.1011,-5.04025 4.7812,-5.31255 z m 35.4375,0 c 0.1785,-0.018 0.3476,0 0.5313,0 2.9355,0 5.3124,2.3769 5.3124,5.31255 0,2.9353 -2.3769,5.3125 -5.3124,5.3125 -2.9355,0 -5.3126,-2.3773 -5.3126,-5.3125 0,-2.75215 2.1011,-5.04025 4.7813,-5.31255 z m 35.4375,0 c 0.1786,-0.018 0.3476,0 0.5312,0 2.9356,0 5.3126,2.3769 5.3126,5.31255 0,2.9353 -2.377,5.3125 -5.3126,5.3125 -2.9354,0 -5.3124,-2.3773 -5.3124,-5.3125 0,-2.75215 2.1011,-5.04025 4.7812,-5.31255 z"
       id="path3772-6"
       inkscape:connector-curvature="0" />
    <path
       style="fill:#000000;fill-opacity:0.32352941;stroke:none;display:inline"
       d="m 1094.884,588.63352 0,10.65619 -17.7188,0 0,91.21881 17.7188,0 0,10.625 35.4374,0 0,-10.625 35.4376,0 0,10.625 35.4062,0 0,-10.625 17.7188,0 0,-91.21881 -17.7188,0 0,-10.65619 -35.4062,0 0,10.65619 -35.4376,0 0,-10.65619 -35.4374,0 z m 0,33.2187 c 2.9355,0 5.3437,2.3773 5.3437,5.3125 0,2.9354 -2.4082,5.3125 -5.3437,5.3125 -2.9355,0 -5.3126,-2.377 -5.3126,-5.3125 0,-2.9353 2.3771,-5.3125 5.3126,-5.3125 z m 35.4374,0 c 2.9356,0 5.3126,2.3773 5.3126,5.3125 0,2.9354 -2.377,5.3125 -5.3126,5.3125 -2.9354,0 -5.3124,-2.377 -5.3124,-5.3125 0,-2.9353 2.377,-5.3125 5.3124,-5.3125 z m 35.4376,0 c 2.9355,0 5.3124,2.3773 5.3124,5.3125 0,2.9354 -2.3769,5.3125 -5.3124,5.3125 -2.9355,0 -5.3126,-2.377 -5.3126,-5.3125 0,-2.9353 2.3771,-5.3125 5.3126,-5.3125 z m 35.4374,0 c 2.9356,0 5.3126,2.3773 5.3126,5.3125 0,2.9354 -2.377,5.3125 -5.3126,5.3125 -2.9354,0 -5.3124,-2.377 -5.3124,-5.3125 0,-2.9353 2.377,-5.3125 5.3124,-5.3125 z m -53.1562,17.6875 c 2.9339,0 5.3124,2.3786 5.3125,5.3125 0,2.9338 -2.3787,5.3127 -5.3125,5.3125 -2.9338,0 -5.3125,-2.3789 -5.3125,-5.3125 0,-2.9338 2.3787,-5.3125 5.3125,-5.3125 z m -53.6875,17.75 c 0.1785,-0.018 0.3476,0 0.5313,0 2.9355,0 5.3437,2.3769 5.3437,5.31255 0,2.9353 -2.4082,5.3125 -5.3437,5.3125 -2.9355,0 -5.3126,-2.3773 -5.3126,-5.3125 0,-2.75215 2.1011,-5.04025 4.7813,-5.31255 z m 35.4375,0 c 0.1786,-0.018 0.3476,0 0.5312,0 2.9356,0 5.3126,2.3769 5.3126,5.31255 0,2.9353 -2.377,5.3125 -5.3126,5.3125 -2.9354,0 -5.3124,-2.3773 -5.3124,-5.3125 0,-2.75215 2.1011,-5.04025 4.7812,-5.31255 z m 35.4375,0 c 0.1785,-0.018 0.3476,0 0.5313,0 2.9355,0 5.3124,2.3769 5.3124,5.31255 0,2.9353 -2.3769,5.3125 -5.3124,5.3125 -2.9355,0 -5.3126,-2.3773 -5.3126,-5.3125 0,-2.75215 2.1011,-5.04025 4.7813,-5.31255 z m 35.4375,0 c 0.1786,-0.018 0.3476,0 0.5312,0 2.9356,0 5.3126,2.3769 5.3126,5.31255 0,2.9353 -2.377,5.3125 -5.3126,5.3125 -2.9354,0 -5.3124,-2.3773 -5.3124,-5.3125 0,-2.75215 2.1011,-5.04025 4.7812,-5.31255 z"
       id="path3772-5"
       inkscape:connector-curvature="0" />
    <path
       style="fill:#000000;fill-opacity:0.32352941;stroke:none;display:inline"
       d="m 1059.4466,310.92508 0,-10.6562 17.7188,0 0,-91.2188 -17.7188,0 0,-10.625 -35.4374,0 0,10.625 -35.43755,0 0,-10.625 -35.4062,0 0,10.625 -17.7188,0 0,91.2188 17.7188,0 0,10.6562 35.4062,0 0,-10.6562 35.43755,0 0,10.6562 35.4374,0 z m 0,-33.2187 c -2.9355,0 -5.3437,-2.3773 -5.3437,-5.3125 0,-2.9354 2.4082,-5.3125 5.3437,-5.3125 2.9355,0 5.3126,2.377 5.3126,5.3125 0,2.9353 -2.3771,5.3125 -5.3126,5.3125 z m -35.4374,0 c -2.9356,0 -5.3126,-2.3773 -5.3126,-5.3125 0,-2.9354 2.377,-5.3125 5.3126,-5.3125 2.9354,0 5.3124,2.377 5.3124,5.3125 0,2.9353 -2.377,5.3125 -5.3124,5.3125 z m -35.43755,0 c -2.9355,0 -5.3124,-2.3773 -5.3124,-5.3125 0,-2.9354 2.3769,-5.3125 5.3124,-5.3125 2.9355,0 5.3126,2.377 5.3126,5.3125 0,2.9353 -2.3771,5.3125 -5.3126,5.3125 z m -35.4374,0 c -2.9356,0 -5.3126,-2.3773 -5.3126,-5.3125 0,-2.9354 2.377,-5.3125 5.3126,-5.3125 2.9354,0 5.3124,2.377 5.3124,5.3125 0,2.9353 -2.377,5.3125 -5.3124,5.3125 z m 53.15625,-17.6875 c -2.9339,0 -5.3124,-2.3786 -5.3125,-5.3125 0,-2.9338 2.3787,-5.3127 5.3125,-5.3125 2.9338,0 5.3125,2.3789 5.3125,5.3125 0,2.9338 -2.3787,5.3125 -5.3125,5.3125 z m 53.6874,-17.75 c -0.1785,0.018 -0.3476,0 -0.5313,0 -2.9355,0 -5.3437,-2.3769 -5.3437,-5.3125 0,-2.9353 2.4082,-5.3125 5.3437,-5.3125 2.9355,0 5.3126,2.3773 5.3126,5.3125 0,2.7521 -2.1011,5.0402 -4.7813,5.3125 z m -35.4375,0 c -0.1786,0.018 -0.3476,0 -0.5312,0 -2.9356,0 -5.3126,-2.3769 -5.3126,-5.3125 0,-2.9353 2.377,-5.3125 5.3126,-5.3125 2.9354,0 5.3124,2.3773 5.3124,5.3125 0,2.7521 -2.1011,5.0402 -4.7812,5.3125 z m -35.43745,0 c -0.1785,0.018 -0.3476,0 -0.5313,0 -2.9355,0 -5.3124,-2.3769 -5.3124,-5.3125 0,-2.9353 2.3769,-5.3125 5.3124,-5.3125 2.9355,0 5.3126,2.3773 5.3126,5.3125 0,2.7521 -2.1011,5.0402 -4.7813,5.3125 z m -35.4375,0 c -0.1786,0.018 -0.3476,0 -0.5312,0 -2.9356,0 -5.3126,-2.3769 -5.3126,-5.3125 0,-2.9353 2.377,-5.3125 5.3126,-5.3125 2.9354,0 5.3124,2.3773 5.3124,5.3125 0,2.7521 -2.1011,5.0402 -4.7812,5.3125 z"
       id="path3772-7-8"
       inkscape:connector-curvature="0" />
    <path
       style="fill:#000000;fill-opacity:0.32352941;stroke:none;display:inline"
       d="m 1516.5354,216.12611 c 0,-10.6168 -7.102,-17.6875 -17.7187,-17.6875 l -248.0313,0 c -10.6299,0 -17.7187,7.08875 -17.7187,17.71875 l 0,106.3125 c 0,10.6167 7.0888,17.6875 17.7187,17.6875 l 248.0313,0 c 10.6167,0 17.7187,-7.08885 17.7187,-17.71875 l 0,-106.3125 z m -12.4375,-0.5 c 0.018,0.17866 0,0.34778 0,0.53125 0,2.9353 -2.3771,5.3125 -5.3125,5.3125 -2.9354,0 -5.3125,-2.3771 -5.3125,-5.3125 0,-2.9355 2.3771,-5.3125 5.3125,-5.3125 2.752,0 5.0406,2.10132 5.3125,4.78125 z m 0,35.4375 c 0.018,0.17866 0,0.34779 0,0.53125 0,2.9354 -2.3771,5.3124 -5.3125,5.3125 -2.9354,0 -5.3125,-2.377 -5.3125,-5.3125 0,-2.9354 2.3771,-5.3126 5.3125,-5.3125 2.752,0 5.0406,2.10141 5.3125,4.78125 z m 0,35.4375 c 0.018,0.17866 0,0.34779 0,0.53125 0,2.9354 -2.3771,5.3125 -5.3125,5.3125 -2.9354,0 -5.3125,-2.3771 -5.3125,-5.3125 0,-2.9354 2.3771,-5.3125 5.3125,-5.3125 2.752,0 5.0406,2.10139 5.3125,4.78125 z m 0,35.4375 c 0.018,0.17888 0,0.34779 0,0.53125 0,2.9355 -2.3771,5.3124 -5.3125,5.3125 -2.9354,0 -5.3125,-2.377 -5.3125,-5.3125 0,-2.9353 2.3771,-5.34375 5.3125,-5.34375 2.752,0 5.0406,2.12929 5.3125,4.8125 z m -35.4375,-106.3125 c 0.018,0.17866 0,0.34778 0,0.53125 0,2.9353 -2.3771,5.3125 -5.3125,5.3125 -2.9354,0 -5.3125,-2.3771 -5.3125,-5.3125 0,-2.9355 2.3771,-5.3125 5.3125,-5.3125 2.752,0 5.0406,2.10132 5.3125,4.78125 z m 0,35.4375 c 0.018,0.17866 0,0.34779 0,0.53125 0,2.9354 -2.3771,5.3124 -5.3125,5.3125 -2.9354,0 -5.3125,-2.377 -5.3125,-5.3125 0,-2.9354 2.3771,-5.3126 5.3125,-5.3125 2.752,0 5.0406,2.10141 5.3125,4.78125 z m 0,35.4375 c 0.018,0.17866 0,0.34779 0,0.53125 0,2.9354 -2.3771,5.3125 -5.3125,5.3125 -2.9354,0 -5.3125,-2.3771 -5.3125,-5.3125 0,-2.9354 2.3771,-5.3125 5.3125,-5.3125 2.752,0 5.0406,2.10139 5.3125,4.78125 z m 0,35.4375 c 0.018,0.17888 0,0.34779 0,0.53125 0,2.9355 -2.3771,5.3124 -5.3125,5.3125 -2.9354,0 -5.3125,-2.377 -5.3125,-5.3125 0,-2.9353 2.3771,-5.34375 5.3125,-5.34375 2.752,0 5.0406,2.12929 5.3125,4.8125 z m -35.4375,-106.3125 c 0.018,0.17866 0,0.34778 0,0.53125 0,2.9353 -2.3771,5.3125 -5.3125,5.3125 -2.9354,0 -5.3125,-2.3771 -5.3125,-5.3125 0,-2.9355 2.3771,-5.3125 5.3125,-5.3125 2.752,0 5.0406,2.10132 5.3125,4.78125 z m 0,35.4375 c 0.018,0.17866 0,0.34779 0,0.53125 0,2.9354 -2.3771,5.3124 -5.3125,5.3125 -2.9354,0 -5.3125,-2.377 -5.3125,-5.3125 0,-2.9354 2.3771,-5.3126 5.3125,-5.3125 2.752,0 5.0406,2.10141 5.3125,4.78125 z m 0,35.4375 c 0.018,0.17866 0,0.34779 0,0.53125 0,2.9354 -2.3771,5.3125 -5.3125,5.3125 -2.9354,0 -5.3125,-2.3771 -5.3125,-5.3125 0,-2.9354 2.3771,-5.3125 5.3125,-5.3125 2.752,0 5.0406,2.10139 5.3125,4.78125 z m 0,35.4375 c 0.018,0.17888 0,0.34779 0,0.53125 0,2.9355 -2.3771,5.3124 -5.3125,5.3125 -2.9354,0 -5.3125,-2.377 -5.3125,-5.3125 0,-2.9353 2.3771,-5.34375 5.3125,-5.34375 2.752,0 5.0406,2.12929 5.3125,4.8125 z m -35.4375,-106.3125 c 0.018,0.17866 0,0.34778 0,0.53125 0,2.9353 -2.3771,5.3125 -5.3125,5.3125 -2.9354,0 -5.3125,-2.3771 -5.3125,-5.3125 0,-2.9355 2.3771,-5.3125 5.3125,-5.3125 2.752,0 5.0406,2.10132 5.3125,4.78125 z m 0,35.4375 c 0.018,0.17866 0,0.34779 0,0.53125 0,2.9354 -2.3771,5.3124 -5.3125,5.3125 -2.9354,0 -5.3125,-2.377 -5.3125,-5.3125 0,-2.9354 2.3771,-5.3126 5.3125,-5.3125 2.752,0 5.0406,2.10141 5.3125,4.78125 z m 0,35.4375 c 0.018,0.17866 0,0.34779 0,0.53125 0,2.9354 -2.3771,5.3125 -5.3125,5.3125 -2.9354,0 -5.3125,-2.3771 -5.3125,-5.3125 0,-2.9354 2.3771,-5.3125 5.3125,-5.3125 2.752,0 5.0406,2.10139 5.3125,4.78125 z m 0,35.4375 c 0.018,0.17888 0,0.34779 0,0.53125 0,2.9355 -2.3771,5.3124 -5.3125,5.3125 -2.9354,0 -5.3125,-2.377 -5.3125,-5.3125 0,-2.9353 2.3771,-5.34375 5.3125,-5.34375 2.752,0 5.0406,2.12929 5.3125,4.8125 z m -35.4062,-105.78125 c 0,2.9353 -2.3771,5.3125 -5.3125,5.3125 -2.9354,0 -5.3125,-2.3771 -5.3125,-5.3125 0,-2.9355 2.3771,-5.3125 5.3125,-5.3125 2.9354,0 5.3125,2.377 5.3125,5.3125 z m 0,35.4375 c 0,2.9354 -2.3771,5.3124 -5.3125,5.3125 -2.9354,0 -5.3125,-2.377 -5.3125,-5.3125 0,-2.9354 2.3771,-5.3126 5.3125,-5.3125 2.9354,0 5.3125,2.3771 5.3125,5.3125 z m 0,35.4375 c 0,2.9354 -2.3771,5.3125 -5.3125,5.3125 -2.9354,0 -5.3125,-2.3771 -5.3125,-5.3125 0,-2.9354 2.3771,-5.3125 5.3125,-5.3125 2.9354,0 5.3125,2.3771 5.3125,5.3125 z m 0,35.4375 c 0,2.9355 -2.3771,5.3124 -5.3125,5.3125 -2.9354,0 -5.3125,-2.377 -5.3125,-5.3125 0,-2.9353 2.3771,-5.34375 5.3125,-5.34375 2.9354,0 5.3125,2.40845 5.3125,5.34375 z m -35.4375,-106.3125 c 0,2.9353 -2.3771,5.3125 -5.3125,5.3125 -2.9354,0 -5.3125,-2.3771 -5.3125,-5.3125 0,-2.9355 2.3771,-5.3125 5.3125,-5.3125 2.9354,0 5.3125,2.377 5.3125,5.3125 z m 0,35.4375 c 0,2.9354 -2.3771,5.3124 -5.3125,5.3125 -2.9354,0 -5.3125,-2.377 -5.3125,-5.3125 0,-2.9354 2.3771,-5.3126 5.3125,-5.3125 2.9354,0 5.3125,2.3771 5.3125,5.3125 z m 0,35.4375 c 0,2.9354 -2.3771,5.3125 -5.3125,5.3125 -2.9354,0 -5.3125,-2.3771 -5.3125,-5.3125 0,-2.9354 2.3771,-5.3125 5.3125,-5.3125 2.9354,0 5.3125,2.3771 5.3125,5.3125 z m 0,35.4375 c 0,2.9355 -2.3771,5.3124 -5.3125,5.3125 -2.9354,0 -5.3125,-2.377 -5.3125,-5.3125 0,-2.9353 2.3771,-5.34375 5.3125,-5.34375 2.9354,0 5.3125,2.40845 5.3125,5.34375 z m -35.4375,-106.3125 c 0,2.9353 -2.3771,5.3125 -5.3125,5.3125 -2.9354,0 -5.3125,-2.3771 -5.3125,-5.3125 0,-2.9355 2.3771,-5.3125 5.3125,-5.3125 2.9354,0 5.3125,2.377 5.3125,5.3125 z m 0,35.4375 c 0,2.9354 -2.3771,5.3124 -5.3125,5.3125 -2.9354,0 -5.3125,-2.377 -5.3125,-5.3125 0,-2.9354 2.3771,-5.3126 5.3125,-5.3125 2.9354,0 5.3125,2.3771 5.3125,5.3125 z m 0,35.4375 c 0,2.9354 -2.3771,5.3125 -5.3125,5.3125 -2.9354,0 -5.3125,-2.3771 -5.3125,-5.3125 0,-2.9354 2.3771,-5.3125 5.3125,-5.3125 2.9354,0 5.3125,2.3771 5.3125,5.3125 z m 0,35.4375 c 0,2.9355 -2.3771,5.3124 -5.3125,5.3125 -2.9354,0 -5.3125,-2.377 -5.3125,-5.3125 0,-2.9353 2.3771,-5.34375 5.3125,-5.34375 2.9354,0 5.3125,2.40845 5.3125,5.34375 z m -35.4375,-106.3125 c 0,2.9353 -2.3771,5.3125 -5.3125,5.3125 -2.9354,0 -5.3125,-2.3771 -5.3125,-5.3125 0,-2.9355 2.3771,-5.3125 5.3125,-5.3125 2.9354,0 5.3125,2.377 5.3125,5.3125 z m 0,35.4375 c 0,2.9354 -2.3771,5.3124 -5.3125,5.3125 -2.9354,0 -5.3125,-2.377 -5.3125,-5.3125 0,-2.9354 2.3771,-5.3126 5.3125,-5.3125 2.9354,0 5.3125,2.3771 5.3125,5.3125 z m 0,35.4375 c 0,2.9354 -2.3771,5.3125 -5.3125,5.3125 -2.9354,0 -5.3125,-2.3771 -5.3125,-5.3125 0,-2.9354 2.3771,-5.3125 5.3125,-5.3125 2.9354,0 5.3125,2.3771 5.3125,5.3125 z m 0,35.4375 c 0,2.9355 -2.3771,5.3124 -5.3125,5.3125 -2.9354,0 -5.3125,-2.377 -5.3125,-5.3125 0,-2.9353 2.3771,-5.34375 5.3125,-5.34375 2.9354,0 5.3125,2.40845 5.3125,5.34375 z"
       id="path4096"
       inkscape:connector-curvature="0" />
    <path
       inkscape:connector-curvature="0"
       style="fill:#000000;fill-opacity:0.32352941;stroke:none;display:inline"
       d="m 946.0625,467.71875 c -10.6168,0 -17.68669,7.10205 -17.6875,17.71875 l -0.0312,177.15625 c -8.2e-4,10.62992 7.08875,17.71875 17.71875,17.71875 l 106.31255,0 c 10.6167,0 17.6867,-7.08883 17.6875,-17.71875 l 0.031,-177.15625 c 8e-4,-10.6167 -7.0889,-17.71875 -17.7188,-17.71875 l -106.31255,0 z m -0.5,12.4375 c 0.17866,-0.018 0.34778,0 0.53125,0 2.9353,0 5.3125,2.3771 5.3125,5.3125 0,2.9354 -2.3771,5.3125 -5.3125,5.3125 -2.9355,0 -5.3125,-2.3771 -5.3125,-5.3125 0,-2.7519 2.10132,-5.0406 4.78125,-5.3125 z m 35.4375,0 c 0.17866,-0.018 0.34779,0 0.53125,0 2.9354,0 5.3124,2.3771 5.3125,5.3125 0,2.9354 -2.377,5.3125 -5.3125,5.3125 -2.9354,0 -5.3126,-2.3771 -5.3125,-5.3125 0,-2.7519 2.10141,-5.0406 4.78125,-5.3125 z m 35.4375,0 c 0.1787,-0.018 0.3478,0 0.5313,0 2.9353,0 5.3125,2.3771 5.3124,5.3125 0,2.9354 -2.3772,5.3125 -5.3124,5.3125 -2.9354,0 -5.3126,-2.3771 -5.3126,-5.3125 0,-2.7519 2.1015,-5.0406 4.7813,-5.3125 z m 35.4375,0 c 0.1789,-0.018 0.3478,0 0.5312,0 2.9357,0 5.3124,2.3771 5.3126,5.3125 0,2.9354 -2.3769,5.3125 -5.3126,5.3125 -2.9352,0 -5.3437,-2.3771 -5.3437,-5.3125 0,-2.7519 2.1293,-5.0406 4.8125,-5.3125 z m -106.3125,35.4375 c 0.17866,-0.018 0.34778,0 0.53125,0 2.9353,0 5.3125,2.3771 5.3125,5.3125 0,2.9354 -2.3771,5.3125 -5.3125,5.3125 -2.9355,0 -5.3125,-2.3771 -5.3125,-5.3125 0,-2.7519 2.10132,-5.0406 4.78125,-5.3125 z m 35.4375,0 c 0.17866,-0.018 0.34779,0 0.53125,0 2.9354,0 5.3124,2.3771 5.3125,5.3125 0,2.9354 -2.377,5.3125 -5.3125,5.3125 -2.9354,0 -5.3126,-2.3771 -5.3125,-5.3125 0,-2.7519 2.10141,-5.0406 4.78125,-5.3125 z m 35.4375,0 c 0.1787,-0.018 0.3478,0 0.5313,0 2.9353,0 5.3125,2.3771 5.3124,5.3125 0,2.9354 -2.3772,5.3125 -5.3124,5.3125 -2.9354,0 -5.3126,-2.3771 -5.3126,-5.3125 0,-2.7519 2.1015,-5.0406 4.7813,-5.3125 z m 35.4375,0 c 0.1789,-0.018 0.3478,0 0.5312,0 2.9357,0 5.3124,2.3771 5.3126,5.3125 0,2.9354 -2.3769,5.3125 -5.3126,5.3125 -2.9352,0 -5.3437,-2.3771 -5.3437,-5.3125 0,-2.7519 2.1293,-5.0406 4.8125,-5.3125 z m -106.3125,35.4375 c 0.17866,-0.0181 0.34778,0 0.53125,0 2.9353,0 5.3125,2.3771 5.3125,5.3125 0,2.9354 -2.3771,5.3125 -5.3125,5.3125 -2.9355,0 -5.3125,-2.3771 -5.3125,-5.3125 0,-2.75194 2.10132,-5.04059 4.78125,-5.3125 z m 35.4375,0 c 0.17866,-0.0181 0.34779,0 0.53125,0 2.9354,0 5.3124,2.3771 5.3125,5.3125 0,2.9354 -2.377,5.3125 -5.3125,5.3125 -2.9354,0 -5.3126,-2.3771 -5.3125,-5.3125 0,-2.75194 2.10141,-5.04059 4.78125,-5.3125 z m 35.4375,0 c 0.1787,-0.0181 0.3478,0 0.5313,0 2.9353,0 5.3125,2.3771 5.3124,5.3125 0,2.9354 -2.3772,5.3125 -5.3124,5.3125 -2.9354,0 -5.3126,-2.3771 -5.3126,-5.3125 0,-2.75194 2.1015,-5.04059 4.7813,-5.3125 z m 35.4375,0 c 0.1789,-0.0181 0.3478,0 0.5312,0 2.9357,0 5.3124,2.3771 5.3126,5.3125 0,2.9354 -2.3769,5.3125 -5.3126,5.3125 -2.9352,0 -5.3437,-2.3771 -5.3437,-5.3125 0,-2.75194 2.1293,-5.04059 4.8125,-5.3125 z m -106.3125,35.4375 c 0.17866,-0.0181 0.34778,0 0.53125,0 2.9353,0 5.3125,2.3771 5.3125,5.3125 0,2.9354 -2.3771,5.3125 -5.3125,5.3125 -2.9355,0 -5.3125,-2.3771 -5.3125,-5.3125 0,-2.75194 2.10132,-5.04059 4.78125,-5.3125 z m 35.4375,0 c 0.17866,-0.0181 0.34779,0 0.53125,0 2.9354,0 5.3124,2.3771 5.3125,5.3125 0,2.9354 -2.377,5.3125 -5.3125,5.3125 -2.9354,0 -5.3126,-2.3771 -5.3125,-5.3125 0,-2.75194 2.10141,-5.04059 4.78125,-5.3125 z m 35.4375,0 c 0.1787,-0.0181 0.3478,0 0.5313,0 2.9353,0 5.3125,2.3771 5.3124,5.3125 0,2.9354 -2.3772,5.3125 -5.3124,5.3125 -2.9354,0 -5.3126,-2.3771 -5.3126,-5.3125 0,-2.75194 2.1015,-5.04059 4.7813,-5.3125 z m 35.4375,0 c 0.1789,-0.0181 0.3478,0 0.5312,0 2.9357,0 5.3124,2.3771 5.3126,5.3125 0,2.9354 -2.3769,5.3125 -5.3126,5.3125 -2.9352,0 -5.3437,-2.3771 -5.3437,-5.3125 0,-2.75194 2.1293,-5.04059 4.8125,-5.3125 z M 946.09375,621.875 c 2.9353,0 5.3125,2.3771 5.3125,5.3125 0,2.9354 -2.3771,5.3125 -5.3125,5.3125 -2.9355,0 -5.3125,-2.3771 -5.3125,-5.3125 0,-2.9354 2.377,-5.3125 5.3125,-5.3125 z m 35.4375,0 c 2.9354,0 5.3124,2.3771 5.3125,5.3125 0,2.9354 -2.377,5.3125 -5.3125,5.3125 -2.9354,0 -5.3126,-2.3771 -5.3125,-5.3125 0,-2.9354 2.3771,-5.3125 5.3125,-5.3125 z m 35.43755,0 c 2.9353,0 5.3125,2.3771 5.3124,5.3125 0,2.9354 -2.3772,5.3125 -5.3124,5.3125 -2.9354,0 -5.3126,-2.3771 -5.3126,-5.3125 0,-2.9354 2.3772,-5.3125 5.3126,-5.3125 z m 35.4374,0 c 2.9357,0 5.3124,2.3771 5.3126,5.3125 0,2.9354 -2.3769,5.3125 -5.3126,5.3125 -2.9352,0 -5.3437,-2.3771 -5.3437,-5.3125 0,-2.9354 2.4085,-5.3125 5.3437,-5.3125 z m -106.31245,35.4375 c 2.9353,0 5.3125,2.3771 5.3125,5.3125 0,2.9354 -2.3771,5.3125 -5.3125,5.3125 -2.9355,0 -5.3125,-2.3771 -5.3125,-5.3125 0,-2.9354 2.377,-5.3125 5.3125,-5.3125 z m 35.4375,0 c 2.9354,0 5.3124,2.3771 5.3125,5.3125 0,2.9354 -2.377,5.3125 -5.3125,5.3125 -2.9354,0 -5.3126,-2.3771 -5.3125,-5.3125 0,-2.9354 2.3771,-5.3125 5.3125,-5.3125 z m 35.43755,0 c 2.9353,0 5.3125,2.3771 5.3124,5.3125 0,2.9354 -2.3772,5.3125 -5.3124,5.3125 -2.9354,0 -5.3126,-2.3771 -5.3126,-5.3125 0,-2.9354 2.3772,-5.3125 5.3126,-5.3125 z m 35.4374,0 c 2.9357,0 5.3124,2.3771 5.3126,5.3125 0,2.9354 -2.3769,5.3125 -5.3126,5.3125 -2.9352,0 -5.3437,-2.3771 -5.3437,-5.3125 0,-2.9354 2.4085,-5.3125 5.3437,-5.3125 z"
       id="path3135" />
    <path
       style="fill:#000000;fill-opacity:0.32352941;stroke:none;display:inline"
       d="m 1389.001,348.1298 0,10.625 -17.7187,0 0,40.3125 c 2.9354,0 5.3125,2.37713 5.3125,5.3125 0,2.93537 -2.3771,5.3125 -5.3125,5.3125 l 0,40.28125 17.7187,0 0,10.65625 35.4063,0 0,-10.65625 17.7187,0 0,-40.25 c -2.9338,0 -5.3125,-2.3786 -5.3124,-5.3125 0,-2.9338 2.3786,-5.3127 5.3124,-5.3125 l 0,-40.34375 -17.7187,0 0,-10.625 -35.4063,0 z m -0.031,33.21875 c 2.9353,0 5.3125,2.3773 5.3125,5.3125 0,2.7521 -2.1012,5.0401 -4.7813,5.3125 -0.1784,0.018 -0.3477,0 -0.5312,0 -2.9357,0 -5.3125,-2.3768 -5.3125,-5.3125 0,-2.9353 2.3768,-5.3125 5.3125,-5.3125 z m 35.4375,0 c 2.9355,0 5.3125,2.3773 5.3125,5.3125 0,2.7521 -2.101,5.0401 -4.7812,5.3125 -0.1785,0.018 -0.3477,0 -0.5313,0 -2.9355,0 -5.3125,-2.3768 -5.3125,-5.3125 0,-2.9353 2.377,-5.3125 5.3125,-5.3125 z m -35.4375,35.4375 c 2.9353,0 5.3125,2.377 5.3125,5.3125 0,2.9353 -2.3772,5.3125 -5.3125,5.3125 -2.9357,0 -5.3125,-2.3774 -5.3125,-5.3125 0,-2.9355 2.3768,-5.3125 5.3125,-5.3125 z m 35.4375,0 c 2.9355,0 5.3125,2.377 5.3125,5.3125 0,2.9353 -2.377,5.3125 -5.3125,5.3125 -2.9355,0 -5.3125,-2.3774 -5.3125,-5.3125 0,-2.9355 2.377,-5.3125 5.3125,-5.3125 z"
       id="path3772-3-2-2-2"
       inkscape:connector-curvature="0" />
    <path
       style="fill:#000000;fill-opacity:0.32352941;stroke:none;display:inline"
       d="m 1463.4104,348.1298 0,10.625 -17.7187,0 0,40.3125 c 2.9354,0 5.3125,2.37713 5.3125,5.3125 0,2.93537 -2.3771,5.3125 -5.3125,5.3125 l 0,40.28125 17.7187,0 0,10.65625 35.4063,0 0,-10.65625 17.7187,0 0,-40.25 c -2.9338,0 -5.3125,-2.3786 -5.3124,-5.3125 0,-2.9338 2.3786,-5.3127 5.3124,-5.3125 l 0,-40.34375 -17.7187,0 0,-10.625 -35.4063,0 z m -0.031,33.21875 c 2.9353,0 5.3125,2.3773 5.3125,5.3125 0,2.7521 -2.1012,5.0401 -4.7813,5.3125 -0.1784,0.018 -0.3477,0 -0.5312,0 -2.9357,0 -5.3125,-2.3768 -5.3125,-5.3125 0,-2.9353 2.3768,-5.3125 5.3125,-5.3125 z m 35.4375,0 c 2.9355,0 5.3125,2.3773 5.3125,5.3125 0,2.7521 -2.101,5.0401 -4.7812,5.3125 -0.1785,0.018 -0.3477,0 -0.5313,0 -2.9355,0 -5.3125,-2.3768 -5.3125,-5.3125 0,-2.9353 2.377,-5.3125 5.3125,-5.3125 z m -35.4375,35.4375 c 2.9353,0 5.3125,2.377 5.3125,5.3125 0,2.9353 -2.3772,5.3125 -5.3125,5.3125 -2.9357,0 -5.3125,-2.3774 -5.3125,-5.3125 0,-2.9355 2.3768,-5.3125 5.3125,-5.3125 z m 35.4375,0 c 2.9355,0 5.3125,2.377 5.3125,5.3125 0,2.9353 -2.377,5.3125 -5.3125,5.3125 -2.9355,0 -5.3125,-2.3774 -5.3125,-5.3125 0,-2.9355 2.377,-5.3125 5.3125,-5.3125 z"
       id="path3772-3-2-2-2-3"
       inkscape:connector-curvature="0" />
    <path
       style="fill:#000000;fill-opacity:0.32352941;stroke:none;display:inline"
       d="m 1130.3127,460.6298 0,-10.625 17.7188,0 0,-40.3125 c -2.9354,0 -5.3125,-2.3772 -5.3125,-5.3125 0,-2.9354 2.3771,-5.3125 5.3125,-5.3125 l 0,-40.2813 -17.7188,0 0,-10.6562 -35.4062,0 0,10.6562 -17.7188,0 0,40.25 c 2.9338,0 5.3125,2.3786 5.3124,5.3125 0,2.9338 -2.3786,5.3127 -5.3124,5.3125 l 0,40.3438 17.7188,0 0,10.625 35.4062,0 z m 0.031,-33.2188 c -2.9353,0 -5.3125,-2.3773 -5.3125,-5.3125 0,-2.7521 2.1011,-5.0401 4.7813,-5.3125 0.1784,-0.018 0.3477,0 0.5312,0 2.9357,0 5.3125,2.3768 5.3125,5.3125 0,2.9353 -2.3768,5.3125 -5.3125,5.3125 z m -35.4375,0 c -2.9355,0 -5.3125,-2.3773 -5.3125,-5.3125 0,-2.7521 2.101,-5.0401 4.7812,-5.3125 0.1785,-0.018 0.3477,0 0.5313,0 2.9354,0 5.3125,2.3768 5.3125,5.3125 0,2.9353 -2.3771,5.3125 -5.3125,5.3125 z m 35.4375,-35.4375 c -2.9353,0 -5.3125,-2.377 -5.3125,-5.3125 0,-2.9353 2.3772,-5.3125 5.3125,-5.3125 2.9357,0 5.3125,2.3774 5.3125,5.3125 0,2.9355 -2.3768,5.3125 -5.3125,5.3125 z m -35.4375,0 c -2.9355,0 -5.3125,-2.377 -5.3125,-5.3125 0,-2.9353 2.377,-5.3125 5.3125,-5.3125 2.9354,0 5.3125,2.3774 5.3125,5.3125 0,2.9355 -2.3771,5.3125 -5.3125,5.3125 z"
       id="path3772-3-2-2-2-4"
       inkscape:connector-curvature="0" />
    <path
       style="fill:#000000;fill-opacity:0.32352941;stroke:none;display:inline"
       d="m 1314.5915,348.1298 0,10.625 -17.7187,0 0,40.3125 c 2.9354,0 5.3125,2.37713 5.3125,5.3125 0,2.93537 -2.3771,5.3125 -5.3125,5.3125 l 0,40.28125 17.7187,0 0,10.65625 35.4063,0 0,-10.65625 17.7187,0 0,-40.25 c -2.9338,0 -5.3125,-2.3786 -5.3124,-5.3125 0,-2.9338 2.3786,-5.3127 5.3124,-5.3125 l 0,-40.34375 -17.7187,0 0,-10.625 -35.4063,0 z m -0.031,33.21875 c 2.9353,0 5.3125,2.3773 5.3125,5.3125 0,2.7521 -2.1012,5.0401 -4.7813,5.3125 -0.1784,0.018 -0.3477,0 -0.5312,0 -2.9357,0 -5.3125,-2.3768 -5.3125,-5.3125 0,-2.9353 2.3768,-5.3125 5.3125,-5.3125 z m 35.4375,0 c 2.9355,0 5.3125,2.3773 5.3125,5.3125 0,2.7521 -2.101,5.0401 -4.7812,5.3125 -0.1785,0.018 -0.3477,0 -0.5313,0 -2.9355,0 -5.3125,-2.3768 -5.3125,-5.3125 0,-2.9353 2.377,-5.3125 5.3125,-5.3125 z m -35.4375,35.4375 c 2.9353,0 5.3125,2.377 5.3125,5.3125 0,2.9353 -2.3772,5.3125 -5.3125,5.3125 -2.9357,0 -5.3125,-2.3774 -5.3125,-5.3125 0,-2.9355 2.3768,-5.3125 5.3125,-5.3125 z m 35.4375,0 c 2.9355,0 5.3125,2.377 5.3125,5.3125 0,2.9353 -2.377,5.3125 -5.3125,5.3125 -2.9355,0 -5.3125,-2.3774 -5.3125,-5.3125 0,-2.9355 2.377,-5.3125 5.3125,-5.3125 z"
       id="path3772-3-2-2-2-3-9"
       inkscape:connector-curvature="0" />
  </g>
</svg>
