<?xml version="1.0" encoding="UTF-8" standalone="no"?>
<!-- Created with Inkscape (http://www.inkscape.org/) -->

<svg
   xmlns:dc="http://purl.org/dc/elements/1.1/"
   xmlns:cc="http://creativecommons.org/ns#"
   xmlns:rdf="http://www.w3.org/1999/02/22-rdf-syntax-ns#"
   xmlns:svg="http://www.w3.org/2000/svg"
   xmlns="http://www.w3.org/2000/svg"
   xmlns:sodipodi="http://sodipodi.sourceforge.net/DTD/sodipodi-0.dtd"
   xmlns:inkscape="http://www.inkscape.org/namespaces/inkscape"
   width="3188.9763"
   height="2125.9841"
   id="svg2"
   version="1.1"
   inkscape:version="0.48.4 r9939"
   sodipodi:docname="wheels.svg">
  <sodipodi:namedview
     id="base"
     pagecolor="#ffffff"
     bordercolor="#666666"
     borderopacity="1.0"
     inkscape:pageopacity="0.0"
     inkscape:pageshadow="2"
     inkscape:zoom="1.571356"
     inkscape:cx="511.57193"
     inkscape:cy="632.5057"
     inkscape:document-units="mm"
     inkscape:current-layer="layer8"
     showgrid="true"
     inkscape:snap-object-midpoints="true"
     inkscape:snap-bbox="false"
     inkscape:object-paths="false"
     inkscape:snap-nodes="true"
     inkscape:object-nodes="false"
     inkscape:snap-global="true"
     inkscape:snap-grids="true"
     inkscape:window-width="1920"
     inkscape:window-height="1030"
     inkscape:window-x="0"
     inkscape:window-y="0"
     inkscape:window-maximized="1"
     inkscape:snap-smooth-nodes="false"
     units="mm">
    <inkscape:grid
       empopacity="0.25098039"
       empcolor="#ff9500"
       spacingy="1mm"
       spacingx="1mm"
       units="mm"
       snapvisiblegridlinesonly="true"
       enabled="true"
       visible="true"
       empspacing="10"
       id="grid2985"
       type="xygrid" />
  </sodipodi:namedview>
  <defs
     id="defs4" />
  <metadata
     id="metadata7">
    <rdf:RDF>
      <cc:Work
         rdf:about="">
        <dc:format>image/svg+xml</dc:format>
        <dc:type
           rdf:resource="http://purl.org/dc/dcmitype/StillImage" />
        <dc:title />
      </cc:Work>
    </rdf:RDF>
  </metadata>
  <g
     style="display:inline"
     inkscape:label="Wheels"
     id="layer8"
     inkscape:groupmode="layer">
    <path
       style="fill:#000000;fill-opacity:0.33484485000000003;stroke:none"
       d="M 318.90625 1305.7188 C 257.26344 1305.7188 207.28125 1355.6697 207.28125 1417.3125 C 207.28125 1478.9553 257.26344 1528.9375 318.90625 1528.9375 C 380.54905 1528.9375 430.53125 1478.9553 430.53125 1417.3125 C 430.53125 1355.6697 380.54905 1305.7187 318.90625 1305.7188 z M 318.90625 1317.6875 L 328.4375 1323.2188 L 328.4375 1334.2812 L 318.90625 1339.7812 L 309.3125 1334.2812 L 309.3125 1323.2188 L 318.90625 1317.6875 z M 304.71875 1347.8438 L 304.71875 1392.6562 C 291.74571 1385.2318 278.78213 1377.8014 265.8125 1370.375 C 275.8135 1359.0708 289.36174 1350.9648 304.71875 1347.8438 z M 333.09375 1347.8438 C 348.46575 1350.9677 362.02745 1359.0846 372.03125 1370.4062 C 359.05125 1377.9053 346.07375 1385.406 333.09375 1392.9062 L 333.09375 1347.8438 z M 241.8125 1367.7188 C 242.8337 1367.6468 243.89045 1367.8871 244.84375 1368.4375 C 247.38585 1369.9052 248.24895 1373.1454 246.78125 1375.6875 C 245.31355 1378.2296 242.07335 1379.0927 239.53125 1377.625 C 236.98915 1376.1573 236.12605 1372.9171 237.59375 1370.375 C 238.51105 1368.7862 240.1106 1367.839 241.8125 1367.7188 z M 395.46875 1367.7188 C 397.35365 1367.6698 399.20975 1368.6273 400.21875 1370.375 C 401.68645 1372.9171 400.82335 1376.1573 398.28125 1377.625 C 395.73915 1379.0927 392.49895 1378.2296 391.03125 1375.6875 C 389.56355 1373.1454 390.42665 1369.9052 392.96875 1368.4375 C 393.76315 1367.9788 394.61195 1367.7407 395.46875 1367.7188 z M 251.65625 1394.9688 C 264.62772 1402.4543 277.59101 1409.951 290.5625 1417.4375 C 277.61494 1424.9157 264.66629 1432.3954 251.71875 1439.875 C 249.33788 1432.785 248.03125 1425.2037 248.03125 1417.3125 C 248.03125 1409.5007 249.32111 1401.9972 251.65625 1394.9688 z M 386.15625 1394.9688 C 388.49135 1401.9976 389.78125 1409.5007 389.78125 1417.3125 C 389.78125 1425.2037 388.47465 1432.785 386.09375 1439.875 C 373.14625 1432.3955 360.1975 1424.9157 347.25 1417.4375 C 360.2213 1409.951 373.18475 1402.4539 386.15625 1394.9688 z M 318.90625 1410.375 C 322.70267 1410.375 325.78125 1413.485 325.78125 1417.2812 C 325.78125 1419.0035 325.14011 1420.5439 324.09375 1421.75 L 313.71875 1421.75 C 312.67239 1420.5439 312.03125 1419.0036 312.03125 1417.2812 C 312.03125 1413.485 315.10983 1410.375 318.90625 1410.375 z M 304.71875 1442 L 304.71875 1486.7812 C 289.4298 1483.6742 275.92549 1475.632 265.9375 1464.4062 L 304.71875 1442 z M 333.09375 1442 C 346.02045 1449.4574 358.9482 1456.9163 371.875 1464.375 C 361.8853 1475.6099 348.39075 1483.6723 333.09375 1486.7812 L 333.09375 1442 z M 242.1875 1450.5625 L 251.71875 1456.0938 L 251.71875 1467.1562 L 242.1875 1472.6562 L 232.59375 1467.1562 L 232.59375 1456.0938 L 242.1875 1450.5625 z M 395.625 1450.5625 L 405.15625 1456.0938 L 405.15625 1467.1562 L 395.625 1472.6562 L 386.03125 1467.1562 L 386.03125 1456.0938 L 395.625 1450.5625 z M 318.90625 1500.5938 C 321.84155 1500.5938 324.21875 1503.0021 324.21875 1505.9375 C 324.21875 1508.8728 321.84155 1511.2185 318.90625 1511.2188 C 315.97085 1511.2188 313.59375 1508.8728 313.59375 1505.9375 C 313.59375 1503.0021 315.97085 1500.5938 318.90625 1500.5938 z "
       id="path3014" />
    <path
       inkscape:connector-curvature="0"
       d=""
       style="fill:none;stroke:#000000"
       id="path3307" />
    <path
       inkscape:connector-curvature="0"
       id="path3209"
       d="m 531.49606,1380.1264 c -59.68589,0 -108.0625,48.3766 -108.0625,108.0625 0,59.6859 48.37661,108.0625 108.0625,108.0625 59.686,0 108.0625,-48.3766 108.0625,-108.0625 0,-59.6859 -48.3765,-108.0625 -108.0625,-108.0625 z m 0,14.1562 c 2.9354,0 5.3125,2.4084 5.3125,5.3438 0,2.9354 -2.3771,5.3125 -5.3125,5.3125 -2.9353,0 -5.3125,-2.3771 -5.3125,-5.3125 0,-2.9354 2.3772,-5.3436 5.3125,-5.3438 z m -14.1875,24.4376 0,44.6874 c -12.95288,-7.413 -25.89434,-14.8352 -38.84375,-22.25 9.99371,-11.2602 23.52477,-19.3239 38.84375,-22.4374 z m 28.375,0 c 15.342,3.1179 28.8768,11.2133 38.875,22.5 -12.9554,7.4846 -25.9196,14.9512 -38.875,22.4374 l 0,-44.9374 z m -91.28125,19.875 c 1.02117,-0.072 2.07796,0.1683 3.03125,0.7187 2.54211,1.4677 3.40519,4.7079 1.9375,7.25 -1.46769,2.5421 -4.70789,3.4052 -7.25,1.9375 -2.54211,-1.4677 -3.40519,-4.7079 -1.9375,-7.25 0.9173,-1.5888 2.5168,-2.5359 4.21875,-2.6562 z m 153.65625,0 c 1.8849,-0.049 3.741,0.9085 4.75,2.6562 1.4676,2.5421 0.6045,5.7823 -1.9375,7.25 -2.5421,1.4677 -5.7824,0.6046 -7.25,-1.9375 -1.4677,-2.5421 -0.6046,-5.7823 1.9375,-7.25 0.7944,-0.4587 1.6432,-0.6963 2.5,-0.7187 z m -143.78125,27.1562 c 12.9591,7.4781 25.9159,14.9581 38.875,22.4375 -12.9598,7.4853 -25.9152,14.9819 -38.875,22.4687 -2.361,-7.0634 -3.65625,-14.612 -3.65625,-22.4687 0,-7.8463 1.30125,-15.3822 3.65625,-22.4375 z m 134.4375,0 c 2.355,7.0553 3.65625,14.5912 3.65625,22.4375 0,7.8567 -1.29545,15.4052 -3.65625,22.4687 -12.96,-7.4867 -25.9151,-14.9834 -38.875,-22.4687 12.9591,-7.4794 25.9157,-14.9594 38.875,-22.4375 z m -67.21875,15.5312 c 3.79642,0 6.875,3.0788 6.875,6.875 0,1.7222 -0.64114,3.294 -1.6875,4.5 l -10.375,0 c -1.04636,-1.206 -1.6875,-2.7777 -1.6875,-4.5 0,-3.7962 3.07858,-6.875 6.875,-6.875 z m -14.1875,31.4688 0,44.9062 c -15.32698,-3.115 -28.84844,-11.1991 -38.84375,-22.4687 l 38.84375,-22.4375 z m 28.375,0 c 12.9592,7.4761 25.9159,14.96 38.875,22.4375 -9.9966,11.2776 -23.541,19.3521 -38.875,22.4687 l 0,-44.9062 z m -91.03125,14.4062 c 1.88485,-0.049 3.70972,0.9086 4.71875,2.6563 1.46769,2.5421 0.60461,5.8139 -1.9375,7.2813 -2.54211,1.4676 -5.78231,0.6043 -7.25,-1.9376 -1.46769,-2.5423 -0.60461,-5.8135 1.9375,-7.2812 0.79441,-0.4587 1.6745,-0.6967 2.53125,-0.7188 z m 153.6875,0 c 0.8567,0.022 1.73695,0.2601 2.53125,0.7188 2.5421,1.4677 3.4052,4.7389 1.9375,7.2812 -1.4676,2.542 -4.7079,3.4055 -7.25,1.9376 -2.542,-1.4674 -3.4051,-4.7392 -1.9375,-7.2813 1.009,-1.7477 2.83385,-2.7054 4.71875,-2.6563 z m -76.84375,44.3126 c 2.9354,0 5.3125,2.3769 5.3125,5.3124 0,2.9354 -2.3771,5.3127 -5.3125,5.3126 -2.9354,0 -5.3125,-2.3775 -5.3125,-5.3126 0,-2.9355 2.3771,-5.3123 5.3125,-5.3124 z"
       style="fill:#000000;fill-opacity:0.33484485000000003;stroke:none" />
    <path
       inkscape:connector-curvature="0"
       d=""
       style="fill:none;stroke:#000000"
       id="path3311" />
    <path
       style="fill:#008080;fill-opacity:0.33484485000000003;stroke:none;display:inline"
       d="M 744.09375 1305.7188 C 682.45094 1305.7188 632.46875 1355.6697 632.46875 1417.3125 C 632.46875 1478.9553 682.45094 1528.9375 744.09375 1528.9375 C 805.73655 1528.9375 855.71875 1478.9553 855.71875 1417.3125 C 855.71875 1355.6697 805.73655 1305.7187 744.09375 1305.7188 z M 743.5625 1323.4375 C 743.74116 1323.4195 743.91029 1323.4375 744.09375 1323.4375 C 747.02905 1323.4375 749.40625 1325.8146 749.40625 1328.75 C 749.40625 1331.6854 747.02905 1334.0625 744.09375 1334.0625 C 741.15835 1334.0625 738.78125 1331.6854 738.78125 1328.75 C 738.78125 1325.9981 740.88265 1323.7128 743.5625 1323.4375 z M 729.90625 1347.8438 L 729.90625 1392.6562 C 716.93321 1385.2318 703.96963 1377.8014 691 1370.375 C 701.001 1359.0708 714.54924 1350.9648 729.90625 1347.8438 z M 758.28125 1347.8438 C 773.65325 1350.9677 787.21495 1359.0846 797.21875 1370.4062 C 784.23875 1377.9053 771.26125 1385.406 758.28125 1392.9062 L 758.28125 1347.8438 z M 667.375 1361.9688 L 676.9375 1367.4688 L 676.9375 1378.5312 L 667.375 1384.0625 L 657.78125 1378.5312 L 657.78125 1367.4688 L 667.375 1361.9688 z M 820.8125 1361.9688 L 830.375 1367.5 L 830.375 1378.5625 L 820.8125 1384.0625 L 811.21875 1378.5625 L 811.21875 1367.5 L 820.8125 1361.9688 z M 676.84375 1394.9688 C 689.81522 1402.4543 702.77851 1409.951 715.75 1417.4375 C 702.80244 1424.9157 689.85379 1432.3954 676.90625 1439.875 C 674.52538 1432.785 673.21875 1425.2037 673.21875 1417.3125 C 673.21875 1409.5007 674.50861 1401.9971 676.84375 1394.9688 z M 811.34375 1394.9688 C 813.67885 1401.9976 814.96875 1409.5007 814.96875 1417.3125 C 814.96875 1425.2037 813.66215 1432.785 811.28125 1439.875 C 798.33375 1432.3955 785.385 1424.9157 772.4375 1417.4375 C 785.4088 1409.951 798.37225 1402.4539 811.34375 1394.9688 z M 744.09375 1412 C 747.02912 1412 749.40625 1414.3771 749.40625 1417.3125 C 749.40625 1420.2479 747.02912 1422.625 744.09375 1422.625 C 741.15838 1422.625 738.78125 1420.2479 738.78125 1417.3125 C 738.78125 1414.3771 741.15838 1412 744.09375 1412 z M 729.90625 1442 L 729.90625 1486.7812 C 714.6173 1483.6742 701.11299 1475.632 691.125 1464.4062 L 729.90625 1442 z M 758.28125 1442 C 771.20795 1449.4574 784.1357 1456.9163 797.0625 1464.375 C 787.0728 1475.6099 773.57825 1483.6724 758.28125 1486.7812 L 758.28125 1442 z M 667.25 1456.3125 C 669.1349 1456.2635 670.95965 1457.1898 671.96875 1458.9375 C 673.43645 1461.4796 672.57335 1464.7514 670.03125 1466.2188 C 667.48915 1467.6863 664.24895 1466.8546 662.78125 1464.3125 C 661.31355 1461.7703 662.17665 1458.4677 664.71875 1457 C 665.51315 1456.5413 666.3933 1456.3345 667.25 1456.3125 z M 820.25 1456.3125 C 820.4823 1456.2875 820.7018 1456.3025 820.9375 1456.3125 C 821.7941 1456.3345 822.67435 1456.5413 823.46875 1457 C 826.01085 1458.4677 826.87395 1461.7703 825.40625 1464.3125 C 823.93855 1466.8546 820.69835 1467.6864 818.15625 1466.2188 C 815.61415 1464.7514 814.75105 1461.4796 816.21875 1458.9375 C 817.10165 1457.4083 818.6242 1456.4868 820.25 1456.3125 z M 744.09375 1494.8438 L 753.65625 1500.375 L 753.65625 1511.4375 L 744.09375 1516.9375 L 734.5 1511.4375 L 734.5 1500.375 L 744.09375 1494.8438 z "
       id="path3042" />
  </g>
</svg>
