<?xml version="1.0" encoding="UTF-8" standalone="no"?>
<!-- Created with Inkscape (http://www.inkscape.org/) -->

<svg
   xmlns:dc="http://purl.org/dc/elements/1.1/"
   xmlns:cc="http://creativecommons.org/ns#"
   xmlns:rdf="http://www.w3.org/1999/02/22-rdf-syntax-ns#"
   xmlns:svg="http://www.w3.org/2000/svg"
   xmlns="http://www.w3.org/2000/svg"
   xmlns:sodipodi="http://sodipodi.sourceforge.net/DTD/sodipodi-0.dtd"
   xmlns:inkscape="http://www.inkscape.org/namespaces/inkscape"
   width="3188.9763"
   height="2125.9841"
   id="svg2"
   version="1.1"
   inkscape:version="0.48.4 r9939"
   sodipodi:docname="wheels.svg">
  <sodipodi:namedview
     id="base"
     pagecolor="#ffffff"
     bordercolor="#666666"
     borderopacity="1.0"
     inkscape:pageopacity="0.0"
     inkscape:pageshadow="2"
     inkscape:zoom="0.25936244"
     inkscape:cx="-161.60471"
     inkscape:cy="741.13765"
     inkscape:document-units="mm"
     inkscape:current-layer="layer8"
     showgrid="true"
     inkscape:snap-object-midpoints="true"
     inkscape:snap-bbox="true"
     inkscape:object-paths="false"
     inkscape:snap-nodes="true"
     inkscape:object-nodes="false"
     inkscape:snap-global="true"
     inkscape:snap-grids="true"
     inkscape:window-width="1920"
     inkscape:window-height="1030"
     inkscape:window-x="0"
     inkscape:window-y="0"
     inkscape:window-maximized="1"
     inkscape:snap-smooth-nodes="false"
     units="mm">
    <inkscape:grid
       type="xygrid"
       id="grid2985"
       empspacing="10"
       visible="true"
       enabled="true"
       snapvisiblegridlinesonly="true"
       units="mm"
       spacingx="1mm"
       spacingy="1mm"
       empcolor="#ff9500"
       empopacity="0.25098039" />
  </sodipodi:namedview>
  <defs
     id="defs4" />
  <metadata
     id="metadata7">
    <rdf:RDF>
      <cc:Work
         rdf:about="">
        <dc:format>image/svg+xml</dc:format>
        <dc:type
           rdf:resource="http://purl.org/dc/dcmitype/StillImage" />
        <dc:title />
      </cc:Work>
    </rdf:RDF>
  </metadata>
  <g
     inkscape:groupmode="layer"
     id="layer8"
     inkscape:label="Wheels"
     style="display:inline">
    <path
       style="fill:#6c72a3;fill-opacity:0.33484485;stroke:none"
       d="m 781.29085,1311.0235 c -59.68589,0 -108.0625,48.3766 -108.0625,108.0625 0,59.6859 48.37661,108.0625 108.0625,108.0625 59.686,0 108.0625,-48.3766 108.0625,-108.0625 0,-59.6859 -48.3765,-108.0625 -108.0625,-108.0625 z m 0,14.1563 c 2.9354,0 5.3125,2.4083 5.3125,5.3437 0,2.9354 -2.3771,5.3125 -5.3125,5.3125 -2.9353,0 -5.3125,-2.3771 -5.3125,-5.3125 0,-2.9354 2.3772,-5.3437 5.3125,-5.3437 z m -14.1875,24.4374 0,44.6876 c -12.95288,-7.413 -25.89434,-14.8354 -38.84375,-22.25 9.99371,-11.2603 23.52477,-19.3239 38.84375,-22.4376 z m 28.375,0 c 15.342,3.1181 28.8768,11.2134 38.875,22.5 -12.9554,7.4847 -25.9196,14.9512 -38.875,22.4376 l 0,-44.9376 z m -91.28125,19.875 c 1.02117,-0.072 2.07796,0.1684 3.03125,0.7188 2.54211,1.4677 3.40519,4.7079 1.9375,7.25 -1.46769,2.5421 -4.70789,3.4052 -7.25,1.9375 -2.54211,-1.4677 -3.40519,-4.7079 -1.9375,-7.25 0.9173,-1.5888 2.5168,-2.5358 4.21875,-2.6563 z m 153.65625,0 c 1.8849,-0.049 3.741,0.9086 4.75,2.6563 1.4676,2.5421 0.6045,5.7823 -1.9375,7.25 -2.5421,1.4677 -5.7824,0.6046 -7.25,-1.9375 -1.4677,-2.5421 -0.6046,-5.7823 1.9375,-7.25 0.7944,-0.4587 1.6432,-0.6962 2.5,-0.7188 z m -143.78125,27.1563 c 12.9591,7.4781 25.9159,14.9581 38.875,22.4375 -12.9598,7.4853 -25.9152,14.9818 -38.875,22.4688 -2.361,-7.0636 -3.65625,-14.6121 -3.65625,-22.4688 0,-7.8463 1.30125,-15.3822 3.65625,-22.4375 z m 134.4375,0 c 2.355,7.0553 3.65625,14.5912 3.65625,22.4375 0,7.8567 -1.29545,15.4052 -3.65625,22.4688 -12.96,-7.4868 -25.9151,-14.9835 -38.875,-22.4688 12.9591,-7.4794 25.9157,-14.9594 38.875,-22.4375 z m -67.21875,15.3437 c 3.91383,0 7.09375,3.18 7.09375,7.0938 0,1.7754 -0.67128,3.3816 -1.75,4.625 l -10.6875,0 c -1.07872,-1.2434 -1.75,-2.8496 -1.75,-4.625 0,-3.9138 3.17992,-7.0938 7.09375,-7.0938 z m -14.1875,31.6563 0,44.9063 c -15.32698,-3.1151 -28.84844,-11.1992 -38.84375,-22.4688 l 38.84375,-22.4375 z m 28.375,0 c 12.9592,7.4761 25.9159,14.96 38.875,22.4375 -9.9966,11.2776 -23.541,19.352 -38.875,22.4688 l 0,-44.9063 z m -91.03125,14.4063 c 1.88485,-0.049 3.70972,0.9085 4.71875,2.6562 1.46769,2.5421 0.60461,5.8139 -1.9375,7.2812 -2.54211,1.4677 -5.78231,0.6044 -7.25,-1.9374 -1.46769,-2.5423 -0.60461,-5.8136 1.9375,-7.2813 0.79441,-0.4587 1.6745,-0.6967 2.53125,-0.7187 z m 153.6875,0 c 0.8567,0.022 1.73695,0.26 2.53125,0.7187 2.5421,1.4677 3.4052,4.7388 1.9375,7.2813 -1.4676,2.542 -4.7079,3.4054 -7.25,1.9374 -2.542,-1.4673 -3.4051,-4.7391 -1.9375,-7.2812 1.009,-1.7477 2.83385,-2.7054 4.71875,-2.6562 z m -76.84375,44.3124 c 2.9354,0 5.3125,2.3769 5.3125,5.3126 0,2.9353 -2.3771,5.3126 -5.3125,5.3124 -2.9354,0 -5.3125,-2.3774 -5.3125,-5.3124 0,-2.9355 2.3771,-5.3124 5.3125,-5.3126 z"
       id="path3591"
       inkscape:connector-curvature="0" />
    <path
       style="fill:#6c72a3;fill-opacity:0.33484485;stroke:none"
       d="m 554.53839,1311.0235 c -61.64281,0 -111.625,49.951 -111.625,111.5938 0,61.6428 49.98219,111.625 111.625,111.625 61.6428,0 111.625,-49.9822 111.625,-111.625 0,-61.6428 -49.9822,-111.5937 -111.625,-111.5938 z m -0.53125,17.7188 c 0.17866,-0.018 0.34779,0 0.53125,0 2.9353,0 5.3125,2.3771 5.3125,5.3125 0,2.9354 -2.3772,5.3125 -5.3125,5.3125 -2.9354,0 -5.3125,-2.3771 -5.3125,-5.3125 0,-2.7519 2.1014,-5.0372 4.78125,-5.3125 z m -13.65625,24.4062 0,44.8126 c -12.97304,-7.4244 -25.93662,-14.8549 -38.90625,-22.2813 10.001,-11.3042 23.54924,-19.4099 38.90625,-22.5313 z m 28.375,0 c 15.372,3.1242 28.9337,11.2407 38.9375,22.5626 -12.98,7.4987 -25.9575,14.9995 -38.9375,22.5 l 0,-45.0626 z m -91.28125,19.875 c 1.0212,-0.072 2.07795,0.1684 3.03125,0.7188 2.5421,1.4677 3.4052,4.7079 1.9375,7.25 -1.4677,2.5421 -4.7079,3.4052 -7.25,1.9375 -2.5421,-1.4677 -3.4052,-4.7079 -1.9375,-7.25 0.9173,-1.5888 2.51685,-2.5358 4.21875,-2.6563 z m 153.65625,0 c 1.8849,-0.049 3.741,0.9086 4.75,2.6563 1.4677,2.5421 0.6046,5.7823 -1.9375,7.25 -2.5421,1.4677 -5.7823,0.6046 -7.25,-1.9375 -1.4677,-2.5421 -0.6046,-5.7823 1.9375,-7.25 0.7944,-0.4587 1.6432,-0.6966 2.5,-0.7188 z m -143.8125,27.25 c 12.97147,7.4855 25.93476,14.9823 38.90625,22.4688 -12.94756,7.4782 -25.89621,14.9579 -38.84375,22.4375 -2.38087,-7.09 -3.6875,-14.6713 -3.6875,-22.5625 0,-7.8118 1.28986,-15.3151 3.625,-22.3438 z m 134.5,0 c 2.3351,7.0288 3.625,14.532 3.625,22.3438 0,7.8912 -1.3066,15.4725 -3.6875,22.5625 -12.9475,-7.4795 -25.89625,-14.9593 -38.84375,-22.4375 12.9713,-7.4865 25.93475,-14.9834 38.90625,-22.4688 z m -67.25,15.25 c 3.91383,0 7.09375,3.18 7.09375,7.0938 0,1.7754 -0.67128,3.3816 -1.75,4.625 l -10.6875,0 c -1.07872,-1.2434 -1.75,-2.8496 -1.75,-4.625 0,-3.9138 3.17992,-7.0938 7.09375,-7.0938 z m -14.1875,31.7813 0,44.7813 c -15.28895,-3.1073 -28.79326,-11.1495 -38.78125,-22.375 l 38.78125,-22.4063 z m 28.375,0 c 12.9267,7.4574 25.85445,14.9163 38.78125,22.375 -9.9897,11.2349 -23.48425,19.2971 -38.78125,22.4063 l 0,-44.7813 z m -91.03125,14.3125 c 1.8849,-0.049 3.70965,0.8773 4.71875,2.625 1.4677,2.5421 0.6046,5.8138 -1.9375,7.2812 -2.5421,1.4677 -5.7823,0.6359 -7.25,-1.9062 -1.4677,-2.5422 -0.6046,-5.8448 1.9375,-7.3125 0.7944,-0.4587 1.67455,-0.6655 2.53125,-0.6875 z m 153,0 c 0.2323,-0.025 0.4518,-0.01 0.6875,0 0.8566,0.022 1.73685,0.2288 2.53125,0.6875 2.5421,1.4677 3.4052,4.7703 1.9375,7.3125 -1.4677,2.5421 -4.7079,3.3741 -7.25,1.9062 -2.5421,-1.4673 -3.4052,-4.7391 -1.9375,-7.2812 0.8829,-1.5292 2.40545,-2.4507 4.03125,-2.625 z m -76.15625,44.2812 c 2.9353,10e-5 5.3125,2.4084 5.3125,5.3438 0,2.9353 -2.3772,5.2812 -5.3125,5.2812 -2.9354,0 -5.3125,-2.3459 -5.3125,-5.2812 0,-2.9354 2.3771,-5.3438 5.3125,-5.3438 z"
       id="path3621"
       inkscape:connector-curvature="0" />
    <path
       style="fill:#6c72a3;fill-opacity:0.33484485;stroke:none"
       d="m 324.22343,1311.0235 c -61.64281,0 -111.625,49.9509 -111.625,111.5937 0,61.6429 49.98219,111.625 111.625,111.625 61.64282,0 111.625,-49.9821 111.625,-111.625 0,-61.6429 -49.98208,-111.5935 -111.625,-111.5937 z m 0,18.625 c 2.44722,0 4.4375,1.997 4.4375,4.4374 0,2.4404 -1.99028,4.4063 -4.4375,4.4063 -2.4473,0 -4.40625,-1.9658 -4.40625,-4.4063 0,-2.4402 1.95895,-4.4374 4.40625,-4.4374 z m -14.1875,23.5 0,44.8124 c -12.97304,-7.4244 -25.93662,-14.8547 -38.90625,-22.2812 10.001,-11.3042 23.54924,-19.4103 38.90625,-22.5312 z m 28.375,0 c 15.372,3.1241 28.9337,11.2408 38.9375,22.5624 -12.98,7.4988 -25.9575,14.9998 -38.9375,22.5 l 0,-45.0624 z m -91.21875,20.7812 c 0.852,-0.06 1.7359,0.1351 2.53125,0.5938 2.12091,1.2228 2.84952,3.9446 1.625,6.0624 -1.22452,2.1179 -3.9416,2.8167 -6.0625,1.5938 -2.12091,-1.2228 -2.81827,-3.9134 -1.59375,-6.0312 0.76531,-1.3238 2.08009,-2.1184 3.5,-2.2188 z m 153.625,0 c 1.5726,-0.041 3.12695,0.7611 3.96875,2.2188 1.2245,2.1199 0.4959,4.8074 -1.625,6.0312 -2.1209,1.2241 -4.80685,0.5264 -6.03125,-1.5938 -1.2245,-2.1199 -0.52715,-4.8385 1.59375,-6.0624 0.6628,-0.3826 1.37905,-0.5756 2.09375,-0.5938 z m -143.84375,26.3438 c 12.97147,7.4854 25.93476,14.9822 38.90625,22.4687 -12.94756,7.4782 -25.89621,14.9581 -38.84375,22.4375 -2.38087,-7.0898 -3.6875,-14.6713 -3.6875,-22.5625 0,-7.8117 1.28986,-15.3153 3.625,-22.3437 z m 134.5,0 c 2.3351,7.0285 3.625,14.532 3.625,22.3437 0,7.8912 -1.3066,15.4727 -3.6875,22.5625 -12.9475,-7.4793 -25.89615,-14.9593 -38.84375,-22.4375 12.9714,-7.4865 25.93475,-14.9835 38.90625,-22.4687 z m -67.25,15.2812 c 3.91383,0 7.09375,3.1798 7.09375,7.0938 0,1.7754 -0.67128,3.3814 -1.75,4.625 l -10.6875,0 c -1.07872,-1.2436 -1.75,-2.8498 -1.75,-4.625 0,-3.9139 3.17992,-7.0938 7.09375,-7.0938 z m -14.1875,31.75 0,44.7812 c -15.28895,-3.1073 -28.79326,-11.1493 -38.78125,-22.375 l 38.78125,-22.4062 z m 28.375,0 c 12.9267,7.4575 25.85455,14.9163 38.78125,22.375 -9.9896,11.2349 -23.48425,19.2973 -38.78125,22.4062 l 0,-44.7812 z m -91,15.1875 c 1.57259,-0.041 3.0956,0.7656 3.9375,2.2187 1.22452,2.1139 0.49591,4.8421 -1.625,6.0626 -2.1209,1.2202 -4.80673,0.4886 -6.03125,-1.625 -1.22452,-2.1141 -0.52716,-4.8112 1.59375,-6.0313 0.66278,-0.3816 1.41024,-0.6071 2.125,-0.625 z m 153.65625,0 c 0.7149,0.018 1.43095,0.2435 2.09375,0.625 2.1209,1.2202 2.8495,3.9172 1.625,6.0313 -1.2245,2.1137 -3.9416,2.8452 -6.0625,1.625 -2.1209,-1.2204 -2.81845,-3.9488 -1.59375,-6.0626 0.8416,-1.4532 2.3651,-2.2598 3.9375,-2.2187 z m -76.84375,44.3125 c 2.44722,0 4.4375,1.9897 4.4375,4.4375 0,2.4475 -1.99028,4.4061 -4.4375,4.4063 -2.4473,0 -4.40625,-1.959 -4.40625,-4.4063 0,-2.4477 1.95895,-4.4375 4.40625,-4.4375 z"
       id="path3525"
       inkscape:connector-curvature="0" />
  </g>
</svg>
