<?xml version="1.0" encoding="UTF-8" standalone="no"?>
<!-- Created with Inkscape (http://www.inkscape.org/) -->

<svg
   xmlns:dc="http://purl.org/dc/elements/1.1/"
   xmlns:cc="http://creativecommons.org/ns#"
   xmlns:rdf="http://www.w3.org/1999/02/22-rdf-syntax-ns#"
   xmlns:svg="http://www.w3.org/2000/svg"
   xmlns="http://www.w3.org/2000/svg"
   xmlns:sodipodi="http://sodipodi.sourceforge.net/DTD/sodipodi-0.dtd"
   xmlns:inkscape="http://www.inkscape.org/namespaces/inkscape"
   width="3188.9763"
   height="2125.9841"
   id="svg2"
   version="1.1"
   inkscape:version="0.48.4 r9939"
   sodipodi:docname="wheel-mount-calibration.svg">
  <sodipodi:namedview
     id="base"
     pagecolor="#ffffff"
     bordercolor="#666666"
     borderopacity="1.0"
     inkscape:pageopacity="0.0"
     inkscape:pageshadow="2"
     inkscape:zoom="4.149799"
     inkscape:cx="493.84745"
     inkscape:cy="698.59641"
     inkscape:document-units="mm"
     inkscape:current-layer="layer8"
     showgrid="true"
     inkscape:snap-object-midpoints="true"
     inkscape:snap-bbox="false"
     inkscape:object-paths="false"
     inkscape:snap-nodes="true"
     inkscape:object-nodes="false"
     inkscape:snap-global="true"
     inkscape:snap-grids="true"
     inkscape:window-width="1920"
     inkscape:window-height="1030"
     inkscape:window-x="0"
     inkscape:window-y="0"
     inkscape:window-maximized="1"
     inkscape:snap-smooth-nodes="false"
     units="mm">
    <inkscape:grid
       empopacity="0.25098039"
       empcolor="#ff9500"
       spacingy="1mm"
       spacingx="1mm"
       units="mm"
       snapvisiblegridlinesonly="true"
       enabled="true"
       visible="true"
       empspacing="10"
       id="grid2985"
       type="xygrid" />
  </sodipodi:namedview>
  <defs
     id="defs4" />
  <metadata
     id="metadata7">
    <rdf:RDF>
      <cc:Work
         rdf:about="">
        <dc:format>image/svg+xml</dc:format>
        <dc:type
           rdf:resource="http://purl.org/dc/dcmitype/StillImage" />
        <dc:title />
      </cc:Work>
    </rdf:RDF>
  </metadata>
  <g
     style="display:inline"
     inkscape:label="Wheels"
     id="layer8"
     inkscape:groupmode="layer">
    <path
       id="rect3121"
       d="M 425.1875 1381.875 L 425.1875 1488.1875 L 637.78125 1488.1875 L 637.78125 1381.875 L 425.1875 1381.875 z M 460.625 1446.9062 C 464.53883 1446.9062 467.71875 1450.0862 467.71875 1454 C 467.71875 1455.7754 467.04747 1457.3816 465.96875 1458.625 L 455.28125 1458.625 C 454.20253 1457.3816 453.53125 1455.7754 453.53125 1454 C 453.53125 1450.0862 456.71117 1446.9062 460.625 1446.9062 z M 496.0625 1447.0625 C 499.85892 1447.0625 502.9375 1450.1722 502.9375 1453.9688 C 502.9375 1455.6907 502.29636 1457.2314 501.25 1458.4375 L 490.875 1458.4375 C 489.82864 1457.2314 489.1875 1455.6908 489.1875 1453.9688 C 489.1875 1450.1724 492.26608 1447.0625 496.0625 1447.0625 z M 531.5 1447.25 C 535.18253 1447.25 538.15625 1450.2238 538.15625 1453.9062 C 538.15625 1455.5766 537.54622 1457.1115 536.53125 1458.2812 L 526.46875 1458.2812 C 525.45378 1457.1113 524.8125 1455.5767 524.8125 1453.9062 C 524.8125 1450.2238 527.81747 1447.25 531.5 1447.25 z M 566.9375 1447.4062 C 570.50955 1447.4062 573.40625 1450.3029 573.40625 1453.875 C 573.40625 1455.4952 572.79702 1456.9588 571.8125 1458.0938 L 562.0625 1458.0938 C 561.07798 1456.9589 560.46875 1455.4952 560.46875 1453.875 C 560.46875 1450.3029 563.36545 1447.4064 566.9375 1447.4062 z M 602.375 1447.5625 C 605.83989 1447.5625 608.65625 1450.3788 608.65625 1453.8438 C 608.65625 1455.4152 608.04873 1456.8367 607.09375 1457.9375 L 597.625 1457.9375 C 596.67002 1456.8367 596.09375 1455.4153 596.09375 1453.8438 C 596.09375 1450.3789 598.91011 1447.5625 602.375 1447.5625 z "
       style="fill:#424ec2;fill-opacity:0.3487395;stroke:none" />
    <path
       d="m 460.62993,1415.66 c -1.48079,0 -2.59612,0.7308 -3.34599,2.1927 -0.74041,1.4523 -1.11059,3.6402 -1.11059,6.5638 0,2.9141 0.37018,5.102 1.11059,6.5639 0.74987,1.4523 1.8652,2.1784 3.34599,2.1783 1.49026,10e-5 2.60559,-0.726 3.34599,-2.1783 0.74987,-1.4619 1.12481,-3.6498 1.12483,-6.5639 -2e-5,-2.9236 -0.37496,-5.1115 -1.12483,-6.5638 -0.7404,-1.4619 -1.85573,-2.1927 -3.34599,-2.1927 m 0,-2.2782 c 2.38252,10e-5 4.20028,0.9444 5.45326,2.8335 1.26245,1.8794 1.89367,4.6132 1.89369,8.2012 -2e-5,3.5785 -0.63124,6.3122 -1.89369,8.2013 -1.25298,1.8794 -3.07074,2.8191 -5.45326,2.8191 -2.38255,0 -4.20505,-0.9397 -5.4675,-2.8191 -1.25297,-1.8891 -1.87946,-4.6228 -1.87946,-8.2013 0,-3.588 0.62649,-6.3218 1.87946,-8.2012 1.26245,-1.8891 3.08495,-2.8334 5.4675,-2.8335"
       style="font-size:40px;font-style:normal;font-weight:normal;line-height:125%;letter-spacing:0px;word-spacing:0px;fill:#424ec2;fill-opacity:0.3487395;stroke:none;font-family:Sans"
       id="path3106"
       inkscape:connector-curvature="0" />
    <path
       d="m 490.14697,1432.6177 4.69864,0 0,-16.2174 -5.11154,1.0252 0,-2.6199 5.08307,-1.0251 2.87614,0 0,18.8372 4.69863,0 0,2.4205 -12.24493,0 0,-2.4205"
       style="font-size:40px;font-style:normal;font-weight:normal;line-height:125%;letter-spacing:0px;word-spacing:0px;fill:#424ec2;fill-opacity:0.3487395;stroke:none;font-family:Sans"
       id="path3108"
       inkscape:connector-curvature="0" />
    <path
       d="m 528.20702,1432.81 10.038,0 0,2.4205 -13.49791,0 0,-2.4205 c 1.0916,-1.1296 2.57714,-2.6436 4.45659,-4.542 1.88894,-1.9079 3.07546,-3.1373 3.55957,-3.6877 0.92073,-1.0347 1.56145,-1.908 1.92217,-2.62 0.37018,-0.7212 0.55529,-1.4285 0.5553,-2.1214 -10e-6,-1.1296 -0.39869,-2.0503 -1.19602,-2.7622 -0.78786,-0.7119 -1.81776,-1.0679 -3.0897,-1.0679 -0.90177,0 -1.85573,0.1567 -2.8619,0.4699 -0.99669,0.3132 -2.06456,0.7878 -3.20362,1.4238 l 0,-2.9047 c 1.15805,-0.4651 2.24016,-0.8162 3.24633,-1.0536 1.00617,-0.2372 1.92691,-0.3559 2.76223,-0.356 2.20217,10e-5 3.95822,0.5507 5.26816,1.6517 1.30991,1.1012 1.96487,2.5724 1.96488,4.4139 -10e-6,0.8733 -0.16613,1.7039 -0.49834,2.4916 -0.32274,0.7785 -0.91601,1.6992 -1.77978,2.7623 -0.23731,0.2753 -0.99195,1.0726 -2.26389,2.392 -1.27197,1.3099 -3.06598,3.1467 -5.38207,5.5103"
       style="font-size:40px;font-style:normal;font-weight:normal;line-height:125%;letter-spacing:0px;word-spacing:0px;fill:#424ec2;fill-opacity:0.3487395;stroke:none;font-family:Sans"
       id="path3110"
       inkscape:connector-curvature="0" />
    <path
       d="m 569.54185,1423.5622 c 1.37636,0.2942 2.44898,0.9066 3.21786,1.8367 0.77834,0.9303 1.16752,2.0789 1.16754,3.4457 -2e-5,2.0978 -0.72143,3.721 -2.16423,4.8695 -1.44282,1.1486 -3.49313,1.7228 -6.15093,1.7228 -0.89228,0 -1.81302,-0.09 -2.76223,-0.2704 -0.93972,-0.1709 -1.91268,-0.4319 -2.91884,-0.7832 l 0,-2.7765 c 0.79734,0.4652 1.67061,0.8163 2.61984,1.0537 0.94922,0.2372 1.94114,0.3559 2.97579,0.3559 1.80352,0 3.17514,-0.3559 4.11487,-1.0679 0.94921,-0.7119 1.42382,-1.7464 1.42384,-3.1039 -2e-5,-1.253 -0.44141,-2.2307 -1.32417,-2.9331 -0.87329,-0.7119 -2.09304,-1.0679 -3.65924,-1.0679 l -2.47746,0 0,-2.3635 2.59137,0 c 1.41433,0 2.49643,-0.28 3.24633,-0.84 0.74986,-0.5696 1.12481,-1.3859 1.12482,-2.4491 -10e-6,-1.0915 -0.38919,-1.9269 -1.16754,-2.5059 -0.76888,-0.5885 -1.87471,-0.8827 -3.31752,-0.8827 -0.78785,0 -1.63266,0.086 -2.53441,0.2563 -0.90176,0.1709 -1.8937,0.4365 -2.9758,0.7973 l 0,-2.563 c 1.0916,-0.3036 2.11201,-0.5315 3.06123,-0.6834 0.95871,-0.1519 1.86046,-0.2277 2.70527,-0.2278 2.1832,10e-5 3.91077,0.4984 5.18274,1.4951 1.27194,0.9872 1.90791,2.3256 1.90793,4.0151 -2e-5,1.1771 -0.337,2.1738 -1.01092,2.9901 -0.67396,0.8069 -1.63267,1.3669 -2.87614,1.6801"
       style="font-size:40px;font-style:normal;font-weight:normal;line-height:125%;letter-spacing:0px;word-spacing:0px;fill:#424ec2;fill-opacity:0.3487395;stroke:none;font-family:Sans"
       id="path3112"
       inkscape:connector-curvature="0" />
    <path
       d="m 604.21317,1416.2864 -7.26151,11.348 7.26151,0 0,-11.348 m -0.75462,-2.5059 3.61652,0 0,13.8539 3.03275,0 0,2.3919 -3.03275,0 0,5.0119 -2.8619,0 0,-5.0119 -9.5966,0 0,-2.7764 8.84198,-13.4694"
       style="font-size:40px;font-style:normal;font-weight:normal;line-height:125%;letter-spacing:0px;word-spacing:0px;fill:#424ec2;fill-opacity:0.3487395;stroke:none;font-family:Sans"
       id="path3114"
       inkscape:connector-curvature="0" />
    <g
       id="g3906"
       transform="matrix(0.40062015,0,0,0.40062015,433.74475,1398.8049)"
       inkscape:label="Hershey Text">
      <path
         id="path3908"
         transform="translate(10,0)"
         style="fill:none;stroke:#000000"
         d="M 3,-12 -7,2 8,2 M 3,-12 3,9"
         inkscape:connector-curvature="0" />
      <path
         id="path3910"
         transform="translate(35,0)"
         style="fill:none;stroke:#000000"
         d="m -11,-5 0,14 m 0,-10 3,-3 2,-1 3,0 2,1 1,3 0,10 m 0,-10 3,-3 2,-1 3,0 2,1 1,3 0,10"
         inkscape:connector-curvature="0" />
      <path
         id="path3912"
         transform="translate(65,0)"
         style="fill:none;stroke:#000000"
         d="m -11,-5 0,14 m 0,-10 3,-3 2,-1 3,0 2,1 1,3 0,10 m 0,-10 3,-3 2,-1 3,0 2,1 1,3 0,10"
         inkscape:connector-curvature="0" />
      <path
         id="path3914"
         transform="translate(88,0)"
         style="fill:none;stroke:#000000"
         d=""
         inkscape:connector-curvature="0" />
      <path
         id="path3916"
         transform="translate(109,0)"
         style="fill:none;stroke:#000000"
         d="M -9,0 9,0"
         inkscape:connector-curvature="0" />
      <path
         id="path3918"
         transform="translate(130,0)"
         style="fill:none;stroke:#000000"
         d=""
         inkscape:connector-curvature="0" />
      <path
         id="path3920"
         transform="translate(148,0)"
         style="fill:none;stroke:#000000"
         d="M 6,-5 5,-2 3,0 0,1 -1,1 -4,0 l -2,-2 -1,-3 0,-1 1,-3 2,-2 3,-1 1,0 3,1 2,2 1,4 L 6,0 5,5 3,8 0,9 -2,9 -5,8 -6,6"
         inkscape:connector-curvature="0" />
      <path
         id="path3922"
         transform="translate(168,0)"
         style="fill:none;stroke:#000000"
         d="M 7,-12 -3,9 m -4,-21 14,0"
         inkscape:connector-curvature="0" />
      <path
         id="path3924"
         transform="translate(190,0)"
         style="fill:none;stroke:#000000"
         d="M 9,-12 -9,9 m 5,-21 2,2 0,2 -1,2 -2,1 -2,0 -2,-2 0,-2 1,-2 2,-1 2,0 2,1 3,1 3,0 3,-1 2,-1 M 5,2 3,3 2,5 2,7 4,9 6,9 8,8 9,6 9,4 7,2 5,2"
         inkscape:connector-curvature="0" />
      <path
         id="path3926"
         transform="translate(210,0)"
         style="fill:none;stroke:#000000"
         d=""
         inkscape:connector-curvature="0" />
      <path
         id="path3928"
         transform="translate(226,0)"
         style="fill:none;stroke:#000000"
         d="m 6,-2 -1,-2 -3,-1 -3,0 -3,1 -1,2 1,2 2,1 L 3,2 5,3 6,5 6,6 5,8 2,9 -1,9 -4,8 -5,6"
         inkscape:connector-curvature="0" />
      <path
         id="path3930"
         transform="translate(244,0)"
         style="fill:none;stroke:#000000"
         d="m 6,-2 -2,-2 -2,-1 -3,0 -2,1 -2,2 -1,3 0,2 1,3 2,2 2,1 3,0 2,-1 2,-2"
         inkscape:connector-curvature="0" />
      <path
         id="path3932"
         transform="translate(262,0)"
         style="fill:none;stroke:#000000"
         d="M 6,-5 6,9 M 6,-2 4,-4 2,-5 l -3,0 -2,1 -2,2 -1,3 0,2 1,3 2,2 2,1 3,0 2,-1 2,-2"
         inkscape:connector-curvature="0" />
      <path
         id="path3934"
         transform="translate(276,0)"
         style="fill:none;stroke:#000000"
         d="M 0,-12 0,9"
         inkscape:connector-curvature="0" />
      <path
         id="path3936"
         transform="translate(289,0)"
         style="fill:none;stroke:#000000"
         d="M -6,1 6,1 6,-1 5,-3 4,-4 2,-5 l -3,0 -2,1 -2,2 -1,3 0,2 1,3 2,2 2,1 3,0 2,-1 2,-2"
         inkscape:connector-curvature="0" />
      <path
         id="path3938"
         transform="translate(306,0)"
         style="fill:none;stroke:#000000"
         d=""
         inkscape:connector-curvature="0" />
      <path
         id="path3940"
         transform="translate(323,0)"
         style="fill:none;stroke:#000000"
         d="M 6,-5 6,9 M 6,-2 4,-4 2,-5 l -3,0 -2,1 -2,2 -1,3 0,2 1,3 2,2 2,1 3,0 2,-1 2,-2"
         inkscape:connector-curvature="0" />
      <path
         id="path3942"
         transform="translate(343,0)"
         style="fill:none;stroke:#000000"
         d="m -6,-5 0,21 m 0,-18 2,-2 2,-1 3,0 2,1 2,2 L 6,1 6,3 5,6 3,8 1,9 -2,9 -4,8 -6,6"
         inkscape:connector-curvature="0" />
      <path
         id="path3944"
         transform="translate(362,0)"
         style="fill:none;stroke:#000000"
         d="m -6,-5 0,21 m 0,-18 2,-2 2,-1 3,0 2,1 2,2 L 6,1 6,3 5,6 3,8 1,9 -2,9 -4,8 -6,6"
         inkscape:connector-curvature="0" />
      <path
         id="path3946"
         transform="translate(375,0)"
         style="fill:none;stroke:#000000"
         d="M 0,-12 0,9"
         inkscape:connector-curvature="0" />
      <path
         id="path3948"
         transform="translate(383,0)"
         style="fill:none;stroke:#000000"
         d="m -1,-12 1,1 1,-1 -1,-1 -1,1 m 1,7 0,14"
         inkscape:connector-curvature="0" />
      <path
         id="path3950"
         transform="translate(396,0)"
         style="fill:none;stroke:#000000"
         d="m 6,-2 -2,-2 -2,-1 -3,0 -2,1 -2,2 -1,3 0,2 1,3 2,2 2,1 3,0 2,-1 2,-2"
         inkscape:connector-curvature="0" />
      <path
         id="path3952"
         transform="translate(414,0)"
         style="fill:none;stroke:#000000"
         d="M 6,-5 6,9 M 6,-2 4,-4 2,-5 l -3,0 -2,1 -2,2 -1,3 0,2 1,3 2,2 2,1 3,0 2,-1 2,-2"
         inkscape:connector-curvature="0" />
      <path
         id="path3954"
         transform="translate(429,0)"
         style="fill:none;stroke:#000000"
         d="M 0,-12 0,5 1,8 3,9 5,9 m -8,-14 7,0"
         inkscape:connector-curvature="0" />
      <path
         id="path3956"
         transform="translate(440,0)"
         style="fill:none;stroke:#000000"
         d="m -1,-12 1,1 1,-1 -1,-1 -1,1 m 1,7 0,14"
         inkscape:connector-curvature="0" />
      <path
         id="path3958"
         transform="translate(453,0)"
         style="fill:none;stroke:#000000"
         d="m -1,-5 -2,1 -2,2 -1,3 0,2 1,3 2,2 2,1 L 2,9 4,8 6,6 7,3 7,1 6,-2 4,-4 2,-5 -1,-5"
         inkscape:connector-curvature="0" />
      <path
         id="path3960"
         transform="translate(472,0)"
         style="fill:none;stroke:#000000"
         d="m -5,-5 0,14 m 0,-10 3,-3 2,-1 3,0 2,1 1,3 0,10"
         inkscape:connector-curvature="0" />
      <path
         id="path3962"
         transform="translate(490,0)"
         style="fill:none;stroke:#000000"
         d="m 6,-2 -1,-2 -3,-1 -3,0 -3,1 -1,2 1,2 2,1 L 3,2 5,3 6,5 6,6 5,8 2,9 -1,9 -4,8 -5,6"
         inkscape:connector-curvature="0" />
    </g>
  </g>
</svg>
