<?xml version="1.0" encoding="UTF-8" standalone="no"?>
<!-- Created with Inkscape (http://www.inkscape.org/) -->

<svg
   xmlns:dc="http://purl.org/dc/elements/1.1/"
   xmlns:cc="http://creativecommons.org/ns#"
   xmlns:rdf="http://www.w3.org/1999/02/22-rdf-syntax-ns#"
   xmlns:svg="http://www.w3.org/2000/svg"
   xmlns="http://www.w3.org/2000/svg"
   xmlns:sodipodi="http://sodipodi.sourceforge.net/DTD/sodipodi-0.dtd"
   xmlns:inkscape="http://www.inkscape.org/namespaces/inkscape"
   width="3188.9763"
   height="2125.9841"
   id="svg2"
   version="1.1"
   inkscape:version="0.48+devel r"
   sodipodi:docname="wheels.svg">
  <sodipodi:namedview
     id="base"
     pagecolor="#ffffff"
     bordercolor="#666666"
     borderopacity="1.0"
     inkscape:pageopacity="0.0"
     inkscape:pageshadow="2"
     inkscape:zoom="2.222233"
     inkscape:cx="541.04566"
     inkscape:cy="825.04784"
     inkscape:document-units="mm"
     inkscape:current-layer="layer8"
     showgrid="true"
     inkscape:snap-object-midpoints="true"
     inkscape:snap-bbox="true"
     inkscape:object-paths="false"
     inkscape:snap-nodes="true"
     inkscape:object-nodes="false"
     inkscape:snap-global="true"
     inkscape:snap-grids="true"
     inkscape:window-width="2560"
     inkscape:window-height="1550"
     inkscape:window-x="0"
     inkscape:window-y="0"
     inkscape:window-maximized="1"
     inkscape:snap-smooth-nodes="false"
     units="mm">
    <inkscape:grid
       type="xygrid"
       id="grid2985"
       empspacing="10"
       visible="true"
       enabled="true"
       snapvisiblegridlinesonly="true"
       units="mm"
       spacingx="1mm"
       spacingy="1mm"
       empcolor="#ff9500"
       empopacity="0.25098039" />
  </sodipodi:namedview>
  <defs
     id="defs4" />
  <metadata
     id="metadata7">
    <rdf:RDF>
      <cc:Work
         rdf:about="">
        <dc:format>image/svg+xml</dc:format>
        <dc:type
           rdf:resource="http://purl.org/dc/dcmitype/StillImage" />
        <dc:title />
      </cc:Work>
    </rdf:RDF>
  </metadata>
  <g
     inkscape:groupmode="layer"
     id="layer8"
     inkscape:label="Wheels"
     style="display:inline">
    <path
       id="path3307"
       style="fill:none;stroke:#000000"
       d=""
       inkscape:connector-curvature="0" />
    <path
       id="path3311"
       style="fill:none;stroke:#000000"
       d=""
       inkscape:connector-curvature="0" />
    <g
       id="g3401">
      <path
         id="path3361"
         d="m 779.52754,1270.2803 c -61.64281,0 -111.625,49.9509 -111.625,111.5937 0,61.6428 49.98219,111.625 111.625,111.625 61.6428,0 111.625,-49.9822 111.625,-111.625 0,-61.6428 -49.9822,-111.5938 -111.625,-111.5937 z"
         style="fill:#008080;fill-opacity:0.33484485;stroke:none;display:inline" />
      <path
         id="path3359"
         d="m 778.99629,1287.999 c 0.17866,-0.018 0.34779,0 0.53125,0 2.9353,0 5.3125,2.3771 5.3125,5.3125 0,2.9354 -2.3772,5.3125 -5.3125,5.3125 -2.9354,0 -5.3125,-2.3771 -5.3125,-5.3125 0,-2.7519 2.1014,-5.0372 4.78125,-5.3125 z"
         style="fill:#008080;fill-opacity:0.33484485;stroke:none;display:inline" />
      <path
         id="path3357"
         d="m 765.34004,1312.4053 0,44.8124 c -12.97304,-7.4244 -25.93662,-14.8548 -38.90625,-22.2812 10.001,-11.3042 23.54924,-19.4104 38.90625,-22.5312 z"
         style="fill:#008080;fill-opacity:0.33484485;stroke:none;display:inline" />
      <path
         id="path3355"
         d="m 793.71504,1312.4053 c 15.372,3.1239 28.9337,11.2409 38.9375,22.5624 -12.98,7.4991 -25.9575,14.9999 -38.9375,22.5 l 0,-45.0624 z"
         style="fill:#008080;fill-opacity:0.33484485;stroke:none;display:inline" />
      <path
         id="path3353"
         d="m 702.80879,1326.5303 9.5625,5.5 0,11.0624 -9.5625,5.5313 -9.59375,-5.5313 0,-11.0624 9.59375,-5.5 z"
         style="fill:#008080;fill-opacity:0.33484485;stroke:none;display:inline" />
      <path
         id="path3351"
         d="m 856.24629,1326.5303 9.5625,5.5312 0,11.0625 -9.5625,5.5 -9.59375,-5.5 0,-11.0625 9.59375,-5.5312 z"
         style="fill:#008080;fill-opacity:0.33484485;stroke:none;display:inline" />
      <path
         id="path3349"
         d="m 712.27754,1359.5303 c 12.97147,7.4855 25.93476,14.9822 38.90625,22.4687 -12.94756,7.4782 -25.89621,14.9579 -38.84375,22.4375 -2.38087,-7.09 -3.6875,-14.6713 -3.6875,-22.5625 0,-7.8118 1.28986,-15.3155 3.625,-22.3437 z"
         style="fill:#008080;fill-opacity:0.33484485;stroke:none;display:inline" />
      <path
         id="path3347"
         d="m 846.77754,1359.5303 c 2.3351,7.0288 3.625,14.5319 3.625,22.3437 0,7.8912 -1.3066,15.4725 -3.6875,22.5625 -12.9475,-7.4795 -25.89625,-14.9593 -38.84375,-22.4375 12.9713,-7.4865 25.93475,-14.9837 38.90625,-22.4687 z"
         style="fill:#008080;fill-opacity:0.33484485;stroke:none;display:inline" />
      <path
         inkscape:connector-curvature="0"
         id="path3345"
         d="m 779.55973,1374.6357 c 4.02887,0 7.27437,3.2779 7.27437,7.3066 0,1.8277 -0.69206,3.4837 -1.8025,4.7638 l -10.97594,0 c -1.11043,-1.2799 -1.83468,-2.9361 -1.83468,-4.7638 0,-4.0286 3.30986,-7.3066 7.33875,-7.3066 z"
         style="fill:#008080;fill-opacity:0.33484485;stroke:none;display:inline" />
      <path
         id="path3343"
         d="m 765.34004,1406.5615 0,44.7812 c -15.28895,-3.1068 -28.79326,-11.1491 -38.78125,-22.375 l 38.78125,-22.4062 z"
         style="fill:#008080;fill-opacity:0.33484485;stroke:none;display:inline" />
      <path
         id="path3341"
         d="m 793.71504,1406.5615 c 12.9267,7.4574 25.85445,14.9163 38.78125,22.375 -9.9897,11.2349 -23.48425,19.2975 -38.78125,22.4062 l 0,-44.7812 z"
         style="fill:#008080;fill-opacity:0.33484485;stroke:none;display:inline" />
      <path
         id="path3339"
         d="m 702.68379,1420.874 c 1.8849,-0.049 3.70965,0.8773 4.71875,2.625 1.4677,2.5421 0.6046,5.8139 -1.9375,7.2813 -2.5421,1.4674 -5.7823,0.6358 -7.25,-1.9063 -1.4677,-2.5422 -0.6046,-5.8448 1.9375,-7.3125 0.7944,-0.4587 1.67455,-0.6655 2.53125,-0.6875 z"
         style="fill:#008080;fill-opacity:0.33484485;stroke:none;display:inline" />
      <path
         id="path3337"
         d="m 855.68379,1420.874 c 0.2323,-0.025 0.4518,-0.01 0.6875,0 0.8566,0.022 1.73685,0.2288 2.53125,0.6875 2.5421,1.4677 3.4052,4.7703 1.9375,7.3125 -1.4677,2.5421 -4.7079,3.3738 -7.25,1.9063 -2.5421,-1.4674 -3.4052,-4.7392 -1.9375,-7.2813 0.8829,-1.5292 2.40545,-2.4507 4.03125,-2.625 z"
         style="fill:#008080;fill-opacity:0.33484485;stroke:none;display:inline" />
      <path
         id="path3074"
         d="m 779.52754,1459.4053 9.5625,5.5312 0,11.0625 -9.5625,5.5 -9.59375,-5.5 0,-11.0625 9.59375,-5.5312 z"
         style="fill:#008080;fill-opacity:0.33484485;stroke:none;display:inline" />
      <g
         inkscape:label="Hershey Text"
         transform="matrix(0,0.64,-0.64,0,778.15654,1322.3018)"
         id="g3276">
        <path
           inkscape:connector-curvature="0"
           d="M -8,-5 -4,9 M 0,-5 -4,9 M 0,-5 4,9 M 8,-5 4,9"
           style="fill:none;stroke:#000000"
           transform="translate(11,0)"
           id="path3278" />
        <path
           inkscape:connector-curvature="0"
           d="m -4,-8 2,-1 3,-3 0,21"
           style="fill:none;stroke:#000000"
           transform="translate(32,0)"
           id="path3280" />
      </g>
    </g>
    <g
       id="g3382">
      <path
         id="path3333"
         d="m 531.49605,1273.8272 c -59.68589,0 -108.0625,48.3766 -108.0625,108.0625 0,59.6859 48.37661,108.0625 108.0625,108.0625 59.686,0 108.0625,-48.3766 108.0625,-108.0625 0,-59.6859 -48.3765,-108.0625 -108.0625,-108.0625 z"
         style="fill:#000000;fill-opacity:0.33484485;stroke:none" />
      <path
         id="path3331"
         d="m 531.49605,1287.9834 c 2.9354,0 5.3125,2.4084 5.3125,5.3438 0,2.9354 -2.3771,5.3125 -5.3125,5.3125 -2.9353,0 -5.3125,-2.3771 -5.3125,-5.3125 0,-2.9354 2.3772,-5.3434 5.3125,-5.3438 z"
         style="fill:#000000;fill-opacity:0.33484485;stroke:none" />
      <path
         id="path3329"
         d="m 517.30855,1312.421 0,44.6874 c -12.95288,-7.413 -25.89434,-14.8351 -38.84375,-22.25 9.99371,-11.2601 23.52477,-19.3242 38.84375,-22.4374 z"
         style="fill:#000000;fill-opacity:0.33484485;stroke:none" />
      <path
         id="path3327"
         d="m 545.68355,1312.421 c 15.342,3.1176 28.8768,11.213 38.875,22.5 -12.9554,7.4846 -25.9196,14.9514 -38.875,22.4374 l 0,-44.9374 z"
         style="fill:#000000;fill-opacity:0.33484485;stroke:none" />
      <path
         id="path3325"
         d="m 454.4023,1332.296 c 1.02117,-0.072 2.07796,0.1683 3.03125,0.7187 2.54211,1.4677 3.40519,4.7079 1.9375,7.25 -1.46769,2.5421 -4.70789,3.4052 -7.25,1.9375 -2.54211,-1.4677 -3.40519,-4.7079 -1.9375,-7.25 0.9173,-1.5888 2.5168,-2.5361 4.21875,-2.6562 z"
         style="fill:#000000;fill-opacity:0.33484485;stroke:none" />
      <path
         id="path3323"
         d="m 608.05855,1332.296 c 1.8849,-0.049 3.741,0.9085 4.75,2.6562 1.4676,2.5421 0.6045,5.7823 -1.9375,7.25 -2.5421,1.4677 -5.7824,0.6046 -7.25,-1.9375 -1.4677,-2.5421 -0.6046,-5.7823 1.9375,-7.25 0.7944,-0.4587 1.6432,-0.6969 2.5,-0.7187 z"
         style="fill:#000000;fill-opacity:0.33484485;stroke:none" />
      <path
         id="path3321"
         d="m 464.2773,1359.4522 c 12.9591,7.4781 25.9159,14.9581 38.875,22.4375 -12.9598,7.4853 -25.9152,14.9822 -38.875,22.4687 -2.361,-7.0634 -3.65625,-14.612 -3.65625,-22.4687 0,-7.8463 1.30125,-15.3822 3.65625,-22.4375 z"
         style="fill:#000000;fill-opacity:0.33484485;stroke:none" />
      <path
         id="path3319"
         d="m 598.7148,1359.4522 c 2.355,7.0553 3.65625,14.5912 3.65625,22.4375 0,7.8567 -1.29545,15.4053 -3.65625,22.4687 -12.96,-7.4864 -25.9151,-14.9834 -38.875,-22.4687 12.9591,-7.4794 25.9157,-14.9594 38.875,-22.4375 z"
         style="fill:#000000;fill-opacity:0.33484485;stroke:none" />
      <path
         inkscape:connector-curvature="0"
         id="path3317"
         d="m 531.49605,1374.6197 c 4.02888,0 7.30656,3.3101 7.30656,7.3388 0,1.8276 -0.69206,3.4837 -1.8025,4.7637 l -10.97594,0 c -1.11043,-1.2798 -1.83468,-2.9361 -1.83468,-4.7637 0,-4.0286 3.27767,-7.3388 7.30656,-7.3388 z"
         style="fill:#000000;fill-opacity:0.33484485;stroke:none" />
      <path
         id="path3315"
         d="m 517.30855,1406.4522 0,44.9062 c -15.32698,-3.115 -28.84844,-11.1991 -38.84375,-22.4687 l 38.84375,-22.4375 z"
         style="fill:#000000;fill-opacity:0.33484485;stroke:none" />
      <path
         id="path3313"
         d="m 545.68355,1406.4522 c 12.9592,7.4761 25.9159,14.96 38.875,22.4375 -9.9966,11.2776 -23.541,19.3523 -38.875,22.4687 l 0,-44.9062 z"
         style="fill:#000000;fill-opacity:0.33484485;stroke:none" />
      <path
         id="path3308"
         d="m 454.6523,1420.8584 c 1.88485,-0.049 3.70972,0.9086 4.71875,2.6563 1.46769,2.5421 0.60461,5.8139 -1.9375,7.2813 -2.54211,1.4673 -5.78231,0.6045 -7.25,-1.9376 -1.46769,-2.5423 -0.60461,-5.8135 1.9375,-7.2812 0.79441,-0.4587 1.6745,-0.6967 2.53125,-0.7188 z"
         style="fill:#000000;fill-opacity:0.33484485;stroke:none" />
      <path
         id="path3305"
         d="m 608.3398,1420.8584 c 0.8567,0.022 1.73695,0.2601 2.53125,0.7188 2.5421,1.4677 3.4052,4.7391 1.9375,7.2812 -1.4676,2.542 -4.7079,3.4052 -7.25,1.9376 -2.542,-1.4674 -3.4051,-4.7392 -1.9375,-7.2813 1.009,-1.7477 2.83385,-2.7052 4.71875,-2.6563 z"
         style="fill:#000000;fill-opacity:0.33484485;stroke:none" />
      <path
         id="path3045"
         d="m 531.49605,1465.171 c 2.9354,0 5.3125,2.3771 5.3125,5.3124 0,2.9355 -2.3771,5.3126 -5.3125,5.3126 -2.9354,0 -5.3125,-2.3773 -5.3125,-5.3126 0,-2.9354 2.3771,-5.3124 5.3125,-5.3124 z"
         style="fill:#000000;fill-opacity:0.33484485;stroke:none" />
      <g
         id="g3308"
         transform="matrix(0,0.64,-0.64,0,530.53605,1322.5335)"
         inkscape:label="Hershey Text">
        <path
           inkscape:connector-curvature="0"
           id="path3310"
           transform="translate(11,0)"
           style="fill:none;stroke:#000000"
           d="M -8,-5 -4,9 M 0,-5 -4,9 M 0,-5 4,9 M 8,-5 4,9" />
        <path
           inkscape:connector-curvature="0"
           id="path3312"
           transform="translate(32,0)"
           style="fill:none;stroke:#000000"
           d="m -6,-7 0,-1 1,-2 1,-1 2,-1 4,0 2,1 1,1 1,2 0,2 L 5,-4 3,-1 -7,9 7,9" />
      </g>
    </g>
    <g
       id="g3363">
      <path
         id="path3301"
         d="m 283.46456,1270.2803 c -61.64281,0 -111.625,49.9509 -111.625,111.5937 0,61.6428 49.98219,111.625 111.625,111.625 61.6428,0 111.625,-49.9822 111.625,-111.625 0,-61.6428 -49.9822,-111.5938 -111.625,-111.5937 z"
         style="fill:#000000;fill-opacity:0.33484485;stroke:none" />
      <path
         id="path3299"
         d="m 283.46456,1282.249 9.53125,5.5313 0,11.0624 -9.53125,5.5 -9.59375,-5.5 0,-11.0624 9.59375,-5.5313 z"
         style="fill:#000000;fill-opacity:0.33484485;stroke:none" />
      <path
         id="path3297"
         d="m 269.27706,1312.4053 0,44.8124 c -12.97304,-7.4244 -25.93662,-14.8548 -38.90625,-22.2812 10.001,-11.3042 23.54924,-19.4103 38.90625,-22.5312 z"
         style="fill:#000000;fill-opacity:0.33484485;stroke:none" />
      <path
         id="path3295"
         d="m 297.65206,1312.4053 c 15.372,3.1238 28.9337,11.241 38.9375,22.5624 -12.98,7.4991 -25.9575,15 -38.9375,22.5 l 0,-45.0624 z"
         style="fill:#000000;fill-opacity:0.33484485;stroke:none" />
      <path
         id="path3293"
         d="m 206.37081,1332.2803 c 1.0212,-0.072 2.07795,0.1683 3.03125,0.7187 2.5421,1.4677 3.4052,4.7079 1.9375,7.25 -1.4677,2.5421 -4.7079,3.4052 -7.25,1.9375 -2.5421,-1.4677 -3.4052,-4.7079 -1.9375,-7.25 0.9173,-1.5888 2.51685,-2.5362 4.21875,-2.6562 z"
         style="fill:#000000;fill-opacity:0.33484485;stroke:none" />
      <path
         id="path3291"
         d="m 360.02706,1332.2803 c 1.8849,-0.049 3.741,0.9085 4.75,2.6562 1.4677,2.5421 0.6046,5.7823 -1.9375,7.25 -2.5421,1.4677 -5.7823,0.6046 -7.25,-1.9375 -1.4677,-2.5421 -0.6046,-5.7823 1.9375,-7.25 0.7944,-0.4587 1.6432,-0.6969 2.5,-0.7187 z"
         style="fill:#000000;fill-opacity:0.33484485;stroke:none" />
      <path
         id="path3289"
         d="m 216.21456,1359.5303 c 12.97147,7.4855 25.93476,14.9822 38.90625,22.4687 -12.94756,7.4782 -25.89621,14.9579 -38.84375,22.4375 -2.38087,-7.09 -3.6875,-14.6713 -3.6875,-22.5625 0,-7.8118 1.28986,-15.3155 3.625,-22.3437 z"
         style="fill:#000000;fill-opacity:0.33484485;stroke:none" />
      <path
         id="path3287"
         d="m 350.71456,1359.5303 c 2.3351,7.0288 3.625,14.5319 3.625,22.3437 0,7.8912 -1.3066,15.4725 -3.6875,22.5625 -12.9475,-7.4795 -25.89625,-14.9593 -38.84375,-22.4375 12.9713,-7.4865 25.93475,-14.9837 38.90625,-22.4687 z"
         style="fill:#000000;fill-opacity:0.33484485;stroke:none" />
      <path
         inkscape:connector-curvature="0"
         id="path3285"
         d="m 283.46503,1374.6357 c 4.02887,0 7.27437,3.2779 7.27437,7.3066 0,1.8277 -0.65988,3.4837 -1.77031,4.7638 l -10.97594,0 c -1.11043,-1.2799 -1.83468,-2.9361 -1.83468,-4.7638 0,-4.0286 3.27767,-7.3066 7.30656,-7.3066 z"
         style="fill:#000000;fill-opacity:0.33484485;stroke:none" />
      <path
         id="path3283"
         d="m 269.27706,1406.5615 0,44.7812 c -15.28895,-3.1068 -28.79326,-11.1491 -38.78125,-22.375 l 38.78125,-22.4062 z"
         style="fill:#000000;fill-opacity:0.33484485;stroke:none" />
      <path
         id="path3281"
         d="m 297.65206,1406.5615 c 12.9267,7.4574 25.85445,14.9163 38.78125,22.375 -9.9897,11.2349 -23.48425,19.2975 -38.78125,22.4062 l 0,-44.7812 z"
         style="fill:#000000;fill-opacity:0.33484485;stroke:none" />
      <path
         id="path3279"
         d="m 206.74581,1415.124 9.53125,5.5313 0,11.0624 -9.53125,5.5 -9.59375,-5.5 0,-11.0624 9.59375,-5.5313 z"
         style="fill:#000000;fill-opacity:0.33484485;stroke:none" />
      <path
         id="path3276"
         d="m 360.18331,1415.124 9.53125,5.5313 0,11.0624 -9.53125,5.5 -9.59375,-5.5 0,-11.0624 9.59375,-5.5313 z"
         style="fill:#000000;fill-opacity:0.33484485;stroke:none" />
      <path
         id="path3015"
         d="m 283.46456,1465.1553 c 2.9353,0 5.3125,2.4083 5.3125,5.3437 0,2.9353 -2.3772,5.2809 -5.3125,5.2813 -2.9354,0 -5.3125,-2.346 -5.3125,-5.2813 0,-2.9354 2.3771,-5.3437 5.3125,-5.3437 z"
         style="fill:#000000;fill-opacity:0.33484485;stroke:none" />
      <g
         inkscape:label="Hershey Text"
         transform="matrix(0,0.64,-0.64,0,282.50456,1321.9936)"
         id="g3346">
        <path
           inkscape:connector-curvature="0"
           d="M -8,-5 -4,9 M 0,-5 -4,9 M 0,-5 4,9 M 8,-5 4,9"
           style="fill:none;stroke:#000000"
           transform="translate(11,0)"
           id="path3348" />
        <path
           inkscape:connector-curvature="0"
           d="m -5,-12 11,0 -6,8 3,0 2,1 1,1 L 7,1 7,3 6,6 4,8 1,9 -2,9 -5,8 -6,7 -7,5"
           style="fill:none;stroke:#000000"
           transform="translate(32,0)"
           id="path3350" />
      </g>
    </g>
  </g>
</svg>
