  0
SECTION
  2
HEADER
  9
$ACADVER
  1
AC1014
  9
$HANDSEED
  5
FFFF
  9
$MEASUREMENT
 70
     1
  0
ENDSEC
  0
SECTION
  2
TABLES
  0
TABLE
  2
VPORT
  5
8
330
0
100
AcDbSymbolTable
 70
     4
  0
VPORT
  5
2E
330
8
100
AcDbSymbolTableRecord
100
AcDbViewportTableRecord
  2
*ACTIVE
 70
     0
 10
0.0
 20
0.0
 11
1.0
 21
1.0
 12
210.0
 22
148.5
 13
0.0
 23
0.0
 14
10.0
 24
10.0
 15
10.0
 25
10.0
 16
0.0
 26
0.0
 36
1.0
 17
0.0
 27
0.0
 37
0.0
 40
341.0
 41
1.24
 42
50.0
 43
0.0
 44
0.0
 50
0.0
 51
0.0
 71
     0
 72
   100
 73
     1
 74
     3
 75
     0
 76
     0
 77
     0
 78
     0
  0
ENDTAB
  0
TABLE
  2
LTYPE
  5
5
330
0
100
AcDbSymbolTable
 70
     1
  0
LTYPE
  5
14
330
5
100
AcDbSymbolTableRecord
100
AcDbLinetypeTableRecord
  2
BYBLOCK
 70
     0
  3

 72
    65
 73
     0
 40
0.0
  0
LTYPE
  5
15
330
5
100
AcDbSymbolTableRecord
100
AcDbLinetypeTableRecord
  2
BYLAYER
 70
     0
  3

 72
    65
 73
     0
 40
0.0
  0
LTYPE
  5
16
330
5
100
AcDbSymbolTableRecord
100
AcDbLinetypeTableRecord
  2
CONTINUOUS
 70
     0
  3
Solid line
 72
    65
 73
     0
 40
0.0
  0
ENDTAB
  0
TABLE
  2
LAYER
  5
2
100
AcDbSymbolTable
 70
2
  0
LAYER
  5
50
100
AcDbSymbolTableRecord
100
AcDbLayerTableRecord
  2
0
 70
0
  6
CONTINUOUS
  0
LAYER
  5
51
100
AcDbSymbolTableRecord
100
AcDbLayerTableRecord
  2
Wheels
 70
0
  6
CONTINUOUS
  0
ENDTAB
  0
TABLE
  2
STYLE
  5
3
330
0
100
AcDbSymbolTable
 70
     1
  0
STYLE
  5
11
330
3
100
AcDbSymbolTableRecord
100
AcDbTextStyleTableRecord
  2
STANDARD
 70
     0
 40
0.0
 41
1.0
 50
0.0
 71
     0
 42
2.5
  3
txt
  4

  0
ENDTAB
  0
TABLE
  2
VIEW
  5
6
330
0
100
AcDbSymbolTable
 70
     0
  0
ENDTAB
  0
TABLE
  2
UCS
  5
7
330
0
100
AcDbSymbolTable
 70
     0
  0
ENDTAB
  0
TABLE
  2
APPID
  5
9
330
0
100
AcDbSymbolTable
 70
     2
  0
APPID
  5
12
330
9
100
AcDbSymbolTableRecord
100
AcDbRegAppTableRecord
  2
ACAD
 70
     0
  0
ENDTAB
  0
TABLE
  2
DIMSTYLE
  5
A
330
0
100
AcDbSymbolTable
 70
     1
  0
DIMSTYLE
105
27
330
A
100
AcDbSymbolTableRecord
100
AcDbDimStyleTableRecord
  2
ISO-25
 70
     0
  3

  4

  5

  6

  7

 40
1.0
 41
2.5
 42
0.625
 43
3.75
 44
1.25
 45
0.0
 46
0.0
 47
0.0
 48
0.0
140
2.5
141
2.5
142
0.0
143
0.03937007874016
144
1.0
145
0.0
146
1.0
147
0.625
 71
     0
 72
     0
 73
     0
 74
     0
 75
     0
 76
     0
 77
     1
 78
     8
170
     0
171
     3
172
     1
173
     0
174
     0
175
     0
176
     0
177
     0
178
     0
270
     2
271
     2
272
     2
273
     2
274
     3
340
11
275
     0
280
     0
281
     0
282
     0
283
     0
284
     8
285
     0
286
     0
287
     3
288
     0
  0
ENDTAB
  0
TABLE
  2
BLOCK_RECORD
  5
1
330
0
100
AcDbSymbolTable
 70
     1
  0
BLOCK_RECORD
  5
1F
330
1
100
AcDbSymbolTableRecord
100
AcDbBlockTableRecord
  2
*MODEL_SPACE
  0
BLOCK_RECORD
  5
1B
330
1
100
AcDbSymbolTableRecord
100
AcDbBlockTableRecord
  2
*PAPER_SPACE
  0
ENDTAB
  0
ENDSEC
  0
SECTION
  2
BLOCKS
  0
BLOCK
  5
20
330
1F
100
AcDbEntity
  8
0
100
AcDbBlockBegin
  2
*MODEL_SPACE
 70
     0
 10
0.0
 20
0.0
 30
0.0
  3
*MODEL_SPACE
  1

  0
ENDBLK
  5
21
330
1F
100
AcDbEntity
  8
0
100
AcDbBlockEnd
  0
BLOCK
  5
1C
330
1B
100
AcDbEntity
 67
     1
  8
0
100
AcDbBlockBegin
  2
*PAPER_SPACE
  1

  0
ENDBLK
  5
1D
330
1B
100
AcDbEntity
 67
     1
  8
0
100
AcDbBlockEnd
  0
ENDSEC
  0
SECTION
  2
ENTITIES
  0
SPLINE
  5
100
100
AcDbEntity
  8
Wheels
 62
7
100
AcDbSpline
 70
8
 71
3
 72
8
 73
4
 74
0
 40
0
 40
0
 40
0
 40
0
 40
1
 40
1
 40
1
 40
1
 10
129.998611
 20
191.650874
 30
0.0
 10
131.103181
 20
191.650874
 30
0.0
 10
132.000625
 20
190.753407
 30
0.0
 10
132.000625
 20
189.648846
 30
0.0
  0
SPLINE
  5
101
100
AcDbEntity
  8
Wheels
 62
7
100
AcDbSpline
 70
8
 71
3
 72
8
 73
4
 74
0
 40
0
 40
0
 40
0
 40
0
 40
1
 40
1
 40
1
 40
1
 10
132.000625
 20
189.648846
 30
0.0
 10
132.000625
 20
189.147789
 30
0.0
 10
131.811175
 20
188.694483
 30
0.0
 10
131.506736
 20
188.343568
 30
0.0
  0
LWPOLYLINE
  5
102
100
AcDbEntity
  8
Wheels
 62
7
100
AcDbPolyline
 90
6
 70
0
 10
119.997361
 20
210.004124
 30
0.0
 10
119.997361
 20
180.000374
 30
0.0
 10
179.996042
 20
180.000374
 30
0.0
 10
179.996042
 20
210.004124
 30
0.0
 10
119.997361
 20
210.004124
 30
0.0
 10
119.997361
 20
210.004124
 30
0.0
  0
SPLINE
  5
103
100
AcDbEntity
  8
Wheels
 62
7
100
AcDbSpline
 70
8
 71
3
 72
8
 73
4
 74
0
 40
0
 40
0
 40
0
 40
0
 40
1
 40
1
 40
1
 40
1
 10
128.490486
 20
188.343568
 30
0.0
 10
128.186047
 20
188.694483
 30
0.0
 10
127.996597
 20
189.147789
 30
0.0
 10
127.996597
 20
189.648846
 30
0.0
  0
SPLINE
  5
104
100
AcDbEntity
  8
Wheels
 62
7
100
AcDbSpline
 70
8
 71
3
 72
8
 73
4
 74
0
 40
0
 40
0
 40
0
 40
0
 40
1
 40
1
 40
1
 40
1
 10
127.996597
 20
189.648846
 30
0.0
 10
127.996597
 20
190.753407
 30
0.0
 10
128.894041
 20
191.650874
 30
0.0
 10
129.998611
 20
191.650874
 30
0.0
  0
LWPOLYLINE
  5
105
100
AcDbEntity
  8
Wheels
 62
7
100
AcDbPolyline
 90
2
 70
0
 10
131.506736
 20
188.343568
 30
0.0
 10
128.490486
 20
188.343568
 30
0.0
  0
SPLINE
  5
106
100
AcDbEntity
  8
Wheels
 62
7
100
AcDbSpline
 70
8
 71
3
 72
8
 73
4
 74
0
 40
0
 40
0
 40
0
 40
0
 40
1
 40
1
 40
1
 40
1
 10
139.999861
 20
191.606763
 30
0.0
 10
141.071295
 20
191.606763
 30
0.0
 10
141.940139
 20
190.729136
 30
0.0
 10
141.940139
 20
189.657651
 30
0.0
  0
SPLINE
  5
107
100
AcDbEntity
  8
Wheels
 62
7
100
AcDbSpline
 70
8
 71
3
 72
8
 73
4
 74
0
 40
0
 40
0
 40
0
 40
0
 40
1
 40
1
 40
1
 40
1
 10
141.940139
 20
189.657651
 30
0.0
 10
141.940139
 20
189.171693
 30
0.0
 10
141.759195
 20
188.736873
 30
0.0
 10
141.463889
 20
188.396485
 30
0.0
  0
LWPOLYLINE
  5
108
100
AcDbEntity
  8
Wheels
 62
7
100
AcDbPolyline
 90
2
 70
0
 10
129.998611
 20
191.650874
 30
0.0
 10
129.998611
 20
191.650874
 30
0.0
  0
SPLINE
  5
109
100
AcDbEntity
  8
Wheels
 62
7
100
AcDbSpline
 70
8
 71
3
 72
8
 73
4
 74
0
 40
0
 40
0
 40
0
 40
0
 40
1
 40
1
 40
1
 40
1
 10
138.535833
 20
188.396485
 30
0.0
 10
138.240527
 20
188.736873
 30
0.0
 10
138.059583
 20
189.171665
 30
0.0
 10
138.059583
 20
189.657651
 30
0.0
  0
SPLINE
  5
10a
100
AcDbEntity
  8
Wheels
 62
7
100
AcDbSpline
 70
8
 71
3
 72
8
 73
4
 74
0
 40
0
 40
0
 40
0
 40
0
 40
1
 40
1
 40
1
 40
1
 10
138.059583
 20
189.657651
 30
0.0
 10
138.059583
 20
190.729080
 30
0.0
 10
138.928427
 20
191.606763
 30
0.0
 10
139.999861
 20
191.606763
 30
0.0
  0
LWPOLYLINE
  5
10b
100
AcDbEntity
  8
Wheels
 62
7
100
AcDbPolyline
 90
2
 70
0
 10
141.463889
 20
188.396485
 30
0.0
 10
138.535833
 20
188.396485
 30
0.0
  0
SPLINE
  5
10c
100
AcDbEntity
  8
Wheels
 62
7
100
AcDbSpline
 70
8
 71
3
 72
8
 73
4
 74
0
 40
0
 40
0
 40
0
 40
0
 40
1
 40
1
 40
1
 40
1
 10
150.001111
 20
191.553846
 30
0.0
 10
151.040403
 20
191.553846
 30
0.0
 10
151.879653
 20
190.714574
 30
0.0
 10
151.879653
 20
189.675318
 30
0.0
  0
SPLINE
  5
10d
100
AcDbEntity
  8
Wheels
 62
7
100
AcDbSpline
 70
8
 71
3
 72
8
 73
4
 74
0
 40
0
 40
0
 40
0
 40
0
 40
1
 40
1
 40
1
 40
1
 10
151.879653
 20
189.675318
 30
0.0
 10
151.879653
 20
189.203894
 30
0.0
 10
151.707489
 20
188.770712
 30
0.0
 10
151.421042
 20
188.440596
 30
0.0
  0
LWPOLYLINE
  5
10e
100
AcDbEntity
  8
Wheels
 62
7
100
AcDbPolyline
 90
2
 70
0
 10
139.999861
 20
191.606763
 30
0.0
 10
139.999861
 20
191.606763
 30
0.0
  0
SPLINE
  5
10f
100
AcDbEntity
  8
Wheels
 62
7
100
AcDbSpline
 70
8
 71
3
 72
8
 73
4
 74
0
 40
0
 40
0
 40
0
 40
0
 40
1
 40
1
 40
1
 40
1
 10
148.581181
 20
188.440596
 30
0.0
 10
148.294733
 20
188.770768
 30
0.0
 10
148.113750
 20
189.203866
 30
0.0
 10
148.113750
 20
189.675318
 30
0.0
  0
SPLINE
  5
110
100
AcDbEntity
  8
Wheels
 62
7
100
AcDbSpline
 70
8
 71
3
 72
8
 73
4
 74
0
 40
0
 40
0
 40
0
 40
0
 40
1
 40
1
 40
1
 40
1
 10
148.113750
 20
189.675318
 30
0.0
 10
148.113750
 20
190.714574
 30
0.0
 10
148.961819
 20
191.553846
 30
0.0
 10
150.001111
 20
191.553846
 30
0.0
  0
LWPOLYLINE
  5
111
100
AcDbEntity
  8
Wheels
 62
7
100
AcDbPolyline
 90
2
 70
0
 10
151.421042
 20
188.440596
 30
0.0
 10
148.581181
 20
188.440596
 30
0.0
  0
SPLINE
  5
112
100
AcDbEntity
  8
Wheels
 62
7
100
AcDbSpline
 70
8
 71
3
 72
8
 73
4
 74
0
 40
0
 40
0
 40
0
 40
0
 40
1
 40
1
 40
1
 40
1
 10
160.002361
 20
191.509763
 30
0.0
 10
161.010473
 20
191.509763
 30
0.0
 10
161.827986
 20
190.692250
 30
0.0
 10
161.827986
 20
189.684124
 30
0.0
  0
SPLINE
  5
113
100
AcDbEntity
  8
Wheels
 62
7
100
AcDbSpline
 70
8
 71
3
 72
8
 73
4
 74
0
 40
0
 40
0
 40
0
 40
0
 40
1
 40
1
 40
1
 40
1
 10
161.827986
 20
189.684124
 30
0.0
 10
161.827986
 20
189.226867
 30
0.0
 10
161.656048
 20
188.813807
 30
0.0
 10
161.378194
 20
188.493485
 30
0.0
  0
LWPOLYLINE
  5
114
100
AcDbEntity
  8
Wheels
 62
7
100
AcDbPolyline
 90
2
 70
0
 10
150.001111
 20
191.553846
 30
0.0
 10
150.001111
 20
191.553846
 30
0.0
  0
SPLINE
  5
115
100
AcDbEntity
  8
Wheels
 62
7
100
AcDbSpline
 70
8
 71
3
 72
8
 73
4
 74
0
 40
0
 40
0
 40
0
 40
0
 40
1
 40
1
 40
1
 40
1
 10
158.626528
 20
188.493485
 30
0.0
 10
158.348674
 20
188.813779
 30
0.0
 10
158.176736
 20
189.226867
 30
0.0
 10
158.176736
 20
189.684124
 30
0.0
  0
SPLINE
  5
116
100
AcDbEntity
  8
Wheels
 62
7
100
AcDbSpline
 70
8
 71
3
 72
8
 73
4
 74
0
 40
0
 40
0
 40
0
 40
0
 40
1
 40
1
 40
1
 40
1
 10
158.176736
 20
189.684124
 30
0.0
 10
158.176736
 20
190.692250
 30
0.0
 10
158.994249
 20
191.509706
 30
0.0
 10
160.002361
 20
191.509763
 30
0.0
  0
LWPOLYLINE
  5
117
100
AcDbEntity
  8
Wheels
 62
7
100
AcDbPolyline
 90
2
 70
0
 10
161.378194
 20
188.493485
 30
0.0
 10
158.626528
 20
188.493485
 30
0.0
  0
SPLINE
  5
118
100
AcDbEntity
  8
Wheels
 62
7
100
AcDbSpline
 70
8
 71
3
 72
8
 73
4
 74
0
 40
0
 40
0
 40
0
 40
0
 40
1
 40
1
 40
1
 40
1
 10
170.003611
 20
191.465652
 30
0.0
 10
170.981480
 20
191.465652
 30
0.0
 10
171.776319
 20
190.670829
 30
0.0
 10
171.776319
 20
189.692929
 30
0.0
  0
SPLINE
  5
119
100
AcDbEntity
  8
Wheels
 62
7
100
AcDbSpline
 70
8
 71
3
 72
8
 73
4
 74
0
 40
0
 40
0
 40
0
 40
0
 40
1
 40
1
 40
1
 40
1
 10
171.776319
 20
189.692929
 30
0.0
 10
171.776319
 20
189.249445
 30
0.0
 10
171.604864
 20
188.848266
 30
0.0
 10
171.335347
 20
188.537596
 30
0.0
  0
LWPOLYLINE
  5
11a
100
AcDbEntity
  8
Wheels
 62
7
100
AcDbPolyline
 90
2
 70
0
 10
160.002361
 20
191.509763
 30
0.0
 10
160.002361
 20
191.509763
 30
0.0
  0
SPLINE
  5
11b
100
AcDbEntity
  8
Wheels
 62
7
100
AcDbSpline
 70
8
 71
3
 72
8
 73
4
 74
0
 40
0
 40
0
 40
0
 40
0
 40
1
 40
1
 40
1
 40
1
 10
168.663056
 20
188.537596
 30
0.0
 10
168.393539
 20
188.848266
 30
0.0
 10
168.230903
 20
189.249417
 30
0.0
 10
168.230903
 20
189.692929
 30
0.0
  0
SPLINE
  5
11c
100
AcDbEntity
  8
Wheels
 62
7
100
AcDbSpline
 70
8
 71
3
 72
8
 73
4
 74
0
 40
0
 40
0
 40
0
 40
0
 40
1
 40
1
 40
1
 40
1
 10
168.230903
 20
189.692929
 30
0.0
 10
168.230903
 20
190.670801
 30
0.0
 10
169.025742
 20
191.465652
 30
0.0
 10
170.003611
 20
191.465652
 30
0.0
  0
LWPOLYLINE
  5
11d
100
AcDbEntity
  8
Wheels
 62
7
100
AcDbPolyline
 90
2
 70
0
 10
171.335347
 20
188.537596
 30
0.0
 10
168.663056
 20
188.537596
 30
0.0
  0
SPLINE
  5
11e
100
AcDbEntity
  8
Wheels
 62
7
100
AcDbSpline
 70
8
 71
3
 72
8
 73
4
 74
0
 40
0
 40
0
 40
0
 40
0
 40
1
 40
1
 40
1
 40
1
 10
130.000002
 20
200.469246
 30
0.0
 10
129.582091
 20
200.469246
 30
0.0
 10
129.267320
 20
200.262998
 30
0.0
 10
129.055690
 20
199.850417
 30
0.0
  0
SPLINE
  5
11f
100
AcDbEntity
  8
Wheels
 62
7
100
AcDbSpline
 70
8
 71
3
 72
8
 73
4
 74
0
 40
0
 40
0
 40
0
 40
0
 40
1
 40
1
 40
1
 40
1
 10
129.055690
 20
199.850417
 30
0.0
 10
128.846730
 20
199.440546
 30
0.0
 10
128.742257
 20
198.823072
 30
0.0
 10
128.742257
 20
197.997967
 30
0.0
  0
SPLINE
  5
120
100
AcDbEntity
  8
Wheels
 62
7
100
AcDbSpline
 70
8
 71
3
 72
8
 73
4
 74
0
 40
0
 40
0
 40
0
 40
0
 40
1
 40
1
 40
1
 40
1
 10
128.742257
 20
197.997967
 30
0.0
 10
128.742257
 20
197.175543
 30
0.0
 10
128.846730
 20
196.558069
 30
0.0
 10
129.055690
 20
196.145489
 30
0.0
  0
SPLINE
  5
121
100
AcDbEntity
  8
Wheels
 62
7
100
AcDbSpline
 70
8
 71
3
 72
8
 73
4
 74
0
 40
0
 40
0
 40
0
 40
0
 40
1
 40
1
 40
1
 40
1
 10
129.055690
 20
196.145489
 30
0.0
 10
129.267320
 20
195.735617
 30
0.0
 10
129.582091
 20
195.530696
 30
0.0
 10
130.000002
 20
195.530724
 30
0.0
  0
SPLINE
  5
122
100
AcDbEntity
  8
Wheels
 62
7
100
AcDbSpline
 70
8
 71
3
 72
8
 73
4
 74
0
 40
0
 40
0
 40
0
 40
0
 40
1
 40
1
 40
1
 40
1
 10
130.000002
 20
195.530724
 30
0.0
 10
130.420587
 20
195.530696
 30
0.0
 10
130.735358
 20
195.735617
 30
0.0
 10
130.944315
 20
196.145489
 30
0.0
  0
SPLINE
  5
123
100
AcDbEntity
  8
Wheels
 62
7
100
AcDbSpline
 70
8
 71
3
 72
8
 73
4
 74
0
 40
0
 40
0
 40
0
 40
0
 40
1
 40
1
 40
1
 40
1
 10
130.944315
 20
196.145489
 30
0.0
 10
131.155945
 20
196.558069
 30
0.0
 10
131.261762
 20
197.175543
 30
0.0
 10
131.261767
 20
197.997967
 30
0.0
  0
SPLINE
  5
124
100
AcDbEntity
  8
Wheels
 62
7
100
AcDbSpline
 70
8
 71
3
 72
8
 73
4
 74
0
 40
0
 40
0
 40
0
 40
0
 40
1
 40
1
 40
1
 40
1
 10
131.261767
 20
197.997967
 30
0.0
 10
131.261762
 20
198.823072
 30
0.0
 10
131.155945
 20
199.440546
 30
0.0
 10
130.944315
 20
199.850417
 30
0.0
  0
SPLINE
  5
125
100
AcDbEntity
  8
Wheels
 62
7
100
AcDbSpline
 70
8
 71
3
 72
8
 73
4
 74
0
 40
0
 40
0
 40
0
 40
0
 40
1
 40
1
 40
1
 40
1
 10
130.944315
 20
199.850417
 30
0.0
 10
130.735358
 20
200.262998
 30
0.0
 10
130.420587
 20
200.469246
 30
0.0
 10
130.000002
 20
200.469246
 30
0.0
  0
SPLINE
  5
126
100
AcDbEntity
  8
Wheels
 62
7
100
AcDbSpline
 70
8
 71
3
 72
8
 73
4
 74
0
 40
0
 40
0
 40
0
 40
0
 40
1
 40
1
 40
1
 40
1
 10
130.000002
 20
201.112205
 30
0.0
 10
130.672403
 20
201.112176
 30
0.0
 10
131.185415
 20
200.845674
 30
0.0
 10
131.539034
 20
200.312528
 30
0.0
  0
SPLINE
  5
127
100
AcDbEntity
  8
Wheels
 62
7
100
AcDbSpline
 70
8
 71
3
 72
8
 73
4
 74
0
 40
0
 40
0
 40
0
 40
0
 40
1
 40
1
 40
1
 40
1
 10
131.539034
 20
200.312528
 30
0.0
 10
131.895325
 20
199.782120
 30
0.0
 10
132.073469
 20
199.010580
 30
0.0
 10
132.073475
 20
197.997967
 30
0.0
  0
SPLINE
  5
128
100
AcDbEntity
  8
Wheels
 62
7
100
AcDbSpline
 70
8
 71
3
 72
8
 73
4
 74
0
 40
0
 40
0
 40
0
 40
0
 40
1
 40
1
 40
1
 40
1
 10
132.073475
 20
197.997967
 30
0.0
 10
132.073469
 20
196.988035
 30
0.0
 10
131.895325
 20
196.216524
 30
0.0
 10
131.539034
 20
195.683378
 30
0.0
  0
SPLINE
  5
129
100
AcDbEntity
  8
Wheels
 62
7
100
AcDbSpline
 70
8
 71
3
 72
8
 73
4
 74
0
 40
0
 40
0
 40
0
 40
0
 40
1
 40
1
 40
1
 40
1
 10
131.539034
 20
195.683378
 30
0.0
 10
131.185415
 20
195.152970
 30
0.0
 10
130.672403
 20
194.887765
 30
0.0
 10
130.000002
 20
194.887765
 30
0.0
  0
SPLINE
  5
12a
100
AcDbEntity
  8
Wheels
 62
7
100
AcDbSpline
 70
8
 71
3
 72
8
 73
4
 74
0
 40
0
 40
0
 40
0
 40
0
 40
1
 40
1
 40
1
 40
1
 10
130.000002
 20
194.887765
 30
0.0
 10
129.327594
 20
194.887765
 30
0.0
 10
128.813244
 20
195.152970
 30
0.0
 10
128.456952
 20
195.683378
 30
0.0
  0
SPLINE
  5
12b
100
AcDbEntity
  8
Wheels
 62
7
100
AcDbSpline
 70
8
 71
3
 72
8
 73
4
 74
0
 40
0
 40
0
 40
0
 40
0
 40
1
 40
1
 40
1
 40
1
 10
128.456952
 20
195.683378
 30
0.0
 10
128.103336
 20
196.216524
 30
0.0
 10
127.926527
 20
196.988035
 30
0.0
 10
127.926527
 20
197.997967
 30
0.0
  0
SPLINE
  5
12c
100
AcDbEntity
  8
Wheels
 62
7
100
AcDbSpline
 70
8
 71
3
 72
8
 73
4
 74
0
 40
0
 40
0
 40
0
 40
0
 40
1
 40
1
 40
1
 40
1
 10
127.926527
 20
197.997967
 30
0.0
 10
127.926527
 20
199.010580
 30
0.0
 10
128.103336
 20
199.782120
 30
0.0
 10
128.456952
 20
200.312528
 30
0.0
  0
SPLINE
  5
12d
100
AcDbEntity
  8
Wheels
 62
7
100
AcDbSpline
 70
8
 71
3
 72
8
 73
4
 74
0
 40
0
 40
0
 40
0
 40
0
 40
1
 40
1
 40
1
 40
1
 10
128.456952
 20
200.312528
 30
0.0
 10
128.813244
 20
200.845674
 30
0.0
 10
129.327594
 20
201.112176
 30
0.0
 10
130.000002
 20
201.112205
 30
0.0
  0
LWPOLYLINE
  5
12e
100
AcDbEntity
  8
Wheels
 62
7
100
AcDbPolyline
 90
2
 70
0
 10
170.003611
 20
191.465652
 30
0.0
 10
170.003611
 20
191.465652
 30
0.0
  0
LWPOLYLINE
  5
12f
100
AcDbEntity
  8
Wheels
 62
7
100
AcDbPolyline
 90
12
 70
0
 10
138.330367
 20
195.683406
 30
0.0
 10
139.656428
 20
195.683406
 30
0.0
 10
139.656428
 20
200.260317
 30
0.0
 10
138.213838
 20
199.970983
 30
0.0
 10
138.213838
 20
200.710377
 30
0.0
 10
139.648393
 20
200.999683
 30
0.0
 10
140.460103
 20
200.999683
 30
0.0
 10
140.460103
 20
195.683406
 30
0.0
 10
141.786161
 20
195.683406
 30
0.0
 10
141.786161
 20
195.000287
 30
0.0
 10
138.330370
 20
195.000287
 30
0.0
 10
138.330370
 20
195.683406
 30
0.0
  0
SPLINE
  5
130
100
AcDbEntity
  8
Wheels
 62
7
100
AcDbSpline
 70
8
 71
3
 72
8
 73
4
 74
0
 40
0
 40
0
 40
0
 40
0
 40
1
 40
1
 40
1
 40
1
 10
148.095295
 20
195.629135
 30
0.0
 10
148.403369
 20
195.947933
 30
0.0
 10
148.822622
 20
196.375218
 30
0.0
 10
149.353044
 20
196.910988
 30
0.0
  0
SPLINE
  5
131
100
AcDbEntity
  8
Wheels
 62
7
100
AcDbSpline
 70
8
 71
3
 72
8
 73
4
 74
0
 40
0
 40
0
 40
0
 40
0
 40
1
 40
1
 40
1
 40
1
 10
149.353044
 20
196.910988
 30
0.0
 10
149.886145
 20
197.449440
 30
0.0
 10
150.221007
 20
197.796404
 30
0.0
 10
150.357634
 20
197.951739
 30
0.0
  0
SPLINE
  5
132
100
AcDbEntity
  8
Wheels
 62
7
100
AcDbSpline
 70
8
 71
3
 72
8
 73
4
 74
0
 40
0
 40
0
 40
0
 40
0
 40
1
 40
1
 40
1
 40
1
 10
150.357634
 20
197.951739
 30
0.0
 10
150.617484
 20
198.243754
 30
0.0
 10
150.798310
 20
198.490219
 30
0.0
 10
150.900113
 20
198.691161
 30
0.0
  0
SPLINE
  5
133
100
AcDbEntity
  8
Wheels
 62
7
100
AcDbSpline
 70
8
 71
3
 72
8
 73
4
 74
0
 40
0
 40
0
 40
0
 40
0
 40
1
 40
1
 40
1
 40
1
 10
150.900113
 20
198.691161
 30
0.0
 10
151.004586
 20
198.894700
 30
0.0
 10
151.056828
 20
199.094316
 30
0.0
 10
151.056831
 20
199.289868
 30
0.0
  0
SPLINE
  5
134
100
AcDbEntity
  8
Wheels
 62
7
100
AcDbSpline
 70
8
 71
3
 72
8
 73
4
 74
0
 40
0
 40
0
 40
0
 40
0
 40
1
 40
1
 40
1
 40
1
 10
151.056831
 20
199.289868
 30
0.0
 10
151.056828
 20
199.608666
 30
0.0
 10
150.944312
 20
199.868508
 30
0.0
 10
150.719288
 20
200.069422
 30
0.0
  0
SPLINE
  5
135
100
AcDbEntity
  8
Wheels
 62
7
100
AcDbSpline
 70
8
 71
3
 72
8
 73
4
 74
0
 40
0
 40
0
 40
0
 40
0
 40
1
 40
1
 40
1
 40
1
 10
150.719288
 20
200.069422
 30
0.0
 10
150.496936
 20
200.270336
 30
0.0
 10
150.206275
 20
200.370807
 30
0.0
 10
149.847306
 20
200.370807
 30
0.0
  0
SPLINE
  5
136
100
AcDbEntity
  8
Wheels
 62
7
100
AcDbSpline
 70
8
 71
3
 72
8
 73
4
 74
0
 40
0
 40
0
 40
0
 40
0
 40
1
 40
1
 40
1
 40
1
 10
149.847306
 20
200.370807
 30
0.0
 10
149.592806
 20
200.370807
 30
0.0
 10
149.323577
 20
200.326583
 30
0.0
 10
149.039614
 20
200.238191
 30
0.0
  0
SPLINE
  5
137
100
AcDbEntity
  8
Wheels
 62
7
100
AcDbSpline
 70
8
 71
3
 72
8
 73
4
 74
0
 40
0
 40
0
 40
0
 40
0
 40
1
 40
1
 40
1
 40
1
 10
149.039614
 20
200.238191
 30
0.0
 10
148.758326
 20
200.149799
 30
0.0
 10
148.456949
 20
200.015856
 30
0.0
 10
148.135481
 20
199.836363
 30
0.0
  0
LWPOLYLINE
  5
138
100
AcDbEntity
  8
Wheels
 62
7
100
AcDbPolyline
 90
5
 70
0
 10
149.071759
 20
195.629135
 30
0.0
 10
151.904706
 20
195.629135
 30
0.0
 10
151.904706
 20
194.946016
 30
0.0
 10
148.095295
 20
194.946016
 30
0.0
 10
148.095295
 20
195.629135
 30
0.0
  0
SPLINE
  5
139
100
AcDbEntity
  8
Wheels
 62
7
100
AcDbSpline
 70
8
 71
3
 72
8
 73
4
 74
0
 40
0
 40
0
 40
0
 40
0
 40
1
 40
1
 40
1
 40
1
 10
148.135481
 20
200.656134
 30
0.0
 10
148.462309
 20
200.787395
 30
0.0
 10
148.767704
 20
200.886483
 30
0.0
 10
149.051668
 20
200.953483
 30
0.0
  0
SPLINE
  5
13a
100
AcDbEntity
  8
Wheels
 62
7
100
AcDbSpline
 70
8
 71
3
 72
8
 73
4
 74
0
 40
0
 40
0
 40
0
 40
0
 40
1
 40
1
 40
1
 40
1
 10
149.051668
 20
200.953483
 30
0.0
 10
149.335631
 20
201.020426
 30
0.0
 10
149.595484
 20
201.053926
 30
0.0
 10
149.831230
 20
201.053954
 30
0.0
  0
SPLINE
  5
13b
100
AcDbEntity
  8
Wheels
 62
7
100
AcDbSpline
 70
8
 71
3
 72
8
 73
4
 74
0
 40
0
 40
0
 40
0
 40
0
 40
1
 40
1
 40
1
 40
1
 10
149.831230
 20
201.053954
 30
0.0
 10
150.452732
 20
201.053926
 30
0.0
 10
150.948328
 20
200.898534
 30
0.0
 10
151.318022
 20
200.587808
 30
0.0
  0
SPLINE
  5
13c
100
AcDbEntity
  8
Wheels
 62
7
100
AcDbSpline
 70
8
 71
3
 72
8
 73
4
 74
0
 40
0
 40
0
 40
0
 40
0
 40
1
 40
1
 40
1
 40
1
 10
151.318022
 20
200.587808
 30
0.0
 10
151.687708
 20
200.277024
 30
0.0
 10
151.872552
 20
199.861819
 30
0.0
 10
151.872555
 20
199.342107
 30
0.0
  0
SPLINE
  5
13d
100
AcDbEntity
  8
Wheels
 62
7
100
AcDbSpline
 70
8
 71
3
 72
8
 73
4
 74
0
 40
0
 40
0
 40
0
 40
0
 40
1
 40
1
 40
1
 40
1
 10
151.872555
 20
199.342107
 30
0.0
 10
151.872552
 20
199.095642
 30
0.0
 10
151.825669
 20
198.861228
 30
0.0
 10
151.731912
 20
198.638922
 30
0.0
  0
SPLINE
  5
13e
100
AcDbEntity
  8
Wheels
 62
7
100
AcDbSpline
 70
8
 71
3
 72
8
 73
4
 74
0
 40
0
 40
0
 40
0
 40
0
 40
1
 40
1
 40
1
 40
1
 10
151.731912
 20
198.638922
 30
0.0
 10
151.640828
 20
198.419212
 30
0.0
 10
151.473394
 20
198.159370
 30
0.0
 10
151.229619
 20
197.859340
 30
0.0
  0
SPLINE
  5
13f
100
AcDbEntity
  8
Wheels
 62
7
100
AcDbSpline
 70
8
 71
3
 72
8
 73
4
 74
0
 40
0
 40
0
 40
0
 40
0
 40
1
 40
1
 40
1
 40
1
 10
151.229619
 20
197.859340
 30
0.0
 10
151.162645
 20
197.781644
 30
0.0
 10
150.949668
 20
197.556628
 30
0.0
 10
150.590699
 20
197.184264
 30
0.0
  0
SPLINE
  5
140
100
AcDbEntity
  8
Wheels
 62
7
100
AcDbSpline
 70
8
 71
3
 72
8
 73
4
 74
0
 40
0
 40
0
 40
0
 40
0
 40
1
 40
1
 40
1
 40
1
 10
150.590699
 20
197.184264
 30
0.0
 10
150.231721
 20
196.814581
 30
0.0
 10
149.725411
 20
196.296195
 30
0.0
 10
149.071759
 20
195.629135
 30
0.0
  0
SPLINE
  5
141
100
AcDbEntity
  8
Wheels
 62
7
100
AcDbSpline
 70
8
 71
3
 72
8
 73
4
 74
0
 40
0
 40
0
 40
0
 40
0
 40
1
 40
1
 40
1
 40
1
 10
160.737367
 20
198.239070
 30
0.0
 10
161.125806
 20
198.156040
 30
0.0
 10
161.428523
 20
197.983207
 30
0.0
 10
161.645518
 20
197.720712
 30
0.0
  0
SPLINE
  5
142
100
AcDbEntity
  8
Wheels
 62
7
100
AcDbSpline
 70
8
 71
3
 72
8
 73
4
 74
0
 40
0
 40
0
 40
0
 40
0
 40
1
 40
1
 40
1
 40
1
 10
161.645518
 20
197.720712
 30
0.0
 10
161.865183
 20
197.458161
 30
0.0
 10
161.975018
 20
197.134000
 30
0.0
 10
161.975024
 20
196.748259
 30
0.0
  0
SPLINE
  5
143
100
AcDbEntity
  8
Wheels
 62
7
100
AcDbSpline
 70
8
 71
3
 72
8
 73
4
 74
0
 40
0
 40
0
 40
0
 40
0
 40
1
 40
1
 40
1
 40
1
 10
161.975024
 20
196.748259
 30
0.0
 10
161.975018
 20
196.156213
 30
0.0
 10
161.771420
 20
195.698110
 30
0.0
 10
161.364230
 20
195.373978
 30
0.0
  0
SPLINE
  5
144
100
AcDbEntity
  8
Wheels
 62
7
100
AcDbSpline
 70
8
 71
3
 72
8
 73
4
 74
0
 40
0
 40
0
 40
0
 40
0
 40
1
 40
1
 40
1
 40
1
 10
161.364230
 20
195.373978
 30
0.0
 10
160.957034
 20
195.049817
 30
0.0
 10
160.378391
 20
194.887765
 30
0.0
 10
159.628301
 20
194.887765
 30
0.0
  0
SPLINE
  5
145
100
AcDbEntity
  8
Wheels
 62
7
100
AcDbSpline
 70
8
 71
3
 72
8
 73
4
 74
0
 40
0
 40
0
 40
0
 40
0
 40
1
 40
1
 40
1
 40
1
 10
159.628301
 20
194.887765
 30
0.0
 10
159.376480
 20
194.887765
 30
0.0
 10
159.116626
 20
194.913165
 30
0.0
 10
158.848738
 20
194.964078
 30
0.0
  0
SPLINE
  5
146
100
AcDbEntity
  8
Wheels
 62
7
100
AcDbSpline
 70
8
 71
3
 72
8
 73
4
 74
0
 40
0
 40
0
 40
0
 40
0
 40
1
 40
1
 40
1
 40
1
 10
158.848738
 20
194.964078
 30
0.0
 10
158.583528
 20
195.012310
 30
0.0
 10
158.308937
 20
195.085970
 30
0.0
 10
158.024977
 20
195.185115
 30
0.0
  0
LWPOLYLINE
  5
147
100
AcDbEntity
  8
Wheels
 62
7
100
AcDbPolyline
 90
2
 70
0
 10
148.135481
 20
199.836363
 30
0.0
 10
148.135481
 20
200.656134
 30
0.0
  0
SPLINE
  5
148
100
AcDbEntity
  8
Wheels
 62
7
100
AcDbSpline
 70
8
 71
3
 72
8
 73
4
 74
0
 40
0
 40
0
 40
0
 40
0
 40
1
 40
1
 40
1
 40
1
 10
158.024977
 20
195.968705
 30
0.0
 10
158.250004
 20
195.837415
 30
0.0
 10
158.496460
 20
195.738327
 30
0.0
 10
158.764354
 20
195.671327
 30
0.0
  0
SPLINE
  5
149
100
AcDbEntity
  8
Wheels
 62
7
100
AcDbSpline
 70
8
 71
3
 72
8
 73
4
 74
0
 40
0
 40
0
 40
0
 40
0
 40
1
 40
1
 40
1
 40
1
 10
158.764354
 20
195.671327
 30
0.0
 10
159.032245
 20
195.604384
 30
0.0
 10
159.312187
 20
195.570884
 30
0.0
 10
159.604188
 20
195.570884
 30
0.0
  0
SPLINE
  5
14a
100
AcDbEntity
  8
Wheels
 62
7
100
AcDbSpline
 70
8
 71
3
 72
8
 73
4
 74
0
 40
0
 40
0
 40
0
 40
0
 40
1
 40
1
 40
1
 40
1
 10
159.604188
 20
195.570884
 30
0.0
 10
160.113181
 20
195.570884
 30
0.0
 10
160.500283
 20
195.671327
 30
0.0
 10
160.765496
 20
195.872269
 30
0.0
  0
SPLINE
  5
14b
100
AcDbEntity
  8
Wheels
 62
7
100
AcDbSpline
 70
8
 71
3
 72
8
 73
4
 74
0
 40
0
 40
0
 40
0
 40
0
 40
1
 40
1
 40
1
 40
1
 10
160.765496
 20
195.872269
 30
0.0
 10
161.033384
 20
196.073183
 30
0.0
 10
161.167329
 20
196.365142
 30
0.0
 10
161.167335
 20
196.748259
 30
0.0
  0
SPLINE
  5
14c
100
AcDbEntity
  8
Wheels
 62
7
100
AcDbSpline
 70
8
 71
3
 72
8
 73
4
 74
0
 40
0
 40
0
 40
0
 40
0
 40
1
 40
1
 40
1
 40
1
 10
161.167335
 20
196.748259
 30
0.0
 10
161.167329
 20
197.101883
 30
0.0
 10
161.042759
 20
197.377812
 30
0.0
 10
160.793625
 20
197.576045
 30
0.0
  0
SPLINE
  5
14d
100
AcDbEntity
  8
Wheels
 62
7
100
AcDbSpline
 70
8
 71
3
 72
8
 73
4
 74
0
 40
0
 40
0
 40
0
 40
0
 40
1
 40
1
 40
1
 40
1
 10
160.793625
 20
197.576045
 30
0.0
 10
160.547163
 20
197.776959
 30
0.0
 10
160.202922
 20
197.877430
 30
0.0
 10
159.760906
 20
197.877430
 30
0.0
  0
LWPOLYLINE
  5
14e
100
AcDbEntity
  8
Wheels
 62
7
100
AcDbPolyline
 90
2
 70
0
 10
158.024977
 20
195.185115
 30
0.0
 10
158.024977
 20
195.968705
 30
0.0
  0
SPLINE
  5
14f
100
AcDbEntity
  8
Wheels
 62
7
100
AcDbSpline
 70
8
 71
3
 72
8
 73
4
 74
0
 40
0
 40
0
 40
0
 40
0
 40
1
 40
1
 40
1
 40
1
 10
159.793054
 20
198.544462
 30
0.0
 10
160.192209
 20
198.544462
 30
0.0
 10
160.497602
 20
198.623484
 30
0.0
 10
160.709240
 20
198.781529
 30
0.0
  0
SPLINE
  5
150
100
AcDbEntity
  8
Wheels
 62
7
100
AcDbSpline
 70
8
 71
3
 72
8
 73
4
 74
0
 40
0
 40
0
 40
0
 40
0
 40
1
 40
1
 40
1
 40
1
 10
160.709240
 20
198.781529
 30
0.0
 10
160.920867
 20
198.942283
 30
0.0
 10
161.026687
 20
199.172661
 30
0.0
 10
161.026689
 20
199.472719
 30
0.0
  0
SPLINE
  5
151
100
AcDbEntity
  8
Wheels
 62
7
100
AcDbSpline
 70
8
 71
3
 72
8
 73
4
 74
0
 40
0
 40
0
 40
0
 40
0
 40
1
 40
1
 40
1
 40
1
 10
161.026689
 20
199.472719
 30
0.0
 10
161.026687
 20
199.780765
 30
0.0
 10
160.916851
 20
200.016533
 30
0.0
 10
160.697184
 20
200.179940
 30
0.0
  0
SPLINE
  5
152
100
AcDbEntity
  8
Wheels
 62
7
100
AcDbSpline
 70
8
 71
3
 72
8
 73
4
 74
0
 40
0
 40
0
 40
0
 40
0
 40
1
 40
1
 40
1
 40
1
 10
160.697184
 20
200.179940
 30
0.0
 10
160.480189
 20
200.346028
 30
0.0
 10
160.168099
 20
200.429058
 30
0.0
 10
159.760906
 20
200.429058
 30
0.0
  0
SPLINE
  5
153
100
AcDbEntity
  8
Wheels
 62
7
100
AcDbSpline
 70
8
 71
3
 72
8
 73
4
 74
0
 40
0
 40
0
 40
0
 40
0
 40
1
 40
1
 40
1
 40
1
 10
159.760906
 20
200.429058
 30
0.0
 10
159.538557
 20
200.429058
 30
0.0
 10
159.300133
 20
200.404786
 30
0.0
 10
159.045639
 20
200.356724
 30
0.0
  0
SPLINE
  5
154
100
AcDbEntity
  8
Wheels
 62
7
100
AcDbSpline
 70
8
 71
3
 72
8
 73
4
 74
0
 40
0
 40
0
 40
0
 40
0
 40
1
 40
1
 40
1
 40
1
 10
159.045639
 20
200.356724
 30
0.0
 10
158.791142
 20
200.308492
 30
0.0
 10
158.511195
 20
200.233534
 30
0.0
 10
158.205802
 20
200.131708
 30
0.0
  0
LWPOLYLINE
  5
155
100
AcDbEntity
  8
Wheels
 62
7
100
AcDbPolyline
 90
4
 70
0
 10
159.760906
 20
197.877430
 30
0.0
 10
159.061712
 20
197.877430
 30
0.0
 10
159.061712
 20
198.544462
 30
0.0
 10
159.793054
 20
198.544462
 30
0.0
  0
SPLINE
  5
156
100
AcDbEntity
  8
Wheels
 62
7
100
AcDbSpline
 70
8
 71
3
 72
8
 73
4
 74
0
 40
0
 40
0
 40
0
 40
0
 40
1
 40
1
 40
1
 40
1
 10
158.205802
 20
200.855044
 30
0.0
 10
158.513876
 20
200.940726
 30
0.0
 10
158.801858
 20
201.005045
 30
0.0
 10
159.069749
 20
201.047914
 30
0.0
  0
SPLINE
  5
157
100
AcDbEntity
  8
Wheels
 62
7
100
AcDbSpline
 70
8
 71
3
 72
8
 73
4
 74
0
 40
0
 40
0
 40
0
 40
0
 40
1
 40
1
 40
1
 40
1
 10
159.069749
 20
201.047914
 30
0.0
 10
159.340319
 20
201.090784
 30
0.0
 10
159.594812
 20
201.112176
 30
0.0
 10
159.833237
 20
201.112205
 30
0.0
  0
SPLINE
  5
158
100
AcDbEntity
  8
Wheels
 62
7
100
AcDbSpline
 70
8
 71
3
 72
8
 73
4
 74
0
 40
0
 40
0
 40
0
 40
0
 40
1
 40
1
 40
1
 40
1
 10
159.833237
 20
201.112205
 30
0.0
 10
160.449384
 20
201.112176
 30
0.0
 10
160.936943
 20
200.971545
 30
0.0
 10
161.295921
 20
200.690254
 30
0.0
  0
SPLINE
  5
159
100
AcDbEntity
  8
Wheels
 62
7
100
AcDbSpline
 70
8
 71
3
 72
8
 73
4
 74
0
 40
0
 40
0
 40
0
 40
0
 40
1
 40
1
 40
1
 40
1
 10
161.295921
 20
200.690254
 30
0.0
 10
161.654891
 20
200.411644
 30
0.0
 10
161.834376
 20
200.033918
 30
0.0
 10
161.834381
 20
199.557104
 30
0.0
  0
SPLINE
  5
15a
100
AcDbEntity
  8
Wheels
 62
7
100
AcDbSpline
 70
8
 71
3
 72
8
 73
4
 74
0
 40
0
 40
0
 40
0
 40
0
 40
1
 40
1
 40
1
 40
1
 10
161.834381
 20
199.557104
 30
0.0
 10
161.834376
 20
199.224900
 30
0.0
 10
161.739272
 20
198.943609
 30
0.0
 10
161.549077
 20
198.713231
 30
0.0
  0
SPLINE
  5
15b
100
AcDbEntity
  8
Wheels
 62
7
100
AcDbSpline
 70
8
 71
3
 72
8
 73
4
 74
0
 40
0
 40
0
 40
0
 40
0
 40
1
 40
1
 40
1
 40
1
 10
161.549077
 20
198.713231
 30
0.0
 10
161.358871
 20
198.485506
 30
0.0
 10
161.088301
 20
198.327462
 30
0.0
 10
160.737367
 20
198.239070
 30
0.0
  0
LWPOLYLINE
  5
15c
100
AcDbEntity
  8
Wheels
 62
7
100
AcDbPolyline
 90
2
 70
0
 10
158.205802
 20
200.131708
 30
0.0
 10
158.205802
 20
200.855044
 30
0.0
  0
LWPOLYLINE
  5
15d
100
AcDbEntity
  8
Wheels
 62
7
100
AcDbPolyline
 90
4
 70
0
 10
170.522384
 20
200.292462
 30
0.0
 10
168.473024
 20
197.089804
 30
0.0
 10
170.522384
 20
197.089804
 30
0.0
 10
170.522384
 20
200.292462
 30
0.0
  0
LWPOLYLINE
  5
15e
100
AcDbEntity
  8
Wheels
 62
7
100
AcDbPolyline
 90
12
 70
0
 10
170.309413
 20
200.999683
 30
0.0
 10
171.330075
 20
200.999683
 30
0.0
 10
171.330075
 20
197.089804
 30
0.0
 10
172.185985
 20
197.089804
 30
0.0
 10
172.185985
 20
196.414757
 30
0.0
 10
171.330075
 20
196.414757
 30
0.0
 10
171.330075
 20
195.000287
 30
0.0
 10
170.522384
 20
195.000287
 30
0.0
 10
170.522384
 20
196.414757
 30
0.0
 10
167.814010
 20
196.414757
 30
0.0
 10
167.814010
 20
197.198319
 30
0.0
 10
170.309413
 20
200.999683
 30
0.0
  0
LWPOLYLINE
  5
15f
100
AcDbEntity
  8
Wheels
 62
7
100
AcDbPolyline
 90
3
 70
0
 10
123.882238
 20
206.582897
 30
0.0
 10
122.751599
 20
205.000002
 30
0.0
 10
124.447558
 20
205.000002
 30
0.0
  0
LWPOLYLINE
  5
160
100
AcDbEntity
  8
Wheels
 62
7
100
AcDbPolyline
 90
2
 70
0
 10
123.882238
 20
206.582897
 30
0.0
 10
123.882238
 20
204.208555
 30
0.0
  0
LWPOLYLINE
  5
161
100
AcDbEntity
  8
Wheels
 62
7
100
AcDbPolyline
 90
2
 70
0
 10
125.125941
 20
205.791449
 30
0.0
 10
125.125941
 20
204.208555
 30
0.0
  0
LWPOLYLINE
  5
162
100
AcDbEntity
  8
Wheels
 62
7
100
AcDbPolyline
 90
7
 70
0
 10
125.125941
 20
205.339194
 30
0.0
 10
125.465133
 20
205.678385
 30
0.0
 10
125.691261
 20
205.791449
 30
0.0
 10
126.030452
 20
205.791449
 30
0.0
 10
126.256580
 20
205.678385
 30
0.0
 10
126.369644
 20
205.339194
 30
0.0
 10
126.369644
 20
204.208555
 30
0.0
  0
LWPOLYLINE
  5
163
100
AcDbEntity
  8
Wheels
 62
7
100
AcDbPolyline
 90
7
 70
0
 10
126.369644
 20
205.339194
 30
0.0
 10
126.708836
 20
205.678385
 30
0.0
 10
126.934964
 20
205.791449
 30
0.0
 10
127.274155
 20
205.791449
 30
0.0
 10
127.500283
 20
205.678385
 30
0.0
 10
127.613347
 20
205.339194
 30
0.0
 10
127.613347
 20
204.208555
 30
0.0
  0
LWPOLYLINE
  5
164
100
AcDbEntity
  8
Wheels
 62
7
100
AcDbPolyline
 90
2
 70
0
 10
128.517858
 20
205.791449
 30
0.0
 10
128.517858
 20
204.208555
 30
0.0
  0
LWPOLYLINE
  5
165
100
AcDbEntity
  8
Wheels
 62
7
100
AcDbPolyline
 90
7
 70
0
 10
128.517858
 20
205.339194
 30
0.0
 10
128.857050
 20
205.678385
 30
0.0
 10
129.083178
 20
205.791449
 30
0.0
 10
129.422370
 20
205.791449
 30
0.0
 10
129.648497
 20
205.678385
 30
0.0
 10
129.761561
 20
205.339194
 30
0.0
 10
129.761561
 20
204.208555
 30
0.0
  0
LWPOLYLINE
  5
166
100
AcDbEntity
  8
Wheels
 62
7
100
AcDbPolyline
 90
7
 70
0
 10
129.761561
 20
205.339194
 30
0.0
 10
130.100753
 20
205.678385
 30
0.0
 10
130.326881
 20
205.791449
 30
0.0
 10
130.666073
 20
205.791449
 30
0.0
 10
130.892200
 20
205.678385
 30
0.0
 10
131.005264
 20
205.339194
 30
0.0
 10
131.005264
 20
204.208555
 30
0.0
  0
LWPOLYLINE
  5
167
100
AcDbEntity
  8
Wheels
 62
7
100
AcDbPolyline
 90
2
 70
0
 10
133.718798
 20
205.226130
 30
0.0
 10
135.753948
 20
205.226130
 30
0.0
  0
LWPOLYLINE
  5
168
100
AcDbEntity
  8
Wheels
 62
7
100
AcDbPolyline
 90
23
 70
0
 10
139.824249
 20
205.791449
 30
0.0
 10
139.711185
 20
205.452258
 30
0.0
 10
139.485057
 20
205.226130
 30
0.0
 10
139.145866
 20
205.113066
 30
0.0
 10
139.032802
 20
205.113066
 30
0.0
 10
138.693610
 20
205.226130
 30
0.0
 10
138.467482
 20
205.452258
 30
0.0
 10
138.354418
 20
205.791449
 30
0.0
 10
138.354418
 20
205.904513
 30
0.0
 10
138.467482
 20
206.243705
 30
0.0
 10
138.693610
 20
206.469833
 30
0.0
 10
139.032802
 20
206.582897
 30
0.0
 10
139.145866
 20
206.582897
 30
0.0
 10
139.485057
 20
206.469833
 30
0.0
 10
139.711185
 20
206.243705
 30
0.0
 10
139.824249
 20
205.791449
 30
0.0
 10
139.824249
 20
205.226130
 30
0.0
 10
139.711185
 20
204.660810
 30
0.0
 10
139.485057
 20
204.321619
 30
0.0
 10
139.145866
 20
204.208555
 30
0.0
 10
138.919738
 20
204.208555
 30
0.0
 10
138.580546
 20
204.321619
 30
0.0
 10
138.467482
 20
204.547746
 30
0.0
  0
LWPOLYLINE
  5
169
100
AcDbEntity
  8
Wheels
 62
7
100
AcDbPolyline
 90
2
 70
0
 10
142.198591
 20
206.582897
 30
0.0
 10
141.067952
 20
204.208555
 30
0.0
  0
LWPOLYLINE
  5
16a
100
AcDbEntity
  8
Wheels
 62
7
100
AcDbPolyline
 90
2
 70
0
 10
140.615697
 20
206.582897
 30
0.0
 10
142.198591
 20
206.582897
 30
0.0
  0
LWPOLYLINE
  5
16b
100
AcDbEntity
  8
Wheels
 62
7
100
AcDbPolyline
 90
2
 70
0
 10
144.912125
 20
206.582897
 30
0.0
 10
142.876975
 20
204.208555
 30
0.0
  0
LWPOLYLINE
  5
16c
100
AcDbEntity
  8
Wheels
 62
7
100
AcDbPolyline
 90
16
 70
0
 10
143.442294
 20
206.582897
 30
0.0
 10
143.668422
 20
206.356769
 30
0.0
 10
143.668422
 20
206.130641
 30
0.0
 10
143.555358
 20
205.904513
 30
0.0
 10
143.329230
 20
205.791449
 30
0.0
 10
143.103103
 20
205.791449
 30
0.0
 10
142.876975
 20
206.017577
 30
0.0
 10
142.876975
 20
206.243705
 30
0.0
 10
142.990039
 20
206.469833
 30
0.0
 10
143.216166
 20
206.582897
 30
0.0
 10
143.442294
 20
206.582897
 30
0.0
 10
143.668422
 20
206.469833
 30
0.0
 10
144.007614
 20
206.356769
 30
0.0
 10
144.346806
 20
206.356769
 30
0.0
 10
144.685997
 20
206.469833
 30
0.0
 10
144.912125
 20
206.582897
 30
0.0
  0
LWPOLYLINE
  5
16d
100
AcDbEntity
  8
Wheels
 62
7
100
AcDbPolyline
 90
11
 70
0
 10
144.459869
 20
205.000002
 30
0.0
 10
144.233742
 20
204.886938
 30
0.0
 10
144.120678
 20
204.660810
 30
0.0
 10
144.120678
 20
204.434682
 30
0.0
 10
144.346806
 20
204.208555
 30
0.0
 10
144.572933
 20
204.208555
 30
0.0
 10
144.799061
 20
204.321619
 30
0.0
 10
144.912125
 20
204.547746
 30
0.0
 10
144.912125
 20
204.773874
 30
0.0
 10
144.685997
 20
205.000002
 30
0.0
 10
144.459869
 20
205.000002
 30
0.0
  0
LWPOLYLINE
  5
16e
100
AcDbEntity
  8
Wheels
 62
7
100
AcDbPolyline
 90
17
 70
0
 10
148.643234
 20
205.452258
 30
0.0
 10
148.530170
 20
205.678385
 30
0.0
 10
148.190978
 20
205.791449
 30
0.0
 10
147.851787
 20
205.791449
 30
0.0
 10
147.512595
 20
205.678385
 30
0.0
 10
147.399531
 20
205.452258
 30
0.0
 10
147.512595
 20
205.226130
 30
0.0
 10
147.738723
 20
205.113066
 30
0.0
 10
148.304042
 20
205.000002
 30
0.0
 10
148.530170
 20
204.886938
 30
0.0
 10
148.643234
 20
204.660810
 30
0.0
 10
148.643234
 20
204.547746
 30
0.0
 10
148.530170
 20
204.321619
 30
0.0
 10
148.190978
 20
204.208555
 30
0.0
 10
147.851787
 20
204.208555
 30
0.0
 10
147.512595
 20
204.321619
 30
0.0
 10
147.399531
 20
204.547746
 30
0.0
  0
LWPOLYLINE
  5
16f
100
AcDbEntity
  8
Wheels
 62
7
100
AcDbPolyline
 90
14
 70
0
 10
150.678384
 20
205.452258
 30
0.0
 10
150.452257
 20
205.678385
 30
0.0
 10
150.226129
 20
205.791449
 30
0.0
 10
149.886937
 20
205.791449
 30
0.0
 10
149.660809
 20
205.678385
 30
0.0
 10
149.434681
 20
205.452258
 30
0.0
 10
149.321618
 20
205.113066
 30
0.0
 10
149.321618
 20
204.886938
 30
0.0
 10
149.434681
 20
204.547746
 30
0.0
 10
149.660809
 20
204.321619
 30
0.0
 10
149.886937
 20
204.208555
 30
0.0
 10
150.226129
 20
204.208555
 30
0.0
 10
150.452257
 20
204.321619
 30
0.0
 10
150.678384
 20
204.547746
 30
0.0
  0
LWPOLYLINE
  5
170
100
AcDbEntity
  8
Wheels
 62
7
100
AcDbPolyline
 90
2
 70
0
 10
152.713535
 20
205.791449
 30
0.0
 10
152.713535
 20
204.208555
 30
0.0
  0
LWPOLYLINE
  5
171
100
AcDbEntity
  8
Wheels
 62
7
100
AcDbPolyline
 90
14
 70
0
 10
152.713535
 20
205.452258
 30
0.0
 10
152.487407
 20
205.678385
 30
0.0
 10
152.261279
 20
205.791449
 30
0.0
 10
151.922087
 20
205.791449
 30
0.0
 10
151.695960
 20
205.678385
 30
0.0
 10
151.469832
 20
205.452258
 30
0.0
 10
151.356768
 20
205.113066
 30
0.0
 10
151.356768
 20
204.886938
 30
0.0
 10
151.469832
 20
204.547746
 30
0.0
 10
151.695960
 20
204.321619
 30
0.0
 10
151.922087
 20
204.208555
 30
0.0
 10
152.261279
 20
204.208555
 30
0.0
 10
152.487407
 20
204.321619
 30
0.0
 10
152.713535
 20
204.547746
 30
0.0
  0
LWPOLYLINE
  5
172
100
AcDbEntity
  8
Wheels
 62
7
100
AcDbPolyline
 90
2
 70
0
 10
153.618046
 20
206.582897
 30
0.0
 10
153.618046
 20
204.208555
 30
0.0
  0
LWPOLYLINE
  5
173
100
AcDbEntity
  8
Wheels
 62
7
100
AcDbPolyline
 90
17
 70
0
 10
154.409493
 20
205.113066
 30
0.0
 10
155.766260
 20
205.113066
 30
0.0
 10
155.766260
 20
205.339194
 30
0.0
 10
155.653196
 20
205.565322
 30
0.0
 10
155.540133
 20
205.678385
 30
0.0
 10
155.314005
 20
205.791449
 30
0.0
 10
154.974813
 20
205.791449
 30
0.0
 10
154.748685
 20
205.678385
 30
0.0
 10
154.522557
 20
205.452258
 30
0.0
 10
154.409493
 20
205.113066
 30
0.0
 10
154.409493
 20
204.886938
 30
0.0
 10
154.522557
 20
204.547746
 30
0.0
 10
154.748685
 20
204.321619
 30
0.0
 10
154.974813
 20
204.208555
 30
0.0
 10
155.314005
 20
204.208555
 30
0.0
 10
155.540133
 20
204.321619
 30
0.0
 10
155.766260
 20
204.547746
 30
0.0
  0
LWPOLYLINE
  5
174
100
AcDbEntity
  8
Wheels
 62
7
100
AcDbPolyline
 90
2
 70
0
 10
159.610433
 20
205.791449
 30
0.0
 10
159.610433
 20
204.208555
 30
0.0
  0
LWPOLYLINE
  5
175
100
AcDbEntity
  8
Wheels
 62
7
100
AcDbPolyline
 90
14
 70
0
 10
159.610433
 20
205.452258
 30
0.0
 10
159.384305
 20
205.678385
 30
0.0
 10
159.158178
 20
205.791449
 30
0.0
 10
158.818986
 20
205.791449
 30
0.0
 10
158.592858
 20
205.678385
 30
0.0
 10
158.366730
 20
205.452258
 30
0.0
 10
158.253666
 20
205.113066
 30
0.0
 10
158.253666
 20
204.886938
 30
0.0
 10
158.366730
 20
204.547746
 30
0.0
 10
158.592858
 20
204.321619
 30
0.0
 10
158.818986
 20
204.208555
 30
0.0
 10
159.158178
 20
204.208555
 30
0.0
 10
159.384305
 20
204.321619
 30
0.0
 10
159.610433
 20
204.547746
 30
0.0
  0
LWPOLYLINE
  5
176
100
AcDbEntity
  8
Wheels
 62
7
100
AcDbPolyline
 90
2
 70
0
 10
160.514945
 20
205.791449
 30
0.0
 10
160.514945
 20
203.417107
 30
0.0
  0
LWPOLYLINE
  5
177
100
AcDbEntity
  8
Wheels
 62
7
100
AcDbPolyline
 90
14
 70
0
 10
160.514945
 20
205.452258
 30
0.0
 10
160.741072
 20
205.678385
 30
0.0
 10
160.967200
 20
205.791449
 30
0.0
 10
161.306392
 20
205.791449
 30
0.0
 10
161.532520
 20
205.678385
 30
0.0
 10
161.758648
 20
205.452258
 30
0.0
 10
161.871711
 20
205.113066
 30
0.0
 10
161.871711
 20
204.886938
 30
0.0
 10
161.758648
 20
204.547746
 30
0.0
 10
161.532520
 20
204.321619
 30
0.0
 10
161.306392
 20
204.208555
 30
0.0
 10
160.967200
 20
204.208555
 30
0.0
 10
160.741072
 20
204.321619
 30
0.0
 10
160.514945
 20
204.547746
 30
0.0
  0
LWPOLYLINE
  5
178
100
AcDbEntity
  8
Wheels
 62
7
100
AcDbPolyline
 90
2
 70
0
 10
162.663159
 20
205.791449
 30
0.0
 10
162.663159
 20
203.417107
 30
0.0
  0
LWPOLYLINE
  5
179
100
AcDbEntity
  8
Wheels
 62
7
100
AcDbPolyline
 90
14
 70
0
 10
162.663159
 20
205.452258
 30
0.0
 10
162.889287
 20
205.678385
 30
0.0
 10
163.115414
 20
205.791449
 30
0.0
 10
163.454606
 20
205.791449
 30
0.0
 10
163.680734
 20
205.678385
 30
0.0
 10
163.906862
 20
205.452258
 30
0.0
 10
164.019926
 20
205.113066
 30
0.0
 10
164.019926
 20
204.886938
 30
0.0
 10
163.906862
 20
204.547746
 30
0.0
 10
163.680734
 20
204.321619
 30
0.0
 10
163.454606
 20
204.208555
 30
0.0
 10
163.115414
 20
204.208555
 30
0.0
 10
162.889287
 20
204.321619
 30
0.0
 10
162.663159
 20
204.547746
 30
0.0
  0
LWPOLYLINE
  5
17a
100
AcDbEntity
  8
Wheels
 62
7
100
AcDbPolyline
 90
2
 70
0
 10
164.811373
 20
206.582897
 30
0.0
 10
164.811373
 20
204.208555
 30
0.0
  0
LWPOLYLINE
  5
17b
100
AcDbEntity
  8
Wheels
 62
7
100
AcDbPolyline
 90
5
 70
0
 10
165.602820
 20
206.582897
 30
0.0
 10
165.715884
 20
206.469833
 30
0.0
 10
165.828948
 20
206.582897
 30
0.0
 10
165.715884
 20
206.695961
 30
0.0
 10
165.602820
 20
206.582897
 30
0.0
  0
LWPOLYLINE
  5
17c
100
AcDbEntity
  8
Wheels
 62
7
100
AcDbPolyline
 90
2
 70
0
 10
165.715884
 20
205.791449
 30
0.0
 10
165.715884
 20
204.208555
 30
0.0
  0
LWPOLYLINE
  5
17d
100
AcDbEntity
  8
Wheels
 62
7
100
AcDbPolyline
 90
14
 70
0
 10
167.864099
 20
205.452258
 30
0.0
 10
167.637971
 20
205.678385
 30
0.0
 10
167.411843
 20
205.791449
 30
0.0
 10
167.072651
 20
205.791449
 30
0.0
 10
166.846523
 20
205.678385
 30
0.0
 10
166.620396
 20
205.452258
 30
0.0
 10
166.507332
 20
205.113066
 30
0.0
 10
166.507332
 20
204.886938
 30
0.0
 10
166.620396
 20
204.547746
 30
0.0
 10
166.846523
 20
204.321619
 30
0.0
 10
167.072651
 20
204.208555
 30
0.0
 10
167.411843
 20
204.208555
 30
0.0
 10
167.637971
 20
204.321619
 30
0.0
 10
167.864099
 20
204.547746
 30
0.0
  0
LWPOLYLINE
  5
17e
100
AcDbEntity
  8
Wheels
 62
7
100
AcDbPolyline
 90
2
 70
0
 10
169.899249
 20
205.791449
 30
0.0
 10
169.899249
 20
204.208555
 30
0.0
  0
LWPOLYLINE
  5
17f
100
AcDbEntity
  8
Wheels
 62
7
100
AcDbPolyline
 90
14
 70
0
 10
169.899249
 20
205.452258
 30
0.0
 10
169.673121
 20
205.678385
 30
0.0
 10
169.446993
 20
205.791449
 30
0.0
 10
169.107802
 20
205.791449
 30
0.0
 10
168.881674
 20
205.678385
 30
0.0
 10
168.655546
 20
205.452258
 30
0.0
 10
168.542482
 20
205.113066
 30
0.0
 10
168.542482
 20
204.886938
 30
0.0
 10
168.655546
 20
204.547746
 30
0.0
 10
168.881674
 20
204.321619
 30
0.0
 10
169.107802
 20
204.208555
 30
0.0
 10
169.446993
 20
204.208555
 30
0.0
 10
169.673121
 20
204.321619
 30
0.0
 10
169.899249
 20
204.547746
 30
0.0
  0
LWPOLYLINE
  5
180
100
AcDbEntity
  8
Wheels
 62
7
100
AcDbPolyline
 90
5
 70
0
 10
170.916824
 20
206.582897
 30
0.0
 10
170.916824
 20
204.660810
 30
0.0
 10
171.029888
 20
204.321619
 30
0.0
 10
171.256016
 20
204.208555
 30
0.0
 10
171.482144
 20
204.208555
 30
0.0
  0
LWPOLYLINE
  5
181
100
AcDbEntity
  8
Wheels
 62
7
100
AcDbPolyline
 90
2
 70
0
 10
170.577632
 20
205.791449
 30
0.0
 10
171.369080
 20
205.791449
 30
0.0
  0
LWPOLYLINE
  5
182
100
AcDbEntity
  8
Wheels
 62
7
100
AcDbPolyline
 90
5
 70
0
 10
172.047463
 20
206.582897
 30
0.0
 10
172.160527
 20
206.469833
 30
0.0
 10
172.273591
 20
206.582897
 30
0.0
 10
172.160527
 20
206.695961
 30
0.0
 10
172.047463
 20
206.582897
 30
0.0
  0
LWPOLYLINE
  5
183
100
AcDbEntity
  8
Wheels
 62
7
100
AcDbPolyline
 90
2
 70
0
 10
172.160527
 20
205.791449
 30
0.0
 10
172.160527
 20
204.208555
 30
0.0
  0
LWPOLYLINE
  5
184
100
AcDbEntity
  8
Wheels
 62
7
100
AcDbPolyline
 90
17
 70
0
 10
173.517294
 20
205.791449
 30
0.0
 10
173.291166
 20
205.678385
 30
0.0
 10
173.065038
 20
205.452258
 30
0.0
 10
172.951975
 20
205.113066
 30
0.0
 10
172.951975
 20
204.886938
 30
0.0
 10
173.065038
 20
204.547746
 30
0.0
 10
173.291166
 20
204.321619
 30
0.0
 10
173.517294
 20
204.208555
 30
0.0
 10
173.856486
 20
204.208555
 30
0.0
 10
174.082614
 20
204.321619
 30
0.0
 10
174.308741
 20
204.547746
 30
0.0
 10
174.421805
 20
204.886938
 30
0.0
 10
174.421805
 20
205.113066
 30
0.0
 10
174.308741
 20
205.452258
 30
0.0
 10
174.082614
 20
205.678385
 30
0.0
 10
173.856486
 20
205.791449
 30
0.0
 10
173.517294
 20
205.791449
 30
0.0
  0
LWPOLYLINE
  5
185
100
AcDbEntity
  8
Wheels
 62
7
100
AcDbPolyline
 90
2
 70
0
 10
175.213253
 20
205.791449
 30
0.0
 10
175.213253
 20
204.208555
 30
0.0
  0
LWPOLYLINE
  5
186
100
AcDbEntity
  8
Wheels
 62
7
100
AcDbPolyline
 90
7
 70
0
 10
175.213253
 20
205.339194
 30
0.0
 10
175.552444
 20
205.678385
 30
0.0
 10
175.778572
 20
205.791449
 30
0.0
 10
176.117764
 20
205.791449
 30
0.0
 10
176.343892
 20
205.678385
 30
0.0
 10
176.456956
 20
205.339194
 30
0.0
 10
176.456956
 20
204.208555
 30
0.0
  0
LWPOLYLINE
  5
187
100
AcDbEntity
  8
Wheels
 62
7
100
AcDbPolyline
 90
17
 70
0
 10
178.492106
 20
205.452258
 30
0.0
 10
178.379042
 20
205.678385
 30
0.0
 10
178.039850
 20
205.791449
 30
0.0
 10
177.700659
 20
205.791449
 30
0.0
 10
177.361467
 20
205.678385
 30
0.0
 10
177.248403
 20
205.452258
 30
0.0
 10
177.361467
 20
205.226130
 30
0.0
 10
177.587595
 20
205.113066
 30
0.0
 10
178.152914
 20
205.000002
 30
0.0
 10
178.379042
 20
204.886938
 30
0.0
 10
178.492106
 20
204.660810
 30
0.0
 10
178.492106
 20
204.547746
 30
0.0
 10
178.379042
 20
204.321619
 30
0.0
 10
178.039850
 20
204.208555
 30
0.0
 10
177.700659
 20
204.208555
 30
0.0
 10
177.361467
 20
204.321619
 30
0.0
 10
177.248403
 20
204.547746
 30
0.0
  0
ENDSEC
  0
SECTION
  2
OBJECTS
  0
DICTIONARY
  5
C
330
0
100
AcDbDictionary
  3
ACAD_GROUP
350
D
  3
ACAD_MLINESTYLE
350
17
  0
DICTIONARY
  5
D
330
C
100
AcDbDictionary
  0
DICTIONARY
  5
1A
330
C
100
AcDbDictionary
  0
DICTIONARY
  5
17
330
C
100
AcDbDictionary
  3
STANDARD
350
18
  0
DICTIONARY
  5
19
330
C
100
AcDbDictionary
  0
ENDSEC
  0
EOF
