<?xml version="1.0" encoding="UTF-8" standalone="no"?>
<!-- Created with Inkscape (http://www.inkscape.org/) -->

<svg
   xmlns:dc="http://purl.org/dc/elements/1.1/"
   xmlns:cc="http://creativecommons.org/ns#"
   xmlns:rdf="http://www.w3.org/1999/02/22-rdf-syntax-ns#"
   xmlns:svg="http://www.w3.org/2000/svg"
   xmlns="http://www.w3.org/2000/svg"
   xmlns:sodipodi="http://sodipodi.sourceforge.net/DTD/sodipodi-0.dtd"
   xmlns:inkscape="http://www.inkscape.org/namespaces/inkscape"
   width="1564.8998"
   height="615.31091"
   id="svg2"
   version="1.1"
   inkscape:version="0.91pre2 r"
   sodipodi:docname="tripod-layout-alternative-for-battery-holder.svg">
  <sodipodi:namedview
     id="base"
     pagecolor="#ffffff"
     bordercolor="#666666"
     borderopacity="1.0"
     inkscape:pageopacity="0.0"
     inkscape:pageshadow="2"
     inkscape:zoom="0.43120449"
     inkscape:cx="1310.0066"
     inkscape:cy="254.63887"
     inkscape:document-units="mm"
     inkscape:current-layer="layer16"
     showgrid="true"
     inkscape:snap-object-midpoints="true"
     inkscape:snap-bbox="true"
     inkscape:object-paths="false"
     inkscape:snap-nodes="false"
     inkscape:object-nodes="true"
     inkscape:snap-global="true"
     inkscape:snap-grids="true"
     inkscape:window-width="2560"
     inkscape:window-height="1550"
     inkscape:window-x="0"
     inkscape:window-y="0"
     inkscape:window-maximized="1"
     inkscape:snap-smooth-nodes="true"
     units="mm"
     showguides="false"
     inkscape:guide-bbox="true"
     inkscape:bbox-nodes="true"
     inkscape:snap-intersection-paths="true"
     inkscape:snap-others="false"
     fit-margin-top="10"
     fit-margin-left="10"
     fit-margin-right="10"
     fit-margin-bottom="10"
     inkscape:snap-bbox-edge-midpoints="false"
     inkscape:snap-bbox-midpoints="false">
    <inkscape:grid
       originy="-369.16779mm"
       originx="-399.17676mm"
       empopacity="0.25098039"
       empcolor="#ff9500"
       spacingy="1mm"
       spacingx="1mm"
       units="mm"
       snapvisiblegridlinesonly="true"
       enabled="true"
       visible="true"
       empspacing="10"
       id="grid2985"
       type="xygrid" />
    <inkscape:grid
       originy="-369.16779mm"
       originx="-399.17676mm"
       type="axonomgrid"
       id="grid4136"
       units="mm"
       empspacing="5"
       enabled="false" />
  </sodipodi:namedview>
  <defs
     id="defs4">
    <marker
       id="DistanceX"
       orient="auto"
       refX="0"
       refY="0"
       style="overflow:visible">
      <path
         d="M 3,-3 -3,3 M 0,-5 0,5"
         style="stroke:#000000;stroke-width:0.5"
         id="path6524"
         inkscape:connector-curvature="0" />
    </marker>
    <pattern
       height="8"
       id="Hatch"
       patternUnits="userSpaceOnUse"
       width="8"
       x="0"
       y="0">
      <path
         d="M8 4 l-4,4"
         linecap="square"
         stroke="#000000"
         stroke-width="0.25"
         id="path6527" />
      <path
         d="M6 2 l-4,4"
         linecap="square"
         stroke="#000000"
         stroke-width="0.25"
         id="path6529" />
      <path
         d="M4 0 l-4,4"
         linecap="square"
         stroke="#000000"
         stroke-width="0.25"
         id="path6531" />
    </pattern>
    <symbol
       id="*MODEL_SPACE" />
    <symbol
       id="*PAPER_SPACE" />
    <clipPath
       id="clipPath4313"
       clipPathUnits="userSpaceOnUse">
      <path
         inkscape:connector-curvature="0"
         id="path4315"
         d="m 119.688,495.679 355.906,0 0,-187.699 -355.906,0 0,187.699 z" />
    </clipPath>
    <marker
       style="overflow:visible"
       refY="0"
       refX="0"
       orient="auto"
       id="DistanceX-2">
      <path
         id="path4149"
         style="stroke:#000000;stroke-width:0.5"
         d="M 3,-3 -3,3 M 0,-5 0,5"
         inkscape:connector-curvature="0" />
    </marker>
    <pattern
       y="0"
       x="0"
       width="8"
       patternUnits="userSpaceOnUse"
       id="Hatch-0"
       height="8">
      <path
         id="path4152"
         stroke-width="0.25"
         stroke="#000000"
         linecap="square"
         d="M8 4 l-4,4" />
      <path
         id="path4154"
         stroke-width="0.25"
         stroke="#000000"
         linecap="square"
         d="M6 2 l-4,4" />
      <path
         id="path4156"
         stroke-width="0.25"
         stroke="#000000"
         linecap="square"
         d="M4 0 l-4,4" />
    </pattern>
    <symbol
       id="*MODEL_SPACE-2" />
    <symbol
       id="*PAPER_SPACE-6" />
  </defs>
  <metadata
     id="metadata7">
    <rdf:RDF>
      <cc:Work
         rdf:about="">
        <dc:format>image/svg+xml</dc:format>
        <dc:type
           rdf:resource="http://purl.org/dc/dcmitype/StillImage" />
        <dc:title></dc:title>
      </cc:Work>
    </rdf:RDF>
  </metadata>
  <g
     inkscape:groupmode="layer"
     id="layer16"
     inkscape:label="Opaque"
     style="display:inline"
     transform="translate(-2117.5881,548.59374)">
    <path
       style="display:inline;fill:#c8a137;fill-opacity:0.47417836;stroke:none"
       d="m 3094.9115,-538.59366 c -19.5694,0.003 -53.1458,26.49503 -53.1466,46.0625 l 0,56.66407 c 0,3.54331 3.5427,7.08593 7.086,7.08593 l 14.1738,0 c 3.5431,10e-6 7.0865,-3.54294 7.086,-7.05664 l 0,-14.33593 c -1e-4,-10.5 7.0852,-17.5879 17.7148,-17.58789 l 7.0879,0.0332 c 10.6299,0 17.7168,7.08885 17.7168,17.71875 l 0,35.43164 0.01,0 0,10.67578 c 0,7.08689 1e-4,7.08706 7.1153,7.08789 l 70.8379,0 0,-7.08789 10.6308,0 0,7.09375 0,3.53711 7.0859,0 0,24.80859 24.8028,0 0,-0.006 17.7168,0 0,0.006 0,145.27539 -42.5196,0 0,24.79688 -7.0859,0 0,10.63086 -10.6308,0 0,-7.08008 0,-0.0117 -14.1719,0 -10.2285,0 -7.8672,0 -10.252,0 -3.5429,0 0,0.0117 -17.7168,0 0,-0.0117 -31.1485,0 c -0.2493,0.008 -0.4907,0.0312 -0.7441,0.0312 l -7.088,0.0332 c -10.6063,0 -17.6796,-7.05793 -17.7109,-17.51953 l 0,-0.0684 0,-14.33593 c 5e-4,-3.5137 -3.5428,-7.05664 -7.086,-7.05664 l -14.1738,0 c -3.5433,0 -7.0859,3.54263 -7.0859,7.08593 l 0,31.89258 0,81.46094 c -0.014,35.447001 133.3403,170.311201 170.0489,170.044901 l 145.3047,0 145.3066,0 c 36.7095,0 170.0651,-134.6273 170.0508,-170.074201 l 0,-81.46094 0,-31.88867 c 0,-3.5433 -3.5426,-7.08593 -7.086,-7.08594 l -14.1738,0 c -3.5326,0 -7.0635,3.5219 -7.084,7.0254 l 0,14.23242 c 0,0.0472 -0.01,0.0916 -0.01,0.13867 l 0,0.10156 c 0,0.3817 -0.031,0.74865 -0.051,1.1211 -0.012,0.20378 -0.012,0.41436 -0.029,0.61523 -0.7794,9.4832 -7.6321,15.75977 -17.6308,15.75977 l -3.9864,-0.0176 -3.1015,0 c -0.1895,0 -0.3694,-0.019 -0.5567,-0.0234 l -31.3359,0 0,0.0117 -17.7168,0 0,-0.0117 -3.543,0 -10.2519,0 -7.8672,0 -10.2285,0 -14.1719,0 0,0.0117 0,7.08008 -10.6308,0 0,-10.63086 -7.086,0 0,-24.79688 -42.5195,0 0,-145.27539 0,-0.008 17.7168,0 0,0.008 24.8027,0 0,-24.80859 7.086,0 0,-3.53711 0,-7.09375 10.6308,0 0,7.08789 70.8379,0 c 7.1152,-8.3e-4 7.1152,-0.001 7.1152,-7.08789 l 0,-42.56836 c -10e-5,-0.0182 0,-0.0365 0,-0.0547 l 0,-3.63476 c 0,-10.49622 7.087,-17.58399 17.7168,-17.58399 l 7.0879,0 c 10.6295,-0.002 17.7161,7.08385 17.7168,17.71875 l 0,14.23242 c 0.021,3.50351 3.5514,7.02539 7.084,7.02539 l 14.1738,0 c 3.5434,0 7.086,-3.54263 7.086,-7.08593 l 0,-56.68946 c -8e-4,-19.56871 -33.5796,-46.06279 -53.1485,-46.0625 l -524.4121,0 -0.01,0 0,0 z m 31.9238,8.59766 35.7871,0 0,11.16211 -35.7871,0 0,-11.16211 z m 70.8652,0 35.7872,0 0,11.16211 -35.7872,0 0,-11.16211 z m 70.8653,0 35.7871,0 0,11.16211 -35.7871,0 0,-11.16211 z m 70.6582,0.0117 35.7871,0 0,11.16211 -35.7871,0 0,-11.16211 z m 70.8652,0 35.7871,0 0,11.16211 -35.7871,0 0,-11.16211 z m 70.8672,0 35.7871,0 0,11.16211 -35.7871,0 0,-11.16211 z m 70.8652,0 35.7871,0 0,11.16211 -35.7871,0 0,-11.16211 z m -472.5371,13.73047 7.8926,7.89258 -25.3047,25.30664 -7.8926,-7.89258 25.3047,-25.30664 z m 555.6699,0 25.3067,25.30664 -7.8926,7.89258 -25.3066,-25.30664 7.8925,-7.89258 z m -508.1347,7.76367 c 2.9354,-2e-5 5.3126,2.40847 5.3125,5.34375 0,2.93542 -2.3771,5.31251 -5.3125,5.3125 -2.9353,0 -5.3438,-2.37707 -5.3438,-5.3125 0,-2.93526 2.4085,-5.34376 5.3438,-5.34375 z m 35.418,0 c 2.9354,-2e-5 5.3125,2.40868 5.3125,5.34375 0,2.93561 -2.3771,5.31251 -5.3125,5.3125 -2.9353,0 -5.3125,-2.37689 -5.3125,-5.3125 0,-2.93526 2.3772,-5.34376 5.3125,-5.34375 z m 35.4335,0 c 2.9354,-2e-5 5.3125,2.40868 5.3125,5.34375 0,2.93561 -2.3771,5.31251 -5.3125,5.3125 -2.9353,0 -5.3125,-2.37689 -5.3125,-5.3125 0,-2.93526 2.3772,-5.34376 5.3125,-5.34375 z m 35.4493,0 c 2.9355,-2e-5 5.3126,2.40847 5.3125,5.34375 0,2.93542 -2.377,5.31251 -5.3125,5.3125 -2.9353,0 -5.3438,-2.37707 -5.3438,-5.3125 0,-2.93526 2.4086,-5.34376 5.3438,-5.34375 z m 35.4316,0 c 2.9354,-2e-5 5.3126,2.40847 5.3125,5.34375 0,2.93542 -2.3771,5.31251 -5.3125,5.3125 -2.9353,0 -5.3437,-2.37707 -5.3437,-5.3125 0,-2.93526 2.4084,-5.34376 5.3437,-5.34375 z m 35.4336,0 c 2.9354,-2e-5 5.3126,2.40847 5.3125,5.34375 0,2.93542 -2.3771,5.31251 -5.3125,5.3125 -2.9353,0 -5.3438,-2.37707 -5.3438,-5.3125 0,-2.93526 2.4085,-5.34376 5.3438,-5.34375 z m 35.4336,0 c 2.9354,-2e-5 5.3126,2.40847 5.3125,5.34375 0,2.93542 -2.3771,5.31251 -5.3125,5.3125 -2.9353,0 -5.3438,-2.37707 -5.3438,-5.3125 0,-2.93526 2.4085,-5.34376 5.3438,-5.34375 z m 35.4023,0.01 c 2.9351,3e-5 5.3438,2.40845 5.3438,5.34376 0,2.93537 -2.4086,5.3125 -5.3438,5.3125 -2.9356,-1e-5 -5.3125,-2.37713 -5.3125,-5.3125 -1e-4,-2.93531 2.377,-5.34374 5.3125,-5.34376 z m 35.4336,0 c 2.9353,3e-5 5.344,2.40845 5.3438,5.34376 0,2.93537 -2.4085,5.3125 -5.3438,5.3125 -2.9354,-1e-5 -5.3125,-2.37713 -5.3125,-5.3125 0,-2.93531 2.3771,-5.34374 5.3125,-5.34376 z m 35.4336,0 c 2.9353,3e-5 5.3438,2.40845 5.3438,5.34376 0,2.93537 -2.4085,5.3125 -5.3438,5.3125 -2.9354,-1e-5 -5.3125,-2.37713 -5.3125,-5.3125 -10e-5,-2.93531 2.3771,-5.34374 5.3125,-5.34376 z m 35.4317,0 c 2.9354,3e-5 5.3437,2.40845 5.3437,5.34376 0,2.93537 -2.4083,5.3125 -5.3437,5.3125 -2.9353,-1e-5 -5.3125,-2.37713 -5.3125,-5.3125 0,-2.93531 2.3772,-5.34374 5.3125,-5.34376 z m 35.4492,0 c 2.9353,3e-5 5.3125,2.40845 5.3125,5.34376 0,2.93559 -2.3772,5.31249 -5.3125,5.3125 -2.9355,0 -5.3125,-2.37691 -5.3125,-5.3125 0,-2.93513 2.377,-5.34372 5.3125,-5.34376 z m 35.4336,0 c 2.9353,3e-5 5.3125,2.40845 5.3125,5.34376 0,2.93559 -2.3772,5.31249 -5.3125,5.3125 -2.9354,0 -5.3125,-2.37691 -5.3125,-5.3125 0,-2.93513 2.3771,-5.34372 5.3125,-5.34376 z m 35.4179,0 c 2.9353,3e-5 5.3436,2.40845 5.3438,5.34376 -3e-4,2.93537 -2.4085,5.3125 -5.3438,5.3125 -2.9354,-1e-5 -5.3125,-2.37713 -5.3125,-5.3125 -1e-4,-2.93531 2.3771,-5.34374 5.3125,-5.34376 z m -496.0722,17.79297 c 2.9353,10e-6 5.3436,2.40844 5.3437,5.34375 -2e-4,2.93539 -2.4084,5.3125 -5.3437,5.3125 -2.9355,-1e-5 -5.3126,-2.37711 -5.3126,-5.3125 -10e-5,-2.93531 2.3771,-5.34375 5.3126,-5.34375 z m 531.4961,0 c 2.9353,10e-6 5.3436,2.40844 5.3437,5.34375 -2e-4,2.93539 -2.4084,5.3125 -5.3437,5.3125 -2.9354,-1e-5 -5.3125,-2.37711 -5.3125,-5.3125 -1e-4,-2.93531 2.3771,-5.34375 5.3125,-5.34375 z m -496.0332,17.70703 c 2.9354,1e-5 5.3126,2.40845 5.3125,5.34376 0,2.93542 -2.3771,5.3125 -5.3125,5.3125 -2.9353,0 -5.3438,-2.37708 -5.3438,-5.3125 0,-2.93528 2.4085,-5.34375 5.3438,-5.34376 z m 35.4179,0 c 2.9354,1e-5 5.3125,2.40868 5.3125,5.34376 0,2.9356 -2.3772,5.3125 -5.3125,5.3125 -2.9354,0 -5.3125,-2.3769 -5.3125,-5.3125 0,-2.93528 2.377,-5.34375 5.3125,-5.34376 z m 35.4336,0 c 2.9354,1e-5 5.3125,2.40868 5.3125,5.34376 0,2.9356 -2.3771,5.3125 -5.3125,5.3125 -2.9353,0 -5.3125,-2.3769 -5.3125,-5.3125 0,-2.93528 2.3772,-5.34375 5.3125,-5.34376 z m 35.4493,0 c 2.9354,1e-5 5.3126,2.40845 5.3125,5.34376 0,2.93542 -2.3771,5.3125 -5.3125,5.3125 -2.9353,0 -5.3438,-2.37708 -5.3438,-5.3125 0,-2.93528 2.4085,-5.34375 5.3438,-5.34376 z m 35.4316,0 c 2.9354,1e-5 5.3126,2.40845 5.3125,5.34376 0,2.93542 -2.3771,5.3125 -5.3125,5.3125 -2.9353,0 -5.3438,-2.37708 -5.3438,-5.3125 0,-2.93528 2.4085,-5.34375 5.3438,-5.34376 z m 35.4336,0 c 2.9354,1e-5 5.3126,2.40845 5.3125,5.34376 0,2.93542 -2.3771,5.3125 -5.3125,5.3125 -2.9353,0 -5.3438,-2.37708 -5.3438,-5.3125 0,-2.93528 2.4085,-5.34375 5.3438,-5.34376 z m 35.4336,0 c 2.9354,1e-5 5.3126,2.40845 5.3125,5.34376 0,2.93542 -2.3771,5.3125 -5.3125,5.3125 -2.9353,0 -5.3438,-2.37708 -5.3438,-5.3125 0,-2.93528 2.4085,-5.34375 5.3438,-5.34376 z m 35.4023,0.0117 c 2.9351,10e-6 5.3438,2.40844 5.3438,5.34375 0,2.93539 -2.4086,5.3125 -5.3438,5.3125 -2.9356,-1e-5 -5.3125,-2.37711 -5.3125,-5.3125 -10e-5,-2.93531 2.377,-5.34375 5.3125,-5.34375 z m 35.4336,0 c 2.9353,10e-6 5.344,2.40844 5.3438,5.34375 0,2.93539 -2.4085,5.3125 -5.3438,5.3125 -2.9354,-1e-5 -5.3125,-2.37711 -5.3125,-5.3125 0,-2.93531 2.3771,-5.34375 5.3125,-5.34375 z m 35.4336,0 c 2.9353,10e-6 5.3438,2.40844 5.3438,5.34375 0,2.93539 -2.4085,5.3125 -5.3438,5.3125 -2.9354,-1e-5 -5.3125,-2.37711 -5.3125,-5.3125 -1e-4,-2.93531 2.3771,-5.34375 5.3125,-5.34375 z m 35.4317,0 c 2.9353,10e-6 5.3437,2.40844 5.3437,5.34375 0,2.93539 -2.4084,5.3125 -5.3437,5.3125 -2.9353,-1e-5 -5.3125,-2.37711 -5.3125,-5.3125 0,-2.93531 2.3772,-5.34375 5.3125,-5.34375 z m 35.4492,0 c 2.9353,10e-6 5.3125,2.40844 5.3125,5.34375 0,2.93559 -2.3772,5.31249 -5.3125,5.3125 -2.9355,0 -5.3125,-2.37691 -5.3125,-5.3125 0,-2.93511 2.377,-5.34374 5.3125,-5.34375 z m 35.4336,0 c 2.9354,10e-6 5.3125,2.40844 5.3125,5.34375 0,2.93559 -2.3772,5.31249 -5.3125,5.3125 -2.9354,0 -5.3125,-2.37691 -5.3125,-5.3125 0,-2.93511 2.3771,-5.34374 5.3125,-5.34375 z m 35.4179,0 c 2.9353,10e-6 5.3437,2.40844 5.3438,5.34375 -2e-4,2.93539 -2.4085,5.3125 -5.3438,5.3125 -2.9354,-1e-5 -5.3125,-2.37711 -5.3125,-5.3125 -10e-5,-2.93531 2.3771,-5.34375 5.3125,-5.34375 z m -531.4961,24.80274 c 2.9354,1e-5 5.3436,2.40844 5.3437,5.34375 -2e-4,2.93539 -2.4082,5.3125 -5.3437,5.3125 -2.9354,-10e-6 -5.3125,-2.37711 -5.3125,-5.3125 -2e-4,-2.93531 2.3772,-5.34375 5.3125,-5.34375 z m 602.3614,0 c 2.9353,1e-5 5.3436,2.40844 5.3437,5.34375 -2e-4,2.93539 -2.4084,5.3125 -5.3437,5.3125 -2.9354,-10e-6 -5.3125,-2.37711 -5.3125,-5.3125 -10e-5,-2.93531 2.3771,-5.34375 5.3125,-5.34375 z m -531.4668,10.62109 c 2.9354,-2e-5 5.3126,2.40847 5.3125,5.34375 0,2.93542 -2.3771,5.31251 -5.3125,5.3125 -2.9353,0 -5.3438,-2.37707 -5.3438,-5.3125 0,-2.93526 2.4085,-5.34376 5.3438,-5.34375 z m 35.4179,0 c 2.9354,-2e-5 5.3125,2.40868 5.3125,5.34375 0,2.93561 -2.3772,5.31251 -5.3125,5.3125 -2.9354,0 -5.3125,-2.37689 -5.3125,-5.3125 0,-2.93526 2.377,-5.34376 5.3125,-5.34375 z m 35.4336,0 c 2.9354,-2e-5 5.3125,2.40868 5.3125,5.34375 0,2.93561 -2.3771,5.31251 -5.3125,5.3125 -2.9353,0 -5.3125,-2.37689 -5.3125,-5.3125 0,-2.93526 2.3772,-5.34376 5.3125,-5.34375 z m 35.4493,0 c 2.9354,-2e-5 5.3126,2.40847 5.3125,5.34375 0,2.93542 -2.3771,5.31251 -5.3125,5.3125 -2.9353,0 -5.3438,-2.37707 -5.3438,-5.3125 0,-2.93526 2.4085,-5.34376 5.3438,-5.34375 z m 35.4316,0 c 2.9354,-2e-5 5.3126,2.40847 5.3125,5.34375 0,2.93542 -2.3771,5.31251 -5.3125,5.3125 -2.9353,0 -5.3438,-2.37707 -5.3438,-5.3125 0,-2.93526 2.4085,-5.34376 5.3438,-5.34375 z m 35.4336,0 c 2.9354,-2e-5 5.3126,2.40847 5.3125,5.34375 0,2.93542 -2.3771,5.31251 -5.3125,5.3125 -2.9353,0 -5.3438,-2.37707 -5.3438,-5.3125 0,-2.93526 2.4085,-5.34376 5.3438,-5.34375 z m 35.4336,0 c 2.9354,-2e-5 5.3126,2.40847 5.3125,5.34375 0,2.93542 -2.3771,5.31251 -5.3125,5.3125 -2.9353,0 -5.3438,-2.37707 -5.3438,-5.3125 0,-2.93526 2.4085,-5.34376 5.3438,-5.34375 z m 35.4023,0.01 c 2.9351,10e-6 5.3438,2.40844 5.3438,5.34375 0,2.93538 -2.4086,5.3125 -5.3438,5.3125 -2.9356,-1e-5 -5.3125,-2.37711 -5.3125,-5.3125 -10e-5,-2.93531 2.377,-5.34375 5.3125,-5.34375 z m 35.4336,0 c 2.9353,10e-6 5.344,2.40844 5.3438,5.34375 0,2.93538 -2.4085,5.3125 -5.3438,5.3125 -2.9354,-1e-5 -5.3125,-2.37711 -5.3125,-5.3125 0,-2.93531 2.3771,-5.34375 5.3125,-5.34375 z m 35.4336,0 c 2.9353,10e-6 5.3438,2.40844 5.3438,5.34375 0,2.93538 -2.4085,5.3125 -5.3438,5.3125 -2.9354,-1e-5 -5.3125,-2.37711 -5.3125,-5.3125 -1e-4,-2.93531 2.3771,-5.34375 5.3125,-5.34375 z m 35.4317,0 c 2.9353,10e-6 5.3437,2.40844 5.3437,5.34375 0,2.93538 -2.4084,5.3125 -5.3437,5.3125 -2.9353,-1e-5 -5.3125,-2.37711 -5.3125,-5.3125 0,-2.93531 2.3772,-5.34375 5.3125,-5.34375 z m 35.4492,0 c 2.9353,10e-6 5.3125,2.40844 5.3125,5.34375 0,2.93559 -2.3772,5.31249 -5.3125,5.3125 -2.9355,0 -5.3125,-2.37691 -5.3125,-5.3125 0,-2.93512 2.377,-5.34374 5.3125,-5.34375 z m 35.4336,0 c 2.9354,10e-6 5.3125,2.40844 5.3125,5.34375 0,2.93559 -2.3772,5.31249 -5.3125,5.3125 -2.9354,0 -5.3125,-2.37691 -5.3125,-5.3125 0,-2.93512 2.3771,-5.34374 5.3125,-5.34375 z m 35.4179,0 c 2.9353,10e-6 5.3437,2.40844 5.3438,5.34375 -2e-4,2.93538 -2.4085,5.3125 -5.3438,5.3125 -2.9354,-1e-5 -5.3125,-2.37711 -5.3125,-5.3125 -10e-5,-2.93531 2.3771,-5.34375 5.3125,-5.34375 z m -309.8007,25.82812 159.0957,0 0,206.92774 -159.0957,0 0,-206.92774 z m 203.4941,9.59961 c 2.7518,0 5.0408,2.0702 5.3125,4.75 0.018,0.1787 0,0.379 0,0.5625 0,2.93541 -2.3773,5.34375 -5.3125,5.34375 -2.9356,0 -5.3126,-2.40834 -5.3125,-5.34375 0,-2.9354 2.3769,-5.3125 5.3125,-5.3125 z m -247.9883,0.01 c 2.9357,0 5.3125,2.37708 5.3125,5.3125 0,2.9354 -2.3768,5.34376 -5.3125,5.34375 -2.935,0 -5.3125,-2.40835 -5.3125,-5.34375 0,-0.1835 -0.018,-0.38381 0,-0.5625 0.2716,-2.67982 2.5609,-4.75 5.3125,-4.75 z m 31.9102,0.0273 c 2.9353,0 5.3125,2.3771 5.3125,5.3125 0,2.93531 -2.3774,5.3125 -5.3125,5.3125 -2.9356,0 -5.3125,-2.37719 -5.3125,-5.3125 0,-2.9354 2.377,-5.3125 5.3125,-5.3125 z m 184.1679,0 c 2.9355,0 5.3126,2.3771 5.3125,5.3125 0,2.93531 -2.3768,5.3125 -5.3125,5.3125 -2.9352,0 -5.3124,-2.37719 -5.3125,-5.3125 0,-2.9354 2.3771,-5.3125 5.3125,-5.3125 z m 0.021,35.40039 c 2.9353,0 5.3438,2.40835 5.3438,5.34375 0,2.9353 -2.4085,5.3125 -5.3438,5.3125 -2.9357,0 -5.3125,-2.3772 -5.3125,-5.3125 0,-2.9354 2.3768,-5.34375 5.3125,-5.34375 z m -184.2148,0.01 c 2.9356,0 5.3126,2.40835 5.3125,5.34375 0,2.9354 -2.3771,5.3125 -5.3125,5.3125 -2.9352,0 -5.3124,-2.3771 -5.3125,-5.3125 0,-2.9354 2.3773,-5.34375 5.3125,-5.34375 z m 184.2148,35.43164 c 2.9353,0 5.3438,2.37711 5.3438,5.3125 0,2.93539 -2.4085,5.3125 -5.3438,5.3125 -2.9357,0 -5.3125,-2.37711 -5.3125,-5.3125 0,-2.9354 2.3768,-5.3125 5.3125,-5.3125 z m -184.2148,0.002 c 2.9356,0 5.3126,2.40835 5.3125,5.34375 0,2.9354 -2.3771,5.3125 -5.3125,5.3125 -2.9352,0 -5.3124,-2.3771 -5.3125,-5.3125 0,-2.9354 2.3773,-5.34375 5.3125,-5.34375 z m 0,35.43359 c 2.9356,2e-5 5.3126,2.40836 5.3125,5.34376 0,2.93537 -2.3771,5.3125 -5.3125,5.3125 -2.9352,-2e-5 -5.3124,-2.37713 -5.3125,-5.3125 0,-2.93544 2.3773,-5.34375 5.3125,-5.34376 z m 184.2304,0.001 c 2.9357,0 5.3123,2.3771 5.3125,5.3125 0,2.9353 -2.3766,5.3125 -5.3125,5.3125 -2.9349,0 -5.3127,-2.3772 -5.3125,-5.3125 0,-2.9354 2.3774,-5.3125 5.3125,-5.3125 z m -0.01,35.43164 c 2.7519,0 5.0406,2.10144 5.3125,4.78125 0.018,0.1787 0,0.34775 0,0.53125 0,2.9353 -2.3771,5.3125 -5.3125,5.3125 -2.9352,0 -5.3125,-2.3772 -5.3125,-5.3125 0,-2.93541 2.3773,-5.3125 5.3125,-5.3125 z m -184.2304,0.0117 c 2.9354,0 5.3125,2.37709 5.3125,5.3125 0,2.93529 -2.3771,5.3125 -5.3125,5.3125 -2.9354,0 -5.3125,-2.37721 -5.3125,-5.3125 0,-0.18351 -0.018,-0.35254 0,-0.53125 0.2719,-2.6798 2.5606,-4.78126 5.3125,-4.78125 z m 184.2265,35.39648 c 2.9353,0 5.3438,2.3771 5.3438,5.3125 0,2.9353 -2.4085,5.34375 -5.3438,5.34375 -2.9352,0 -5.3126,-2.40845 -5.3125,-5.34375 0,-2.9354 2.3773,-5.3125 5.3125,-5.3125 z m -184.2363,0.0156 c 2.9357,-8e-4 5.3161,2.37875 5.3164,5.31445 -6e-4,2.9358 -2.3807,5.31525 -5.3164,5.31445 -2.935,-3e-4 -5.3141,-2.37945 -5.3144,-5.31445 3e-4,-2.935 2.3793,-5.31425 5.3144,-5.31445 z m -214.5332,5.31445 10.9844,0 0,16.59375 0,18.8418 -10.9844,0 0,-18.82813 0,-16.60742 z m 602.3574,0.004 10.9844,0 0,16.59375 0,18.84179 -10.9844,0 0,-18.82812 0,-16.60742 z m -561.4179,30.10351 c 2.9353,0 5.3125,2.377 5.3125,5.3125 0,2.9353 -2.3772,5.34375 -5.3125,5.34375 -2.9354,-1e-4 -5.3438,-2.40845 -5.3438,-5.34375 0,-2.9354 2.4083,-5.3125 5.3438,-5.3125 z m 35.4336,0 c 2.9353,0 5.3125,2.377 5.3125,5.3125 0,2.9353 -2.3772,5.34375 -5.3125,5.34375 -2.9354,-1e-4 -5.3438,-2.40845 -5.3438,-5.34375 0,-2.9354 2.4083,-5.3125 5.3438,-5.3125 z m 35.4179,0 c 2.9354,0 5.3125,2.377 5.3125,5.3125 0,2.9355 -2.3771,5.34365 -5.3125,5.34375 -2.9353,-1e-4 -5.3125,-2.40835 -5.3125,-5.34375 0,-2.9354 2.3772,-5.3125 5.3125,-5.3125 z m 141.7324,0 c 2.9354,0 5.3125,2.3771 5.3125,5.3125 0,2.9355 -2.377,5.34365 -5.3125,5.34375 -2.9353,-1e-4 -5.3125,-2.40835 -5.3125,-5.34375 0,-2.9354 2.3772,-5.3125 5.3125,-5.3125 z m 35.4336,0 c 2.9352,0 5.3125,2.3771 5.3125,5.3125 0,2.9355 -2.3773,5.34365 -5.3125,5.34375 -2.9356,-1e-4 -5.3125,-2.40835 -5.3125,-5.34375 0,-2.9354 2.3769,-5.3125 5.3125,-5.3125 z m 35.4161,0 c 2.9353,0 5.3437,2.3771 5.3437,5.3125 0,2.9353 -2.4084,5.34375 -5.3437,5.34375 -2.9354,-1e-4 -5.3126,-2.40835 -5.3125,-5.34375 0,-2.9354 2.3771,-5.3125 5.3125,-5.3125 z m 35.4335,0 c 2.9353,0 5.3438,2.3771 5.3438,5.3125 0,2.9353 -2.4085,5.34375 -5.3438,5.34375 -2.9354,-1e-4 -5.3126,-2.40835 -5.3125,-5.34375 0,-2.9354 2.3771,-5.3125 5.3125,-5.3125 z m 35.4336,0 c 2.9354,0 5.3438,2.3771 5.3438,5.3125 0,2.9353 -2.4083,5.34375 -5.3438,5.34375 -2.9353,-1e-4 -5.3128,-2.40835 -5.3125,-5.34375 0,-2.9354 2.3772,-5.3125 5.3125,-5.3125 z m 35.4317,0 c 2.9353,0 5.3439,2.3771 5.3437,5.3125 0,2.9353 -2.4084,5.34375 -5.3437,5.34375 -2.9354,-1e-4 -5.3126,-2.40835 -5.3125,-5.34375 0,-2.9354 2.3771,-5.3125 5.3125,-5.3125 z m 106.3008,0 c 2.9353,0 5.3437,2.3771 5.3437,5.3125 0,2.9353 -2.4084,5.34375 -5.3437,5.34375 -2.9354,-1e-4 -5.3126,-2.40835 -5.3125,-5.34375 0,-2.9354 2.3771,-5.3125 5.3125,-5.3125 z m 35.4336,0 c 2.9353,0 5.3437,2.3771 5.3437,5.3125 0,2.9353 -2.4084,5.34375 -5.3437,5.34375 -2.9354,-1e-4 -5.3126,-2.40835 -5.3125,-5.34375 0,-2.9354 2.3771,-5.3125 5.3125,-5.3125 z m -389.7481,0.0156 c 2.9358,2.5e-4 5.3153,2.38065 5.3145,5.3164 -3e-4,2.93501 -2.3795,5.31421 -5.3145,5.31446 -2.9357,8e-4 -5.3161,-2.37871 -5.3164,-5.31446 -8e-4,-2.9365 2.3799,-5.3172 5.3164,-5.3164 z m 35.4317,0 c 2.9365,-8e-4 5.3172,2.3799 5.3164,5.3164 -3e-4,2.93575 -2.3807,5.31526 -5.3164,5.31446 -2.935,-2.5e-4 -5.3143,-2.37945 -5.3145,-5.31446 -9e-4,-2.93575 2.3787,-5.31615 5.3145,-5.3164 z m 283.4648,0 c 2.9353,0 5.3125,2.3771 5.3125,5.3125 0,2.9352 -2.3772,5.3125 -5.3125,5.3125 -2.9354,0 -5.3125,-2.3773 -5.3125,-5.3125 0,-2.9354 2.3771,-5.3125 5.3125,-5.3125 z m -460.6152,35.41406 c 2.9353,0 5.3125,2.377 5.3125,5.3125 0,2.93528 -2.3772,5.34378 -5.3125,5.34378 -2.9354,-1e-4 -5.3438,-2.4085 -5.3438,-5.34378 0,-2.9354 2.4083,-5.3125 5.3438,-5.3125 z m 35.4336,0 c 2.9353,0 5.3125,2.377 5.3125,5.3125 0,2.93528 -2.3772,5.34378 -5.3125,5.34378 -2.9354,-1e-4 -5.3438,-2.4085 -5.3438,-5.34378 0,-2.9354 2.4083,-5.3125 5.3438,-5.3125 z m 35.4179,0 c 2.9354,0 5.3125,2.377 5.3125,5.3125 0,2.93548 -2.3771,5.34368 -5.3125,5.34378 -2.9353,-1e-4 -5.3125,-2.4084 -5.3125,-5.34378 0,-2.9354 2.3772,-5.3125 5.3125,-5.3125 z m 283.4492,0 c 2.9354,0 5.3438,2.3771 5.3438,5.3125 0,2.93528 -2.4083,5.34378 -5.3438,5.34378 -2.9353,-1e-4 -5.3128,-2.4084 -5.3125,-5.34378 0,-2.9354 2.3772,-5.3125 5.3125,-5.3125 z m 35.4317,0 c 2.9353,0 5.3439,2.3771 5.3437,5.3125 0,2.93528 -2.4084,5.34378 -5.3437,5.34378 -2.9354,-1e-4 -5.3126,-2.4084 -5.3125,-5.34378 0,-2.9354 2.3771,-5.3125 5.3125,-5.3125 z m 106.3008,0 c 2.9353,0 5.3437,2.3771 5.3437,5.3125 0,2.93528 -2.4084,5.34378 -5.3437,5.34378 -2.9354,-1e-4 -5.3126,-2.4084 -5.3125,-5.34378 0,-2.9354 2.3771,-5.3125 5.3125,-5.3125 z m 35.4336,0 c 2.9353,0 5.3437,2.3771 5.3437,5.3125 0,2.93528 -2.4084,5.34378 -5.3437,5.34378 -2.9354,-1e-4 -5.3126,-2.4084 -5.3125,-5.34378 0,-2.9354 2.3771,-5.3125 5.3125,-5.3125 z m -318.8887,0.0117 c 2.9365,-8e-4 5.3172,2.37991 5.3164,5.3164 -3e-4,2.93578 -2.3807,5.31528 -5.3164,5.31448 -2.935,-3e-4 -5.3145,-2.3795 -5.3145,-5.31448 -9e-4,-2.93579 2.3787,-5.3161 5.3145,-5.3164 z m 35.4336,0 c 2.9365,-8e-4 5.3172,2.37991 5.3164,5.3164 -3e-4,2.93578 -2.3807,5.31528 -5.3164,5.31448 -2.935,-3e-4 -5.3145,-2.3795 -5.3145,-5.31448 -9e-4,-2.93579 2.3787,-5.3161 5.3145,-5.3164 z m 35.4336,0 c 2.9365,-8e-4 5.3172,2.37991 5.3164,5.3164 -3e-4,2.93578 -2.3807,5.31528 -5.3164,5.31448 -2.935,-3e-4 -5.3145,-2.3795 -5.3145,-5.31448 -9e-4,-2.93579 2.3787,-5.3161 5.3145,-5.3164 z m 35.4316,0 c 2.9365,-8e-4 5.3173,2.37991 5.3164,5.3164 -2e-4,2.93578 -2.3806,5.31528 -5.3164,5.31448 -2.935,-3e-4 -5.3141,-2.3795 -5.3144,-5.31448 -8e-4,-2.93579 2.3787,-5.3161 5.3144,-5.3164 z m -212.5918,0.006 c 2.9358,2.5e-4 5.3155,2.38065 5.3145,5.3164 -2e-4,2.93498 -2.3795,5.31608 -5.3145,5.31638 -2.935,-3e-4 -5.3142,-2.3814 -5.3144,-5.31638 -8e-4,-2.93571 2.3787,-5.31609 5.3144,-5.3164 z m 35.4336,0 c 2.9358,2.5e-4 5.3153,2.38065 5.3145,5.3164 -3e-4,2.93498 -2.3795,5.31608 -5.3145,5.31638 -2.9357,8e-4 -5.3161,-2.3807 -5.3164,-5.31638 -8e-4,-2.9365 2.3799,-5.3172 5.3164,-5.3164 z m 35.4317,0 c 2.9365,-8e-4 5.3172,2.3799 5.3164,5.3164 -3e-4,2.93568 -2.3807,5.31718 -5.3164,5.31638 -2.935,-2e-4 -5.3143,-2.3814 -5.3145,-5.31638 -9e-4,-2.93575 2.3787,-5.31615 5.3145,-5.3164 z m 248.0312,0 c 2.9351,0 5.3125,2.3771 5.3125,5.3125 0,2.93518 -2.3775,5.31248 -5.3125,5.31248 -2.9357,0 -5.3125,-2.3773 -5.3125,-5.31248 0,-2.9354 2.3768,-5.3125 5.3125,-5.3125 z m 35.4336,0 c 2.9353,0 5.3125,2.3771 5.3125,5.3125 0,2.93518 -2.3772,5.31248 -5.3125,5.31248 -2.9354,0 -5.3125,-2.3773 -5.3125,-5.31248 0,-2.9354 2.3771,-5.3125 5.3125,-5.3125 z m -501.5547,5.30664 10.9844,0 0,16.59374 0,18.8437 -10.9844,0 0,-18.8301 0,-16.60734 z m 602.3574,0.006 10.9844,0 0,16.59374 0,18.8418 -10.9844,0 0,-18.8281 0,-16.60744 z m -561.4179,30.10354 c 2.9353,0 5.3125,2.377 5.3125,5.3125 0,2.9353 -2.3772,5.3438 -5.3125,5.3438 -2.9354,-1e-4 -5.3438,-2.4085 -5.3438,-5.3438 0,-2.9354 2.4083,-5.3125 5.3438,-5.3125 z m 35.4336,0 c 2.9353,0 5.3125,2.377 5.3125,5.3125 0,2.9353 -2.3772,5.3438 -5.3125,5.3438 -2.9354,-1e-4 -5.3438,-2.4085 -5.3438,-5.3438 0,-2.9354 2.4083,-5.3125 5.3438,-5.3125 z m 35.4179,0 c 2.9354,0 5.3125,2.377 5.3125,5.3125 0,2.9355 -2.3771,5.3437 -5.3125,5.3438 -2.9353,-1e-4 -5.3125,-2.4084 -5.3125,-5.3438 0,-2.9354 2.3772,-5.3125 5.3125,-5.3125 z m 283.4492,0 c 2.9354,0 5.3438,2.3771 5.3438,5.3125 0,2.9353 -2.4083,5.3438 -5.3438,5.3438 -2.9353,-1e-4 -5.3128,-2.4084 -5.3125,-5.3438 0,-2.9354 2.3772,-5.3125 5.3125,-5.3125 z m 35.4317,0 c 2.9353,0 5.3439,2.3771 5.3437,5.3125 0,2.9353 -2.4084,5.3438 -5.3437,5.3438 -2.9354,-1e-4 -5.3126,-2.4084 -5.3125,-5.3438 0,-2.9354 2.3771,-5.3125 5.3125,-5.3125 z m 106.3008,0 c 2.9353,0 5.3437,2.3771 5.3437,5.3125 0,2.9353 -2.4084,5.3438 -5.3437,5.3438 -2.9354,-1e-4 -5.3126,-2.4084 -5.3125,-5.3438 0,-2.9354 2.3771,-5.3125 5.3125,-5.3125 z m 35.4336,0 c 2.9353,0 5.3437,2.3771 5.3437,5.3125 0,2.9353 -2.4084,5.3438 -5.3437,5.3438 -2.9354,-1e-4 -5.3126,-2.4084 -5.3125,-5.3438 0,-2.9354 2.3771,-5.3125 5.3125,-5.3125 z m -318.8887,0.014 c 2.9365,-8e-4 5.3172,2.3799 5.3164,5.3164 -3e-4,2.9358 -2.3807,5.3152 -5.3164,5.3144 -2.935,-3e-4 -5.3145,-2.3794 -5.3145,-5.3144 -9e-4,-2.9358 2.3787,-5.3161 5.3145,-5.3164 z m 35.4336,0 c 2.9365,-8e-4 5.3172,2.3799 5.3164,5.3164 -3e-4,2.9358 -2.3807,5.3152 -5.3164,5.3144 -2.935,-3e-4 -5.3145,-2.3794 -5.3145,-5.3144 -9e-4,-2.9358 2.3787,-5.3161 5.3145,-5.3164 z m 35.4336,0 c 2.9365,-8e-4 5.3172,2.3799 5.3164,5.3164 -3e-4,2.9358 -2.3807,5.3152 -5.3164,5.3144 -2.935,-3e-4 -5.3145,-2.3794 -5.3145,-5.3144 -9e-4,-2.9358 2.3787,-5.3161 5.3145,-5.3164 z m 35.4316,0 c 2.9365,-8e-4 5.3172,2.3799 5.3164,5.3164 -3e-4,2.9358 -2.3806,5.3152 -5.3164,5.3144 -2.935,-3e-4 -5.3141,-2.3794 -5.3144,-5.3144 -8e-4,-2.9358 2.3787,-5.3161 5.3144,-5.3164 z m -212.5918,0 c 2.9358,3e-4 5.3155,2.3807 5.3145,5.3164 -2e-4,2.9351 -2.3795,5.3142 -5.3145,5.3145 -2.9349,-3e-4 -5.3142,-2.3795 -5.3144,-5.3145 -8e-4,-2.9357 2.3787,-5.3161 5.3144,-5.3164 z m 35.4336,0 c 2.9358,3e-4 5.3153,2.3807 5.3145,5.3164 -3e-4,2.9351 -2.3795,5.3142 -5.3145,5.3145 -2.9357,8e-4 -5.3161,-2.3787 -5.3164,-5.3145 -7e-4,-2.9365 2.3799,-5.3172 5.3164,-5.3164 z m 35.4317,0 c 2.9365,-8e-4 5.3172,2.3799 5.3164,5.3164 -3e-4,2.9358 -2.3807,5.3153 -5.3164,5.3145 -2.935,-3e-4 -5.3143,-2.3794 -5.3145,-5.3145 -9e-4,-2.9357 2.3787,-5.3161 5.3145,-5.3164 z m 248.0312,0 c 2.9351,0 5.3125,2.3771 5.3125,5.3125 0,2.9352 -2.3775,5.3125 -5.3125,5.3125 -2.9357,0 -5.3125,-2.3773 -5.3125,-5.3125 0,-2.9354 2.3768,-5.3125 5.3125,-5.3125 z m 35.4336,0 c 2.9353,0 5.3125,2.3771 5.3125,5.3125 0,2.9352 -2.3772,5.3125 -5.3125,5.3125 -2.9354,0 -5.3125,-2.3773 -5.3125,-5.3125 0,-2.9354 2.3771,-5.3125 5.3125,-5.3125 z m -106.3184,35.416001 c 2.9355,0 5.3439,2.3771 5.3438,5.3125 0,2.9352 -2.4082,5.3125 -5.3438,5.3125 -2.9353,0 -5.3125,-2.3773 -5.3125,-5.3125 0,-2.9354 2.3772,-5.3125 5.3125,-5.3125 z m -177.164,0 c 2.9355,0 5.3438,2.3771 5.3437,5.3125 0,2.9352 -2.4081,5.3125 -5.3437,5.3125 -2.9353,0 -5.3125,-2.3773 -5.3125,-5.3125 0,-2.9354 2.3772,-5.3125 5.3125,-5.3125 z m -141.6992,0 c 2.9353,0 5.3125,2.3768 5.3125,5.3125 0,2.9354 -2.3772,5.3438 -5.3125,5.3438 -2.9354,0 -5.3438,-2.4089 -5.3438,-5.3438 0,-2.9357 2.4083,-5.3125 5.3438,-5.3125 z m 35.4179,0 c 2.9354,0 5.3125,2.3768 5.3125,5.3125 0,2.9351 -2.3771,5.3438 -5.3125,5.3438 -2.9353,0 -5.3125,-2.4089 -5.3125,-5.3438 0,-2.9357 2.3772,-5.3125 5.3125,-5.3125 z m 35.4336,0 c 2.9353,0 5.3125,2.3768 5.3125,5.3125 0,2.9352 -2.3772,5.3438 -5.3125,5.3438 -2.9354,0 -5.3125,-2.409 -5.3125,-5.3438 0,-2.9357 2.3771,-5.3125 5.3125,-5.3125 z m 283.4473,0 c 2.9353,0 5.3439,2.3771 5.3437,5.3125 0,2.9353 -2.4084,5.3438 -5.3437,5.3438 -2.9354,0 -5.3126,-2.4085 -5.3125,-5.3438 0,-2.9354 2.3771,-5.3125 5.3125,-5.3125 z m 70.8828,0 c 2.9354,0 5.3125,2.3769 5.3125,5.3125 0,2.9353 -2.3771,5.3438 -5.3125,5.3438 -2.9353,0 -5.3125,-2.4087 -5.3125,-5.3438 0,-2.9356 2.3772,-5.3125 5.3125,-5.3125 z m 35.4336,0 c 2.9354,0 5.3125,2.3769 5.3125,5.3125 0,2.9353 -2.3771,5.3438 -5.3125,5.3438 -2.9353,0 -5.3125,-2.4087 -5.3125,-5.3438 0,-2.9356 2.3772,-5.3125 5.3125,-5.3125 z m -283.4707,0.01 c 2.9365,-8e-4 5.3172,2.3799 5.3164,5.3164 -3e-4,2.9358 -2.3807,5.3152 -5.3164,5.3144 -2.935,-3e-4 -5.3145,-2.3794 -5.3145,-5.3144 -9e-4,-2.9358 2.3787,-5.3162 5.3145,-5.3164 z m 35.4336,0 c 2.9365,-8e-4 5.3172,2.3799 5.3164,5.3164 -3e-4,2.9358 -2.3807,5.3152 -5.3164,5.3144 -2.935,-3e-4 -5.3145,-2.3794 -5.3145,-5.3144 -9e-4,-2.9358 2.3787,-5.3162 5.3145,-5.3164 z m 35.4336,0 c 2.9365,-8e-4 5.3172,2.3799 5.3164,5.3164 -3e-4,2.9358 -2.3807,5.3152 -5.3164,5.3144 -2.935,-3e-4 -5.3145,-2.3794 -5.3145,-5.3144 -9e-4,-2.9358 2.3787,-5.3162 5.3145,-5.3164 z m 35.4316,0 c 2.9365,-8e-4 5.3172,2.3799 5.3164,5.3164 -3e-4,2.9358 -2.3806,5.3152 -5.3164,5.3144 -2.935,-3e-4 -5.3141,-2.3794 -5.3144,-5.3144 -8e-4,-2.9358 2.3787,-5.3162 5.3144,-5.3164 z m -177.1758,0.01 c 2.9355,0 5.3439,2.3771 5.3438,5.3125 0,2.9352 -2.4082,5.3125 -5.3438,5.3125 -2.9353,0 -5.3125,-2.3773 -5.3125,-5.3125 0,-2.9354 2.3772,-5.3125 5.3125,-5.3125 z m 283.4805,0 c 2.9351,0 5.3125,2.3772 5.3125,5.3125 0,2.9354 -2.3774,5.3125 -5.3125,5.3125 -2.9356,0 -5.3125,-2.3771 -5.3125,-5.3125 0,-2.9353 2.3769,-5.3125 5.3125,-5.3125 z m -416.5449,9.711 25.3047,25.3047 -7.8926,7.8925 -25.3047,-25.3047 7.8926,-7.8925 z m 513.9824,0 7.8926,7.8925 -25.3047,25.3067 -7.8926,-7.8926 25.3047,-25.3066 z m -256.8867,13.2929 c 29.3528,6e-4 53.1478,23.7956 53.1484,53.1484992 4e-4,29.3535998 -23.7948,53.1498008 -53.1484,53.1504008 -29.3543,4e-4 -53.1508,-23.796101 -53.1504,-53.1504008 6e-4,-29.3535992 23.7968,-53.1488992 53.1504,-53.1484992 z m -53.8613,4.6036 c 2.9357,0 5.3161,2.3787 5.3164,5.3144 9e-4,2.9365 -2.3799,5.3172 -5.3164,5.3164 -2.9358,-2e-4 -5.3156,-2.3806 -5.3145,-5.3164 2e-4,-2.935 2.3795,-5.3144 5.3145,-5.3144 z m 107.7168,0 c 2.9357,0 5.3161,2.3787 5.3164,5.3144 9e-4,2.9365 -2.3799,5.3172 -5.3164,5.3164 -2.9358,-3e-4 -5.3154,-2.3806 -5.3145,-5.3164 3e-4,-2.9349 2.3796,-5.3144 5.3145,-5.3144 z m -248.8633,7.7714 c 2.9354,0 5.3125,2.377 5.3125,5.3125 0,2.9353 -2.3769,5.3438 -5.3125,5.3438 -2.9353,-1e-4 -5.3125,-2.4084 -5.3125,-5.3438 0,-2.9355 2.3774,-5.3125 5.3125,-5.3125 z m 283.5898,0.027 c 2.935,2e-4 5.3142,2.3794 5.3145,5.3144 -3e-4,2.935 -2.3795,5.3142 -5.3145,5.3145 -2.9357,8e-4 -5.3161,-2.3788 -5.3164,-5.3145 3e-4,-2.9357 2.3807,-5.3152 5.3164,-5.3144 z m -177.164,0 c 2.935,2e-4 5.3141,2.3794 5.3144,5.3144 -3e-4,2.935 -2.3794,5.3142 -5.3144,5.3145 -2.9357,8e-4 -5.3162,-2.3788 -5.3165,-5.3145 3e-4,-2.9357 2.3808,-5.3152 5.3165,-5.3144 z m 212.582,0.01 c 2.9353,0 5.3439,2.3769 5.3437,5.3126 0,2.9349 -2.4084,5.3417 -5.3437,5.3417 -2.9354,1e-4 -5.3126,-2.4068 -5.3125,-5.3417 0,-2.9356 2.3771,-5.3126 5.3125,-5.3126 z m -283.4473,0.012 c 2.9357,0 5.3125,2.3771 5.3125,5.3125 0,2.9352 -2.3768,5.3125 -5.3125,5.3125 -2.935,0 -5.3125,-2.3773 -5.3125,-5.3125 0,-2.9354 2.3775,-5.3125 5.3125,-5.3125 z m 35.4336,0 c 2.935,2e-4 5.3142,2.3794 5.3145,5.3144 -3e-4,2.935 -2.3795,5.3142 -5.3145,5.3145 -2.9357,8e-4 -5.3161,-2.3788 -5.3164,-5.3145 3e-4,-2.9357 2.3807,-5.3152 5.3164,-5.3144 z m 283.4629,0 c 2.9351,0 5.3125,2.3771 5.3125,5.3125 0,2.9352 -2.3775,5.3125 -5.3125,5.3125 -2.9357,0 -5.3125,-2.3773 -5.3125,-5.3125 0,-2.9354 2.3768,-5.3125 5.3125,-5.3125 z m 35.4336,0 c 2.9353,0 5.3125,2.3771 5.3125,5.3125 0,2.9353 -2.3772,5.3125 -5.3125,5.3125 -2.9354,0 -5.3125,-2.3772 -5.3125,-5.3125 0,-2.9354 2.3771,-5.3125 5.3125,-5.3125 z m -401.6582,24.3906 25.3047,25.3065992 -7.8926,7.8925994 -25.3047,-25.3065986 7.8926,-7.8926 z m 413.5527,0 7.8926,7.8926 -25.3047,25.3065986 -7.8926,-7.8944994 25.3047,-25.3046992 z m -118.1972,11.0215 c 2.9354,0 5.3125,2.3767992 5.3125,5.3124992 0,2.9353 -2.3771,5.3125 -5.3125,5.3125 -2.9354,0 -5.3125,-2.3772 -5.3125,-5.3125 0,-2.9357 2.3771,-5.3124992 5.3125,-5.3124992 z m -177.1641,0 c 2.9355,0 5.3125,2.3767992 5.3125,5.3124992 0,2.9353 -2.3769,5.3125 -5.3125,5.3125 -2.9354,0 -5.3125,-2.3772 -5.3125,-5.3125 0,-2.9357 2.3772,-5.3124992 5.3125,-5.3124992 z m 212.584,0 c 2.9353,0 5.3439,2.3770992 5.3437,5.3124992 0,2.9353 -2.4084,5.3438 -5.3437,5.3438 -2.9354,0 -5.3126,-2.4085 -5.3125,-5.3438 0,-2.9354 2.3771,-5.3124992 5.3125,-5.3124992 z m -283.4473,0.02 c 2.9353,0 5.3125,2.3767992 5.3125,5.3124992 0,2.9353 -2.3772,5.3125 -5.3125,5.3125 -2.9354,0 -5.3125,-2.3772 -5.3125,-5.3125 0,-2.9357 2.3771,-5.3124992 5.3125,-5.3124992 z m 35.4317,0 c 2.9354,0 5.3125,2.3767992 5.3125,5.3124992 0,2.9353 -2.3771,5.3125 -5.3125,5.3125 -2.9354,0 -5.3125,-2.3772 -5.3125,-5.3125 0,-2.9357 2.3771,-5.3124992 5.3125,-5.3124992 z m 283.4648,0 c 2.9352,0 5.3125,2.3767992 5.3125,5.3124992 0,2.9353 -2.3773,5.3125 -5.3125,5.3125 -2.9354,0 -5.3125,-2.3772 -5.3125,-5.3125 0,-2.9357 2.377,-5.3124992 5.3125,-5.3124992 z M 3197.6789,23.0936 c 2.9353,0 5.3125,2.377101 5.3125,5.312501 0,2.9353 -2.3772,5.3125 -5.3125,5.3125 -2.9355,0 -5.3125,-2.3772 -5.3125,-5.3125 0,-2.9354 2.377,-5.312501 5.3125,-5.312501 z m 318.8965,0 c 2.9351,0 5.3125,2.377101 5.3125,5.312501 0,2.9353 -2.3774,5.3125 -5.3125,5.3125 -2.9357,0 -5.3125,-2.3772 -5.3125,-5.3125 0,-2.9354 2.3768,-5.312501 5.3125,-5.312501 z m -283.75,6.804601 35.7871,0 0,11.1622 -35.7871,0 0,-11.1622 z m 212.6016,0 35.7871,0 0,11.1622 -35.7871,0 0,-11.1622 z m -142.1621,0.9668 c 2.9365,-8e-4 5.3172,2.3799 5.3164,5.3164 -3e-4,2.9357 -2.3807,5.3153 -5.3164,5.3145 -2.935,-3e-4 -5.3143,-2.3795 -5.3145,-5.3145 -8e-4,-2.9358 2.3787,-5.3161 5.3145,-5.3164 z m 107.7168,0 c 2.9365,-8e-4 5.3172,2.3799 5.3164,5.3164 -3e-4,2.9357 -2.3807,5.3153 -5.3164,5.3145 -2.9349,-3e-4 -5.314,-2.3796 -5.3145,-5.3145 -7e-4,-2.9357 2.3788,-5.3161 5.3145,-5.3164 z"
       id="path5016"
       inkscape:connector-curvature="0" />
  </g>
  <g
     inkscape:groupmode="layer"
     id="layer19"
     inkscape:label="Transparent"
     style="display:inline"
     transform="translate(-2117.5881,548.59374)">
    <g
       id="g4279">
      <path
         id="path5561"
         d="m 2180.7385,-538.59374 c -19.5688,-2.4e-4 -53.1496,26.49375 -53.1504,46.0625 l 0,56.66406 c 0,3.54331 3.5427,7.08594 7.086,7.08594 l 14.1738,0 c 3.5431,1e-5 7.0865,-3.54294 7.086,-7.05664 l 0,-14.33594 c -1e-4,-10.50001 7.0852,-17.58789 17.7148,-17.58789 l 7.0879,0.0332 c 10.6299,0 17.7168,7.08885 17.7168,17.71875 l 0,237.41797 c 0,10.6299 -7.0869,17.71875 -17.7168,17.71875 l -7.0879,0.0332 c -10.6299,0 -17.7149,-7.08789 -17.7148,-17.58789 l 0,-14.33593 c 5e-4,-3.5137 -3.5429,-7.05665 -7.086,-7.05665 l -14.1738,0 c -3.5433,0 -7.086,3.54263 -7.086,7.08594 l 0,31.89258 0,81.46094 c -0.014,35.447 133.3403,170.31122 170.0489,170.04492 l 145.3047,0 145.3066,0 c 36.7095,0 170.0651,-134.62732 170.0508,-170.07422 l 0,-81.46094 0,-31.88867 c 0,-3.5433 -3.5427,-7.08594 -7.0859,-7.08594 l -14.1739,0 c -3.5326,0 -7.0635,3.52188 -7.084,7.02539 l 0,14.23243 c -7e-4,10.63491 -7.0873,17.72112 -17.7168,17.71875 l -7.0878,0 c -10.6295,0 -17.7169,-7.08778 -17.7169,-17.58399 l 0,-237.69531 c 0,-10.49622 7.087,-17.58399 17.7169,-17.58399 l 7.0878,0 c 10.6295,-0.002 17.7161,7.08385 17.7168,17.71875 l 0,14.23243 c 0.021,3.50351 3.5514,7.02539 7.084,7.02539 l 14.1739,0 c 3.5434,0 7.0859,-3.54264 7.0859,-7.08594 l 0,-56.68945 c -8e-4,-19.5688 -33.5796,-46.06279 -53.1484,-46.0625 l -524.4122,0 z m 31.92,8.59765 35.7871,0 0,11.16211 -35.7871,0 0,-11.16211 z m 70.8652,0 35.7871,0 0,11.16211 -35.7871,0 0,-11.16211 z m 70.8652,0 35.7871,0 0,11.16211 -35.7871,0 0,-11.16211 z m 70.6582,0.0117 35.7871,0 0,11.16211 -35.7871,0 0,-11.16211 z m 70.8653,0 35.7871,0 0,11.16211 -35.7871,0 0,-11.16211 z m 70.8672,0 35.7871,0 0,11.16211 -35.7871,0 0,-11.16211 z m 70.8652,0 35.7871,0 0,11.16211 -35.7871,0 0,-11.16211 z m -472.5371,13.73047 7.8926,7.89258 -25.3047,25.30664 -7.8926,-7.89258 25.3047,-25.30664 z m 555.6699,0 25.3066,25.30664 -7.8925,7.89258 -25.3067,-25.30664 7.8926,-7.89258 z m -474.6914,5.88281 a 5.3149605,5.3149605 0 0 1 3.8359,1.55664 l 1.8848,1.88477 0.02,0.0195 23.1504,23.15039 a 5.3149605,5.3149605 0 0 1 0,7.51563 5.3149605,5.3149605 0 0 1 -7.5156,0 l -23.0801,-23.08008 c -0.049,-0.0468 -0.096,-0.0939 -0.1426,-0.14258 l -1.832,-1.83203 a 5.3149605,5.3149605 0 0 1 0,-7.51563 5.3149605,5.3149605 0 0 1 3.6797,-1.55664 z m 74.6621,0 a 5.3149605,5.3149605 0 0 1 3.8359,1.55664 5.3149605,5.3149605 0 0 1 0,7.51563 l -1.7558,1.75586 c -0.091,0.0976 -0.1837,0.19066 -0.2813,0.28125 l -23.0175,23.01758 a 5.3149605,5.3149605 0 0 1 -7.5176,0 5.3149605,5.3149605 0 0 1 0,-7.51563 l 23.1406,-23.13867 c 0.013,-0.0131 0.026,-0.0261 0.039,-0.0391 l 1.8769,-1.87695 a 5.3149605,5.3149605 0 0 1 3.6797,-1.55664 z m 31.6367,0 a 5.3149605,5.3149605 0 0 1 3.836,1.55664 l 1.8086,1.8086 c 0.062,0.0595 0.1225,0.1192 0.1816,0.18164 l 23.0645,23.06445 a 5.3149605,5.3149605 0 0 1 0,7.51563 5.3149605,5.3149605 0 0 1 -7.5157,0 l -23.084,-23.08399 c -0.048,-0.0461 -0.094,-0.0928 -0.1406,-0.14062 l -1.8301,-1.83008 a 5.3149605,5.3149605 0 0 1 0,-7.51563 5.3149605,5.3149605 0 0 1 3.6797,-1.55664 z m 74.6621,0 a 5.3149605,5.3149605 0 0 1 3.836,1.55664 5.3149605,5.3149605 0 0 1 0,7.51563 l -1.7559,1.75586 c -0.091,0.0976 -0.1836,0.19066 -0.2812,0.28125 l -23.0176,23.01758 a 5.3149605,5.3149605 0 0 1 -7.5176,0 5.3149605,5.3149605 0 0 1 0,-7.51563 l 23.1406,-23.13867 c 0.013,-0.0131 0.026,-0.0261 0.039,-0.0391 l 1.877,-1.87695 a 5.3149605,5.3149605 0 0 1 3.6797,-1.55664 z m 31.6367,0 a 5.3149605,5.3149605 0 0 1 3.836,1.55664 l 25.0547,25.05469 a 5.3149605,5.3149605 0 0 1 0,7.51563 5.3149605,5.3149605 0 0 1 -7.5156,0 l -22.9493,-22.94922 c -0.1432,-0.12849 -0.2777,-0.26307 -0.4062,-0.40625 l -1.6992,-1.69922 a 5.3149605,5.3149605 0 0 1 0,-7.51563 5.3149605,5.3149605 0 0 1 3.6797,-1.55664 z m 74.6622,0 a 5.3149605,5.3149605 0 0 1 3.8359,1.55664 5.3149605,5.3149605 0 0 1 0,7.51563 l -1.7715,1.77148 c -0.085,0.0911 -0.1722,0.17873 -0.2637,0.26368 l -23.0195,23.01953 a 5.3149605,5.3149605 0 0 1 -7.5176,0 5.3149605,5.3149605 0 0 1 0,-7.51563 l 23.1192,-23.11719 c 0.019,-0.0199 0.039,-0.039 0.059,-0.0586 l 1.8789,-1.8789 a 5.3149605,5.3149605 0 0 1 3.6797,-1.55664 z m 31.6367,0 a 5.3149605,5.3149605 0 0 1 3.8359,1.55664 l 25.0547,25.05469 a 5.3149605,5.3149605 0 0 1 0,7.51563 5.3149605,5.3149605 0 0 1 -7.5156,0 l -22.9492,-22.94922 c -0.1432,-0.12849 -0.2779,-0.26307 -0.4063,-0.40625 l -1.6992,-1.69922 a 5.3149605,5.3149605 0 0 1 0,-7.51563 5.3149605,5.3149605 0 0 1 3.6797,-1.55664 z m 74.6621,0 a 5.3149605,5.3149605 0 0 1 3.8359,1.55664 5.3149605,5.3149605 0 0 1 0,7.51563 l -1.7773,1.77734 c -0.085,0.0913 -0.1724,0.17855 -0.2637,0.26368 l -23.0137,23.01367 a 5.3149605,5.3149605 0 0 1 -7.5175,0 5.3149605,5.3149605 0 0 1 0,-7.51563 l 25.0566,-25.05469 a 5.3149605,5.3149605 0 0 1 3.6797,-1.55664 z m -427.002,1.88086 c 2.9354,-2e-5 5.3126,2.40847 5.3125,5.34375 0,2.93542 -2.3771,5.31251 -5.3125,5.3125 -2.9353,0 -5.3437,-2.37707 -5.3437,-5.3125 0,-2.93526 2.4084,-5.34376 5.3437,-5.34375 z m 70.8477,0 0,0 c 1.1008,0 2.1228,0.33784 2.9707,0.91602 9e-4,9.9e-4 0,0.003 0,0.004 1.4256,0.9524 2.3651,2.57557 2.3652,4.41992 0,2.57797 -1.8346,4.72427 -4.2695,5.20899 -0.1647,0.0337 -0.3321,0.0581 -0.5019,0.0762 -0.187,0.0199 -0.3761,0.0313 -0.5684,0.0312 -2.3862,0 -4.403,-1.57147 -5.0742,-3.73633 -0.052,-0.16504 -0.095,-0.33435 -0.1309,-0.50586 -0.072,-0.34723 -0.1113,-0.70581 -0.1113,-1.07422 0,-0.55039 0.085,-1.08094 0.2422,-1.58008 0.053,-0.16695 0.1115,-0.33081 0.1797,-0.49023 0.8062,-1.91571 2.6931,-3.26953 4.8945,-3.26953 z m 106.3184,0 c 1.4706,-10e-6 2.8019,0.60372 3.7636,1.57618 0.9646,0.96165 1.5606,2.293 1.5606,3.76367 0,2.2059 -1.343,4.09496 -3.2559,4.89843 -0.1589,0.0672 -0.3219,0.12798 -0.4883,0.17969 -0.1627,0.0502 -0.3291,0.0924 -0.498,0.12696 -0.3497,0.0724 -0.7108,0.11133 -1.082,0.11132 -2.9353,0 -5.3438,-2.37707 -5.3438,-5.3125 0,-2.93526 2.4085,-5.34376 5.3438,-5.34375 z m 106.2695,0.0117 c 0.5578,10e-6 1.0967,0.089 1.6035,0.25 0.1605,0.0493 0.3171,0.10822 0.4707,0.17188 1.925,0.798 3.2793,2.69164 3.2793,4.90625 0,2.03115 -1.1387,3.79354 -2.8125,4.6875 -0.1432,0.0773 -0.2907,0.14662 -0.4414,0.21094 -0.6454,0.27563 -1.3558,0.42968 -2.0996,0.42968 -2.9354,-1e-5 -5.3125,-2.37711 -5.3125,-5.3125 0,-2.93531 2.3771,-5.34375 5.3125,-5.34375 z m 106.3144,0 0,0 0,0 c 0.7401,5.6e-4 1.4442,0.15504 2.084,0.43164 0,8.2e-4 -2e-4,9.6e-4 0.01,0.002 1.9069,0.80615 3.2441,2.69298 3.2442,4.89453 0,1.84531 -0.9402,3.46969 -2.3672,4.42188 -0.1336,0.0892 -0.2703,0.17301 -0.4121,0.25 -0.7589,0.41767 -1.6306,0.65625 -2.5586,0.65625 -2.5685,0 -4.71,-1.82062 -5.2051,-4.24219 l 0,-0.002 c -0.073,-0.35025 -0.1133,-0.71211 -0.1133,-1.08398 0,-1.08448 0.33,-2.09129 0.8926,-2.93164 0.01,-0.0115 0.014,-0.0238 0.021,-0.0352 0.017,-0.0245 0.039,-0.0441 0.057,-0.0684 0.9598,-1.37877 2.5435,-2.29163 4.3437,-2.29297 z m 70.8516,0 c 2.9353,10e-6 5.3436,2.40844 5.3438,5.34375 -3e-4,2.93539 -2.4085,5.3125 -5.3438,5.3125 -2.9354,-1e-5 -5.3125,-2.37711 -5.3125,-5.3125 -1e-4,-2.93531 2.3771,-5.34375 5.3125,-5.34375 z m -496.0723,17.79297 c 2.9353,1e-5 5.3437,2.40844 5.3438,5.34375 -2e-4,2.93539 -2.4085,5.3125 -5.3438,5.3125 -2.9354,-10e-6 -5.3125,-2.37711 -5.3125,-5.3125 -10e-5,-2.93531 2.3771,-5.34375 5.3125,-5.34375 z m 531.4961,0 c 2.9353,1e-5 5.3437,2.40844 5.3438,5.34375 -2e-4,2.93539 -2.4085,5.3125 -5.3438,5.3125 -2.9354,-10e-6 -5.3125,-2.37711 -5.3125,-5.3125 -1e-4,-2.93531 2.3771,-5.34375 5.3125,-5.34375 z m -460.584,17.65625 0,0 c 2.9357,0 5.3123,2.3771 5.3126,5.3125 -1e-4,0.75158 -0.1583,1.46544 -0.4395,2.11328 -0.7974,1.92628 -2.6927,3.28126 -4.9082,3.28125 -2.9353,0 -5.3125,-2.37689 -5.3125,-5.3125 l 0,-0.0801 0,-0.002 c 0,-0.15575 0.01,-0.30859 0.023,-0.46093 0.237,-2.7187 2.5408,-4.85157 5.3203,-4.85157 z m 70.8711,0 c 2.9355,0 5.3124,2.3771 5.3125,5.3125 0,0.39153 -0.045,0.77133 -0.125,1.13867 -0.49,2.42821 -2.6337,4.25587 -5.207,4.25586 -2.9353,0 -5.3437,-2.37707 -5.3437,-5.3125 0,-0.3914 0.046,-0.77242 0.1269,-1.14062 0.031,-0.15049 0.072,-0.29779 0.1152,-0.44336 0.6556,-2.20238 2.7081,-3.81055 5.1211,-3.81055 z m 35.4317,0 c 2.9355,0 5.3124,2.3771 5.3125,5.3125 0,0.39153 -0.045,0.77133 -0.125,1.13867 -0.4899,2.42821 -2.6338,4.25587 -5.207,4.25586 -2.9354,0 -5.3438,-2.37707 -5.3438,-5.3125 0,-0.3914 0.046,-0.77242 0.127,-1.14062 0.031,-0.15049 0.072,-0.29779 0.1152,-0.44336 0.6557,-2.20238 2.7081,-3.81055 5.1211,-3.81055 z m 70.8672,0 c 2.9355,0 5.3124,2.3771 5.3125,5.3125 0,0.39153 -0.045,0.77133 -0.125,1.13867 -0.4899,2.42821 -2.6339,4.25587 -5.2071,4.25586 -2.9353,0 -5.3437,-2.37707 -5.3437,-5.3125 0,-0.3914 0.046,-0.77242 0.1269,-1.14062 0.031,-0.15049 0.072,-0.29779 0.1153,-0.44336 0.6557,-2.20238 2.7081,-3.81055 5.1211,-3.81055 z m 35.4316,0 c 2.9356,0 5.3124,2.3771 5.3125,5.3125 0,0.38592 -0.043,0.76057 -0.1211,1.12305 -0.4861,2.44063 -2.6583,4.28125 -5.2402,4.28125 -2.9356,-1e-5 -5.3125,-2.37711 -5.3125,-5.3125 0,-0.38656 0.043,-0.76296 0.1211,-1.12695 0.4875,-2.43877 2.6596,-4.27735 5.2402,-4.27735 z m 70.8672,0 c 2.9355,0 5.3124,2.3771 5.3125,5.3125 0,0.38592 -0.043,0.76057 -0.1211,1.12305 -0.486,2.44063 -2.6582,4.28125 -5.2402,4.28125 -2.9354,-1e-5 -5.3125,-2.37711 -5.3125,-5.3125 0,-0.38656 0.043,-0.76296 0.1211,-1.12695 0.4875,-2.43877 2.6596,-4.27735 5.2402,-4.27735 z m 35.4316,0 c 2.9355,0 5.3124,2.3771 5.3125,5.3125 0,0.38592 -0.043,0.76057 -0.1211,1.12305 -0.4861,2.44063 -2.6582,4.28125 -5.2402,4.28125 -2.9353,-1e-5 -5.3125,-2.37711 -5.3125,-5.3125 0,-0.38656 0.043,-0.76296 0.1211,-1.12695 0.4876,-2.43877 2.6595,-4.27735 5.2402,-4.27735 z m 70.8672,0 c 2.9355,0 5.3124,2.3771 5.3125,5.3125 0,0.58263 -0.097,1.1416 -0.2695,1.66602 -6e-4,0.002 0,0.004 0,0.006 -0.044,0.13408 -0.092,0.26738 -0.1465,0.39648 -0.7843,1.95468 -2.6918,3.33593 -4.9277,3.33594 -2.9354,0 -5.3125,-2.37691 -5.3125,-5.3125 l 0,-0.0644 0,-0.0273 c 0,-2.9354 2.4084,-5.3125 5.3437,-5.3125 z m -425.2168,0.0508 c 2.9354,-2e-5 5.3126,2.40847 5.3125,5.34375 0,2.93542 -2.3771,5.31251 -5.3125,5.3125 -2.9353,0 -5.3437,-2.37707 -5.3437,-5.3125 0,-2.93526 2.4084,-5.34376 5.3437,-5.34375 z m 70.8516,0 c 2.9354,-2e-5 5.3125,2.40868 5.3125,5.34375 0,2.93561 -2.3771,5.31251 -5.3125,5.3125 -2.9353,0 -5.3125,-2.37689 -5.3125,-5.3125 0,-2.93526 2.3772,-5.34376 5.3125,-5.34375 z m 106.3144,0 c 2.9354,-2e-5 5.3126,2.40847 5.3125,5.34375 0,2.93542 -2.3771,5.31251 -5.3125,5.3125 -2.9353,0 -5.3437,-2.37707 -5.3437,-5.3125 0,-2.93526 2.4084,-5.34376 5.3437,-5.34375 z m 106.2696,0.01 c 2.9353,10e-6 5.3439,2.40844 5.3437,5.34375 0,2.93539 -2.4084,5.3125 -5.3437,5.3125 -2.9354,-1e-5 -5.3125,-2.37711 -5.3125,-5.3125 0,-2.93531 2.3771,-5.34375 5.3125,-5.34375 z m 106.3144,0 c 2.9353,10e-6 5.3125,2.40844 5.3125,5.34375 0,2.93559 -2.3772,5.31249 -5.3125,5.3125 -2.9355,0 -5.3125,-2.37691 -5.3125,-5.3125 0,-2.93511 2.377,-5.34374 5.3125,-5.34375 z m 70.8516,0 c 2.9353,10e-6 5.3436,2.40844 5.3437,5.34375 -2e-4,2.93539 -2.4084,5.3125 -5.3437,5.3125 -2.9354,-1e-5 -5.3125,-2.37711 -5.3125,-5.3125 -1e-4,-2.93531 2.3771,-5.34375 5.3125,-5.34375 z m -402.0957,12.20505 a 5.3149605,5.3149605 0 0 1 3.8359,1.55468 5.3149605,5.3149605 0 0 1 0,7.51563 l -22.7812,22.7832 c -0.2513,0.31588 -0.5357,0.60025 -0.8516,0.85156 l -1.4219,1.42188 a 5.3149605,5.3149605 0 0 1 -7.5156,0 5.3149605,5.3149605 0 0 1 0,-7.51563 l 25.0547,-25.05664 a 5.3149605,5.3149605 0 0 1 3.6797,-1.55468 z m 24.5508,0 a 5.3149605,5.3149605 0 0 1 3.8379,1.55468 l 25.0546,25.05664 a 5.3149605,5.3149605 0 0 1 0,7.51563 5.3149605,5.3149605 0 0 1 -7.5156,0 l -1.3594,-1.35938 c -0.3916,-0.29784 -0.7409,-0.64473 -1.0371,-1.03711 l -22.6601,-22.66015 a 5.3149605,5.3149605 0 0 1 0,-7.51563 5.3149605,5.3149605 0 0 1 3.6797,-1.55468 z m 81.748,0 a 5.3149605,5.3149605 0 0 1 3.836,1.55468 5.3149605,5.3149605 0 0 1 0,7.51563 l -22.6934,22.69531 c -0.2906,0.38178 -0.6299,0.72106 -1.0117,1.01172 l -1.3496,1.34961 a 5.3149605,5.3149605 0 0 1 -7.5157,0 5.3149605,5.3149605 0 0 1 0,-7.51563 l 25.0547,-25.05664 a 5.3149605,5.3149605 0 0 1 3.6797,-1.55468 z m 24.5508,0 a 5.3149605,5.3149605 0 0 1 3.8379,1.55468 l 25.0547,25.05664 a 5.3149605,5.3149605 0 0 1 0,7.51563 5.3149605,5.3149605 0 0 1 -7.5156,0 l -1.3594,-1.35938 c -0.3916,-0.29784 -0.7409,-0.64473 -1.0371,-1.03711 l -22.6602,-22.66015 a 5.3149605,5.3149605 0 0 1 0,-7.51563 5.3149605,5.3149605 0 0 1 3.6797,-1.55468 z m 81.748,0 a 5.3149605,5.3149605 0 0 1 3.836,1.55468 5.3149605,5.3149605 0 0 1 0,7.51563 l -22.7012,22.70312 c -0.2823,0.36789 -0.6112,0.69481 -0.9785,0.97852 l -1.375,1.375 a 5.3149605,5.3149605 0 0 1 -7.5156,0 5.3149605,5.3149605 0 0 1 0,-7.51563 l 25.0547,-25.05664 a 5.3149605,5.3149605 0 0 1 3.6796,-1.55468 z m 24.5508,0 a 5.3149605,5.3149605 0 0 1 3.8379,1.55468 l 25.0547,25.05664 a 5.3149605,5.3149605 0 0 1 0,7.51563 5.3149605,5.3149605 0 0 1 -7.5156,0 l -1.2207,-1.2207 c -0.4944,-0.3496 -0.9258,-0.781 -1.2754,-1.27539 l -22.5606,-22.56055 a 5.3149605,5.3149605 0 0 1 0,-7.51563 5.3149605,5.3149605 0 0 1 3.6797,-1.55468 z m 81.7481,0 a 5.3149605,5.3149605 0 0 1 3.8359,1.55468 5.3149605,5.3149605 0 0 1 0,7.51563 l -22.7012,22.70312 c -0.2824,0.36789 -0.6112,0.69481 -0.9785,0.97852 l -1.375,1.375 a 5.3149605,5.3149605 0 0 1 -7.5156,0 5.3149605,5.3149605 0 0 1 0,-7.51563 l 25.0547,-25.05664 a 5.3149605,5.3149605 0 0 1 3.6797,-1.55468 z m 24.5508,0 a 5.3149605,5.3149605 0 0 1 3.8378,1.55468 l 25.0547,25.05664 a 5.3149605,5.3149605 0 0 1 0,7.51563 5.3149605,5.3149605 0 0 1 -7.5156,0 l -1.2949,-1.29492 c -0.4237,-0.31378 -0.7975,-0.6876 -1.1113,-1.11133 l -22.6504,-22.65039 a 5.3149605,5.3149605 0 0 1 0,-7.51563 5.3149605,5.3149605 0 0 1 3.6797,-1.55468 z m -472.8477,12.59765 c 2.9353,1e-5 5.3436,2.40844 5.3437,5.34375 -2e-4,2.93539 -2.4084,5.3125 -5.3437,5.3125 -2.9354,-10e-6 -5.3125,-2.37711 -5.3125,-5.3125 -10e-5,-2.93531 2.3771,-5.34375 5.3125,-5.34375 z m 602.3613,0 c 2.9353,1e-5 5.3437,2.40844 5.3438,5.34375 -2e-4,2.93539 -2.4085,5.3125 -5.3438,5.3125 -2.9354,-10e-6 -5.3125,-2.37711 -5.3125,-5.3125 -10e-5,-2.93531 2.3771,-5.34375 5.3125,-5.34375 z m -460.584,10.57031 0,0 c 2.9355,0 5.3124,2.3771 5.3125,5.3125 0,0.75157 -0.1582,1.46544 -0.4394,2.11329 -0.7974,1.92627 -2.6927,3.28125 -4.9082,3.28125 -2.9353,0 -5.3125,-2.37689 -5.3125,-5.3125 l 0,-0.0801 0,-0.002 c 0,-0.15575 0.01,-0.30861 0.023,-0.46094 0.237,-2.7187 2.5408,-4.85156 5.3203,-4.85156 z m 106.3028,0 c 2.9355,0 5.3124,2.3771 5.3125,5.3125 0,0.39153 -0.045,0.77133 -0.125,1.13868 -0.4899,2.42819 -2.6339,4.25587 -5.2071,4.25586 -2.9353,0 -5.3437,-2.37707 -5.3437,-5.3125 0,-0.3914 0.046,-0.77242 0.1269,-1.14063 0.031,-0.15049 0.072,-0.29778 0.1153,-0.44336 0.6557,-2.20237 2.7081,-3.81055 5.1211,-3.81055 z m 106.2988,0 c 2.9355,0 5.3124,2.3771 5.3125,5.3125 0,0.38591 -0.043,0.76057 -0.1211,1.12305 -0.486,2.44064 -2.6582,4.28125 -5.2402,4.28125 -2.9354,-1e-5 -5.3125,-2.37711 -5.3125,-5.3125 0,-0.38656 0.043,-0.76296 0.1211,-1.12695 0.4875,-2.43877 2.6596,-4.27735 5.2402,-4.27735 z m 106.2988,0 c 2.9355,0 5.3124,2.3771 5.3125,5.3125 0,0.58263 -0.096,1.1416 -0.2695,1.66602 -6e-4,0.002 0,0.004 0,0.006 -0.044,0.13408 -0.092,0.26739 -0.1465,0.39649 -0.7843,1.95468 -2.6918,3.33592 -4.9277,3.33593 -2.9355,0 -5.3125,-2.37691 -5.3125,-5.3125 l 0,-0.0645 0,-0.0273 c 0,-2.9354 2.4084,-5.3125 5.3437,-5.3125 z m -389.7832,0.0508 c 2.9354,-2e-5 5.3126,2.40847 5.3125,5.34375 0,2.93542 -2.3771,5.31252 -5.3125,5.31251 -2.9353,0 -5.3437,-2.37708 -5.3437,-5.31251 0,-2.93526 2.4084,-5.34376 5.3437,-5.34375 z m 460.6016,0.01 c 2.9353,10e-6 5.3436,2.40844 5.3437,5.34375 -2e-4,2.93539 -2.4084,5.3125 -5.3437,5.3125 -2.9354,-1e-5 -5.3125,-2.37711 -5.3125,-5.3125 -1e-4,-2.93531 2.3771,-5.34375 5.3125,-5.34375 z m -336.5918,12.32813 a 10.629921,10.629921 0 0 1 10.6289,10.6289 10.629921,10.629921 0 0 1 -10.6289,10.63086 10.629921,10.629921 0 0 1 -10.6309,-10.63086 10.629921,10.629921 0 0 1 10.6309,-10.6289 z m 212.5977,0 a 10.629921,10.629921 0 0 1 10.6308,10.6289 10.629921,10.629921 0 0 1 -10.6308,10.63086 10.629921,10.629921 0 0 1 -10.629,-10.63086 10.629921,10.629921 0 0 1 10.629,-10.6289 z m 17.6835,23.04687 c 2.7518,0 5.0408,2.0702 5.3125,4.75 0.018,0.17871 0,0.37901 0,0.5625 0,2.93541 -2.3773,5.34375 -5.3125,5.34375 -2.9356,0 -5.3126,-2.40834 -5.3125,-5.34375 0,-2.93539 2.3769,-5.3125 5.3125,-5.3125 z m 70.875,0 c 2.9354,0 5.3125,2.40834 5.3125,5.34375 0,2.9353 -2.3771,5.3125 -5.3125,5.3125 -2.9353,0 -5.3125,-2.37719 -5.3125,-5.3125 0,-2.93541 2.3772,-5.34375 5.3125,-5.34375 z m -389.7382,0.0117 c 2.9353,0 5.3125,2.40835 5.3125,5.34375 0,2.9353 -2.3772,5.3125 -5.3125,5.3125 -2.9355,0 -5.3125,-2.3772 -5.3125,-5.3125 0,-2.9354 2.3771,-5.34375 5.3125,-5.34375 z m 70.875,0 c 2.9356,0 5.3125,2.3771 5.3125,5.3125 0,2.9354 -2.3769,5.34375 -5.3125,5.34375 -2.9352,0 -5.3125,-2.40835 -5.3125,-5.34375 0,-0.1835 -0.018,-0.3838 0,-0.5625 0.2717,-2.6798 2.5607,-4.75 5.3125,-4.75 z m 31.9101,0.0273 c 2.9353,0 5.3125,2.3771 5.3125,5.3125 0,2.93531 -2.3774,5.3125 -5.3125,5.3125 -2.9356,0 -5.3125,-2.37719 -5.3125,-5.3125 0,-2.9354 2.377,-5.3125 5.3125,-5.3125 z m 38.9649,0 c 2.9356,0 5.3125,2.3771 5.3125,5.3125 0,2.93531 -2.377,5.3125 -5.3125,5.3125 -2.9354,0 -5.3125,-2.37719 -5.3125,-5.3125 0,-2.9354 2.3774,-5.3125 5.3125,-5.3125 z m 35.4375,0 c 2.9353,0 5.3125,2.3771 5.3125,5.3125 0,2.93531 -2.3773,5.3125 -5.3125,5.3125 -2.9355,0 -5.3125,-2.37719 -5.3125,-5.3125 0,-2.9354 2.3771,-5.3125 5.3125,-5.3125 z m 35.3632,0 c 2.9354,0 5.3125,2.3771 5.3125,5.3125 0,2.93531 -2.377,5.3125 -5.3125,5.3125 -1.0941,0 -2.1102,-0.3301 -2.955,-0.89648 -0.9161,-0.5962 -4.8049,-0.584 -5.6934,0.94922 -0.9301,1.53884 -2.6146,2.57031 -4.5449,2.57031 -2.9354,0 -5.3125,-2.377 -5.3125,-5.3125 0,-2.9352 2.377,-5.3125 5.3125,-5.3125 0.8487,0 1.6479,0.20495 2.3594,0.55859 1.401,0.65278 5.2633,0.54507 6.6504,-1.11132 0.9717,-1.25168 2.4753,-2.07032 4.1835,-2.07032 z m 35.4375,0 c 2.9351,0 5.3125,2.3771 5.3125,5.3125 0,2.93531 -2.3771,5.3125 -5.3125,5.3125 -2.9355,0 -5.3125,-2.37719 -5.3125,-5.3125 0,-2.9354 2.3769,-5.3125 5.3125,-5.3125 z m 38.9649,0 c 2.9355,0 5.3125,2.3771 5.3125,5.3125 0,2.93531 -2.3768,5.3125 -5.3125,5.3125 -2.9353,0 -5.3125,-2.37719 -5.3125,-5.3125 0,-2.9354 2.377,-5.3125 5.3125,-5.3125 z m -322.7422,15.86524 10.6309,0 0,0.0117 7.4394,0 0,106.29882 -10.9824,0 0,-0.0117 -7.0879,0 0,-106.29883 z m 450,0 10.6309,0 0,106.29883 -6.7344,0 0,0.0117 -10.9824,0 0,-106.29882 7.0859,0 0,-0.0117 z m -386.2207,0.0117 10.9844,0 0,106.29882 -10.9844,0 0,-106.29882 z m 322.4395,0 10.9843,0 0,106.29882 -10.9843,0 0,-106.29882 z m -247.6583,19.48047 c 2.9356,10e-6 5.3125,2.40834 5.3125,5.34375 0,2.9353 -2.3769,5.31249 -5.3125,5.3125 -2.9352,-1e-5 -5.3457,-2.3772 -5.3457,-5.3125 0,-2.93541 2.4105,-5.34375 5.3457,-5.34375 z m 38.9747,0 c 2.9356,10e-6 5.3125,2.40834 5.3125,5.34375 0,2.9353 -2.3769,5.31249 -5.3125,5.3125 -2.9352,-1e-5 -5.3438,-2.3772 -5.3438,-5.3125 0,-2.93541 2.4086,-5.34375 5.3438,-5.34375 z m 106.2793,0.0449 c 2.9349,0 5.3125,2.40835 5.3125,5.34375 0,2.9353 -2.3772,5.3125 -5.3125,5.3125 -2.9355,0 -5.3125,-2.3772 -5.3125,-5.3125 0,-2.9354 2.3768,-5.34375 5.3125,-5.34375 z m 38.9492,0 c 2.9353,0 5.3437,2.40835 5.3437,5.34375 0,2.9353 -2.4084,5.3125 -5.3437,5.3125 -2.9357,0 -5.3125,-2.3772 -5.3125,-5.3125 0,-2.9354 2.3768,-5.34375 5.3125,-5.34375 z m 31.8945,0 c 2.9353,0 5.3125,2.40835 5.3125,5.34375 0,2.9354 -2.3772,5.3125 -5.3125,5.3125 -2.9354,0 -5.3125,-2.3771 -5.3125,-5.3125 0,-2.9354 2.3771,-5.34375 5.3125,-5.34375 z m -318.8789,0.01 c 2.9354,1e-5 5.3125,2.3772 5.3125,5.3125 0,2.93541 -2.377,5.3125 -5.3125,5.3125 -2.9353,0 -5.3125,-2.37709 -5.3125,-5.3125 0,-0.18348 -0.018,-0.35256 0,-0.53125 0.272,-2.67982 2.5606,-4.78125 5.3125,-4.78125 z m 70.8789,0 c 2.9355,1e-5 5.3126,2.40834 5.3125,5.34375 0,2.9354 -2.3772,5.31249 -5.3125,5.3125 -2.9352,-10e-6 -5.3124,-2.3771 -5.3125,-5.3125 0,-2.93541 2.3773,-5.34375 5.3125,-5.34375 z m 106.3027,0 c 2.9356,1e-5 5.3125,2.40834 5.3125,5.34375 0,2.9353 -2.3769,5.31249 -5.3125,5.3125 -2.9352,-10e-6 -5.3437,-2.3772 -5.3437,-5.3125 0,-2.93541 2.4085,-5.34375 5.3437,-5.34375 z m 35.4063,0 c 2.9356,1e-5 5.3125,2.40834 5.3125,5.34375 0,2.9353 -2.377,5.31249 -5.3125,5.3125 -2.9354,-10e-6 -5.3125,-2.3772 -5.3125,-5.3125 0,-2.93541 2.3774,-5.34375 5.3125,-5.34375 z m 177.1758,0 c 2.9354,1e-5 5.3125,2.3772 5.3125,5.3125 0,2.93541 -2.3771,5.3125 -5.3125,5.3125 -2.9354,0 -5.3125,-2.37709 -5.3125,-5.3125 0,-0.18348 -0.018,-0.35256 0,-0.53125 0.2719,-2.67982 2.5606,-4.78125 5.3125,-4.78125 z m -10.3828,21.18164 c 2.9402,0 5.3125,2.34067 5.3125,5.28125 0,2.93971 -2.3723,5.34375 -5.3125,5.34375 -2.9403,-2e-5 -5.3125,-2.40404 -5.3125,-5.34375 0,-2.94068 2.3722,-5.28125 5.3125,-5.28125 z m -276.5997,14.20703 c 2.9356,0 5.3125,2.37709 5.3125,5.3125 0,2.93539 -2.3769,5.3125 -5.3125,5.3125 -2.9352,0 -5.3457,-2.37711 -5.3457,-5.3125 0,-2.93539 2.4105,-5.3125 5.3457,-5.3125 z m 38.9747,0 c 2.9356,0 5.3125,2.37709 5.3125,5.3125 0,2.93539 -2.3769,5.3125 -5.3125,5.3125 -2.9352,0 -5.3438,-2.37711 -5.3438,-5.3125 0,-2.93539 2.4086,-5.3125 5.3438,-5.3125 z m -141.7559,0.043 c 2.9354,0 5.3125,2.37711 5.3125,5.3125 0,2.9353 -2.377,5.3125 -5.3125,5.3125 -2.9353,0 -5.3125,-2.37721 -5.3125,-5.3125 0,-0.18351 -0.018,-0.35255 0,-0.53125 0.272,-2.67981 2.5606,-4.78125 5.3125,-4.78125 z m 248.0352,0 c 2.9349,0 5.3125,2.37711 5.3125,5.3125 0,2.93539 -2.3772,5.3125 -5.3125,5.3125 -2.9355,0 -5.3125,-2.37711 -5.3125,-5.3125 0,-2.9354 2.3768,-5.3125 5.3125,-5.3125 z m 38.9492,0 c 2.9353,0 5.3437,2.37711 5.3437,5.3125 0,2.93539 -2.4084,5.3125 -5.3437,5.3125 -2.9357,0 -5.3125,-2.37711 -5.3125,-5.3125 0,-2.9354 2.3768,-5.3125 5.3125,-5.3125 z m 31.8945,0 c 2.9353,0 5.3125,2.40836 5.3125,5.34375 0,2.93531 -2.3772,5.3125 -5.3125,5.3125 -2.9354,0 -5.3125,-2.37721 -5.3125,-5.3125 0,-2.93539 2.3771,-5.34375 5.3125,-5.34375 z m 70.8848,0 c 2.9354,0 5.3125,2.37711 5.3125,5.3125 0,2.9353 -2.3771,5.3125 -5.3125,5.3125 -2.9354,0 -5.3125,-2.37721 -5.3125,-5.3125 0,-0.18351 -0.018,-0.35255 0,-0.53125 0.2719,-2.67981 2.5606,-4.78125 5.3125,-4.78125 z m -318.8848,0.0117 c 2.9353,-10e-6 5.3125,2.4064 5.3125,5.3418 0,2.9353 -2.3772,5.3125 -5.3125,5.3125 -2.9352,0 -5.3124,-2.3772 -5.3125,-5.3125 0,-2.9354 2.3773,-5.34181 5.3125,-5.3418 z m 106.3027,0 c 2.9356,0 5.3125,2.37709 5.3125,5.3125 0,2.93539 -2.3769,5.3125 -5.3125,5.3125 -2.9352,0 -5.3437,-2.37711 -5.3437,-5.3125 0,-2.93541 2.4085,-5.3125 5.3437,-5.3125 z m 35.4063,0 c 2.9356,0 5.3125,2.37709 5.3125,5.3125 0,2.93539 -2.377,5.3125 -5.3125,5.3125 -2.9354,0 -5.3125,-2.37711 -5.3125,-5.3125 0,-2.93541 2.3774,-5.3125 5.3125,-5.3125 z m -109.8223,35.36914 c 2.9352,10e-6 5.3125,2.3771 5.3125,5.3125 0,2.93531 -2.3774,5.3125 -5.3125,5.3125 -2.9356,0 -5.3125,-2.3772 -5.3125,-5.3125 0,-2.9354 2.377,-5.3125 5.3125,-5.3125 z m 38.9746,0 c 2.9352,10e-6 5.3125,2.3771 5.3125,5.3125 0,2.93531 -2.3774,5.3125 -5.3125,5.3125 -2.9356,0 -5.3125,-2.3772 -5.3125,-5.3125 0,-2.9354 2.377,-5.3125 5.3125,-5.3125 z m -70.8925,0.0332 c 2.9355,0 5.3124,2.3771 5.3124,5.3125 0,2.9354 -2.3769,5.34375 -5.3124,5.34375 -2.9353,0 -5.3126,-2.40835 -5.3126,-5.34375 0,-0.1835 -0.018,-0.3838 0,-0.5625 0.2717,-2.6798 2.5606,-4.75 5.3126,-4.75 z m 248.0625,0 c 2.7518,0 5.0409,2.0702 5.3125,4.75 0.018,0.1787 0,0.379 0,0.5625 0,2.9354 -2.3775,5.34375 -5.3125,5.34375 -2.9357,0 -5.3125,-2.40835 -5.3125,-5.34375 0,-2.9354 2.3768,-5.3125 5.3125,-5.3125 z m -318.9102,0.0215 c 2.9354,1e-5 5.3125,2.3771 5.3125,5.3125 0,2.93531 -2.377,5.3125 -5.3125,5.3125 -2.9353,0 -5.3125,-2.3772 -5.3125,-5.3125 0,-0.18348 -0.018,-0.35256 0,-0.53125 0.272,-2.67982 2.5606,-4.78125 5.3125,-4.78125 z m 177.166,0 c 2.9352,1e-5 5.3125,2.3771 5.3125,5.3125 0,2.93531 -2.3774,5.3125 -5.3125,5.3125 -2.9356,0 -5.3125,-2.3772 -5.3125,-5.3125 0,-2.9354 2.377,-5.3125 5.3125,-5.3125 z m 35.4219,0 c 2.9356,1e-5 5.3125,2.3771 5.3125,5.3125 0,2.93531 -2.377,5.3125 -5.3125,5.3125 -2.9354,0 -5.3125,-2.3772 -5.3125,-5.3125 0,-2.9354 2.3774,-5.3125 5.3125,-5.3125 z m 35.4473,0 c 2.9349,1e-5 5.3125,2.3771 5.3125,5.3125 0,2.93531 -2.3772,5.3125 -5.3125,5.3125 -2.9355,0 -5.3125,-2.3772 -5.3125,-5.3125 0,-2.9354 2.3768,-5.3125 5.3125,-5.3125 z m 38.9648,0 c 2.9357,1e-5 5.3123,2.3771 5.3125,5.3125 0,2.93531 -2.3766,5.3125 -5.3125,5.3125 -2.9349,0 -5.3127,-2.3772 -5.3125,-5.3125 0,-2.9354 2.3774,-5.3125 5.3125,-5.3125 z m 102.7695,0 c 2.9352,1e-5 5.3125,2.3771 5.3125,5.3125 0,2.93531 -2.3774,5.3125 -5.3125,5.3125 -2.9356,0 -5.3125,-2.3772 -5.3125,-5.3125 0,-0.18348 -0.018,-0.35256 0,-0.53125 0.2722,-2.67982 2.5604,-4.78125 5.3125,-4.78125 z m -425.1933,35.39258 c 2.9353,2e-5 5.3125,2.40835 5.3125,5.34375 0,2.93528 -2.3772,5.31248 -5.3125,5.3125 -2.9355,-2e-5 -5.3125,-2.37722 -5.3125,-5.3125 0,-2.9354 2.3771,-5.34374 5.3125,-5.34375 z m 460.6308,0 c 2.9353,2e-5 5.3125,2.40835 5.3125,5.34375 0,2.93528 -2.3772,5.31248 -5.3125,5.3125 -2.9355,-2e-5 -5.3125,-2.37722 -5.3125,-5.3125 0,-2.9354 2.3771,-5.34374 5.3125,-5.34375 z m -248.039,0.0273 c 2.9354,10e-6 5.3125,2.37711 5.3125,5.3125 0,2.93531 -2.3771,5.31251 -5.3125,5.3125 -2.9354,0 -5.3125,-2.37719 -5.3125,-5.3125 0,-0.1835 -0.018,-0.35256 0,-0.53125 0.2719,-2.67981 2.5607,-4.78125 5.3125,-4.78125 z m 35.4316,0 c 2.9355,10e-6 5.3125,2.37711 5.3125,5.3125 0,2.93531 -2.377,5.31251 -5.3125,5.3125 -2.9353,0 -5.3125,-2.37719 -5.3125,-5.3125 0,-0.1835 -0.018,-0.35256 0,-0.53125 0.272,-2.67981 2.5607,-4.78125 5.3125,-4.78125 z m 35.4297,0.01 c 2.752,0 5.0403,2.10145 5.3125,4.78125 0.018,0.1787 -1e-4,0.34775 0,0.53125 0,2.9353 -2.377,5.3125 -5.3125,5.3125 -2.9352,0 -5.3127,-2.3772 -5.3125,-5.3125 0,-2.9354 2.3773,-5.3125 5.3125,-5.3125 z m 38.9648,0 c 2.7519,0 5.0406,2.10145 5.3125,4.78125 0.018,0.1787 0,0.34775 0,0.53125 0,2.9353 -2.3771,5.3125 -5.3125,5.3125 -2.9352,0 -5.3125,-2.3772 -5.3125,-5.3125 0,-2.9354 2.3773,-5.3125 5.3125,-5.3125 z m 31.8789,0 c 2.7518,0 5.0408,2.0702 5.3125,4.75 0.018,0.1786 0,0.379 0,0.5625 0,2.9354 -2.3773,5.3125 -5.3125,5.3125 -2.9356,0 -5.3126,-2.3771 -5.3125,-5.3125 0,-2.9353 2.3769,-5.3125 5.3125,-5.3125 z m 70.875,0 c 2.9354,0 5.3125,2.40835 5.3125,5.34375 0,2.9353 -2.3771,5.3125 -5.3125,5.3125 -2.9353,0 -5.3125,-2.3772 -5.3125,-5.3125 0,-2.9354 2.3772,-5.34375 5.3125,-5.34375 z m -389.7382,0.0117 c 2.9353,0 5.3125,2.40837 5.3125,5.34375 0,2.9353 -2.3772,5.31251 -5.3125,5.3125 -2.9355,0 -5.3125,-2.37719 -5.3125,-5.3125 0,-2.93538 2.3771,-5.34375 5.3125,-5.34375 z m 70.875,0 c 2.9356,0 5.3125,2.37719 5.3125,5.3125 0,2.93538 -2.3769,5.31249 -5.3125,5.3125 -2.9352,0 -5.3125,-2.37712 -5.3125,-5.3125 0,-0.1835 -0.018,-0.3839 0,-0.5625 0.2717,-2.67981 2.5607,-4.75 5.3125,-4.75 z m 31.8789,0 c 2.9354,0 5.3125,2.37709 5.3125,5.3125 0,2.93529 -2.3771,5.3125 -5.3125,5.3125 -2.9354,0 -5.3125,-2.37721 -5.3125,-5.3125 0,-0.1835 -0.018,-0.35255 0,-0.53125 0.2719,-2.6798 2.5606,-4.78126 5.3125,-4.78125 z m 38.9648,0 c 2.9353,0 5.3125,2.37709 5.3125,5.3125 0,2.93529 -2.3772,5.3125 -5.3125,5.3125 -2.9354,0 -5.3125,-2.37721 -5.3125,-5.3125 0,-0.1835 -0.018,-0.35255 0,-0.53125 0.2719,-2.6798 2.5607,-4.78126 5.3125,-4.78125 z m -120.459,5.27734 27.5586,0 c 3.9369,0 3.9375,-9.9e-4 3.9375,3.93555 l 0,27.56054 c 0,3.93701 -6e-4,3.93555 -3.9375,3.93555 l -27.5586,0 c -3.937,0 -3.9375,9.9e-4 -3.9375,-3.93555 l 0,-27.56054 c 0,-3.93701 5e-4,-3.93555 3.9375,-3.93555 z m 318.1094,0 22.0488,0 c 3.1496,0 3.1485,-9.9e-4 3.1485,3.93555 l 0,27.56054 c 0,3.93701 0,3.93555 -3.1485,3.93555 l -22.0488,0 c -3.1497,0 -3.1484,9.9e-4 -3.1484,-3.93555 l 0,-27.56054 c 0,-3.93701 0,-3.93555 3.1484,-3.93555 z m 40.002,8.5918 c 2.9402,1e-5 5.3125,2.34064 5.3125,5.28125 0,2.93969 -2.3722,5.34375 -5.3125,5.34375 -2.9403,1e-5 -5.3125,-2.40405 -5.3125,-5.34375 0,-2.94071 2.3722,-5.28125 5.3125,-5.28125 z m -184.5,18 c 2.9402,1e-5 5.3125,2.34064 5.3125,5.28125 0,2.93969 -2.3723,5.34375 -5.3125,5.34375 -2.9403,1e-5 -5.3125,-2.40385 -5.3125,-5.34375 0,-2.94071 2.3722,-5.28125 5.3125,-5.28125 z m -230.4336,3.4375 c 2.9353,0 5.3125,2.3769 5.3125,5.3125 0,2.9353 -2.3772,5.34375 -5.3125,5.34375 -2.9355,0 -5.3125,-2.40865 -5.3125,-5.34375 0,-2.9356 2.377,-5.3125 5.3125,-5.3125 z m 460.6308,0 c 2.9353,0 5.3125,2.3769 5.3125,5.3125 0,2.9353 -2.3772,5.34375 -5.3125,5.34375 -2.9355,0 -5.3125,-2.40865 -5.3125,-5.34375 0,-2.9356 2.377,-5.3125 5.3125,-5.3125 z m -425.1972,0.0488 c 2.9353,0 5.3125,2.3769 5.3125,5.3125 0,2.93531 -2.3772,5.34375 -5.3125,5.34375 -2.9355,0 -5.3125,-2.40864 -5.3125,-5.34375 0,-2.93559 2.377,-5.3125 5.3125,-5.3125 z m 212.6992,0.041 c 2.9353,0 5.3437,2.3771 5.3437,5.3125 0,2.9353 -2.4084,5.34375 -5.3437,5.34375 -2.9354,0 -5.3126,-2.40845 -5.3125,-5.34375 0,-2.9354 2.3771,-5.3125 5.3125,-5.3125 z m 35.4336,0 c 2.9353,0 5.3437,2.3771 5.3437,5.3125 0,2.9353 -2.4084,5.34375 -5.3437,5.34375 -2.9354,0 -5.3126,-2.40845 -5.3125,-5.34375 0,-2.9354 2.3771,-5.3125 5.3125,-5.3125 z m 38.9765,0 c 2.9354,0 5.3438,2.3771 5.3438,5.3125 0,2.9353 -2.4083,5.34375 -5.3438,5.34375 -2.9352,0 -5.3128,-2.40845 -5.3125,-5.34375 0,-2.9354 2.3773,-5.3125 5.3125,-5.3125 z m 31.8887,0 c 2.9353,0 5.344,2.3771 5.3438,5.3125 0,2.9353 -2.4085,5.34375 -5.3438,5.34375 -2.9354,0 -5.3127,-2.40845 -5.3125,-5.34375 0,-2.9354 2.3771,-5.3125 5.3125,-5.3125 z m 70.8828,0 c 2.9356,0 5.3125,2.3769 5.3125,5.3125 0,2.9353 -2.3769,5.34375 -5.3125,5.34375 -2.9351,0 -5.3125,-2.40865 -5.3125,-5.34375 0,-2.9356 2.3774,-5.3125 5.3125,-5.3125 z m -318.8965,0.0156 c 2.935,2e-4 5.3143,2.37945 5.3145,5.31445 -3e-4,2.935 -2.3795,5.31416 -5.3145,5.31445 -2.9357,8e-4 -5.3162,-2.37865 -5.3164,-5.31445 2e-4,-2.9357 2.3807,-5.31525 5.3164,-5.31445 z m 31.8887,0 c 2.9357,-8e-4 5.3161,2.37875 5.3164,5.31445 -6e-4,2.9358 -2.3807,5.31525 -5.3164,5.31445 -2.935,-3e-4 -5.3143,-2.37945 -5.3145,-5.31445 2e-4,-2.935 2.3795,-5.31425 5.3145,-5.31445 z m 38.9766,0 c 2.9354,0 5.3126,2.3771 5.3125,5.3125 0,2.9353 -2.3769,5.3125 -5.3125,5.3125 -2.9352,0 -5.3124,-2.3772 -5.3125,-5.3125 0,-2.9354 2.3773,-5.3125 5.3125,-5.3125 z m 35.4336,0 c 2.9352,0 5.3125,2.3771 5.3125,5.3125 0,2.9353 -2.3773,5.3125 -5.3125,5.3125 -2.9356,0 -5.3125,-2.3772 -5.3125,-5.3125 0,-2.9354 2.3769,-5.3125 5.3125,-5.3125 z m -288.9434,5.31445 10.9844,0 0,16.59375 0,18.8418 -10.9844,0 0,-18.82813 0,-16.60742 z m 602.3574,0.004 10.9844,0 0,16.59375 0,18.84179 -10.9844,0 0,-18.82812 0,-16.60742 z m -401.9863,7.0625 a 10.629921,10.629921 0 0 1 10.6289,10.63086 10.629921,10.629921 0 0 1 -10.6289,10.6289 10.629921,10.629921 0 0 1 -10.6309,-10.6289 10.629921,10.629921 0 0 1 10.6309,-10.63086 z m 212.5977,0 a 10.629921,10.629921 0 0 1 10.6308,10.63086 10.629921,10.629921 0 0 1 -10.6308,10.6289 10.629921,10.629921 0 0 1 -10.629,-10.6289 10.629921,10.629921 0 0 1 10.629,-10.63086 z m -372.0294,23.04296 c 2.9354,0 5.3126,2.377 5.3126,5.3125 0,2.9353 -2.3771,5.34375 -5.3126,5.34375 -2.9355,-1e-4 -5.3437,-2.40845 -5.3437,-5.34375 0,-2.9354 2.4082,-5.3125 5.3437,-5.3125 z m 35.4336,0 c 2.9353,0 5.3125,2.377 5.3125,5.3125 0,2.9353 -2.3772,5.34375 -5.3125,5.34375 -2.9354,-1e-4 -5.3437,-2.40845 -5.3437,-5.34375 0,-2.9354 2.4082,-5.3125 5.3437,-5.3125 z m 35.418,0 c 2.9354,0 5.3125,2.377 5.3125,5.3125 0,2.9355 -2.3771,5.34365 -5.3125,5.34375 -2.9353,-1e-4 -5.3125,-2.40835 -5.3125,-5.34375 0,-2.9354 2.3772,-5.3125 5.3125,-5.3125 z m 141.7324,0 c 2.9354,0 5.3125,2.3771 5.3125,5.3125 0,2.9355 -2.377,5.34365 -5.3125,5.34375 -2.9353,-1e-4 -5.3125,-2.40835 -5.3125,-5.34375 0,-2.9354 2.3772,-5.3125 5.3125,-5.3125 z m 35.4336,0 c 2.9352,0 5.3125,2.3771 5.3125,5.3125 0,2.9355 -2.3773,5.34365 -5.3125,5.34375 -2.9356,-1e-4 -5.3125,-2.40835 -5.3125,-5.34375 0,-2.9354 2.3769,-5.3125 5.3125,-5.3125 z m 35.416,0 c 2.9353,0 5.3438,2.3771 5.3438,5.3125 0,2.9353 -2.4085,5.34375 -5.3438,5.34375 -2.9354,-1e-4 -5.3126,-2.40835 -5.3125,-5.34375 0,-2.9354 2.3771,-5.3125 5.3125,-5.3125 z m 35.4336,0 c 2.9353,0 5.3438,2.3771 5.3438,5.3125 0,2.9353 -2.4085,5.34375 -5.3438,5.34375 -2.9354,-1e-4 -5.3125,-2.40835 -5.3125,-5.34375 0,-2.9354 2.3768,-5.3125 5.3125,-5.3125 z m 35.4336,0 c 2.9354,0 5.344,2.3771 5.3438,5.3125 1e-4,2.9353 -2.4083,5.34375 -5.3438,5.34375 -2.9353,-1e-4 -5.3128,-2.40835 -5.3125,-5.34375 0,-2.9354 2.3772,-5.3125 5.3125,-5.3125 z m 35.4317,0 c 2.9353,0 5.3439,2.3771 5.3437,5.3125 0,2.9353 -2.4084,5.34375 -5.3437,5.34375 -2.9354,-1e-4 -5.3126,-2.40835 -5.3125,-5.34375 0,-2.9354 2.3771,-5.3125 5.3125,-5.3125 z m 106.3008,0 c 2.9353,0 5.3437,2.3771 5.3437,5.3125 0,2.9353 -2.4084,5.34375 -5.3437,5.34375 -2.9354,-1e-4 -5.3126,-2.40835 -5.3125,-5.34375 0,-2.9354 2.3771,-5.3125 5.3125,-5.3125 z m 35.4336,0 c 2.9352,0 5.3437,2.3771 5.3437,5.3125 0,2.9353 -2.4085,5.34375 -5.3437,5.34375 -2.9354,-1e-4 -5.3126,-2.40835 -5.3125,-5.34375 0,-2.9354 2.3771,-5.3125 5.3125,-5.3125 z m -425.1817,0.0156 c 2.9359,2.5e-4 5.3153,2.38067 5.3145,5.31641 -3e-4,2.93503 -2.3795,5.31418 -5.3145,5.31445 -2.9349,-3.3e-4 -5.3142,-2.37947 -5.3144,-5.31445 -8e-4,-2.93569 2.3787,-5.3161 5.3144,-5.31641 z m 35.4336,0 c 2.9357,2.5e-4 5.3153,2.38067 5.3145,5.31641 -3e-4,2.93503 -2.3795,5.31418 -5.3145,5.31445 -2.9357,7.8e-4 -5.316,-2.3787 -5.3164,-5.31445 -7e-4,-2.93649 2.3798,-5.31721 5.3164,-5.31641 z m 35.4316,0 c 2.9365,-8e-4 5.3173,2.37991 5.3165,5.31641 -3e-4,2.93575 -2.3808,5.31522 -5.3165,5.31445 -2.935,-2.8e-4 -5.3141,-2.37943 -5.3144,-5.31445 -8e-4,-2.93573 2.3786,-5.31616 5.3144,-5.31641 z m 248.0313,0 c 2.9351,0 5.3125,2.3771 5.3125,5.3125 0,2.9352 -2.3775,5.3125 -5.3125,5.3125 -2.9357,0 -5.3125,-2.3773 -5.3125,-5.3125 0,-2.9354 2.3768,-5.3125 5.3125,-5.3125 z m 35.4336,0 c 2.9353,0 5.3125,2.3771 5.3125,5.3125 0,2.9352 -2.3772,5.3125 -5.3125,5.3125 -2.9354,0 -5.3125,-2.3773 -5.3125,-5.3125 0,-2.9354 2.3771,-5.3125 5.3125,-5.3125 z m -427.1758,33.50781 a 5.3149605,5.3149605 0 0 1 3.8359,1.55664 l 1.8711,1.8711 c 0.028,0.0272 0.055,0.0542 0.082,0.082 l 23.1015,23.10156 a 5.3149605,5.3149605 0 0 1 0,7.51563 5.3149605,5.3149605 0 0 1 -7.5156,0 l -23.0312,-23.03126 c -0.078,-0.074 -0.153,-0.14836 -0.2266,-0.22656 l -1.7969,-1.79687 a 5.3149605,5.3149605 0 0 1 0,-7.51563 5.3149605,5.3149605 0 0 1 3.6797,-1.55664 z m 74.6621,0 a 5.3149605,5.3149605 0 0 1 3.836,1.55664 5.3149605,5.3149605 0 0 1 0,7.51563 l -1.7461,1.74609 c -0.105,0.1146 -0.2136,0.22303 -0.3282,0.32813 l -22.9804,22.98047 a 5.3149605,5.3149605 0 0 1 -7.5176,0 5.3149605,5.3149605 0 0 1 0,-7.51563 l 25.0566,-25.05469 a 5.3149605,5.3149605 0 0 1 3.6797,-1.55664 z m 315.1016,0 a 5.3149605,5.3149605 0 0 1 3.8359,1.55664 l 25.0547,25.05469 a 5.3149605,5.3149605 0 0 1 0,7.51563 5.3149605,5.3149605 0 0 1 -7.5156,0 l -23.0332,-23.03321 c -0.076,-0.072 -0.149,-0.1447 -0.2207,-0.2207 l -1.8008,-1.80078 a 5.3149605,5.3149605 0 0 1 0,-7.51563 5.3149605,5.3149605 0 0 1 3.6797,-1.55664 z m 74.6621,0 a 5.3149605,5.3149605 0 0 1 3.8359,1.55664 5.3149605,5.3149605 0 0 1 0,7.51563 l -1.7636,1.76367 c -0.092,0.1 -0.1875,0.19451 -0.2872,0.28711 l -23.0039,23.00391 a 5.3149605,5.3149605 0 0 1 -7.5175,0 5.3149605,5.3149605 0 0 1 0,-7.51563 l 23.1386,-23.13672 c 0.01,-0.006 0.012,-0.0117 0.018,-0.0176 l 1.9004,-1.90039 a 5.3149605,5.3149605 0 0 1 3.6797,-1.55664 z m -497.8653,1.9082 c 2.9354,0 5.3126,2.37706 5.3126,5.3125 0,2.93532 -2.3771,5.34376 -5.3126,5.34376 -2.9355,-1.1e-4 -5.3437,-2.40844 -5.3437,-5.34376 0,-2.93533 2.4082,-5.3125 5.3437,-5.3125 z m 70.8516,0 0.012,0 c 0,-1e-5 0.01,0 0.012,0 2.9357,0 5.3123,2.37713 5.3126,5.3125 0,1.70932 -0.8194,3.21395 -2.0723,4.18555 -0.9026,0.7146 -2.0266,1.15811 -3.2637,1.15821 -2.1615,-1.1e-4 -4.0158,-1.30727 -4.8457,-3.16797 -0.015,-0.034 -0.034,-0.067 -0.049,-0.10157 -0.2734,-0.6373 -0.4258,-1.3379 -0.4258,-2.07422 0,-0.91668 0.2359,-1.77881 0.6484,-2.53124 l 0,-0.002 c 0.031,-0.0566 0.069,-0.10868 0.1016,-0.16406 0.9246,-1.5629 2.6218,-2.61524 4.5703,-2.61524 z m 177.166,0 c 2.9352,0 5.3125,2.37717 5.3125,5.3125 0,2.93552 -2.3773,5.34364 -5.3125,5.34376 -2.9356,-1.1e-4 -5.3125,-2.40835 -5.3125,-5.34376 0,-2.93533 2.3769,-5.3125 5.3125,-5.3125 z m 35.4336,0 c 2.9353,0 5.3125,2.37717 5.3125,5.3125 0,2.93552 -2.3772,5.34364 -5.3125,5.34376 -2.9355,-1.1e-4 -5.3125,-2.40835 -5.3125,-5.34376 0,-2.93533 2.377,-5.3125 5.3125,-5.3125 z m 70.8496,0 c 2.9354,0 5.344,2.37717 5.3438,5.3125 1e-4,2.93532 -2.4083,5.34376 -5.3438,5.34376 -2.9353,-1.1e-4 -5.3128,-2.40835 -5.3125,-5.34376 0,-2.93533 2.3772,-5.3125 5.3125,-5.3125 z m 35.4317,0 c 2.9353,0 5.3439,2.37717 5.3437,5.3125 0,2.93532 -2.4084,5.34376 -5.3437,5.34376 -2.9354,-1.1e-4 -5.3126,-2.40835 -5.3125,-5.34376 0,-2.93533 2.3771,-5.3125 5.3125,-5.3125 z m 70.9062,0 c 2.9355,0 5.3124,2.37713 5.3125,5.3125 0,1.84182 -0.9369,3.46312 -2.3593,4.41602 l -0.01,0.01 c -0.134,0.09 -0.2718,0.1727 -0.4141,0.25 -0.7586,0.4172 -1.6292,0.65625 -2.5566,0.65625 -2.3913,0 -4.4113,-1.57635 -5.0782,-3.74805 -0.016,-0.052 -0.026,-0.1059 -0.041,-0.1582 -0.1272,-0.4533 -0.2011,-0.92838 -0.2011,-1.42188 0,-2.93538 2.4084,-5.3125 5.3437,-5.3125 l 0,-0.004 z m 70.8282,0 c 2.9353,0 5.3437,2.37717 5.3437,5.3125 0,2.93532 -2.4084,5.34376 -5.3437,5.34376 -2.9354,-1.1e-4 -5.3126,-2.40835 -5.3125,-5.34376 0,-2.93533 2.3771,-5.3125 5.3125,-5.3125 z m -318.8887,0.0117 c 2.9365,-8e-4 5.3173,2.37997 5.3164,5.31641 -2e-4,2.9358 -2.3807,5.31525 -5.3164,5.31445 -2.935,-3e-4 -5.3143,-2.37945 -5.3145,-5.31445 -7e-4,-2.93574 2.3787,-5.31609 5.3145,-5.31641 z m 106.2988,0 c 2.9366,-8e-4 5.3172,2.37997 5.3164,5.31641 -2e-4,2.9358 -2.3805,5.31525 -5.3164,5.31445 -2.9351,-3e-4 -5.314,-2.37945 -5.3144,-5.31445 -7e-4,-2.93574 2.3787,-5.31609 5.3144,-5.31641 z m -177.1582,0.004 c 2.9357,2.3e-4 5.3153,2.38073 5.3145,5.31641 -3e-4,2.935 -2.3795,5.31415 -5.3145,5.31445 -2.9357,8e-4 -5.316,-2.37865 -5.3164,-5.31445 -7e-4,-2.93643 2.3798,-5.31722 5.3164,-5.31641 z m 35.4316,0 c 2.9365,-8.2e-4 5.3173,2.37998 5.3165,5.31641 -3e-4,2.9358 -2.3808,5.31525 -5.3165,5.31445 -2.935,-3e-4 -5.3141,-2.37945 -5.3144,-5.31445 -8e-4,-2.93568 2.3786,-5.31616 5.3144,-5.31641 z m -218.0898,5.30859 10.9844,0 0,16.59375 0,18.8418 -10.9844,0 0,-18.82812 0,-16.60743 z m 602.3574,0 10.9844,0 0,16.59375 0,18.8418 -10.9844,0 0,-18.82812 0,-16.60743 z m -348.8437,30.09375 c 1.4737,0 2.8055,0.60026 3.7676,1.56836 0.2236,0.2236 0.4225,0.47007 0.6035,0.73047 0.01,0.015 0.025,0.028 0.035,0.043 0.096,0.1406 0.1836,0.2876 0.2656,0.4375 0.4138,0.7562 0.6504,1.62162 0.6504,2.54492 0,2.9355 -2.3773,5.34355 -5.3125,5.34375 -2.0244,0 -3.7829,-1.14476 -4.6797,-2.81836 -0.079,-0.1459 -0.1492,-0.29737 -0.2149,-0.45117 -0.2737,-0.6406 -0.4277,-1.34494 -0.4277,-2.08594 0,-2.9354 2.377,-5.3125 5.3125,-5.3125 z m 35.4375,0 c 1.8393,0 3.4587,0.93432 4.4121,2.35352 0.095,0.142 0.1839,0.28815 0.2656,0.43945 0.06,0.1112 0.1116,0.2261 0.1641,0.3418 0.017,0.037 0.037,0.072 0.053,0.10937 0.272,0.6389 0.4238,1.34158 0.4238,2.08008 0,2.9355 -2.3773,5.34355 -5.3125,5.34375 -2.2082,0 -4.0983,-1.36241 -4.9004,-3.28711 -0.065,-0.1538 -0.1232,-0.31185 -0.1738,-0.47265 -0.1583,-0.5038 -0.2442,-1.03951 -0.2442,-1.59571 0,-2.9354 2.3771,-5.3125 5.3125,-5.3125 z m 35.4375,0 c 2.3891,0 4.4073,1.57544 5.0761,3.74414 0.05,0.1628 0.094,0.32895 0.129,0.49805 7e-4,0 0,0.0117 0,0.0117 0.034,0.1699 0.06,0.34228 0.078,0.51758 0.019,0.1825 0.029,0.36709 0.029,0.55469 0,2.9355 -2.3772,5.34355 -5.3125,5.34375 -2.574,0 -4.7178,-1.85016 -5.2071,-4.28516 -0.034,-0.1685 -0.06,-0.33977 -0.078,-0.51367 -0.019,-0.1826 -0.029,-0.36719 -0.029,-0.55469 0,-2.9354 2.3772,-5.3125 5.3125,-5.3125 l 0,-0.004 z m 35.4375,0 c 2.9355,0 5.3124,2.3771 5.3125,5.3125 0,0.1875 -0.01,0.37209 -0.029,0.55469 -0.018,0.1745 -0.044,0.34653 -0.078,0.51563 -0.4893,2.435 -2.6334,4.28505 -5.2071,4.28515 -1.8329,0 -3.4475,-0.93772 -4.4023,-2.35742 -0.5887,-0.8527 -0.9356,-1.88244 -0.9356,-2.99414 10e-5,-2.9354 2.4085,-5.3125 5.3438,-5.3125 l 0,-0.004 z m -212.5782,0.008 0,0.006 c 2.9355,0 5.3124,2.3771 5.3125,5.3125 0,1.4782 -0.6048,2.81259 -1.5781,3.77539 -0.2356,0.2355 -0.4953,0.44656 -0.7715,0.63476 -0.8516,0.5801 -1.8782,0.92178 -2.9863,0.92188 -2.568,-2e-4 -4.7113,-1.82254 -5.207,-4.24414 -4e-4,0 4e-4,-0.002 0,-0.0117 -0.073,-0.3497 -0.1133,-0.71083 -0.1133,-1.08203 0,-2.9354 2.4084,-5.3125 5.3437,-5.3125 z m -70.873,0.004 0,0.002 c 0.3669,0 0.7245,0.039 1.0704,0.10937 0,5e-4 0.01,0 0.01,0 0.3431,0.071 0.675,0.17324 0.9903,0.30664 0.013,0.01 0.026,0.0135 0.039,0.0195 1.8898,0.8137 3.2129,2.68981 3.2129,4.87891 0,1.1047 -0.3377,2.12891 -0.9141,2.97851 -0.082,0.1216 -0.1863,0.2237 -0.2773,0.33789 -0.9734,1.22232 -2.4511,2.02344 -4.1289,2.02344 -2.9354,-1e-4 -5.3438,-2.40845 -5.3438,-5.34375 0,-2.9354 2.4083,-5.3125 5.3438,-5.3125 z m -35.4356,0.002 c 2.9354,0 5.3126,2.377 5.3126,5.3125 0,2.9353 -2.3771,5.34375 -5.3126,5.34375 -2.9355,-1e-4 -5.3437,-2.40845 -5.3437,-5.34375 0,-2.9354 2.4082,-5.3125 5.3437,-5.3125 z m 70.8516,0 c 2.9354,0 5.3125,2.377 5.3125,5.3125 0,2.9355 -2.3771,5.34355 -5.3125,5.34375 -2.9353,-1e-4 -5.3125,-2.40835 -5.3125,-5.34375 0,-2.9354 2.3772,-5.3125 5.3125,-5.3125 z m 283.4492,0 c 2.9354,0 5.344,2.3771 5.3438,5.3125 1e-4,2.9353 -2.4083,5.34375 -5.3438,5.34375 -2.9353,-1e-4 -5.3128,-2.40835 -5.3125,-5.34375 0,-2.9354 2.3772,-5.3125 5.3125,-5.3125 z m 35.4317,0 c 2.9353,0 5.3439,2.3771 5.3437,5.3125 0,2.9353 -2.4084,5.34375 -5.3437,5.34375 -2.9354,-1e-4 -5.3126,-2.40835 -5.3125,-5.34375 0,-2.9354 2.3771,-5.3125 5.3125,-5.3125 z m 35.4726,0 0.01,0 c 2.9319,0.004 5.3046,2.37973 5.3047,5.3125 0,2.0259 -1.1322,3.78554 -2.7988,4.68164 -0.7527,0.4088 -1.616,0.64257 -2.5332,0.64257 -2.2067,0 -4.0954,-1.34401 -4.8984,-3.25781 -0.066,-0.1546 -0.1245,-0.31301 -0.1758,-0.47461 l 0,-0.0117 c -0.1569,-0.4992 -0.2422,-1.02967 -0.2422,-1.58007 0,-2.93277 2.4042,-5.30825 5.3359,-5.3125 z m 70.8282,0 c 0.1894,0 0.3759,0.008 0.5605,0.0273 2.6902,0.2621 4.7909,2.52791 4.791,5.28711 0,1.8469 -0.9421,3.47203 -2.3711,4.42383 -0.011,0.01 -0.022,0.0154 -0.033,0.0234 -0.8468,0.5647 -1.8605,0.89454 -2.9472,0.89454 -2.9354,-1e-4 -5.3126,-2.40835 -5.3125,-5.34375 0,-2.9354 2.3771,-5.3125 5.3125,-5.3125 z m 35.4336,0 c 2.9352,0 5.3437,2.3771 5.3437,5.3125 0,2.9353 -2.4085,5.34375 -5.3437,5.34375 -2.9354,-1e-4 -5.3126,-2.40835 -5.3125,-5.34375 0,-2.9354 2.3771,-5.3125 5.3125,-5.3125 z m -389.7481,0.0137 c 2.9357,3e-4 5.3153,2.3807 5.3145,5.3164 -3e-4,2.935 -2.3795,5.31416 -5.3145,5.31446 -2.9357,8e-4 -5.316,-2.37866 -5.3164,-5.31446 -7e-4,-2.9365 2.3798,-5.3172 5.3164,-5.3164 z m 35.4316,0 c 2.9365,-8e-4 5.3173,2.3799 5.3165,5.3164 -3e-4,2.9358 -2.3808,5.31526 -5.3165,5.31446 -2.935,-3e-4 -5.3141,-2.37946 -5.3144,-5.31446 -8e-4,-2.9357 2.3786,-5.3161 5.3144,-5.3164 z m 283.4649,0 c 2.9353,0 5.3125,2.3771 5.3125,5.3125 0,2.9352 -2.3772,5.3125 -5.3125,5.3125 -2.9354,0 -5.3125,-2.3773 -5.3125,-5.3125 0,-2.9354 2.3771,-5.3125 5.3125,-5.3125 z m -402.1211,12.25195 a 5.3149605,5.3149605 0 0 1 3.8359,1.55469 5.3149605,5.3149605 0 0 1 0,7.51562 l -22.9355,22.9375 c -0.1473,0.1674 -0.3038,0.32301 -0.4707,0.47071 l -1.6485,1.64843 a 5.3149605,5.3149605 0 0 1 -7.5156,0 5.3149605,5.3149605 0 0 1 0,-7.51562 l 25.0547,-25.05664 a 5.3149605,5.3149605 0 0 1 3.6797,-1.55469 z m 24.5508,0 a 5.3149605,5.3149605 0 0 1 3.8379,1.55469 l 25.0547,25.05664 a 5.3149605,5.3149605 0 0 1 0,7.51562 5.3149605,5.3149605 0 0 1 -7.5157,0 l -1.7656,-1.76562 c -0.078,-0.074 -0.1533,-0.14826 -0.2266,-0.22656 l -23.0644,-23.06446 a 5.3149605,5.3149605 0 0 1 0,-7.51562 5.3149605,5.3149605 0 0 1 3.6797,-1.55469 z m 365.2129,0 a 5.3149605,5.3149605 0 0 1 3.8359,1.55469 5.3149605,5.3149605 0 0 1 0,7.51562 l -23.0156,23.01758 c -0.098,0.1065 -0.2003,0.20659 -0.3067,0.30469 l -1.7324,1.73437 a 5.3149605,5.3149605 0 0 1 -7.5156,0 5.3149605,5.3149605 0 0 1 0,-7.51562 l 25.0547,-25.05664 a 5.3149605,5.3149605 0 0 1 3.6797,-1.55469 z m 24.5507,0 a 5.3149605,5.3149605 0 0 1 3.8379,1.55469 l 25.0547,25.05664 a 5.3149605,5.3149605 0 0 1 0,7.51562 5.3149605,5.3149605 0 0 1 -7.5156,0 l -1.7559,-1.75586 c -0.084,-0.079 -0.1652,-0.15964 -0.2441,-0.24414 l -23.0566,-23.05664 a 5.3149605,5.3149605 0 0 1 0,-7.51562 5.3149605,5.3149605 0 0 1 3.6796,-1.55469 z m -244.5078,3.53125 a 5.3149605,5.3149605 0 0 1 3.836,1.55664 l 19.5136,19.51367 c 0.076,0.072 0.149,0.14471 0.2207,0.22071 l 5.3204,5.32031 a 5.3149605,5.3149605 0 0 1 0,7.51562 5.3149605,5.3149605 0 0 1 -7.5157,0 l -25.0547,-25.05468 a 5.3149605,5.3149605 0 0 1 0,-7.51563 5.3149605,5.3149605 0 0 1 3.6797,-1.55664 z m 74.6621,0 a 5.3149605,5.3149605 0 0 1 3.836,1.55664 5.3149605,5.3149605 0 0 1 0,7.51563 l -19.4434,19.44336 c -0.1108,0.122 -0.2262,0.23635 -0.3476,0.34765 l -5.2637,5.26367 a 5.3149605,5.3149605 0 0 1 -7.5176,0 5.3149605,5.3149605 0 0 1 0,-7.51562 l 25.0567,-25.05469 a 5.3149605,5.3149605 0 0 1 3.6796,-1.55664 z m -37.2265,1.9082 c 2.9355,0 5.3124,2.3771 5.3125,5.3125 0,2.9354 -2.377,5.3125 -5.3125,5.3125 -2.9353,0 -5.3438,-2.3771 -5.3438,-5.3125 0,-2.9354 2.4085,-5.3125 5.3438,-5.3125 z m -53.1543,17.70704 c 2.9351,0 5.3125,2.37709 5.3125,5.3125 0,2.93548 -2.3775,5.34364 -5.3125,5.34374 -1.3092,-9e-5 -2.4924,-0.49796 -3.418,-1.28906 -1.1545,-0.9743 -1.9023,-2.41502 -1.9023,-4.04492 0,-1.1048 0.3376,-2.12891 0.914,-2.97852 0.1887,-0.27969 0.4035,-0.54099 0.6407,-0.77929 0.9619,-0.9664 2.2933,-1.56445 3.7656,-1.56445 z m 106.2988,0 c 1.8386,-1e-5 3.4584,0.93316 4.4121,2.35156 0.095,0.1413 0.1838,0.2869 0.2656,0.4375 0.08,0.1474 0.1511,0.29958 0.2168,0.45508 0.2715,0.6384 0.4239,1.34022 0.4239,2.07812 0,1.4702 -0.5965,2.80012 -1.5606,3.76172 -0.038,0.038 -0.084,0.067 -0.123,0.10352 -0.9508,0.90288 -2.2248,1.46864 -3.6348,1.46874 -1.3275,-9e-5 -2.5261,-0.51116 -3.457,-1.32226 -1.1403,-0.974 -1.8809,-2.40032 -1.8809,-4.01172 0,-1.4677 0.6012,-2.79661 1.5703,-3.75781 l 0.01,0 c 0.9615,-0.9642 2.2914,-1.56055 3.7617,-1.56055 l 0,-0.004 z m 35.416,0 c 2.9354,0 5.3438,2.37709 5.3438,5.3125 0,2.93529 -2.4083,5.34374 -5.3438,5.34374 -2.9353,-9e-5 -5.3128,-2.40834 -5.3125,-5.34374 0,-2.93541 2.3772,-5.3125 5.3125,-5.3125 z m -177.1504,0.0137 c 2.9365,-8e-4 5.3172,2.3799 5.3164,5.3164 -3e-4,2.9358 -2.3807,5.31526 -5.3164,5.31446 -2.935,-3e-4 -5.3143,-2.37936 -5.3144,-5.31446 -8e-4,-2.9357 2.3786,-5.3161 5.3144,-5.3164 z m -106.2715,0.01 c 2.9357,0 5.3123,2.3771 5.3126,5.3125 0,1.4782 -0.6049,2.81259 -1.5782,3.77539 -0.071,0.072 -0.1575,0.12596 -0.2324,0.19336 -0.9392,0.8462 -2.1661,1.37696 -3.5254,1.37696 -2.1615,0 -4.0158,-1.30933 -4.8457,-3.16993 -0.015,-0.034 -0.034,-0.067 -0.049,-0.10156 -0.2733,-0.6373 -0.4258,-1.33792 -0.4258,-2.07422 0,-0.9167 0.2359,-1.77885 0.6484,-2.53125 0.05,-0.091 0.1069,-0.17762 0.1621,-0.26562 0.036,-0.057 0.068,-0.11618 0.1055,-0.17188 0.8618,-1.2746 2.2636,-2.1535 3.877,-2.3125 0.1738,-0.018 0.3492,-0.0273 0.5273,-0.0273 l 0.023,0 0,-0.004 z m 318.8575,0 c 2.9353,0 5.3439,2.3772 5.3437,5.3125 0,2.9354 -2.4084,5.34375 -5.3437,5.34375 -2.9354,0 -5.3126,-2.40835 -5.3125,-5.34375 0,-2.9353 2.3771,-5.3125 5.3125,-5.3125 z m 70.9062,0 c 2.9355,0 5.3124,2.3771 5.3125,5.3125 0,1.4782 -0.6047,2.81259 -1.5781,3.77539 -0.071,0.072 -0.1575,0.12596 -0.2324,0.19336 -0.9392,0.8461 -2.1661,1.37696 -3.5254,1.37696 -2.1615,0 -4.0158,-1.30933 -4.8457,-3.16993 -0.015,-0.034 -0.034,-0.067 -0.049,-0.10156 -0.2734,-0.6373 -0.4258,-1.33792 -0.4258,-2.07422 0,-0.9167 0.2359,-1.77885 0.6484,-2.53125 0.05,-0.091 0.1068,-0.17762 0.1621,-0.26562 0.036,-0.057 0.068,-0.11618 0.1055,-0.17188 0.8619,-1.2746 2.2636,-2.1535 3.877,-2.3125 0.1738,-0.018 0.3492,-0.0273 0.5273,-0.0273 l 0.023,0 0,-0.004 z m -318.9375,0.0156 c 2.9355,0 5.3439,2.3771 5.3438,5.3125 0,2.9352 -2.4083,5.3125 -5.3438,5.3125 -2.9352,0 -5.3125,-2.3773 -5.3125,-5.3125 0,-2.9354 2.3772,-5.3125 5.3125,-5.3125 z m 10.6446,7.0625 14.1718,0 0,31.88867 -14.1718,0 0,-31.88867 z m 212.5976,0 14.1738,0 0,31.88867 -14.1738,0 0,-31.88867 z m -356.3066,2.65039 25.3047,25.30469 -7.8926,7.89257 -25.3047,-25.30468 7.8926,-7.89258 z m 513.9824,0 7.8926,7.89258 -25.3047,25.30664 -7.8926,-7.89258 25.3047,-25.30664 z m -292.3164,7.97461 c 2.9355,0 5.3124,2.3771 5.3125,5.3125 0,2.9354 -2.377,5.3125 -5.3125,5.3125 -2.9353,0 -5.3438,-2.3771 -5.3438,-5.3125 0,-2.9354 2.4085,-5.3125 5.3438,-5.3125 z m 70.8672,0 c 2.9355,0 5.3124,2.3771 5.3125,5.3125 0,2.9354 -2.377,5.3125 -5.3125,5.3125 -2.9353,0 -5.3438,-2.3771 -5.3438,-5.3125 0,-2.9354 2.4085,-5.3125 5.3438,-5.3125 z m -47.8145,12.26562 a 5.3149605,5.3149605 0 0 1 3.836,1.55469 5.3149605,5.3149605 0 0 1 0,7.51563 l -5.2618,5.26171 c -0.1158,0.1281 -0.2357,0.24894 -0.3632,0.36524 l -19.4297,19.42969 a 5.3149605,5.3149605 0 0 1 -7.5157,0 5.3149605,5.3149605 0 0 1 0,-7.51563 l 25.0547,-25.05664 a 5.3149605,5.3149605 0 0 1 3.6797,-1.55469 z m 24.5508,0 a 5.3149605,5.3149605 0 0 1 3.8379,1.55469 l 5.3477,5.34766 c 0.072,0.068 0.1393,0.13738 0.207,0.20898 l 19.5,19.5 a 5.3149605,5.3149605 0 0 1 0,7.51563 5.3149605,5.3149605 0 0 1 -7.5156,0 l -25.0567,-25.05664 a 5.3149605,5.3149605 0 0 1 0,-7.51563 5.3149605,5.3149605 0 0 1 3.6797,-1.55469 z m -207.1816,5.42383 c 2.9354,0 5.3125,2.377 5.3125,5.3125 0,2.9353 -2.3771,5.34375 -5.3125,5.34375 -2.9353,-10e-5 -5.3125,-2.40845 -5.3125,-5.34375 0,-2.9355 2.3772,-5.3125 5.3125,-5.3125 z m 248.1562,0.0137 0,0.002 c 2.0233,0 3.7805,1.13162 4.6777,2.79492 0.081,0.1507 0.156,0.30379 0.2227,0.46289 0.065,0.1541 0.1237,0.31155 0.1738,0.47265 0.1583,0.5038 0.2442,1.03941 0.2442,1.59571 0,1.7727 -0.8757,3.33207 -2.209,4.29687 -0.047,0.034 -0.085,0.077 -0.1328,0.10938 -0.8492,0.581 -1.8729,0.92187 -2.9766,0.92187 -1.1928,0 -2.2817,-0.41098 -3.168,-1.08008 -1.3072,-0.9683 -2.1699,-2.50294 -2.1699,-4.24804 0,-1.3359 0.5157,-2.54141 1.336,-3.47461 0.08,-0.093 0.1478,-0.19621 0.2343,-0.2832 0.9621,-0.96821 2.2938,-1.57032 3.7676,-1.57032 z m -106.2988,0.002 c 2.9351,0 5.3125,2.377 5.3125,5.3125 0,2.9355 -2.3775,5.34365 -5.3125,5.34375 -1.1009,0 -2.1229,-0.33792 -2.9707,-0.91602 l -0.01,0 c -1.413,-0.9544 -2.3418,-2.57165 -2.3418,-4.40625 0,-0.7401 0.1528,-1.44408 0.4258,-2.08398 0.065,-0.1541 0.136,-0.30302 0.2148,-0.44922 0,0 -2e-4,-0.01 0.01,-0.01 0.8993,-1.6561 2.6536,-2.78125 4.6719,-2.78125 l 0,-0.01 z m 141.7148,0 c 2.9354,0 5.3438,2.377 5.3438,5.3125 0,2.9352 -2.4083,5.34375 -5.3438,5.34375 -2.9353,-10e-5 -5.3128,-2.40855 -5.3125,-5.34375 0,-2.9355 2.3772,-5.3125 5.3125,-5.3125 z m -177.1504,0.0176 c 2.9365,-8e-4 5.3172,2.376 5.3164,5.3125 -3e-4,2.9358 -2.3807,5.31721 -5.3164,5.31641 -2.935,-3e-4 -5.3143,-2.38141 -5.3144,-5.31641 -8e-4,-2.9357 2.3786,-5.3122 5.3144,-5.3125 z m 212.586,0.0137 c 2.9353,0 5.3439,2.3771 5.3437,5.3125 0,2.9353 -2.4084,5.34179 -5.3437,5.34179 -2.9354,0 -5.3126,-2.40649 -5.3125,-5.34179 0,-2.9354 2.3771,-5.3125 5.3125,-5.3125 z m -283.4473,0.01 c 2.9357,0 5.3125,2.3771 5.3125,5.3125 0,2.9352 -2.3768,5.3125 -5.3125,5.3125 -2.935,0 -5.3125,-2.3773 -5.3125,-5.3125 0,-2.9354 2.3775,-5.3125 5.3125,-5.3125 z m 35.4336,0 c 2.935,2e-4 5.3142,2.37945 5.3145,5.31445 -3e-4,2.935 -2.3795,5.31416 -5.3145,5.31446 -2.9357,8e-4 -5.316,-2.37876 -5.3164,-5.31446 4e-4,-2.9357 2.3807,-5.31525 5.3164,-5.31445 z m 283.4629,0 c 2.9351,0 5.3125,2.3771 5.3125,5.3125 0,2.9352 -2.3775,5.3125 -5.3125,5.3125 -2.9357,0 -5.3125,-2.3773 -5.3125,-5.3125 0,-2.9354 2.3768,-5.3125 5.3125,-5.3125 z m 35.4336,0 c 2.9353,0 5.3125,2.3771 5.3125,5.3125 0,2.9353 -2.3772,5.3125 -5.3125,5.3125 -2.9354,0 -5.3125,-2.3772 -5.3125,-5.3125 0,-2.9354 2.3771,-5.3125 5.3125,-5.3125 z m -194.8789,17.68945 c 2.9355,0 5.3124,2.3771 5.3125,5.3125 0,2.9354 -2.377,5.3125 -5.3125,5.3125 -2.9353,0 -5.3438,-2.3771 -5.3438,-5.3125 0,-2.9354 2.4085,-5.3125 5.3438,-5.3125 z m -206.7793,6.70118 25.3047,25.30664 -7.8926,7.89258 -25.3047,-25.30665 7.8926,-7.89257 z m 413.5527,0 7.8926,7.89257 -25.3047,25.30665 -7.8926,-7.89454 25.3047,-25.30468 z m -224.4961,11.0039 0,0.004 c 2.9353,0 5.3125,2.3772 5.3125,5.3125 0,0.1876 -0.01,0.37199 -0.029,0.55469 -0.018,0.1735 -0.044,0.34537 -0.078,0.51367 -0.2029,1.0055 -0.6957,1.90293 -1.3789,2.61523 -0.026,0.027 -0.044,0.0599 -0.07,0.0859 -0.014,0.014 -0.031,0.0241 -0.045,0.0371 -0.9576,0.9437 -2.2651,1.5332 -3.7109,1.5332 -1.2445,0 -2.3741,-0.45153 -3.2793,-1.17383 -1.231,-0.9727 -2.0353,-2.46249 -2.0352,-4.15429 0,-0.1876 0.01,-0.37219 0.029,-0.55469 0.017,-0.1741 0.044,-0.34694 0.078,-0.51562 0.4885,-2.43011 2.6325,-4.25782 5.2071,-4.25782 z m 35.4336,0 0,0.004 c 2.5743,0 4.7185,1.82771 5.2071,4.25781 0.034,0.1674 0.061,0.33892 0.078,0.51172 0.019,0.1825 0.029,0.36709 0.029,0.55469 0,1.6918 -0.8041,3.18159 -2.0352,4.15429 -0.9052,0.7223 -2.0349,1.17383 -3.2793,1.17383 -1.4459,0 -2.7533,-0.5895 -3.7109,-1.5332 -0.04,-0.039 -0.076,-0.082 -0.1153,-0.12305 -0.6833,-0.7123 -1.1761,-1.60973 -1.3789,-2.61523 -0.034,-0.1699 -0.061,-0.34218 -0.078,-0.51758 -0.019,-0.1827 -0.029,-0.36709 -0.029,-0.55469 0,-2.9353 2.3768,-5.3125 5.3125,-5.3125 z m 35.4434,0.002 -0.01,0.002 c 2.2067,0 4.0975,1.34361 4.9004,3.25781 0.065,0.1541 0.1237,0.31156 0.1738,0.47266 0.1583,0.5038 0.2441,1.0394 0.2441,1.5957 0,1.8346 -0.9287,3.45185 -2.3418,4.40625 -0.8478,0.5781 -1.87,0.91797 -2.9707,0.91797 -1.1008,0 -2.1229,-0.33977 -2.9707,-0.91797 -0.017,-0.012 -0.032,-0.0271 -0.049,-0.0391 -1.3932,-0.9587 -2.3144,-2.55499 -2.3144,-4.36719 0,-1.2728 0.4704,-2.42524 1.2226,-3.33984 0.9737,-1.2037 2.4453,-1.98828 4.1153,-1.98828 z m -106.3086,0.002 c 2.9351,0 5.3125,2.3772 5.3125,5.3125 0,2.9356 -2.3775,5.34365 -5.3125,5.34375 -1.0614,0 -2.0477,-0.31868 -2.877,-0.85938 -0.031,-0.02 -0.063,-0.0376 -0.094,-0.0586 -1.4171,-0.9537 -2.3496,-2.57246 -2.3496,-4.41016 0,-0.7401 0.1528,-1.44408 0.4258,-2.08398 0.065,-0.1535 0.1363,-0.30352 0.2148,-0.44922 0.8971,-1.6632 2.6542,-2.79297 4.6778,-2.79297 l 0,-0.002 z m 141.7148,0 c 2.9354,0 5.3438,2.3772 5.3438,5.3125 0,2.9354 -2.4083,5.34375 -5.3438,5.34375 -2.9353,-10e-5 -5.3128,-2.40835 -5.3125,-5.34375 0,-2.9353 2.3772,-5.3125 5.3125,-5.3125 z m -177.1504,0.0156 c 2.9365,-8e-4 5.3172,2.37991 5.3164,5.31641 -3e-4,2.9357 -2.3807,5.31525 -5.3164,5.31445 -2.935,-2e-4 -5.3143,-2.37945 -5.3144,-5.31445 -8e-4,-2.9358 2.3786,-5.31611 5.3144,-5.31641 z m 212.586,0 c 2.9353,0 5.3439,2.3771 5.3437,5.3125 0,2.9353 -2.4084,5.34375 -5.3437,5.34375 -2.9354,0 -5.3126,-2.40845 -5.3125,-5.34375 0,-2.9354 2.3771,-5.3125 5.3125,-5.3125 z m -283.4473,0.0195 c 2.9353,0 5.3125,2.37681 5.3125,5.3125 0,2.93531 -2.3772,5.3125 -5.3125,5.3125 -2.9354,0 -5.3125,-2.37719 -5.3125,-5.3125 0,-2.93569 2.3771,-5.3125 5.3125,-5.3125 z m 35.4316,0 c 2.9354,0 5.3125,2.37681 5.3125,5.3125 0,2.93531 -2.3771,5.3125 -5.3125,5.3125 -2.9354,0 -5.3125,-2.37719 -5.3125,-5.3125 0,-2.93569 2.3771,-5.3125 5.3125,-5.3125 z m 283.4649,0 c 2.9352,0 5.3125,2.37681 5.3125,5.3125 0,2.93531 -2.3773,5.3125 -5.3125,5.3125 -2.9354,0 -5.3125,-2.37719 -5.3125,-5.3125 0,-2.93569 2.377,-5.3125 5.3125,-5.3125 z m -318.8965,35.4336 c 2.9353,0 5.3125,2.3771 5.3125,5.3125 0,2.9353 -2.3772,5.3125 -5.3125,5.3125 -2.9355,0 -5.3125,-2.3772 -5.3125,-5.3125 0,-2.9354 2.377,-5.3125 5.3125,-5.3125 z m 318.8965,0 c 2.9351,0 5.3125,2.3771 5.3125,5.3125 0,2.9353 -2.3774,5.3125 -5.3125,5.3125 -2.9357,0 -5.3125,-2.3772 -5.3125,-5.3125 0,-2.9354 2.3768,-5.3125 5.3125,-5.3125 z m -283.75,6.80469 35.7871,0 0,11.16211 -35.7871,0 0,-11.16211 z m 70.8672,0 35.7871,0 0,11.16211 -35.7871,0 0,-11.16211 z m 70.8652,0 35.7871,0 0,11.16211 -35.7871,0 0,-11.16211 z m 70.8691,0 35.7872,0 0,11.16211 -35.7872,0 0,-11.16211 z"
         style="display:inline;fill:#007f00;fill-opacity:0.40375588;stroke:none"
         inkscape:connector-curvature="0" />
      <path
         sodipodi:nodetypes="cc"
         inkscape:connector-curvature="0"
         id="path6756-0"
         d="m 2194.9116,-201.97805 496.063,0"
         style="fill:none;fill-rule:evenodd;stroke:#000000;stroke-width:1px;stroke-linecap:butt;stroke-linejoin:miter;stroke-opacity:1" />
      <path
         inkscape:connector-curvature="0"
         id="path6758-0"
         d="m 2687.4313,-414.57647 -488.9764,0"
         style="fill:none;fill-rule:evenodd;stroke:#000000;stroke-width:1px;stroke-linecap:butt;stroke-linejoin:miter;stroke-opacity:1" />
    </g>
    <path
       style="display:inline;opacity:1;fill:#007f00;fill-opacity:0.40375588;stroke:none;stroke-width:1.77165353;stroke-miterlimit:5.49979877;stroke-dasharray:none;stroke-opacity:1"
       d="m -1499.4279,2.9715872 c -7.0866,0 -14.1738,7.0852608 -14.1738,14.1718808 l 0,255.119142 c 0,7.08662 7.0872,14.17188 14.1738,14.17188 l 184.2519,0 c 7.0867,0 14.1739,-7.08526 14.1739,-14.17188 l 0,-255.119142 c 0,-7.08662 -7.0872,-14.1718808 -14.1739,-14.1718808 l -184.2519,0 z m 3.5527,12.3867208 c 2.9354,-2e-5 5.3126,2.40847 5.3125,5.34375 0,2.93542 -2.3771,5.31251 -5.3125,5.3125 -2.9353,0 -5.3437,-2.37707 -5.3437,-5.3125 0,-2.93526 2.4084,-5.34376 5.3437,-5.34375 z m 35.4336,0 c 2.9354,-2e-5 5.3126,2.40847 5.3125,5.34375 0,2.93542 -2.3771,5.31251 -5.3125,5.3125 -2.9353,0 -5.3437,-2.37707 -5.3437,-5.3125 0,-2.93526 2.4084,-5.34376 5.3437,-5.34375 z m 35.4336,0 c 2.9354,-2e-5 5.3126,2.40847 5.3125,5.34375 0,2.93542 -2.3771,5.31251 -5.3125,5.3125 -2.9353,0 -5.3437,-2.37707 -5.3437,-5.3125 0,-2.93526 2.4084,-5.34376 5.3437,-5.34375 z m 35.4024,0.01 c 2.9351,10e-6 5.3437,2.40844 5.3437,5.34375 0,2.93538 -2.4085,5.3125 -5.3437,5.3125 -2.9356,-10e-6 -5.3125,-2.37711 -5.3125,-5.3125 -10e-5,-2.93531 2.377,-5.34375 5.3125,-5.34375 z m 35.4336,0 c 2.9353,10e-6 5.3439,2.40844 5.3437,5.34375 0,2.93538 -2.4084,5.3125 -5.3437,5.3125 -2.9354,-10e-6 -5.3125,-2.37711 -5.3125,-5.3125 0,-2.93531 2.3771,-5.34375 5.3125,-5.34375 z m 35.4335,0 c 2.9353,10e-6 5.3438,2.40844 5.3438,5.34375 0,2.93538 -2.4085,5.3125 -5.3438,5.3125 -2.9354,-10e-6 -5.3125,-2.37711 -5.3125,-5.3125 -10e-5,-2.93531 2.3771,-5.34375 5.3125,-5.34375 z m -180.6523,35.46484 c 2.9353,0 5.3125,2.3771 5.3125,5.3125 0,2.93531 -2.3774,5.3125 -5.3125,5.3125 -2.9356,0 -5.3125,-2.37719 -5.3125,-5.3125 0,-2.9354 2.377,-5.3125 5.3125,-5.3125 z m 184.168,0 c 2.9355,0 5.3126,2.3771 5.3125,5.3125 0,2.93531 -2.3768,5.3125 -5.3125,5.3125 -2.9352,0 -5.3124,-2.37719 -5.3125,-5.3125 0,-2.9354 2.3771,-5.3125 5.3125,-5.3125 z m 0.022,35.40039 c 2.9353,0 5.3437,2.40835 5.3437,5.34375 0,2.9353 -2.4084,5.3125 -5.3437,5.3125 -2.9357,0 -5.3125,-2.3772 -5.3125,-5.3125 0,-2.9354 2.3768,-5.34375 5.3125,-5.34375 z m -184.2149,0.0117 c 2.9356,0 5.3126,2.40835 5.3125,5.34375 0,2.9354 -2.3771,5.3125 -5.3125,5.3125 -2.9352,0 -5.3124,-2.3771 -5.3125,-5.3125 0,-2.9354 2.3773,-5.34375 5.3125,-5.34375 z m 184.2149,35.431642 c 2.9353,0 5.3437,2.37711 5.3437,5.3125 0,2.93539 -2.4084,5.3125 -5.3437,5.3125 -2.9357,0 -5.3125,-2.37711 -5.3125,-5.3125 0,-2.9354 2.3768,-5.3125 5.3125,-5.3125 z m -184.2149,0.002 c 2.9356,0 5.3126,2.40835 5.3125,5.34375 0,2.9354 -2.3771,5.3125 -5.3125,5.3125 -2.9352,0 -5.3124,-2.3771 -5.3125,-5.3125 0,-2.9354 2.3773,-5.34375 5.3125,-5.34375 z m 0,35.43359 c 2.9356,0 5.3126,2.40835 5.3125,5.34375 0,2.9354 -2.3771,5.3125 -5.3125,5.3125 -2.9352,0 -5.3124,-2.37711 -5.3125,-5.3125 0,-2.93541 2.3773,-5.34375 5.3125,-5.34375 z m 184.2305,0.002 c 2.9357,0 5.3123,2.3771 5.3125,5.3125 0,2.9353 -2.3766,5.3125 -5.3125,5.3125 -2.9349,0 -5.3127,-2.3772 -5.3125,-5.3125 0,-2.9354 2.3774,-5.3125 5.3125,-5.3125 z m -0.01,35.43164 c 2.7519,0 5.0406,2.10144 5.3125,4.78125 0.018,0.1787 0,0.34775 0,0.53125 0,2.9353 -2.3771,5.3125 -5.3125,5.3125 -2.9352,0 -5.3125,-2.3772 -5.3125,-5.3125 0,-2.93541 2.3773,-5.3125 5.3125,-5.3125 z m -184.2305,0.0117 c 2.9354,0 5.3125,2.37709 5.3125,5.3125 0,2.93529 -2.3771,5.3125 -5.3125,5.3125 -2.9354,0 -5.3125,-2.37721 -5.3125,-5.3125 0,-0.18351 -0.018,-0.35254 0,-0.53125 0.2719,-2.6798 2.5606,-4.78126 5.3125,-4.78125 z m 184.2266,35.39649 c 2.9353,0 5.3438,2.3771 5.3438,5.3125 0,2.9353 -2.4085,5.34375 -5.3438,5.34375 -2.9352,0 -5.3126,-2.40845 -5.3125,-5.34375 0,-2.9354 2.3773,-5.3125 5.3125,-5.3125 z m -184.2363,0.0156 c 2.9357,-8e-4 5.3161,2.37875 5.3164,5.31445 -6e-4,2.9358 -2.3807,5.31526 -5.3164,5.31446 -2.935,-3e-4 -5.3142,-2.37946 -5.3145,-5.31446 3e-4,-2.935 2.3795,-5.31425 5.3145,-5.31445 z m 38.9902,35.42188 c 2.9354,0 5.3125,2.3771 5.3125,5.3125 0,2.9355 -2.377,5.34365 -5.3125,5.34375 -2.9353,-10e-5 -5.3125,-2.40835 -5.3125,-5.34375 0,-2.9354 2.3772,-5.3125 5.3125,-5.3125 z m 35.4336,0 c 2.9352,0 5.3125,2.3771 5.3125,5.3125 0,2.9355 -2.3773,5.34365 -5.3125,5.34375 -2.9356,-10e-5 -5.3125,-2.40835 -5.3125,-5.34375 0,-2.9354 2.3769,-5.3125 5.3125,-5.3125 z m 35.416,0 c 2.9353,0 5.3438,2.3771 5.3438,5.3125 0,2.9353 -2.4085,5.34375 -5.3438,5.34375 -2.9354,-10e-5 -5.3126,-2.40835 -5.3125,-5.34375 0,-2.9354 2.3771,-5.3125 5.3125,-5.3125 z m 35.4336,0 c 2.9353,0 5.3438,2.3771 5.3438,5.3125 0,2.9353 -2.4085,5.34375 -5.3438,5.34375 -2.9354,-10e-5 -5.3126,-2.40835 -5.3125,-5.34375 0,-2.9354 2.3771,-5.3125 5.3125,-5.3125 z m 35.4336,0 c 2.9354,0 5.3438,2.3771 5.3438,5.3125 0,2.9353 -2.4083,5.34375 -5.3438,5.34375 -2.9353,-10e-5 -5.3128,-2.40835 -5.3125,-5.34375 0,-2.9354 2.3772,-5.3125 5.3125,-5.3125 z m -177.1504,0.0156 c 2.9365,-8e-4 5.3172,2.37991 5.3164,5.31641 -3e-4,2.93575 -2.3807,5.31525 -5.3164,5.31445 -2.935,-2.5e-4 -5.3142,-2.37944 -5.3144,-5.31445 -9e-4,-2.93575 2.3786,-5.31616 5.3144,-5.31641 z"
       id="path5068"
       inkscape:connector-curvature="0"
       transform="translate(4307.3339,-541.56367)" />
  </g>
</svg>
